<?xml version="1.0" encoding="UTF-8" standalone="no"?>
<svg
   xmlns:dc="http://purl.org/dc/elements/1.1/"
   xmlns:cc="http://creativecommons.org/ns#"
   xmlns:rdf="http://www.w3.org/1999/02/22-rdf-syntax-ns#"
   xmlns:svg="http://www.w3.org/2000/svg"
   xmlns="http://www.w3.org/2000/svg"
   version="1.1"
   id="svg2"
   viewBox="0 0 1035.5399 1052.4815"
   >
  <defs
     id="defs4" />
  <metadata
     id="metadata7">
    <rdf:RDF>
      <cc:Work
         rdf:about="">
        <dc:format>image/svg+xml</dc:format>
        <dc:type
           rdf:resource="http://purl.org/dc/dcmitype/StillImage" />
        <dc:title></dc:title>
      </cc:Work>
    </rdf:RDF>
  </metadata>
  <g
     id="layer1">
    <path
       id="path4594"
       d="M 828.95312 205.73242 C 820.97334 205.7371 812.78289 206.08579 806.97852 206.77734 C 781.45742 209.81803 762.96029 214.36059 710.67969 230.43164 C 641.76493 251.616 596.49136 269.80692 555.64844 292.7207 C 515.65855 315.15605 472.56963 337.26194 394.13672 375.58008 C 348.19337 398.02556 294.66585 424.72267 274.80273 435.09961 C 197.19421 475.64407 134.57574 514.12902 98.511719 543.44922 C 87.531718 552.37601 69.773515 569.91968 62.693359 578.83398 C 45.612555 600.33976 34.894025 623.20132 31.421875 645.52734 C 30.015265 654.57208 30.040209 671.19297 31.474609 680.60547 C 34.454969 700.16209 42.564808 722.22072 54.582031 743.45508 C 64.370814 760.75181 88.499076 793.68935 97.486328 802.02539 C 100.22567 804.56624 109.68813 810.16389 119.8457 815.25195 C 157.23813 833.98234 199.56811 843.79727 255.125 846.61523 C 263.7927 847.05494 296.13763 846.35478 307.58789 845.48047 C 362.56908 841.28204 389.1955 834.03964 466.50586 802.25391 C 479.45993 796.92793 494.35044 790.89111 499.59766 788.83789 C 536.84904 774.2616 557.75161 761.72825 611.99609 721.44141 C 645.18207 696.79445 652.50703 691.70619 669.27344 681.65234 C 689.46068 669.54724 715.13413 656.57901 756.29492 637.69531 C 785.68262 624.21284 817.57928 608.36828 831.95117 600.11523 C 868.73888 578.99002 901.03786 555.90962 932.19531 528.48242 C 974.57304 491.17824 998.43826 452.38571 1004.416 411.08984 C 1005.5359 403.35322 1005.3562 384.20012 1004.0801 375.31445 C 1002.6268 365.1945 999.13234 351.5967 995.41016 341.58008 C 984.65867 312.64725 962.96242 279.79059 938.22852 254.98633 C 910.08578 226.76349 881.38554 211.13345 849.66211 206.75195 C 844.70065 206.0667 836.93291 205.72775 828.95312 205.73242 z M 831.12695 220.00195 C 849.43116 220.00214 851.2404 220.098 857.06445 221.37109 C 873.36721 224.93475 887.84265 231.84174 903.57422 243.56641 C 915.52148 252.47061 929.39333 265.04727 939.05859 275.74023 C 967.87076 307.6158 985.27666 341.37117 990.3125 375.13477 C 997.52909 423.51967 976.20907 470.54186 926.82422 515.16602 C 903.68871 536.07127 869.56059 561.01207 839.77344 578.7793 C 811.03706 595.9198 787.11412 608.39002 742.58008 629.44727 C 702.86771 648.22468 675.08092 663.42593 644.77734 682.94922 C 626.75088 694.56292 614.03964 703.72209 582.45312 727.85547 C 554.12292 749.50096 535.51424 760.2138 505.26367 772.29492 C 476.03916 783.96623 425.83534 802.68713 403.89648 810.09375 C 371.65245 820.97936 343.98705 827.17989 312.36719 830.61133 C 303.85559 831.535 261.3044 832.27318 250.6543 831.68164 C 193.08378 828.48372 146.19931 816.21063 111.63477 795.29102 C 106.395 792.11973 105.36924 791.1761 100.07031 784.65625 C 67.649147 744.76481 50.418536 710.90949 45.84375 678.10938 C 44.07336 665.41624 44.852139 647.75085 47.693359 636.18359 C 53.168101 613.89447 66.470608 591.86834 86.818359 571.39844 C 105.20396 552.90246 126.53169 537.07807 167.47266 511.55664 C 235.70937 469.01982 280.57502 445.10095 406.87695 383.92188 C 480.65403 348.18518 518.19887 329.01368 563.01953 304.19336 C 588.52078 290.07155 603.87543 283.52909 656.41797 264.40039 C 738.05389 234.67992 769.33083 225.4437 803.10156 221.08008 C 809.68217 220.22978 815.61552 220.00178 831.12695 220.00195 z M 817.51367 272.85938 C 813.11614 272.841 808.51157 272.86616 803.69922 272.93555 C 754.00162 273.65214 725.98118 277.72336 663.21289 293.3457 C 626.94841 302.37153 609.16596 307.83526 588.14453 316.41406 C 556.63868 329.27153 546.37568 332.25825 529.11328 333.5918 C 519.76966 334.31362 516.82322 334.93751 515.09766 336.55859 C 512.45017 339.04575 512.40571 343.75336 515.00391 346.35156 C 516.3407 347.68834 516.48504 347.69713 540.17188 348.07227 C 581.3143 348.7239 605.98649 350.88678 680.56836 360.38086 C 730.21755 366.70108 755.08065 369.47563 776.56836 371.09375 C 786.61726 371.85048 808.76105 371.41035 820.0957 370.22852 C 851.14104 366.9915 883.42052 358.88979 924.67773 343.98047 C 935.07092 340.22462 940.66639 337.89803 941.64062 336.92383 C 942.67345 335.89099 943.17668 334.59461 943.38281 332.44922 C 943.65472 329.61935 943.542 329.29783 941.57227 327.32812 C 940.1678 325.92361 938.90709 325.22174 937.77148 325.21094 C 936.83682 325.20208 934.29404 324.43501 932.12109 323.50781 C 924.75954 320.36663 919.47071 316.06318 904.47852 301.00586 C 889.80021 286.26386 885.93909 283.10475 878.30469 279.59961 C 868.85325 275.26026 848.29637 272.98801 817.51367 272.85938 z M 799.08594 285.9707 C 803.53289 285.94304 808.1231 285.98013 812.94141 286.07031 C 838.77603 286.55382 858.86513 288.07025 866.57227 290.11914 C 871.77024 291.50098 878.58454 294.92983 883.54102 298.6582 C 885.47629 300.11392 892.98897 307.1724 900.23633 314.34375 C 907.48375 321.51511 914.71336 328.30253 916.30273 329.42773 L 919.19336 331.47461 L 917.49609 332.20703 C 914.49952 333.50285 891.02904 341.14354 882.39062 343.63477 C 855.70655 351.33016 831.96498 355.73288 808.16992 357.40234 C 800.23744 357.95888 784.41682 358.0836 778.6543 357.63477 C 777.3425 357.5326 772.11058 357.15993 767.02734 356.80664 C 747.08642 355.42074 726.44306 353.10416 671.62305 346.09766 C 632.82833 341.13933 611.99244 338.78487 592.31836 337.13867 C 584.28355 336.46636 577.48399 335.85023 577.20703 335.76953 C 576.5578 335.58041 611.20519 321.63795 618.25781 319.25 C 631.4811 314.77271 671.06275 304.73647 696.66602 299.36914 C 743.78935 289.49049 767.95728 286.16436 799.08594 285.9707 z M 557.25 414.25391 C 538.86098 414.19163 520.41664 415.05359 499.30078 416.79102 C 447.84788 421.02459 399.10893 429.31578 304.61719 449.91406 C 286.57987 453.84601 268.75463 457.70608 265.00781 458.49219 C 259.88195 459.56762 257.84808 460.26911 256.79102 461.32617 C 254.85961 463.25757 254.43343 466.42821 255.73633 469.17383 C 257.43123 472.74559 258.76586 473.10362 270.44922 473.10352 C 276.12266 473.10347 296.32845 473.53231 315.34961 474.05664 C 357.07348 475.20676 386.42342 474.91939 407.47461 473.15625 C 415.50941 472.4833 429.05921 471.34193 437.58594 470.62109 C 458.33529 468.86699 492.51495 468.71933 508.24414 470.31445 C 532.38934 472.76304 550.81032 475.7067 596.49219 484.41992 C 663.84041 497.26573 701.09129 502.16857 752.12109 504.9043 C 760.57424 505.35748 793.31878 505.22135 801.3125 504.69922 C 824.98545 503.15298 845.32439 499.43255 861.94531 493.60938 C 875.3414 488.91604 894.12474 478.70738 896.04492 475.07617 C 896.70005 473.83715 898.17437 472.88247 901.71094 471.41211 C 907.90773 468.83573 909.53711 467.23492 909.53711 463.71875 C 909.53711 461.47248 909.21083 460.73234 907.45117 458.97266 C 905.53462 457.05613 905.13838 456.90871 902.5332 457.1543 C 900.97436 457.30126 897.50125 458.41284 894.81641 459.62305 C 884.59888 464.22859 871.53746 466.35977 857.36328 465.73438 C 838.97101 464.92286 821.66395 461.04561 785.21289 449.57227 C 738.89695 434.99387 692.99325 425.79734 633.46094 419.16992 C 604.4427 415.93947 580.89302 414.33398 557.25 414.25391 z M 562.27148 428.96875 C 576.11247 428.96794 589.71266 429.1664 596.49219 429.56445 C 654.44992 432.96733 715.03225 444.00104 789.68555 464.74805 C 814.50847 471.64661 820.15447 473.08851 830.38477 475.14062 C 838.99479 476.86775 850.94467 478.44932 855.85547 478.51172 C 862.32922 478.594 862.07868 479.31954 854.75977 481.69141 C 842.39464 485.69867 829.86167 488.30096 813.89844 490.17773 C 804.76846 491.25113 753.5078 491.80429 740.19531 490.97266 C 699.99123 488.4611 668.42313 484.03291 593.81055 470.43945 C 536.15107 459.93463 516.60475 457.29621 485.20312 455.7793 C 467.07344 454.90351 453.40073 455.44688 416.41797 458.50977 C 406.74342 459.31101 394.80208 460.25146 389.88281 460.60156 C 380.02198 461.30329 326.07037 461.38195 322.89453 460.69922 C 321.30225 460.35692 325.15932 459.39369 341.97461 455.93164 C 418.46993 440.18221 473.69038 432.29715 526.61328 429.56836 C 534.35007 429.16954 548.4305 428.96956 562.27148 428.96875 z M 356.78516 519.04102 C 348.31482 519.03737 339.93473 519.22794 334.96289 519.61719 C 260.56023 525.44214 187.21669 560.29735 115.89453 623.72461 C 99.84874 637.99424 87.884917 649.62162 87.525391 651.29492 C 87.338209 652.16614 86.668358 653.85439 86.037109 655.04688 C 84.399709 658.14007 84.53551 661.60805 86.378906 663.79883 C 88.622132 666.46477 89.994831 666.52363 96.896484 664.24414 C 109.76477 659.99389 124.03877 658.16357 139.74609 658.75 C 164.09976 659.65926 183.07972 663.47115 226.20703 676.11719 C 270.7857 689.18872 294.98845 695.01795 320.11914 698.73047 C 330.37611 700.24573 346.56357 701.88465 355.29883 702.29297 C 364.66847 702.73094 385.30606 702.01092 396.74023 700.84766 C 486.868 691.67825 582.58254 659.40554 663.51367 610.89648 C 667.80977 608.32147 672.85064 605.77813 674.71484 605.24414 C 679.06329 603.9986 680.56836 602.20079 680.56836 598.25 C 680.56836 595.92944 680.24039 594.99098 678.9082 593.5 C 676.87865 591.22859 675.11714 591.1414 668.34375 592.97266 C 661.58235 594.80068 644.26922 595.28417 634.88672 593.9082 C 615.42282 591.0538 598.34058 585.28873 558.33203 568.07422 C 491.10729 539.14938 433.86111 523.67499 379.15039 519.63672 C 373.81674 519.24305 365.25549 519.04466 356.78516 519.04102 z M 363.64844 533.13477 C 393.98696 533.116 418.5076 536.36078 450.78711 544.66602 C 480.31733 552.26389 507.69266 561.867 564.54102 584.57227 C 601.07299 599.16316 615.59162 603.85198 633.29688 606.77148 C 641.13693 608.06428 641.17422 608.07711 639.54102 609.07031 C 635.01106 611.82514 616.97408 621.23501 606.90234 626.09766 C 531.76509 662.37399 453.41635 683.86034 377.76172 688.9375 C 359.41524 690.16875 339.54384 688.96932 318.21484 685.3457 C 298.35775 681.97221 282.85941 678.13058 241.375 666.29297 C 191.39979 652.0325 174.07527 648.16759 150.2832 645.97266 C 143.00771 645.30147 119.09463 645.54402 113.21289 646.34961 L 110.82617 646.67773 L 113.5918 644.11328 C 175.05265 587.11192 238.68528 551.83404 303.125 539.03516 C 325.74052 534.54331 340.03725 533.14937 363.64844 533.13477 z "
       style="fill:#000000" />
  </g>
</svg>
