<?xml version="1.0" encoding="UTF-8" standalone="no"?>
<svg
   xmlns:dc="http://purl.org/dc/elements/1.1/"
   xmlns:cc="http://creativecommons.org/ns#"
   xmlns:rdf="http://www.w3.org/1999/02/22-rdf-syntax-ns#"
   xmlns:svg="http://www.w3.org/2000/svg"
   xmlns="http://www.w3.org/2000/svg"
   viewBox="0 0 1035.5399 1052.4815"
   id="svg2"
   version="1.1">
  <defs
     id="defs4" />
  <g
     transform="matrix(2.1267949,0,0,2.1267949,-300.42677,-161.00256)"
     id="layer1">
    <g
       id="layer1-4">
      <path
         style="fill:#000000"
         d="m 500.89258,131.18164 c -0.83991,0.0224 -1.69694,0.45106 -2.29102,1.37305 -0.4784,0.7425 -2.24252,4.80436 -3.91992,9.02539 -13.8869,34.94444 -27.85901,63.17235 -47.47852,95.92773 -13.06639,21.81472 -19.54151,31.02319 -25.99804,36.97461 -2.36084,2.17615 -3.10268,2.52344 -5.41016,2.52344 -11.74581,0 -29.75019,8.3127 -45.69336,21.09766 -11.56596,9.27483 -32.58589,31.45143 -65.02344,68.60156 -30.45055,34.87445 -40.50197,47.56802 -73.40429,92.69922 -5.17251,7.095 -12.28007,16.68078 -15.79297,21.30078 -11.30387,14.86629 -20.03711,28.63551 -20.03711,31.58789 0,0.80978 0.3375,1.81917 0.75,2.24219 1.23608,1.26763 4.47741,0.43662 12.61328,-3.22852 20.09403,-9.0522 39.99614,-21.93884 78.49805,-50.83008 14.65061,-10.99361 33.38867,-24.78682 41.63867,-30.65039 37.07137,-26.34797 65.90144,-48.79737 87.51953,-68.14844 16.81904,-15.05528 28.16741,-30.7212 31.33594,-43.25781 1.3599,-5.38038 0.90423,-16.28608 -0.88867,-21.27539 l -1.2793,-3.5625 1.65625,-1.75586 c 4.8533,-5.14735 18.34219,-15.36469 38.55469,-29.20312 6.435,-4.40571 14.80656,-10.30894 18.60156,-13.11914 11.5595,-8.55984 36.65829,-28.8943 51.65039,-41.84571 3.4928,-3.01741 8.51928,-7.00847 11.17188,-8.86718 6.0233,-4.22067 6.3647,-4.61693 5.625,-6.5625 -1.675,-4.40564 -5.25763,-2.2824 -25.54883,15.14062 -10.3945,8.92515 -22.21421,18.49639 -38.09961,30.84961 -7.022,5.46058 -12.70111,9.50261 -35.09961,24.98437 -11.9832,8.28271 -22.00898,15.92798 -27.23828,20.76954 -3.63386,3.36435 -4.42163,3.84747 -5.20508,3.19726 -2.26822,-1.88246 -2.19449,-2.81218 0.48242,-6.10351 1.4138,-1.73829 5.40304,-7.04473 8.86524,-11.79102 9.1704,-12.57146 16.2677,-21.6028 27.91211,-35.52148 12.19669,-14.57886 14.08398,-17.09984 14.08398,-18.81836 0,-1.55217 -1.0647,-2.73047 -2.4668,-2.73047 -2.3576,0 -25.67317,28.34164 -44.73047,54.37304 -3.35289,4.57995 -7.40706,9.7806 -9.00976,11.55665 l -2.91406,3.22851 -3.78516,-1.91016 -3.78711,-1.9121 4.09766,-4.31836 c 5.98797,-6.31086 11.34998,-13.76429 18.42773,-25.61719 12.3508,-20.68358 30.6589,-55.89124 39.625,-76.20117 6.105,-13.82907 14.74219,-35.70131 14.74219,-37.33203 0,-1.83464 -1.35015,-2.92796 -2.75,-2.89063 z m 34.0293,108.02344 c -0.5935,0 -4.02651,1.78834 -7.62891,3.97461 -3.6023,2.18626 -13.45293,7.96146 -21.89063,12.83398 -24.859,14.35544 -37.23516,22.14769 -46.75976,29.43945 -8.1929,6.27217 -9.60069,8.1103 -7.67969,10.03126 0.396,0.396 1.31216,0.7207 2.03516,0.7207 1.3497,0 1.81483,-0.30708 13.67773,-8.9961 9.1698,-6.71643 17.25937,-11.76714 39.66797,-24.77343 25.1165,-14.57801 30.55701,-18.03149 30.78711,-19.53907 0.2619,-1.71575 -0.92039,-3.6914 -2.20898,-3.6914 z m -118.33985,43.35351 c 5.99037,-0.14651 13.49094,2.5638 16.99414,6.25586 1.8841,1.98567 2.12595,3.10398 1.44531,6.66211 -0.34141,1.78476 -0.26831,2.8388 0.23829,3.44922 0.88104,1.06158 3.66664,1.15758 4.66406,0.16016 1.03685,-1.03685 1.68558,-0.0847 2.45508,3.59961 2.08238,9.97036 -1.38132,21.25078 -10.17579,33.13672 -6.41165,8.66553 -21.89691,23.8246 -38.66015,37.84765 -12.49685,10.45406 -47.42758,37.11205 -48.64844,37.12696 -0.35685,0.004 -2.99567,-2.69219 -5.86328,-5.99219 -5.26177,-6.05516 -6.89666,-7.05061 -8.66797,-5.2793 -1.52358,1.52358 -0.6455,3.53233 4.14844,9.49219 2.67743,3.32861 4.76837,6.12921 4.64844,6.22461 -0.11993,0.0954 -6.56141,4.71819 -14.31641,10.27343 -7.755,5.55525 -25.57656,18.65396 -39.60156,29.10743 -28.98591,21.6045 -37.22922,27.4609 -49.33789,35.04687 -10.89311,6.82444 -29.26172,16.35192 -29.26172,15.17774 0,-1.17807 4.79061,-7.97343 20.45117,-29.01172 7.3975,-9.93775 17.42752,-23.57158 22.29102,-30.29883 11.16889,-15.44894 21.88473,-29.3028 22.99414,-29.72852 0.87741,-0.33669 1.61401,0.21141 9.58984,7.14649 4.71943,4.10361 6.6548,4.86144 8.06836,3.1582 0.4072,-0.49071 0.58374,-1.51569 0.39258,-2.27734 -0.32365,-1.28951 -7.11228,-8.25904 -11.69727,-12.00977 -1.10537,-0.90424 -1.87588,-1.97666 -1.71289,-2.38281 1.02489,-2.55391 57.40627,-67.63867 58.59375,-67.63867 0.23941,0 4.72865,4.52328 9.97656,10.05078 13.47366,14.19148 16.33471,16.94922 17.57618,16.94922 1.31585,0 3.07617,-1.81659 3.07617,-3.17383 0,-1.0378 -6.02149,-7.64202 -18.8086,-20.62891 l -7.78125,-7.90429 2.44141,-2.89649 c 4.11154,-4.87844 24.70916,-24.90653 30.75,-29.90039 14.25153,-11.7815 31.69504,-20.6638 42.5625,-21.67383 0.38431,-0.0357 0.77642,-0.0586 1.17578,-0.0684 z"
         id="path3401" />
    </g>
  </g>
</svg>
