<?xml version="1.0" encoding="UTF-8" standalone="no"?>
<svg
   xmlns:dc="http://purl.org/dc/elements/1.1/"
   xmlns:cc="http://creativecommons.org/ns#"
   xmlns:rdf="http://www.w3.org/1999/02/22-rdf-syntax-ns#"
   xmlns:svg="http://www.w3.org/2000/svg"
   xmlns="http://www.w3.org/2000/svg"
   version="1.1"
   id="svg2"
   viewBox="0 0 1035.5399 1052.4815"
   >
  <defs
     id="defs4" />
  <g
     id="layer1"
     >
    <path
       id="path3823"
       d="M 794.43359 31.828125 C 792.36161 31.854577 790.13928 32.381829 788.44141 33.404297 C 786.10066 34.81397 783.73019 34.992142 751.80859 36.132812 C 575.19891 42.443722 513.1668 46.536729 410.51562 58.654297 C 363.06219 64.256021 343.11522 67.933104 320.60547 75.232422 C 312.3105 77.922252 309.72024 79.386559 308.17188 82.261719 C 305.28323 87.625589 308.15624 95.769736 313.40039 97.085938 C 314.60362 97.387928 319.66526 96.071112 328.54883 93.144531 C 371.68547 78.933711 412.66015 72.958485 502.62891 67.759766 C 520.39078 66.733407 542.02402 65.411499 550.70312 64.822266 C 591.33086 62.064051 643.63414 59.530164 709.97266 57.107422 C 732.37683 56.289202 758.30328 55.336317 767.58789 54.988281 C 779.17118 54.554092 784.62144 54.595795 784.95312 55.121094 C 786.8814 58.175002 787.06145 104.94699 785.24805 131.61523 C 784.6167 140.89984 783.45143 157.90922 782.65625 169.41406 C 779.69809 212.21698 777.87714 314.41115 777.86914 438.04297 C 777.86326 545.14742 777.85729 544.86893 781.56445 596.10742 C 784.07277 630.77595 785.16635 660.45353 784.50586 675.91406 L 783.95508 688.82617 L 780.54297 689.99023 C 778.66625 690.63128 774.90623 691.99854 772.1875 693.02734 C 761.5044 697.07008 748.87321 698.85371 719.88086 700.41602 C 708.57786 701.02513 693.38537 702.00756 686.11914 702.59766 C 661.10089 704.62934 599.88043 707.39044 579.69531 707.39844 L 573.08984 707.39844 L 572.90039 667.58398 C 572.79682 645.68612 572.35875 603.98869 571.92578 574.92383 C 571.4929 545.85896 570.91525 506.20951 570.64258 486.8125 C 570.18967 454.58849 570.03331 451.37163 568.82617 449.5293 C 565.6871 444.73847 559.5175 443.30617 555.03125 446.32617 C 550.23445 449.55519 550.41389 446.6498 551.36719 505.87305 C 553.17109 617.94062 553.60695 651.3897 553.62305 679.23047 L 553.63867 707.93945 L 526.66602 708.42578 C 511.83084 708.69315 497.62847 709.10783 495.10547 709.3457 L 490.51758 709.77734 L 490.51758 689.95703 C 490.51758 665.63378 489.6671 644.00366 486.79883 595.47461 C 482.81753 528.10928 482.49149 521.65891 481.63672 492.99609 C 480.10131 441.50944 482.48735 358.39715 488.75977 244.77734 C 490.8459 206.98858 490.85551 207.18881 486.53906 204.55664 C 482.0669 201.82952 475.42353 203.43363 472.46094 207.95508 C 471.05613 210.09912 470.68875 215.40166 467.4375 280.23828 C 461.76776 393.30417 460.44684 483.13555 463.66211 537.125 C 464.29919 547.82249 465.80336 572.7588 467.00391 592.53906 C 470.48315 649.86321 472.34392 706.56751 470.81836 708.79492 C 470.25668 709.61498 465.24976 709.93588 445.63672 710.41016 C 430.79867 710.76899 412.34281 711.74984 398.77344 712.90039 C 367.41862 715.559 342.99398 715.52601 327.76172 712.80469 L 325.37695 712.37891 L 325.375 695.39648 C 325.37053 649.87766 321.24776 597.67171 313.22266 541.5293 C 307.6829 502.77402 300.54354 462.90483 287.92383 400.24219 C 283.45247 378.03985 276.17208 341.87354 271.74414 319.87305 C 262.09322 271.92186 256.94326 244.29227 251.97461 213.81641 C 249.93437 201.30237 247.89944 190.14183 247.45312 189.01562 C 246.31286 186.13839 244.09876 184.82422 240.39258 184.82422 C 235.15466 184.82422 231.1719 187.6697 229.92383 192.30469 C 229.29236 194.64975 229.89683 199.48231 233.5957 221.71094 C 239.4155 256.68544 243.81211 279.81299 257.14844 345.59766 C 263.24115 375.65153 270.192 410.1494 272.5957 422.25977 C 294.59863 533.11595 304.13126 606.99289 305.33594 675.98242 L 305.78125 701.44141 L 303.48242 703.37695 C 298.91829 707.21747 298.88579 714.90518 303.41797 718.71875 C 305.47766 720.45187 305.71874 721.15872 306.49805 727.76367 C 307.66197 737.62789 307.62167 817.82434 306.44336 836.40625 C 305.67929 848.45548 305.70271 850.91283 306.59766 853.05469 C 309.3396 859.61716 320.62184 859.36233 323.99414 852.66211 C 324.99826 850.66706 325.41789 846.51863 326.06836 832.17773 C 327.37488 803.37321 327.77975 767.0754 326.99414 749.24023 C 326.59408 740.15741 326.35454 732.63108 326.46094 732.51562 C 326.56734 732.40006 329.7524 732.72194 333.53906 733.23047 C 345.4709 734.833 376.67873 734.35181 404.64648 732.13477 C 439.79413 729.3485 453.84262 728.7945 510.33594 727.96289 C 621.38086 726.32791 646.22696 725.29342 721.7168 719.16797 C 753.43031 716.59475 758.05373 716.05169 769.02734 713.60938 C 773.45085 712.62484 777.3461 712.09797 777.68555 712.4375 C 778.6463 713.39818 780.98847 726.00415 781.85352 734.87305 C 782.83071 744.89136 782.86088 768.62674 781.92383 790.70898 C 781.52977 799.99358 781.08357 839.13218 780.93164 877.68359 L 780.6543 947.77734 L 783.03906 950.16211 L 783.03906 950.16406 C 785.12219 952.24742 785.90983 952.55078 789.26367 952.55078 C 793.75154 952.55078 797.31429 950.69306 798.73633 947.61328 C 800.08638 944.68968 801.08437 891.4863 800.82617 836.2168 C 800.71108 811.59245 800.90678 780.87671 801.26172 767.95898 C 801.72794 750.99099 801.66273 741.51878 801.02734 733.83008 C 800.18108 723.59056 797.97964 709.98675 796.56641 706.26953 C 795.97785 704.72154 796.17366 704.33896 798.05664 703.36523 C 801.38963 701.64166 802.44922 698.71029 803.30664 688.83594 C 804.56193 674.37874 803.61009 629.0527 801.42383 599.14844 C 798.35279 557.14194 798.08409 551.61147 797.22461 512.9082 C 796.05395 460.19187 796.84011 365.76374 799.51172 238.40625 C 800.33736 199.04684 800.99567 183.42052 803.20312 150.77148 C 806.60041 100.52506 806.69485 72.440144 803.55078 47.058594 C 802.29871 36.951024 801.82752 35.340043 799.52148 33.263672 C 798.42557 32.276874 796.50558 31.801673 794.43359 31.828125 z M 692.82227 239.36914 C 689.9023 239.51288 686.81049 241.02491 684.90625 243.69922 C 682.47192 247.11787 682.39761 251.18149 684.66211 257.11914 C 687.44829 264.42469 689.21722 273.21368 690.20117 284.64258 C 691.07686 294.81325 690.96774 299.47494 689.05078 333.45117 C 688.11902 349.9662 687.43248 378.4451 685.36719 486.11523 C 683.64847 575.72122 679.09042 629.77022 669.2168 677.67188 C 668.21919 682.51148 667.4043 687.7292 667.4043 689.26758 C 667.4043 693.34562 669.22444 696.28717 672.77344 697.94336 C 676.59245 699.72549 680.80607 699.36256 683.2793 697.03906 C 685.37592 695.0694 686.5015 691.38543 688.97266 678.41406 C 699.03366 625.60318 703.08298 576.67054 704.82422 486.84961 C 706.81606 384.10035 707.85235 335.13722 708.47461 314.36914 C 709.23147 289.10905 708.60865 274.67259 706.26562 263.17383 C 704.50909 254.55337 700.82418 244.0731 698.68555 241.61328 C 697.2597 239.9733 695.09335 239.25734 692.82227 239.36914 z M 351.63672 341.11133 C 347.89285 341.03305 344.22649 342.68578 342.92188 346.11719 C 341.44327 350.00624 356.59165 482.70814 367.9375 565.25391 C 373.69088 607.11208 387.20691 695.41319 388.99414 702.82031 C 389.21357 703.72977 390.37237 705.29862 391.57031 706.30664 C 396.67713 710.60376 406.02564 707.02564 407.28906 700.29102 C 407.59803 698.6441 406.44455 689.67409 404.01953 674.86914 C 388.84612 582.23329 374.13825 469.61638 363.50586 364.64453 C 362.58318 355.53518 361.44486 347.86055 360.8125 346.49023 C 359.20087 342.99786 355.38059 341.18961 351.63672 341.11133 z M 361.48828 989.52344 C 353.84014 989.51695 347.03753 989.96536 339.32227 990.80273 C 330.38083 991.77323 316.67728 994.64609 313.73828 996.16602 C 307.91982 999.17482 307.70727 1008.2282 313.35156 1012.668 C 315.85452 1014.6368 318.09504 1014.5972 327.95117 1012.4102 C 340.0285 1009.7308 349.19646 1008.8507 364.64453 1008.8867 C 380.39777 1008.9231 388.39177 1009.5658 417.12305 1013.1113 C 454.64281 1017.7411 472.29641 1019.1391 504.46484 1020.0293 C 550.43029 1021.3012 589.81233 1020.7181 675.47656 1017.4961 C 701.91753 1016.5017 739.90071 1015.317 759.88281 1014.8633 C 799.47628 1013.9645 798.24336 1014.124 801.01758 1009.5742 C 803.68722 1005.1959 802.13248 998.32955 797.98633 996.18555 C 794.23277 994.24452 762.76859 994.7022 669.60547 998.05273 C 597.69039 1000.639 569.09847 1001.193 530.51953 1000.75 C 482.24246 1000.1955 463.23847 999.02923 414.92188 993.6543 C 389.33298 990.80773 374.23519 989.53425 361.48828 989.52344 z "
       style="fill:#000000" />
  </g>
</svg>
