<?xml version="1.0" encoding="utf-8"?>
<!-- Generator: Adobe Illustrator 18.0.0, SVG Export Plug-In . SVG Version: 6.00 Build 0)  -->
<!DOCTYPE svg PUBLIC "-//W3C//DTD SVG 1.1//EN" "http://www.w3.org/Graphics/SVG/1.1/DTD/svg11.dtd">
<svg version="1.1" id="Layer_1" xmlns="http://www.w3.org/2000/svg" xmlns:xlink="http://www.w3.org/1999/xlink" x="0px" y="0px"
	 width="500px" height="500px" viewBox="0 0 500 500" enable-background="new 0 0 500 500" xml:space="preserve">
<g>
	<g>
		<g>
			<path d="M67.355,208.303c5.804,0,5.804-9,0-9C61.552,199.303,61.552,208.303,67.355,208.303L67.355,208.303z"/>
		</g>
	</g>
	<g>
		<g>
			<path d="M71.241,206.074c11.481-15.647,30.719-21.179,49.191-23.041c18.961-1.911,38.042-0.286,57.043-0.246
				c5.804,0.012,5.803-8.988,0-9c-38.184-0.08-88.09-7.575-114.005,27.744C60.031,206.219,67.846,210.701,71.241,206.074
				L71.241,206.074z"/>
		</g>
	</g>
	<g>
		<g>
			<path d="M65.866,212.171c21.904-8.812,44.719-11.28,68.168-10.551c23.922,0.744,47.684,3.924,71.642,3.998
				c5.805,0.018,5.803-8.982,0-9c-23.953-0.073-47.728-3.13-71.642-3.998c-24.11-0.875-48.057,1.82-70.56,10.873
				C58.16,205.63,60.478,214.339,65.866,212.171L65.866,212.171z"/>
		</g>
	</g>
	<g>
		<g>
			<path d="M201.79,203.388c9.841,15.285,14.402,33.479,26.433,47.381c10.83,12.514,26.692,19.171,40.984,26.751
				c5.124,2.717,9.671-5.051,4.542-7.771c-13.343-7.077-27.504-13.154-38.136-24.219c-12.391-12.896-16.503-31.852-26.053-46.684
				C206.432,193.985,198.638,198.492,201.79,203.388L201.79,203.388z"/>
		</g>
	</g>
	<g>
		<g>
			<path d="M269.721,267.063c-21.615-11.491-18.055-45.435-11.361-64.75c1.906-5.499-6.79-7.841-8.679-2.393
				c-8.079,23.314-9.965,61.377,15.497,74.914C270.3,277.557,274.847,269.788,269.721,267.063L269.721,267.063z"/>
		</g>
	</g>
	<g>
		<g>
			<path d="M229.709,149.943c15.403-10.094,28.527-23.857,42.412-35.863c14.917-12.899,34.915-21.927,41.866-41.715
				c1.929-5.49-6.768-7.83-8.678-2.393c-3.403,9.687-11.454,16.485-19.459,22.425c-7.079,5.254-14.242,10.26-20.918,16.033
				c-13.026,11.264-25.317,24.274-39.765,33.742C220.335,145.338,224.839,153.135,229.709,149.943L229.709,149.943z"/>
		</g>
	</g>
	<g>
		<g>
			<path d="M308.77,62.943c-9.193,35.85-46.669,58.397-49.849,96.543c-0.482,5.787,8.522,5.74,9,0
				c1.491-17.884,12.963-33.045,23.2-47.04c10.649-14.557,21.771-29.345,26.327-47.111C318.891,59.71,310.211,57.325,308.77,62.943
				L308.77,62.943z"/>
		</g>
	</g>
	<g>
		<g>
			<path d="M256.853,171.883c17.975,3.724,36.211-0.082,54.342,1.08c20.092,1.287,39.42,7.953,59.659,8.482
				c5.807,0.152,5.793-8.849,0-9c-18.993-0.496-37.399-5.784-56.178-8.146c-18.413-2.316-37.14,2.696-55.431-1.094
				C253.582,162.031,251.172,170.706,256.853,171.883L256.853,171.883z"/>
		</g>
	</g>
	<g>
		<g>
			<path d="M369.658,172.605c-23.713,8.097-48.769,7.997-73.528,8.307c-19.361,0.243-41.455-0.015-58.318,10.947
				c-4.845,3.15-0.339,10.945,4.542,7.771c16.751-10.889,39.351-9.56,58.484-9.774c23.96-0.268,48.302-0.75,71.212-8.573
				C377.511,179.419,375.166,170.724,369.658,172.605L369.658,172.605z"/>
		</g>
	</g>
	<g>
		<g>
			<path d="M162.392,51.906c3.106,14.587,10.043,28.76,16.014,42.33c6.24,14.182,12.523,28.802,20.699,42.006
				c3.048,4.923,10.836,0.407,7.771-4.542c-7.739-12.498-13.689-26.288-19.668-39.68c-6.066-13.588-13.02-27.863-16.137-42.506
				C169.862,43.839,161.187,46.246,162.392,51.906L162.392,51.906z"/>
		</g>
	</g>
	<g>
		<g>
			<path d="M162.392,51.906c8.211,39.019,12.353,78.658,15.954,118.323c0.52,5.731,9.525,5.782,9,0
				c-3.673-40.457-7.901-80.918-16.276-120.716C169.876,43.836,161.201,46.245,162.392,51.906L162.392,51.906z"/>
		</g>
	</g>
	<g>
		<g>
			<path d="M216.905,190.718c0.368-18.968-3.185-38.407-12.715-54.989c-2.89-5.029-10.668-0.498-7.771,4.542
				c8.761,15.244,11.825,33.03,11.487,50.446C207.793,196.525,216.793,196.514,216.905,190.718L216.905,190.718z"/>
		</g>
	</g>
	<g>
		<g>
			<path d="M198.961,142.5c4.938,0.508,9.891-0.005,14.625-1.504c5.512-1.745,3.156-10.435-2.393-8.679
				c-4.052,1.283-8.008,1.617-12.233,1.182c-2.445-0.252-4.5,2.237-4.5,4.5C194.461,140.643,196.522,142.249,198.961,142.5
				L198.961,142.5z"/>
		</g>
	</g>
	<g>
		<g>
			<path d="M208.051,136.51c7.468,18.237,15.43,36.285,21.487,55.06c1.774,5.5,10.466,3.147,8.679-2.393
				c-6.057-18.775-14.018-36.823-21.487-55.06C214.561,128.823,205.851,131.138,208.051,136.51L208.051,136.51z"/>
		</g>
	</g>
	<g>
		<g>
			<path d="M79.352,201.66c-3.015,9.406-8.635,17.624-11.535,27.01c-3.833,12.403-3.1,26.886-2.548,39.692
				c1.197,27.798,8.37,54.888,20.579,79.85c21.317,43.582,58.609,75.693,103.93,92.362c21.082,7.754,43.489,11.797,65.885,12.943
				c21.96,1.123,46.086,0.26,66.735-7.89c23.795-9.391,43.409-27.307,60.003-46.33c15.16-17.379,29.388-36.694,40.04-57.205
				c9.563-18.414,14.084-38.404,16.051-58.949c2.481-25.918,2.348-52.956-2.872-78.535c-4.993-24.47-16.858-48.036-36.759-63.647
				c-9.878-7.749-21.095-13.562-32.64-18.397c-12.236-5.125-25.263-10.366-38.492-12.025c-13.23-1.658-27.251,0.778-40.043-3.681
				c-5.495-1.915-7.837,6.781-2.393,8.679c11.59,4.039,24.456,2.932,36.524,3.523c13.468,0.659,26.55,5.941,38.95,10.914
				c12.008,4.815,23.847,10.941,33.935,19.108c9.911,8.025,17.387,18.532,23.008,29.898c11.461,23.176,13.285,50.135,13.105,75.562
				c-0.167,23.602-1.97,47.53-10.247,69.824c-7.376,19.868-20.337,37.772-33.065,54.5c-15.9,20.897-34.717,40.753-57.923,53.508
				c-20.428,11.228-44.366,12.756-67.242,12.371c-22.551-0.38-44.959-4.274-66.323-11.492
				c-43.904-14.834-79.472-45.471-100.846-86.513c-12.634-24.259-19.505-51.111-20.9-78.377c-0.637-12.446-1.171-26.304,2.545-38.33
				c1.146-3.709,3.184-7.086,4.95-10.52c2.55-4.958,4.567-10.156,6.267-15.459C89.808,198.51,81.117,196.156,79.352,201.66
				L79.352,201.66z"/>
		</g>
	</g>
	<g>
		<g>
			<path d="M270.094,105.302c-22.509-7.127-49.564-4.781-70.613,5.825c-5.184,2.612-0.626,10.376,4.542,7.771
				c18.931-9.54,43.506-11.305,63.678-4.918C273.251,115.737,275.606,107.047,270.094,105.302L270.094,105.302z"/>
		</g>
	</g>
	<g>
		<g>
			<path d="M176.278,120.231c-15.765,2.613-30.032,12.177-42.439,21.747c-12.364,9.538-23.987,20.362-33.876,32.472
				c-3.638,4.454,2.691,10.862,6.364,6.364c9.348-11.446,20.253-21.674,31.806-30.86c11.719-9.318,25.497-18.552,40.538-21.045
				C184.387,127.962,181.954,119.291,176.278,120.231L176.278,120.231z"/>
		</g>
	</g>
</g>
</svg>
