<?xml version="1.0" encoding="utf-8"?>
<!-- Generator: Adobe Illustrator 18.0.0, SVG Export Plug-In . SVG Version: 6.00 Build 0)  -->
<!DOCTYPE svg PUBLIC "-//W3C//DTD SVG 1.1//EN" "http://www.w3.org/Graphics/SVG/1.1/DTD/svg11.dtd">
<svg version="1.1" id="Layer_1" xmlns="http://www.w3.org/2000/svg" xmlns:xlink="http://www.w3.org/1999/xlink" x="0px" y="0px"
	 width="500px" height="500px" viewBox="0 0 500 500" enable-background="new 0 0 500 500" xml:space="preserve">
<g>
	<g>
		<g>
			<path d="M57.04,178.486c-0.632,0.32-3.707,2.554-4.164,2.481c-2.457-0.389-3.658-3.579-4.216-5.574
				c-1.194-4.268,0.098-8.563,2.5-12.093c4.918-7.229,15.929-10.419,23.955-7.59c5.488,1.935,7.827-6.762,2.393-8.679
				c-13.409-4.728-30.755,2.786-36.408,15.869c-2.873,6.65-2.592,15.865,2.113,21.655c2.049,2.521,5.862,5.69,9.397,5.398
				c3.49-0.289,5.932-2.157,8.973-3.697C66.762,183.635,62.205,175.871,57.04,178.486L57.04,178.486z"/>
		</g>
	</g>
	<g>
		<g>
			<path d="M74.65,230.175c-1.734-12.176-12.249-20.905-21.106-28.335c-7.943-6.663-20.738-15.043-21.785-26.426
				c-1.325-14.402,15.316-23.834,26.599-28.122c14.401-5.474,30.608-7.66,45.952-6.42c5.789,0.468,5.744-8.536,0-9
				c-16.163-1.306-33.134,1.206-48.345,6.742c-14.266,5.191-29.905,15.145-32.845,31.255c-2.544,13.937,8.056,24.677,17.708,32.999
				c9.271,7.993,23.267,16.524,25.143,29.701C66.787,238.294,75.458,235.849,74.65,230.175L74.65,230.175z"/>
		</g>
	</g>
	<g>
		<g>
			<path d="M431.811,264.871c0.361-3.599,0.985-7.511,5.213-6.323c3.631,1.02,7.155,4.286,9.381,7.222
				c8.647,11.405-6.028,28.095-16.995,31.268c-5.1,1.476-12.329,2.553-17.596,1.739c-1.755-0.271-1.126,0.578-0.788-0.196
				c0.877-2.008,2.38-3.736,3.79-5.381c5.294-6.173,15.37-13.39,15.494-22.33c0.08-5.807-8.92-5.799-9,0
				c-0.057,4.144-7.339,9.949-10.119,12.934c-3.954,4.246-9.069,9.279-9.307,15.451c-0.301,7.792,9.298,8.873,14.931,8.564
				c8.897-0.488,18.873-1.691,25.895-7.651c6.982-5.926,13.225-13.835,14.976-23.009c1.53-8.018-1.969-15.161-7.579-20.626
				c-4.108-4.002-10.206-7.964-16.206-7.236c-7.964,0.966-10.396,8.632-11.091,15.573
				C422.232,270.645,431.238,270.59,431.811,264.871L431.811,264.871z"/>
		</g>
	</g>
	<g>
		<g>
			<path d="M423.707,231.386c7.04,4.765,12.609,11.027,20,15.438c6.754,4.03,15.206,6.577,20.144,13.014
				c9.931,12.946,0.779,29.4-7.353,40.643c-20.404,28.208-62.771,2.919-85.7,27.838c-3.922,4.262,2.426,10.643,6.364,6.364
				c11.661-12.673,32.876-9.968,48.295-10.504c8.936-0.311,17.968-2.084,25.794-6.563c7.001-4.007,12.217-10.952,16.429-17.652
				c8.385-13.34,13.598-29.146,4.697-43.574c-4.566-7.403-12.104-10.807-19.481-14.737c-4.779-2.547-9.517-5.291-13.637-8.826
				c-3.655-3.136-7.002-6.499-11.008-9.211C423.428,220.351,418.93,228.153,423.707,231.386L423.707,231.386z"/>
		</g>
	</g>
	<g>
		<g>
			<path d="M63.863,182.434c-3.371-4.806,5.185-13.078,8.085-16.225c5.893-6.396,12.622-12.037,19.423-17.435
				c8.14-6.46,16.735-10.505,26.911-12.818c12.915-2.936,26.148-2.596,39.295-2.825c15.978-0.279,31.925-1.333,47.873,0.226
				c11.545,1.129,22.716,4.641,34.106,6.693c13.821,2.491,27.675,4.648,41.073,8.994c12.366,4.012,24.84,7.653,37.277,11.433
				c25.091,7.626,50.267,16.329,71.569,32.051c19.466,14.367,39.587,37.182,35.712,63.225
				c-3.645,24.499-32.582,39.061-53.664,45.517c-28.493,8.727-59.657,5.818-88.753,2.27c-12.785-1.559-25.199-3.497-37.605-7.019
				c-9.254-2.627-18.464-4.983-27.805-7.206c-8.592-2.044-17.598-4.163-25.565-7.993c-9.761-4.692-18.523-10.418-28.74-14.244
				c-22.734-8.513-45.035-19.964-65.21-33.474c-9.327-6.246-16.808-13.835-23.846-22.496c-5.831-7.176-14.027-16.07-14.856-25.735
				c-0.492-5.737-9.496-5.785-9,0c0.995,11.603,8.743,21.191,15.759,29.957c8.458,10.567,17.525,19.431,28.812,26.99
				c12.503,8.373,26.024,15.512,39.546,22.077c13.305,6.459,27.842,10.617,40.721,17.828c5.642,3.159,11.089,6.496,17.058,9.033
				c5.167,2.196,10.862,3.626,16.273,5.117c10.884,2.999,21.867,5.163,32.712,8.321c15.019,4.373,30.132,6.462,45.63,8.314
				c15.168,1.812,30.427,2.978,45.711,2.782c27.569-0.353,54.246-7.2,76.983-23.164c8.967-6.296,16.944-14.256,21.44-24.376
				c4.915-11.063,4.56-23.437,1.447-34.946c-6.312-23.335-27.444-42.148-47.125-54.646c-22.036-13.994-47.58-21.714-72.386-29.145
				c-12.608-3.777-25.113-8.109-37.81-11.553c-13.45-3.648-27.303-5.285-40.92-8.132c-11.472-2.398-22.533-5.113-34.29-5.96
				c-15.95-1.149-31.984,0.218-47.946,0.333c-23.194,0.167-46.06,2.098-64.953,16.796c-6.593,5.129-12.989,10.529-18.901,16.436
				c-5.487,5.483-11.642,12.159-13.447,19.943c-0.759,3.273-0.313,6.821,1.635,9.599C59.398,191.688,67.205,187.198,63.863,182.434
				L63.863,182.434z"/>
		</g>
	</g>
	<g>
		<g>
			<path d="M56.645,199.871c5.804,0,5.804-9,0-9S50.841,199.871,56.645,199.871L56.645,199.871z"/>
		</g>
	</g>
	<g>
		<g>
			<path d="M56.645,199.871c5.804,0,5.804-9,0-9S50.841,199.871,56.645,199.871L56.645,199.871z"/>
		</g>
	</g>
	<g>
		<g>
			<path d="M56.645,199.871c5.804,0,5.804-9,0-9S50.841,199.871,56.645,199.871L56.645,199.871z"/>
		</g>
	</g>
	<g>
		<g>
			<path d="M56.645,199.871c5.804,0,5.804-9,0-9S50.841,199.871,56.645,199.871L56.645,199.871z"/>
		</g>
	</g>
	<g>
		<g>
			<path d="M65.478,234.038c1.376,10.753,5.896,20.392,9.741,30.419c4.26,11.11,7.837,22.374,12.873,33.185
				c2.449,5.257,10.206,0.683,7.771-4.542c-4.463-9.581-7.893-19.533-11.395-29.49c-3.434-9.764-8.661-19.179-9.99-29.572
				C73.752,228.363,64.743,228.292,65.478,234.038L65.478,234.038z"/>
		</g>
	</g>
	<g>
		<g>
			<path d="M88.796,298.553c18.594,21.314,45.257,30.858,70.97,40.702c28.582,10.941,56.212,23.878,86.035,31.306
				c29.066,7.239,58.266,7.006,87.685,2.087c14.171-2.37,27.969-6.304,41.174-11.965c12.063-5.171,22.421-14.642,29.616-25.57
				c2.327-3.534,3.928-7.467,6.883-10.56c4.007-4.195-2.348-10.568-6.364-6.364c-4.306,4.509-6.468,10.372-10.306,15.207
				c-4.152,5.23-8.891,10.109-14.302,14.038c-11.389,8.27-26.933,11.934-40.468,14.881c-29.024,6.319-58.925,6.946-87.927,0.42
				c-29.411-6.617-56.713-19.211-84.614-30.215c-25.84-10.191-53.186-18.745-72.018-40.332
				C91.338,287.808,84.999,294.201,88.796,298.553L88.796,298.553z"/>
		</g>
	</g>
	<g>
		<g>
			<path d="M85.863,223.767c-5.006-11.628,3.066-23.654,10.881-31.756c8.578-8.893,19.792-14.599,31.369-18.551
				c25.166-8.59,52.852-7.407,78.832-3.895c13.178,1.781,26.244,4.324,39.269,6.979c12.741,2.597,25.593,4.939,38.193,8.161
				c28.127,7.192,53.417,20.004,78.16,34.897c14.733,8.869,30.614,19.821,35.796,37.112c2.119,7.071,2.949,16.347,1.891,23.698
				c-0.552,3.837-2.883,5.381-5.37,7.934c-1.496,1.535-3.851,5.441-5.896,6.102c-5.498,1.778-3.146,10.469,2.393,8.678
				c3.839-1.241,6.544-4.824,9.182-7.686c3.454-3.746,6.64-6.239,8.113-11.403c1.414-4.955,0.695-10.427,0.469-15.483
				c-0.277-6.193-1.248-12.278-3.394-18.108c-8.986-24.412-36.237-37.414-57.355-49.398c-24.732-14.036-51.154-23.257-78.983-28.892
				c-25.642-5.193-51.198-10.917-77.307-13.243c-27.25-2.427-55.301-0.41-80.269,11.542c-20.435,9.783-44.311,33.306-33.744,57.854
				C80.381,233.627,88.132,229.038,85.863,223.767L85.863,223.767z"/>
		</g>
	</g>
</g>
</svg>
