<?xml version="1.0" encoding="utf-8"?>
<!-- Generator: Adobe Illustrator 18.0.0, SVG Export Plug-In . SVG Version: 6.00 Build 0)  -->
<!DOCTYPE svg PUBLIC "-//W3C//DTD SVG 1.1//EN" "http://www.w3.org/Graphics/SVG/1.1/DTD/svg11.dtd">
<svg version="1.1" id="Layer_1" xmlns="http://www.w3.org/2000/svg" xmlns:xlink="http://www.w3.org/1999/xlink" x="0px" y="0px"
	 width="500px" height="500px" viewBox="0 0 500 500" enable-background="new 0 0 500 500" xml:space="preserve">
<g>
	<g>
		<g>
			<path d="M124.009,171.512c-4.555,6.312-1.945,15.559-0.731,22.546c1.822,10.487,3.755,20.343,7.942,30.211
				c3.896,9.183,11.175,16.6,13.451,26.47c2.679,11.622,2.983,23.932,3.08,35.807c0.095,11.559,2.105,22.707,4.307,34.02
				c1.069,5.494,2.194,11.027,2.412,16.632c0.249,6.415-2.164,11.272-5.663,16.426c-2.719,4.005-5.074,8.001-6.641,12.6
				c-1.559,4.576-3.09,8.806-6.181,12.609c-6.557,8.068-14.066,14.985-19.981,23.656c-1.491,2.186-0.244,4.781,1.614,6.157
				c8.6,6.37,23.157,5.139,32.756,2.02c10.715-3.482,13.344-17.464,16.744-26.766c-1.845,1.048-3.69,2.095-5.536,3.143
				c1.959,0.288,3.676,0.975,5.528,1.652c2.377,0.869,4.832-0.958,5.536-3.143c2.018-6.263,1.575-12.719,1.644-19.204
				c0.08-7.575,3.265-14.798,4.906-22.108c1.447-6.443,1.797-13.082,3.141-19.547c1.457-7.005,5.138-12.469,8.949-18.364
				c7.699-11.907,6.157-27.537,8.805-40.985c2.957-15.012,3.133-30.648,7.932-45.25c1.817-5.53-6.875-7.88-8.679-2.393
				c-4.631,14.092-4.72,29.029-7.581,43.486c-1.385,6.999-2.402,13.941-3.033,21.049c-0.684,7.702-1.84,14.327-6.082,20.888
				c-3.666,5.67-6.829,11.023-8.616,17.596c-1.72,6.323-2.041,12.997-3.18,19.434c-1.292,7.3-4.163,14.195-5.189,21.556
				c-0.999,7.167,0.556,14.452-1.697,21.448c1.845-1.048,3.69-2.095,5.536-3.143c-1.851-0.677-3.568-1.365-5.528-1.652
				c-2.59-0.38-4.613,0.618-5.536,3.143c-2.305,6.307-4.194,18.444-11.408,20.789c-7.172,2.331-18.473,3.317-24.87-1.421
				c0.538,2.052,1.076,4.105,1.614,6.157c5.942-8.712,13.897-15.475,20.155-23.826c2.387-3.185,4.054-6.598,5.487-10.298
				c2.067-5.335,3.917-9.958,7.16-14.741c6.298-9.288,7.632-18.062,6.072-29.09c-1.66-11.738-4.809-23.195-5.704-35.047
				c-0.89-11.8-0.398-23.545-1.912-35.334c-1.361-10.601-4.214-18.92-9.943-27.913c-5.981-9.388-9.62-19.377-11.773-30.286
				c-0.812-4.112-1.266-8.295-1.995-12.424c-0.646-3.656-1.888-8.766,0.458-12.016C135.184,171.338,127.371,166.853,124.009,171.512
				L124.009,171.512z"/>
		</g>
	</g>
	<g>
		<g>
			<path d="M195.097,269.699c5.893,3.506,6.877,14.395,8.325,20.411c0.852,3.541,1.843,6.941,3.46,10.214
				c1.123,2.273,2.836,4.299,4.208,6.424c1.895,2.936,1.945,6.324,1.946,9.703c0.002,5.556-0.914,11.059-0.769,16.625
				c0.07,2.697,0.844,5.35,1.119,8.026c0.337,3.282-2.159,5.078-4.287,7.111c-3.297,3.149-6.383,6.499-9.729,9.621
				c-3.596,3.355-6.637,7.118-8.139,11.852c-0.916,2.888,1.522,5.589,4.339,5.696c12.135,0.461,24.47,1.192,35.532-4.698
				c2.124-1.131,2.868-4.133,1.614-6.157c-3.426-5.53-9.305-8.044-15.031-10.569c-5.258-2.319-9.843,5.434-4.542,7.771
				c4.005,1.766,9.383,3.435,11.802,7.34c0.538-2.052,1.076-4.105,1.614-6.157c-9.472,5.043-20.646,3.862-30.99,3.469
				c1.446,1.899,2.893,3.798,4.339,5.696c1.568-4.944,6.373-8.383,10.048-11.765c3.71-3.415,7.719-7.305,10.607-11.439
				c3.293-4.713,1.193-10.662,0.703-15.798c-0.627-6.58,0.962-13.297,0.706-19.912c-0.224-5.787-2.468-10.123-5.693-14.784
				c-2.731-3.946-3.641-8.395-4.737-12.992c-1.969-8.259-3.993-18.755-11.903-23.461
				C194.639,258.953,190.116,266.735,195.097,269.699L195.097,269.699z"/>
		</g>
	</g>
	<g>
		<g>
			<path d="M230.325,368.695c3.26-3.487,4.657-7.324,6.177-11.759c1.288-3.76,5.594-4.965,7.774-8.203
				c2.077-3.085,0.7-7.925-0.046-11.185c-1.34-5.854-1.597-11.522-1.977-17.519c-0.389-6.136-1.58-12.155-2.226-18.26
				c-0.644-6.088,0.229-12.02,1.037-18.042c0.766-5.713,0.375-10.767-1.119-16.316c-1.612-5.99-1.971-12.145-3.501-18.132
				c-1.436-5.62-10.116-3.234-8.679,2.393c1.25,4.894,1.419,9.964,2.61,14.871c1.307,5.383,2.438,9.789,1.902,15.394
				c-0.523,5.466-1.577,10.757-1.484,16.276c0.101,6.021,1.488,11.975,2.139,17.942c0.599,5.488,0.48,11.037,1.099,16.519
				c0.42,3.716,1.831,7.245,2.232,10.957c0.212,1.962-4.951,4.149-6.193,6.101c-2.555,4.018-2.799,9.056-6.111,12.599
				C220.002,366.564,226.353,372.942,230.325,368.695L230.325,368.695z"/>
		</g>
	</g>
	<g>
		<g>
			<path d="M201.257,266.558c1.442-4.605,10.265-6.755,14.234-8.196c8.632-3.135,17.07-6.78,25.782-9.704
				c9.18-3.081,17.871-3.159,27.255-1.037c3.824,0.865,9.45,1.15,12.529,3.777c2.31,1.971,2.77,6.471,4.456,9.016
				c3.189,4.814,10.987,0.312,7.771-4.542c-2.336-3.526-3.033-7.544-5.863-10.838c-3.137-3.651-8.648-4.273-13.015-5.274
				c-11.68-2.677-22.146-3.675-33.829-0.312c-10.432,3.003-20.476,7.595-30.638,11.399c-6.748,2.526-15.012,5.819-17.36,13.319
				C190.839,269.72,199.528,272.077,201.257,266.558L201.257,266.558z"/>
		</g>
	</g>
	<g>
		<g>
			<path d="M294.189,276.934c1.8-5.762,5.795-8.852,9.505-13.326c1.744-2.104,2.817-4.648,4.078-7.047
				c1.416-2.694,4.034-3.018,6.759-3.752c12.595-3.394,24.711-10.561,34.892-18.551c4.563-3.581-1.854-9.904-6.364-6.364
				c-6.028,4.731-12.667,8.517-19.567,11.816c-6.063,2.899-12.778,4.079-18.742,7.044c-5.02,2.496-6.499,9.716-10.277,13.574
				c-4.142,4.229-7.183,8.516-8.963,14.214C283.775,280.097,292.464,282.455,294.189,276.934L294.189,276.934z"/>
		</g>
	</g>
	<g>
		<g>
			<path d="M311.97,227.744c6.087-2.952,12.449-6.113,19.29-6.691c10.048-0.849,11.688,7.744,11.566,15.839
				c-0.295,19.569,1.693,37.974,7.365,56.763c2.946,9.759,4.048,18.925,4.749,29.055c0.743,10.75,1.592,21.462,0.422,32.215
				c-1.165,10.707-5.677,21.16-8.971,31.339c-2.356,7.282-6.173,15.71-12.798,20.025c-4.842,3.154-0.337,10.949,4.542,7.771
				c7.308-4.759,11.837-12.452,15.054-20.38c4.353-10.728,8.312-22.429,10.459-33.805c2.313-12.252,1.17-24.834,0.291-37.165
				c-0.423-5.937-0.551-11.862-1.519-17.744c-0.958-5.819-2.889-11.476-4.576-17.111c-3.256-10.881-5.223-21.955-5.916-33.289
				c-0.602-9.857,1.361-20.568-1.424-30.151c-5.859-20.158-30.503-10.54-43.078-4.442
				C302.207,222.505,306.772,230.265,311.97,227.744L311.97,227.744z"/>
		</g>
	</g>
	<g>
		<g>
			<path d="M16.791,97.416c4.949-5.98,13.178-8.773,19.897-4.222c5.68,3.847,11.423,6.931,17.396,1.816
				c4.415-3.781-1.981-10.117-6.364-6.364c-1.41,1.208-6.219-3.039-7.457-3.878c-3.034-2.055-6.428-2.825-10.047-2.99
				c-7.344-0.335-15.192,3.719-19.789,9.275C6.757,95.487,13.087,101.892,16.791,97.416L16.791,97.416z"/>
		</g>
	</g>
	<g>
		<g>
			<path d="M12.413,100.98c6.546,2.083,9.946,10.718,14.694,15.233c6.154,5.854,12.515,6.241,20.18,3.413
				c5.397-1.991,3.065-10.692-2.393-8.679c-2.813,1.038-5.697,2.457-8.587,1c-3.253-1.639-5.616-5.005-7.749-7.834
				c-3.766-4.995-7.576-9.847-13.753-11.813C9.259,90.536,6.904,99.226,12.413,100.98L12.413,100.98z"/>
		</g>
	</g>
	<g>
		<g>
			<path d="M26.842,83.095c9.015,0.285,17.402,4.526,26.466,4.812c5.807,0.183,5.789-8.817,0-9
				c-9.015-0.285-17.402-4.526-26.466-4.812C21.035,73.912,21.053,82.912,26.842,83.095L26.842,83.095z"/>
		</g>
	</g>
	<g>
		<g>
			<path d="M26.241,83.697c4.882,0.011,9.073,2.451,13.322,4.59c4.6,2.316,9.178,4.052,14.347,4.433c5.793,0.426,5.752-8.577,0-9
				c-9.93-0.731-17.379-8.999-27.669-9.023C20.436,74.683,20.437,83.683,26.241,83.697L26.241,83.697z"/>
		</g>
	</g>
	<g>
		<g>
			<path d="M56.49,86.589c2.676-2.994,4.408-6.339,8.451-7.59c4.276-1.323,9.07-1.034,13.494-1.32
				c8.942-0.578,16.241-1.71,23.42,4.699c4.314,3.852,10.702-2.491,6.364-6.364c-8.581-7.661-17.194-8.36-28.228-7.457
				c-5.841,0.478-11.709,0.396-17.443,1.763c-5.879,1.402-8.655,5.69-12.422,9.904C46.272,84.537,52.615,90.925,56.49,86.589
				L56.49,86.589z"/>
		</g>
	</g>
	<g>
		<g>
			<path d="M107.437,85.34c11.86-3.379,24.018-5.384,36.09-7.82c5.687-1.147,3.274-9.822-2.393-8.679
				c-12.073,2.436-24.231,4.441-36.09,7.82C99.472,78.249,101.843,86.934,107.437,85.34L107.437,85.34z"/>
		</g>
	</g>
	<g>
		<g>
			<path d="M137.052,71.101c-7.079,5.401-14.463,10.557-22.985,13.381c-5.481,1.817-3.133,10.509,2.393,8.679
				c9.315-3.087,17.385-8.375,25.135-14.288C146.143,75.401,141.668,67.578,137.052,71.101L137.052,71.101z"/>
		</g>
	</g>
	<g>
		<g>
			<path d="M112.262,96.769c6.278,2.158,12.727-1.39,18.462-3.624c8.234-3.208,15.17,0.116,21.967,4.974
				c4.733,3.382,9.22-4.428,4.542-7.771c-6.626-4.735-14.66-8.809-23.073-7.495c-3.343,0.522-6.429,1.83-9.545,3.1
				c-2.959,1.206-6.738,3.244-9.96,2.136C109.151,86.199,106.808,94.894,112.262,96.769L112.262,96.769z"/>
		</g>
	</g>
	<g>
		<g>
			<path d="M120.25,111.251c6.954-6.092,13.726-10.722,23.284-10.712c5.804,0.006,5.804-8.994,0-9
				c-12.024-0.013-20.884,5.67-29.648,13.348C109.512,108.718,115.904,115.058,120.25,111.251L120.25,111.251z"/>
		</g>
	</g>
	<g>
		<g>
			<path d="M120.075,116.178c5.137-0.236,10.162,0.769,15.285,0.913c4.424,0.124,8.669-1.219,12.683-2.938
				c7.147-3.06,13.944-7.514,16.673-15.113c1.966-5.476-6.732-7.812-8.679-2.393c-1.938,5.396-8.836,8.345-13.8,10.178
				c-7.206,2.661-14.741,0.011-22.162,0.353C114.297,107.444,114.271,116.445,120.075,116.178L120.075,116.178z"/>
		</g>
	</g>
	<g>
		<g>
			<path d="M47.004,115.287c0.01,2.292,0.724,4.487,1.817,6.482c1.178,2.148,4.085,2.828,6.157,1.614
				c2.158-1.264,2.794-4.006,1.614-6.157c-0.139-0.254-0.27-0.509-0.394-0.771c0.572,1.202,0.045,0.034-0.047-0.266
				c-0.081-0.265-0.138-0.537-0.193-0.808c0.279,1.37,0.047,0.296,0.045-0.094c-0.01-2.453-2.039-4.5-4.5-4.5
				C49.059,110.787,46.993,112.834,47.004,115.287L47.004,115.287z"/>
		</g>
	</g>
	<g>
		<g>
			<path d="M47.164,121.897c1.306,4.461,0.147,9.371,0.608,13.961c0.586,5.834,1.371,11.866,3.603,17.317
				c2.168,5.295,10.878,2.98,8.679-2.393c-2.109-5.151-2.858-10.708-3.411-16.217c-0.509-5.065,0.662-10.068-0.799-15.061
				C54.216,113.946,45.531,116.313,47.164,121.897L47.164,121.897z"/>
		</g>
	</g>
	<g>
		<g>
			<path d="M103.24,126.243c2.482,0.37,4.513,0.211,6.828-0.815c2.063-0.915,3.409-3.062,4.087-5.111
				c0.798-2.411-0.907-4.804-3.143-5.536c-2.669-0.873-5.172-0.273-7.644,0.83c-2.241,1-2.751,4.216-1.614,6.157
				c1.339,2.286,3.917,2.614,6.157,1.614c-0.993,0.443,0.385-0.07,0.619-0.123c-0.622,0.071-0.674,0.095-0.155,0.074
				c-1.026,0.009-0.109,0.01,0.245,0.126c-1.048-1.845-2.095-3.69-3.143-5.536c-0.162,0.47-0.119,0.379,0.127-0.271
				c-0.253,0.408-0.17,0.328,0.248-0.24c-0.114,0.133-0.236,0.258-0.368,0.374c0.838-0.792,0.404-0.32,0.042-0.131
				c0.673-0.266,0.781-0.325,0.323-0.174c-0.478,0.104-0.353,0.102,0.376-0.008c-0.358,0.047-1.936-0.11-0.592,0.091
				c-2.424-0.362-4.827,0.567-5.536,3.143C99.506,122.854,100.81,125.88,103.24,126.243L103.24,126.243z"/>
		</g>
	</g>
	<g>
		<g>
			<path d="M65.026,163.844c-0.373-3.505-2.521-6.177-4.809-8.731c-2.074-2.314-7.066-1.374-7.521,1.986
				c-0.779,5.757,0.304,10.963,4.047,15.505c1.562,1.895,4.755,1.609,6.364,0c1.858-1.858,1.559-4.473,0-6.364
				c-1.46-1.771-2.037-4.498-1.732-6.749c-2.507,0.662-5.014,1.324-7.521,1.986c0.443,0.494,0.893,0.992,1.288,1.524
				c0.309,0.415,1.028,2.182,0.885,0.843c0.26,2.438,1.85,4.5,4.5,4.5C62.782,168.344,65.287,166.288,65.026,163.844L65.026,163.844
				z"/>
		</g>
	</g>
	<g>
		<g>
			<path d="M79.449,168.686c0.26-0.471,0.537-0.924,0.835-1.371c0.304-0.423,0.329-0.462,0.076-0.118
				c0.274-0.339,0.582-0.648,0.892-0.955c0.403-0.347,0.428-0.384,0.076-0.11c0.124-0.092,1.269-0.65,0.357-0.294
				c0.518-0.129,0.499-0.15-0.057-0.061c1.056-0.1-0.686-0.253,0.375,0.124c-0.896-2.203-1.793-4.407-2.689-6.61
				c-0.111,0.254-0.245,0.495-0.4,0.724c0.427-0.696-0.434,0.332-0.506,0.396c0.266-0.244,0.173-0.207-0.277,0.112
				c-1.049,0.637,0.42-0.061-0.756,0.35c-2.314,0.808-3.827,3.05-3.143,5.536c0.617,2.244,3.218,3.952,5.536,3.143
				c2.969-1.037,5.877-2.8,7.317-5.718c1.348-2.732,0.172-5.594-2.689-6.61c-5.412-1.923-10.289,2.517-12.717,6.921
				c-1.185,2.148-0.539,4.895,1.614,6.157C75.369,171.516,78.266,170.831,79.449,168.686L79.449,168.686z"/>
		</g>
	</g>
	<g>
		<g>
			<path d="M67.317,154.812c-3.585-2.987-8.67-5.254-13.21-2.769c-5.27,2.885-5.941,8.735-4.666,14.103
				c1.171,4.929,4.603,10.878,9.345,13.098c4.548,2.129,10.163,0.346,15.025,1.234c5.36,0.979,10.266,1.802,15.397-0.474
				c4.893-2.17,6.706-8.848,6.642-13.665c-0.14-10.635-10.009-18.628-20.28-15.692c-5.57,1.592-3.2,10.277,2.393,8.679
				c4.885-1.396,8.439,2.212,8.888,7.014c0.679,7.27-5.583,6.408-10.646,5.46c-2.345-0.439-4.706-0.825-7.095-0.876
				c-1.821-0.039-4.847,0.986-6.549,0.19c-2.393-1.12-3.707-5.111-4.441-7.36c-0.99-3.034,0.061-4.888,2.833-2.578
				C65.378,164.863,71.781,158.531,67.317,154.812L67.317,154.812z"/>
		</g>
	</g>
	<g>
		<g>
			<path d="M58.593,179.641c2.892,7.547,15.266,7.405,21.776,5.549c5.572-1.588,3.201-10.273-2.393-8.679
				c-2.095,0.597-4.311,0.562-6.476,0.494c-1.067-0.034-2.105-0.15-3.149-0.356c-1.843-0.364-1.782-1.233-1.08,0.6
				C65.217,171.886,56.513,174.212,58.593,179.641L58.593,179.641z"/>
		</g>
	</g>
	<g>
		<g>
			<path d="M76.902,184.736c3.412,2.102,4.503,6.913,7.995,9.255c3.45,2.313,9.473,3.622,11.192,8.045
				c0.726,1.868-0.171,4.818-0.377,6.734c-0.322,2.991,0.305,5.831,1.403,8.592c2.401,6.039,5.61,12.094,8.825,17.738
				c5.26,9.232,15.654,14.142,20.474,23.662c2.488,4.915,3.229,9.809,6.726,14.277c3.366,4.301,9.076,6.28,13.537,9.14
				c4.902,3.142,9.411-4.651,4.542-7.771c-4.479-2.871-9.792-4.625-12.77-9.3c-2.804-4.403-3.374-9.928-6.296-14.403
				c-5.935-9.091-15.735-14.195-20.527-24.22c-2.663-5.572-7.274-11.309-6.914-17.715c0.327-5.821,0.931-10.061-3.395-14.634
				c-3.2-3.383-6.728-5.236-10.838-7.219c-2.032-0.981-3.191-3.71-4.392-5.484c-1.251-1.849-2.747-3.299-4.643-4.468
				C76.488,173.912,71.971,181.699,76.902,184.736L76.902,184.736z"/>
		</g>
	</g>
	<g>
		<g>
			<path d="M137.519,86.103c9.461-0.278,17.55,5.712,26.669,7.447c5.435,1.034,11.007,1.379,16.506,1.895
				c6.048,0.568,11.922,1.926,17.917,2.83c22.486,3.392,45.202,0.076,67.659-1.826c22.326-1.892,44.808-0.567,66.899-4.97
				c9.424-1.878,18.635-4.472,28.193-5.701c4.79-0.616,9.614-0.859,14.441-0.742c4.21,0.102,10.317,0.374,13.881,2.86
				c4.773,3.329,9.265-4.477,4.542-7.771c-6.496-4.531-17.231-4.32-24.771-4.043c-9.936,0.365-19.831,2.385-29.495,4.593
				c-10.724,2.45-21.251,4.257-32.249,4.96c-11.919,0.762-23.875,0.735-35.799,1.414c-23.463,1.337-46.678,5.416-70.214,2.641
				c-5.754-0.678-11.392-2.101-17.145-2.834c-6.624-0.844-13.283-1.092-19.856-2.343c-9.496-1.807-17.146-7.705-27.179-7.41
				C131.728,77.273,131.712,86.274,137.519,86.103L137.519,86.103z"/>
		</g>
	</g>
	<g>
		<g>
			<path d="M394.962,87.907c15.688,0.255,33.369-6.259,46.159,5.928c5.496,5.236,8.652,12.457,11.184,19.471
				c2.906,8.05,5.45,16.23,8.34,24.29c3.07,8.561,5.903,17.188,7.727,26.11c2.012,9.843,1.645,19.792,0.484,29.71
				c-2.159,18.445-6.479,36.248-2.445,54.797c1.233,5.67,9.909,3.265,8.679-2.393c-4.328-19.898,1.891-39.777,3.482-59.62
				c1.68-20.951-5.424-40.259-12.354-59.643c-5.443-15.227-9.032-31.479-22.225-42.151c-14.157-11.451-32.625-5.233-49.032-5.5
				C389.156,78.813,389.165,87.813,394.962,87.907L394.962,87.907z"/>
		</g>
	</g>
	<g>
		<g>
			<path d="M434.385,101.318c5.378,8.401,10.119,17.105,13.664,26.444c1.815,4.782,3.105,9.731,4.798,14.553
				c1.933,5.503,4.184,10.842,5.565,16.526c1.297,5.339,1.419,11.112,2.17,16.562c0.899,6.526,1.762,12.995,1.771,19.594
				c0.017,12.343-3.22,24.493-6.166,36.388c-1.395,5.634,7.284,8.024,8.678,2.393c3.009-12.151,5.893-24.322,6.445-36.876
				c0.532-12.085-1.705-25.109-3.599-37.022c-0.922-5.796-2.912-11.217-4.977-16.687c-2.024-5.362-3.548-10.872-5.443-16.276
				c-3.74-10.664-9.056-20.643-15.135-30.14C439.039,91.905,431.246,96.414,434.385,101.318L434.385,101.318z"/>
		</g>
	</g>
	<g>
		<g>
			<path d="M457.992,165.218c-1.72,5.643-0.174,11.418-1.011,17.165c-0.913,6.269-3.085,12.408-5.987,18.014
				c-5.532,10.683-15.415,18.864-24.985,25.8c-9.155,6.636-19.089,12.219-26.294,21.145c-8.288,10.267-8.683,21.183-5.738,33.574
				c1.432,6.025,3.114,11.881,3.378,18.109c0.241,5.674-1.689,11.071-3.873,16.218c-5.315,12.521-9.737,25.336-13.871,38.288
				c-3.95,12.376-8.309,25.213-9.639,38.196c-0.28,2.736-0.206,5.52-0.255,8.267c-0.029,1.605-0.137,3.206-0.248,4.807
				c-0.104,1.481,2.692-2.187,0.995-1.445c-4.609,2.014-6.802,7.165-9.96,10.704c-3.85,4.316,2.493,10.703,6.364,6.364
				c2.739-3.071,4.652-7.774,8.573-9.487c3.417-1.493,3.051-6.221,3.221-9.234c0.377-6.68,0.634-12.775,2.15-19.343
				c1.642-7.108,3.588-14.105,5.777-21.062c4.152-13.192,8.429-26.348,13.668-39.156c2.213-5.409,4.626-10.629,5.611-16.434
				c0.989-5.827,0.246-11.672-0.852-17.425c-1.184-6.2-3.344-12.172-3.963-18.481c-0.645-6.577,1.935-12.266,5.995-17.295
				c7.606-9.423,19.186-15.088,28.651-22.382c9.486-7.31,18.224-15.832,23.783-26.566c2.779-5.366,4.658-11.229,5.885-17.128
				c0.628-3.018,0.973-6.117,0.936-9.197c-0.04-3.286-0.609-6.414,0.369-9.621C468.367,162.044,459.679,159.683,457.992,165.218
				L457.992,165.218z"/>
		</g>
	</g>
	<g>
		<g>
			<path d="M333.435,415.01c4.344,3.922,10.267,8.53,16.415,8.536c5.804,0.006,5.803-8.994,0-9c-3.277-0.004-7.526-3.62-10.051-5.9
				C335.504,404.768,329.119,411.113,333.435,415.01L333.435,415.01z"/>
		</g>
	</g>
	<g>
		<g>
			<path d="M130.436,392.857c4.444,1.955,8.695,4.346,13.7,4.223c5.793-0.142,5.807-9.143,0-9c-3.314,0.081-6.211-1.698-9.157-2.995
				c-2.245-0.988-4.813-0.68-6.157,1.614C127.689,388.632,128.189,391.868,130.436,392.857L130.436,392.857z"/>
		</g>
	</g>
	<g>
		<g>
			<path d="M323.66,427.934c3.365-5.001,6.599-10.147,12.22-12.822c5.239-2.493,0.669-10.251-4.542-7.771
				c-6.993,3.327-11.264,9.83-15.449,16.05C312.639,428.222,320.439,432.721,323.66,427.934L323.66,427.934z"/>
		</g>
	</g>
	<g>
		<g>
			<path d="M321.579,429.561c6.505-0.279,12.83,1.613,19.248,2.406c5.751,0.711,5.682-8.298,0-9
				c-6.449-0.797-12.691-2.687-19.248-2.406C315.798,420.809,315.774,429.81,321.579,429.561L321.579,429.561z"/>
		</g>
	</g>
	<g>
		<g>
			<path d="M409.711,240.4c0.08,7.179,3.756,13.687,4.643,20.771c0.988,7.891,3.075,14.496,6.746,21.545
				c8.224,15.789,16.128,31.856,23.023,48.275c6.381,15.196,5.515,31.648,4.831,47.743c-0.356,8.371,1.275,17.512-1.125,25.628
				c-0.82,2.773-3.906,4.82-6.047,6.508c-2.744,2.163-5.081,4.393-7.121,7.242c-1.139,1.59-0.663,4.166,0.704,5.453
				c7.73,7.28,17.91,4.945,27.5,4.925c3.822-0.008,8.871,0.453,11.072-3.524c1.967-3.555,2.862-8.274,2.392-12.313
				c-0.285-2.456-1.831-4.473-4.5-4.5c-3.129-0.032-5.73-0.302-8.429-2.014c-4.917-3.119-9.428,4.673-4.542,7.771
				c4.018,2.549,8.279,3.195,12.971,3.243c-1.5-1.5-3-3-4.5-4.5c0.286,2.459-0.124,4.828-0.838,7.181
				c0.126-0.416-6.014-0.264-6.951-0.203c-5.602,0.366-13.311,1.809-17.811-2.429c0.235,1.818,0.469,3.635,0.704,5.453
				c3.473-4.851,9.117-7.399,12.494-12.438c4.468-6.667,3.014-16.721,2.852-24.241c-0.356-16.582,1.965-32.6-2.166-48.958
				c-2.041-8.084-5.923-15.715-9.363-23.269c-3.905-8.577-8.008-17.063-12.227-25.49c-4.108-8.204-8.848-15.826-10.373-24.992
				c-0.619-3.72-0.841-7.409-1.878-11.051c-1.113-3.91-3.015-7.687-3.061-11.816C418.646,234.6,409.646,234.593,409.711,240.4
				L409.711,240.4z"/>
		</g>
	</g>
	<g>
		<g>
			<path d="M467.143,244.298c5.804,0,5.804-9,0-9C461.339,235.298,461.339,244.298,467.143,244.298L467.143,244.298z"/>
		</g>
	</g>
	<g>
		<g>
			<path d="M462.804,238.602c-4.479,13.481-8.657,27.064-13.835,40.301c-2.117,5.412,6.589,7.735,8.678,2.393
				c5.178-13.237,9.356-26.819,13.835-40.301C473.317,235.471,464.624,233.122,462.804,238.602L462.804,238.602z"/>
		</g>
	</g>
	<g>
		<g>
			<path d="M459.796,264.467c-2.173,6.422-3.09,13.121-3.77,19.843c-0.584,5.773,8.422,5.717,9,0c0.6-5.938,1.53-11.781,3.448-17.45
				C470.34,261.346,461.646,259,459.796,264.467L459.796,264.467z"/>
		</g>
	</g>
	<g>
		<g>
			<path d="M462.643,266.866c-0.014,13.895-0.67,27.771,1.965,41.497c1.094,5.696,9.767,3.278,8.679-2.393
				c-2.474-12.884-1.657-26.063-1.644-39.104C471.649,261.062,462.649,261.062,462.643,266.866L462.643,266.866z"/>
		</g>
	</g>
	<g>
		<g>
			<path d="M464.447,282.505c0.019,11.81,0.716,23.526,1.365,35.31c0.508,9.228-0.068,18.962,3.591,27.656
				c1.649,3.918,7.285,4.623,8.679,0c1.113-3.689,1.198-7.465,1.822-11.243c0.938-5.676-7.734-8.108-8.678-2.393
				c-0.621,3.759-0.718,7.582-1.822,11.243c2.893,0,5.786,0,8.679,0c-3.532-8.394-2.857-17.76-3.347-26.672
				c-0.622-11.314-1.269-22.561-1.287-33.901C473.438,276.702,464.438,276.701,464.447,282.505L464.447,282.505z"/>
		</g>
	</g>
	<g>
		<g>
			<path d="M471.665,321.603c0.521,6.41,2.252,12.488,3.96,18.661c1.413,5.104,8.463,3.727,8.839-1.196
				c0.47-6.148-0.394-12.265-0.746-18.397c-2.795,0.757-5.59,1.514-8.386,2.271c1.265,1.861,2.284,3.729,3.165,5.8
				c1.784,4.194,8.576,1.978,8.386-2.271c-1.035-23.087-11.737-44.094-14.8-66.815c-0.772-5.729-9.443-3.28-8.678,2.393
				c2.951,21.889,13.483,42.222,14.479,64.423c2.795-0.757,5.59-1.514,8.386-2.271c-0.881-2.071-1.9-3.939-3.165-5.8
				c-2.339-3.441-8.66-2.512-8.386,2.271c0.352,6.132,1.217,12.25,0.746,18.397c2.946-0.399,5.893-0.798,8.839-1.196
				c-1.483-5.358-3.187-10.702-3.639-16.268C480.199,315.86,471.195,315.814,471.665,321.603L471.665,321.603z"/>
		</g>
	</g>
	<g>
		<g>
			<path d="M465.049,262.054c0.239,10.301,3.567,20.049,5.574,30.068c1.139,5.688,9.814,3.274,8.678-2.393
				c-1.845-9.212-5.033-18.212-5.253-27.676C473.914,256.26,464.914,256.247,465.049,262.054L465.049,262.054z"/>
		</g>
	</g>
	<g>
		<g>
			<path d="M451.816,283.107c-0.958,8.808-1.476,17.655-2.463,26.46c-0.568,5.068,7.788,6.108,8.839,1.196
				c0.61-2.852,1.119-5.743,2.58-8.301c-2.742-0.358-5.483-0.717-8.225-1.075c2.294,6.654,3.419,13.585,4.476,20.523
				c0.617,4.048,6.406,4.123,8.225,1.075c1.477-2.474,2.269-5.187,3.497-7.777c-2.742-0.358-5.483-0.717-8.225-1.075
				c2.505,12.016,1.6,27.583,10.75,37.003c1.415,1.457,3.715,1.699,5.453,0.704c8.283-4.74,10.787-10.725,9.729-20.051
				c-1.26-11.103-1.684-22.274-3.13-33.366c-2.729-20.928,0.017-42.941-8.684-62.7c-2.335-5.301-10.087-0.717-7.771,4.542
				c7.279,16.529,4.973,35.406,6.773,52.94c1.025,9.988,2.309,19.872,2.894,29.909c0.228,3.916,0.884,7.767,1.217,11.672
				c0.417,4.889-1.444,6.922-5.569,9.283c1.818,0.235,3.635,0.469,5.453,0.704c-3.761-3.872-4.676-10.122-5.629-15.213
				c-1.107-5.912-1.579-11.93-2.806-17.819c-0.767-3.681-6.574-4.558-8.225-1.075c-1.221,2.576-2.032,5.323-3.497,7.777
				c2.742,0.358,5.483,0.717,8.225,1.075c-1.057-6.937-2.182-13.869-4.476-20.523c-1.228-3.561-6.192-4.633-8.225-1.075
				c-1.865,3.266-2.706,6.803-3.487,10.451c2.946,0.399,5.893,0.798,8.839,1.196c0.987-8.805,1.505-17.653,2.463-26.46
				C461.443,277.34,452.436,277.401,451.816,283.107L451.816,283.107z"/>
		</g>
	</g>
	<g>
		<g>
			<path d="M472.868,348.069c-0.08,15.875-2.658,33.989,6.629,47.986c3.192,4.811,10.99,0.309,7.771-4.542
				c-8.289-12.493-5.472-29.279-5.401-43.443C481.898,342.264,472.898,342.267,472.868,348.069L472.868,348.069z"/>
		</g>
	</g>
	<g>
		<g>
			<path d="M488.662,394.108c-2.535-1.944-4.963-3.406-8.24-3.56c-2.674-0.125-5.453,3.024-4.339,5.696
				c0.719,1.725,0.946,3.559,1.699,5.295c2.052-2.052,4.105-4.105,6.157-6.157c-3.914-1.697-7.836-1.561-10.888,1.73
				c-2.461,2.654-3.54,6.445-4.231,9.91c-1.131,5.667,7.543,8.082,8.678,2.393c0.327-1.641,0.672-3.37,1.377-4.894
				c0.268-0.579,0.512-1.014,0.905-1.439c-0.208,0.224-0.689-0.061-0.384,0.072c4.277,1.855,8.012-1.879,6.157-6.157
				c-0.41-0.946-0.377-2.151-0.791-3.145c-1.446,1.899-2.893,3.798-4.339,5.696c1.29,0.061,2.723,1.583,3.698,2.331
				c1.952,1.497,5.034,0.303,6.157-1.614C491.634,397.949,490.605,395.598,488.662,394.108L488.662,394.108z"/>
		</g>
	</g>
	<g>
		<g>
			<path d="M315.274,135.137c-2.112,15.884,0.907,31.583,4.973,46.911c1.487,5.605,10.168,3.224,8.679-2.393
				c-3.882-14.635-6.668-29.354-4.651-44.518C325.038,129.397,316.028,129.47,315.274,135.137L315.274,135.137z"/>
		</g>
	</g>
	<g>
		<g>
			<path d="M113.784,119.363c2.674,4.013,1.359,9.735,0.571,14.162c-0.854,4.794-2.065,9.535-2.388,14.408
				c-0.785,11.825-7.192,17.964-16.126,24.924c-4.575,3.564,1.844,9.885,6.364,6.364c10.419-8.117,17.458-16.148,18.673-29.746
				c0.948-10.618,7.219-24.836,0.677-34.654C118.354,110.016,110.555,114.517,113.784,119.363L113.784,119.363z"/>
		</g>
	</g>
	<g>
		<g>
			<path d="M51.497,124.438c-1.261,0.241-0.394,0.06-0.042,0.057c0.299-0.002,0.599,0.019,0.898,0.032
				c0.911,0.039,1.78-0.09,2.685-0.226c2.269-0.34,3.946-3.437,3.143-5.536c-0.592-1.546-0.966-3.397-2.232-4.559
				c-1.313-1.205-2.756-1.346-4.382-1.742c-2.905-0.708-5.597,1.365-5.696,4.339c-0.071,2.124,0.476,4.42,2.123,5.887
				c1.123,1,2.426,1.382,3.646,2.195c2.044,1.362,4.972,0.408,6.157-1.614c1.295-2.21,0.423-4.8-1.614-6.157
				c-0.719-0.479-1.519-0.772-2.274-1.18c-0.803-0.433,0.827,0.729,0.348,0.302c-0.462-0.412,0.721,1.156,0.286,0.34
				c0.325,0.842,0.42,1.045,0.285,0.61c-0.095-0.441-0.075-0.236,0.06,0.614c-0.04-0.33-0.027-0.666-0.016-0.997
				c-1.899,1.446-3.798,2.893-5.696,4.339c0.494,0.12,0.99,0.222,1.491,0.308c0.163,0.028,0.325,0.056,0.486,0.093
				c0.677,0.152-1.242-0.646-0.702-0.305c-0.554-0.349-1.143-0.936-1.368-1.322c0.369,0.632-0.521-1.333-0.223-0.529
				c0.218,0.589,0.42,1.184,0.645,1.771c1.048-1.845,2.095-3.69,3.143-5.536c1.298-0.195,0.314-0.084,0.009-0.086
				c-0.3-0.002-0.601-0.023-0.901-0.035c-0.889-0.036-1.777,0.091-2.648,0.257c-2.411,0.461-3.754,3.315-3.143,5.536
				C46.65,123.799,49.09,124.899,51.497,124.438L51.497,124.438z"/>
		</g>
	</g>
</g>
</svg>
