<?xml version="1.0" encoding="utf-8"?>
<!-- Generator: Adobe Illustrator 18.0.0, SVG Export Plug-In . SVG Version: 6.00 Build 0)  -->
<!DOCTYPE svg PUBLIC "-//W3C//DTD SVG 1.1//EN" "http://www.w3.org/Graphics/SVG/1.1/DTD/svg11.dtd">
<svg version="1.1" id="Layer_1" xmlns="http://www.w3.org/2000/svg" xmlns:xlink="http://www.w3.org/1999/xlink" x="0px" y="0px"
	 width="500px" height="500px" viewBox="0 0 500 500" enable-background="new 0 0 500 500" xml:space="preserve">
<g>
	<g>
		<g>
			<path d="M238.5597534,208.2449646c-11.8951874-35.1275482-36.5836182-68.3594971-65.8755493-90.9370041
				c-12.8637238-9.9150391-27.7072449-18.2548981-44.1686096-19.6564178
				c-15.4567337-1.3159866-29.317688,6.4453125-38.3814621,18.6307755
				c-22.2324829,29.8896637-21.8378448,71.3770294-12.4800491,105.7531586
				c10.7123871,39.3523102,32.9192963,75.0868073,57.7072906,107.0447845
				c25.8995209,33.3909912,56.3241577,63.4563293,89.5555878,89.5256653
				c27.1549835,21.3025208,56.9990845,41.2032776,89.8825989,52.4315186
				c1.7612305,0.6013794,4.2802734-0.3386536,5.0818787-2.0679932c7.5535583-16.2955322,13.6970825-33.315918,19.9343262-50.1427307
				c10.5178223-28.3748779,20.4092712-56.984436,29.8465271-85.7358398
				c21.340332-65.0151062,41.5215149-131.266983,53.0643005-198.8234253
				c4.0421753-23.6577606,7.9370117-48.7896576,4.7605896-72.7957001
				c-1.0177612-7.6918983-2.7549133-15.8128014-7.3626404-22.2365646
				c-5.0722351-7.0713654-12.7793579-9.8638077-21.2914124-10.3873158
				c-11.8550415-0.7291088-23.5170593,4.5794353-33.2930908,10.7699947
				c-12.9789124,8.2187271-24.2560425,19.0943527-34.6836853,30.2843857
				c-25.434082,27.2935867-46.7319031,58.4256363-67.443573,89.3514023
				c-10.8903198,16.2609558-21.517395,32.6970215-32.4510345,48.9289856
				c-7.5036163,11.1397858-14.9589996,22.7325439-24.1965179,32.5469818
				c-3.973465,4.2216187,2.3788605,10.5979462,6.3639526,6.3639679
				c7.7736816-8.2591705,14.2531128-17.8009644,20.6700439-27.1178131
				c9.2211761-13.3883514,18.0707092-27.0316925,27.0302124-40.5952759
				c20.6781311-31.304184,41.6095581-62.6852646,65.9259949-91.3221817
				c10.5671997-12.4447479,21.8869934-24.4379005,34.7209167-34.5787659
				c9.04245-7.1449814,20.0680237-14.14505,31.7814636-15.4750175c4.875824-0.5536079,9.6768188,0.0142212,14.2542114,1.7879181
				c-1.1066589-0.4288177,2.888855,1.8475723,1.9951782,1.1546898c0.5322876,0.4126968,1.0265503,0.8722382,1.507019,1.3432617
				c0.299469,0.2935638,1.7272034,1.9832611,1.1248474,1.1984901c4.1927795,5.4625092,5.7258911,12.7273636,6.5523071,19.600647
				c2.9085999,24.1908989-1.2080383,49.4360695-5.4141846,73.218689
				c-5.8357544,32.9969635-14.0366516,65.5742493-22.9560852,97.8571625
				c-17.3377075,62.7520447-37.7593994,124.7658997-60.4847717,185.7697144
				c-5.6286316,15.1094666-11.3512268,30.7390442-17.7261353,44.4918518
				c1.6939697-0.6893311,3.3879395-1.3786926,5.0819092-2.0680237
				c-33.6568909-11.4923401-64.2376862-32.615509-91.728775-54.7397461
				c-33.696701-27.1183472-64.3863678-58.5307922-90.1058044-93.3293762
				c-23.6491852-31.9974976-44.1453171-68.1371155-52.0740738-107.5001831
				c-3.3851624-16.805954-3.8960571-34.3510742-0.286438-51.1590729
				c3.6179581-16.846817,11.1804962-36.5475388,27.0496826-45.3913574
				c23.3929825-13.0367889,51.9717484,8.5026321,68.328804,23.6602325
				c22.3417511,20.7034302,41.685257,47.7373199,51.5057373,76.7380676
				C231.7321472,216.1034088,240.4265442,213.7577667,238.5597534,208.2449646L238.5597534,208.2449646z"/>
		</g>
	</g>
</g>
</svg>
