<?xml version="1.0" encoding="utf-8"?>
<!-- Generator: Adobe Illustrator 18.0.0, SVG Export Plug-In . SVG Version: 6.00 Build 0)  -->
<!DOCTYPE svg PUBLIC "-//W3C//DTD SVG 1.1//EN" "http://www.w3.org/Graphics/SVG/1.1/DTD/svg11.dtd">
<svg version="1.1" id="Layer_1" xmlns="http://www.w3.org/2000/svg" xmlns:xlink="http://www.w3.org/1999/xlink" x="0px" y="0px"
	 width="500px" height="500px" viewBox="0 0 500 500" enable-background="new 0 0 500 500" xml:space="preserve">
<g>
	<g>
		<g>
			<path d="M375.0098267,317.8808594c-1.6912231-11.5-5.8995361-22.24646-11.3655396-32.454834
				c-6.4211426-11.9924316-15.3768311-22.1812744-22.4352417-33.7277832
				c-8.8355713-14.4536133-13.2253418-29.6694336-19.56427-45.2854614
				c-6.8322754-16.8311768-22.0516968-54.5272827-44.8076172-53.2003784
				c4.3145142-9.6517944,8.5629272-19.3289185,12.4268799-29.1772461c2.991272-7.6241455,5.7435913-15.3609009,7.8776855-23.2719727
				c1.5396118-5.7072754,2.9969482-12.0007324,2.3413086-17.9453125c-0.2217407-2.0107422-1.2116089-3.7790527-3.3037109-4.3392334
				c-5.4164429-1.4503174-15.1593018-5.2015381-19.7684937,0.1759644c-2.1524658,2.5111694-1.8048706,6.5531616-2.1413574,9.6488647
				c-0.2676392,2.4621582-0.2437134,4.9512329-0.1281738,7.4453735c-2.4815063,0.2624512-5.1439209-0.4351196-7.7219238-1.3393555
				c-0.3110962-0.4851685-0.7059937-0.9057007-1.1771851-1.2226562c-0.1417236-0.5806885-0.2793579-1.1622925-0.4070435-1.7462769
				c-0.4002686-1.7709961-0.8352051-3.5115356-1.5925293-5.1694946c-1.7401123-3.8095093-5.3269043-7.046814-8.3012695-9.9038086
				c-6.8467407-6.5765991-14.946228-11.0063477-24.3249512-12.5363159
				c-17.2299805-2.81073-36.8049927,1.7119141-51.7963867,10.4024658
				c-8.2169189,4.7634277-15.416687,11.3277588-21.9783325,18.1282349
				c-6.7539673,6.999939-13.3948364,14.6187744-18.3580322,23.0112305c-4.2506714,7.1875-5.953125,15.2028198-8.9597778,22.8822021
				c-2.5958252,6.6300659-6.7833862,14.4691772-4.8722534,21.7849121c0.4023438,1.5401001,1.3495483,2.4746704,2.4799194,2.9086914
				c0.8483276,0.4181519,1.8796997,0.5522461,3.055603,0.234314c7.4296875-2.008728,15.2935791-0.8582153,22.8765869-0.5978394
				c9.0569458,0.3109741,18.15271,0.6596069,27.2154541,0.6730957c15.4519043,0.0229492,30.611145-2.788208,44.1646729-10.4223022
				c10.3106689-5.8075562,21.7203979-15.5946045,26.3583374-26.7346191
				c2.0220337-4.8568115,3.4716797-9.9344482,5.2730103-14.8740845c0.8777466-2.4071045,2.3706055-7.7007446,5.0397339-9.3071289
				c0.5994873,0.1933594,1.2011108,0.3934326,1.807312,0.6010132c3.6938477,1.2649536,7.7631836,2.5197754,11.7160034,2.2700195
				c0.0133667,0.4492798,0.0310669,0.899231,0.0346069,1.3470459c0.0891724,11.2116089-6.4760132,20.9539795-12.1312866,30.1437378
				c-3.4935303,5.6768799-6.9943237,11.4897461-9.4013672,17.7073975
				c-9.003418-2.8286133-18.0892944-3.6117554-27.0726318,0.3887329
				c-11.1627808,4.9710083-18.1090698,17.5145264-22.8659058,28.0916748
				c-5.7067261,12.68927-9.425293,26.1132812-16.3612061,38.2509155
				c-7.2527466,12.6920776-17.3538818,23.4797974-26.506958,34.7817993
				c-16.1112061,19.8935547-30.7961426,42.4743652-30.0285034,69.0681152
				c0.3934326,13.6309814,5.527771,26.9758301,10.5073242,39.4997559
				c5.1959229,13.0678711,11.503418,25.6895752,19.0258789,37.5742188
				c6.5671387,10.3754883,13.8683472,20.3222656,24.4854126,26.8074951
				c9.6951294,5.9219971,21.2733765,8.4543457,32.5113525,8.9029541
				c12.7062378,0.5070801,23.7796021-3.6347656,35.8291016-6.8554688c7.1154175-1.9018555,14.3388062-2.796875,21.6989136-2.5517578
				c7.1958618,0.239624,13.9185791,2.8284912,21.0018921,3.7606201c11.1903687,1.4727783,19.4788818-3.7293701,27.8095093-10.645874
				c10.4593506-8.684082,20.0857544-18.4458008,28.463501-29.1531982
				C367.9736938,371.0311279,378.9666748,344.7857666,375.0098267,317.8808594z M138.6377563,139.5356445
				c2.986084-7.6268311,4.7695312-15.132019,9.1797485-22.1901245c4.7810059-7.6514282,11.3415527-14.5408936,17.6536865-20.9425659
				c6.5179443-6.6104126,13.7642212-12.3954468,22.0287476-16.6658936
				c13.7446289-7.1022339,32.65271-10.2055054,47.5706787-5.6478882c4.062439,1.2411499,7.6891479,3.7527466,10.9593506,6.3938599
				c3.100769,2.5043335,7.9609985,6.3469238,9.3234863,10.206665c0.0550537,0.1559448,0.1083984,0.3209839,0.1610718,0.4900513
				c-4.5501709-0.53125-9.2184448,0.0234985-13.6566772,1.0933838
				c-13.6467896,3.2897339-24.7634277,13.4061279-35.9613647,21.2590332
				c-12.7139893,8.9160767-26.0430908,15.4312134-40.5717773,20.782959
				c-11.1704102,4.1146851-21.6365967,9.4280396-31.3200073,16.1879883
				C135.260437,146.5620728,137.4802246,142.4920654,138.6377563,139.5356445z M245.1785278,115.2263184
				c-1.3911133,4.145752-2.5860596,8.2565308-5.18396,11.8203125c-4.4678345,6.1289673-10.1653442,11.4667969-16.4145508,15.7321777
				c-13.3786011,9.1314697-29.2423706,11.5003052-45.1182861,11.4767456
				c-8.9735718-0.0133667-17.9910278-0.4160767-26.9591675-0.7240601c-1.8135986-0.0622559-3.6259766-0.1546021-5.4359741-0.2360229
				c8.3626099-4.951416,17.3146362-8.826416,26.559021-12.0647583c13.5541382-4.7481079,26.026001-11.7886353,37.8133545-19.9273071
				c11.2224731-7.7486572,21.7605591-17.4467163,35.3496094-20.7225342c1.8022461-0.4344482,3.539917-0.6074219,5.243103-0.5917358
				C248.1872559,104.8752441,246.5524292,111.132019,245.1785278,115.2263184z M290.649353,86.1932983
				c0.0372314,11.0090332-5.15979,22.8903809-9.0663452,32.8849487c3.3641357-9.4495239,1.3878784-19.2614136,1.5808105-29.0137939
				c0.03302-1.6680298,0.2756348-3.3223267,0.4455566-4.9806519C285.947876,84.781189,288.3358154,85.4569702,290.649353,86.1932983
				z M280.366333,122.1854858c-4.6915283,11.9990234-10.0554199,23.7097778-15.3241577,35.4624634
				c-1.2788696,1.6981201-0.8604126,4.0033569,0.4465942,5.5333862c-1.7529297,0.2904663-3.7295532-0.1887207-5.5440063-0.9429932
				C263.5960693,147.7167969,274.5047607,135.9368896,280.366333,122.1854858z M354.6359863,371.520874
				c-6.8320312,12.0771484-15.9862671,22.6824951-25.8554688,32.3626709
				c-7.5050049,7.3613281-17.475647,18.8706055-28.7955322,19.1853027
				c-5.8284302,0.1621094-11.5778198-2.1507568-17.241333-3.1895752c-7.2294922-1.3260498-14.6628418-1.2596436-21.9163818-0.182251
				c-13.1105957,1.9472656-25.1708984,7.8701172-38.473938,8.6137695
				c-11.6018066,0.6486816-23.3953247-1.8259277-33.4873047-7.6300049
				c-11.1938477-6.4378662-18.3671875-18.5567627-24.7999878-29.34729
				c-7.3666992-12.3571777-13.2907715-25.5559082-18.1386108-39.0855713
				c-4.7190552-13.1702881-8.1551514-26.3414307-5.8443604-40.394165
				c5.8590698-35.630127,38.3675537-58.3093262,55.4057617-88.1256714
				c8.7790527-15.3630981,12.2160645-33.1394653,21.5137329-48.2459106
				c3.9866333-6.477356,9.4584961-12.3995972,16.9762573-14.4741821c5.4523926-1.5046387,11.3224487-0.1992798,16.6964111,1.5899048
				c-0.0545654,0.3012085-0.1162109,0.6000366-0.1640625,0.9034424c-0.0439453,0.2787476-0.0472412,0.5429077-0.0471191,0.8054199
				c-0.223877,1.569458,0.3434448,3.2272339,2.1151733,4.2764893c6.6139526,3.9169312,16.5565796,5.9693604,22.2832642-0.7036133
				c1.4675293-1.710022,1.3919067-3.7255249,0.5337524-5.2871094c11.3661499-2.0883179,20.5144653,12.4924927,25.5541992,21.1032104
				c7.8689575,13.4445801,13.2064209,28.1235962,18.8164673,42.5947266
				c3.9456177,10.1776733,8.1741943,20.5106812,13.6708984,29.9502563
				c3.5618896,6.1168213,8.1723633,11.6396484,12.2402344,17.4221191c4.3334351,6.1601562,8.28302,12.5734863,11.7518921,19.2590332
				C370.777832,318.6477051,368.7502441,346.5708008,354.6359863,371.520874z"/>
		</g>
	</g>
</g>
</svg>
