<?xml version="1.0" encoding="utf-8"?>
<!-- Generator: Adobe Illustrator 18.0.0, SVG Export Plug-In . SVG Version: 6.00 Build 0)  -->
<!DOCTYPE svg PUBLIC "-//W3C//DTD SVG 1.1//EN" "http://www.w3.org/Graphics/SVG/1.1/DTD/svg11.dtd">
<svg version="1.1" id="Layer_1" xmlns="http://www.w3.org/2000/svg" xmlns:xlink="http://www.w3.org/1999/xlink" x="0px" y="0px"
	 width="500px" height="500px" viewBox="0 0 500 500" enable-background="new 0 0 500 500" xml:space="preserve">
<g>
	<g>
		<g>
			<path d="M472.3751221,256.3891602c-4.5664062-7.4026489-12.1044312-10.8065186-19.4805298-14.7374878
				c-4.7792969-2.5469971-9.5167847-5.2910156-13.6375122-8.8264771c-3.4602051-2.968689-6.6505737-6.133667-10.378479-8.763916
				c-8.6733398-19.078064-26.7583618-34.6004639-43.7681885-45.4022827
				c-22.0363159-13.9938354-47.5796509-21.7140503-72.3861084-29.1450195
				c-12.6080322-3.7768555-25.1130981-8.1091919-37.8103638-11.5531616
				c-13.4504395-3.6481934-27.3031006-5.2849731-40.9195557-8.1315308
				c-11.4715576-2.3981934-22.5325928-5.112915-34.2902222-5.9597778
				c-15.9498901-1.1488647-31.9836426,0.2182617-47.9459229,0.333252
				c-17.0112915,0.1225586-33.843689,1.2012939-49.0638428,7.5621948
				c-15.6744995-1.0177002-32.0227661,1.4969482-46.7282104,6.8480225
				c-14.2661743,5.1912842-29.9051514,15.1446533-32.8453979,31.2545776
				c-2.5437012,13.9371948,8.0557861,24.6774902,17.7077637,32.9990234
				c9.0632324,7.8139038,22.6362305,16.1453857,24.9923706,28.8262329
				c-0.3203125,0.6286011-0.4630127,1.4080811-0.3430786,2.3452759c1.3758545,10.7532349,5.8959961,20.3917847,9.7410889,30.4191284
				c4.2600708,11.1095581,7.836731,22.3735962,12.873291,33.1854248c0.3858032,0.828125,0.9035645,1.411438,1.4921875,1.7875366
				c18.5551147,20.6954346,44.8273926,30.1188965,70.1818237,39.8248291
				c28.581665,10.9413452,56.2116699,23.878418,86.0352783,31.3061523
				c29.0656738,7.2389526,58.2657471,7.0061646,87.6848145,2.086731
				c14.1705322-2.3696289,27.9693604-6.3039551,41.1744995-11.9647217
				c12.0632324-5.1712036,22.4205933-14.6416016,29.616272-25.569519c2.3267822-3.5336304,3.9279785-7.4668579,6.8826904-10.5602417
				c0.0870361-0.0911255,0.1629639-0.1845093,0.2403564-0.2775879c4.9159546-0.0524902,9.7149048,0.0533447,14.0546875-0.0975342
				c8.9361572-0.3106689,17.9678955-2.0837402,25.7941284-6.5629272
				c7.0006104-4.0067749,12.2173462-10.9522095,16.428772-17.6520386
				C476.0627441,286.6237793,481.2753296,270.8172607,472.3751221,256.3891602z M371.5258789,301.2703247
				c-28.4934082,8.7267456-59.6566772,5.817627-88.7526855,2.2695312
				c-12.7853394-1.559082-25.1986694-3.4968262-37.6054077-7.0192871
				c-9.2537842-2.6272583-18.4641113-4.9834595-27.8049927-7.2059326
				c-8.5916138-2.0442505-17.5977783-4.1630859-25.5653687-7.9931641
				c-9.7605591-4.6919556-18.5227661-10.4181519-28.7403564-14.2443848
				c-22.7338257-8.5131836-45.0352783-19.9636841-65.210144-33.4743042
				c-4.3015747-2.8806152-8.1981812-6.059082-11.8520508-9.484314c-0.0408325-0.1169434-0.0807495-0.2338867-0.1314087-0.3516235
				c-5.0055542-11.6281738,3.0655518-23.6538086,10.8811646-31.7561035
				c8.5782471-8.8929443,19.7915039-14.5994873,31.3691406-18.5513916
				c25.1657104-8.5900269,52.8516235-7.4065552,78.8317871-3.8951416
				c13.1776733,1.7810669,26.2440186,4.3241577,39.2688599,6.979126c12.741272,2.5971069,25.5932007,4.9390259,38.1929932,8.1607056
				c28.1271973,7.1919556,53.4173584,20.00354,78.1602173,34.8974609
				c14.7332764,8.8687134,30.6141968,19.8212891,35.7955933,37.1118774
				c2.1190186,7.0714111,2.9491577,16.3466797,1.8909912,23.6976318c-0.5523682,3.8371582-2.8826294,5.3813477-5.369812,7.9337769
				c-1.4961548,1.5354004-3.8508301,5.4407349-5.8963013,6.1022339c-0.5924072,0.1915894-1.0883179,0.46698-1.5042725,0.7973022
				C382.0174561,297.7276001,376.5487061,299.7319336,371.5258789,301.2703247z M411.0272827,298.5818481
				c0.8770752-2.0083008,2.3795166-3.7359619,3.7903442-5.3807983c5.2944336-6.1728516,15.3703613-13.3895874,15.4935303-22.3296509
				c0.0063477-0.4627075-0.0623779-0.874939-0.1622314-1.2637939c0.2176514-0.4494019,0.4362793-0.8981934,0.6398315-1.3564453
				c1.3272095-2.9872437,2.2584229-6.0718994,2.8665771-9.2074585c0.7463989-0.675293,1.8119507-0.9329834,3.3690186-0.4954834
				c3.6313477,1.0202637,7.1549683,4.2860107,9.3811035,7.2223511c8.6465454,11.4050903-6.0284424,28.0945435-16.9946289,31.2680054
				c-5.1002197,1.4758911-12.3285522,2.5526123-17.5959473,1.7393188c-0.4230347-0.0653076-0.7018433-0.0637817-0.8852539-0.0372925
				C410.9629517,298.6951294,410.9967651,298.6517944,411.0272827,298.5818481z M157.5778809,133.1303711
				c15.9783936-0.2789307,31.9244995-1.3330688,47.8733521,0.2264404c11.545105,1.1289673,22.7158813,4.640625,34.1064453,6.6932983
				c13.821106,2.4906616,27.6751709,4.647522,41.0732422,8.9938965c12.3658447,4.0115356,24.8395386,7.652832,37.2769775,11.4329224
				c25.0906982,7.6257935,50.2666016,16.3289185,71.5693359,32.0514526
				c19.4433594,14.3502197,39.5367432,37.1286011,35.7233276,63.1323242
				c-1.2507324,2.4807739-1.9263306,5.3973389-2.2787476,8.2567749c-2.8411865,6.937439-7.7675781,12.9260254-13.7803345,18.0211792
				c0.7496948-4.3735962,0.197876-9.0327148,0.0030518-13.3845825c-0.2772827-6.1929932-1.2484741-12.2781982-3.3942871-18.1079712
				c-8.9855347-24.4121704-36.2373657-37.4136963-57.3548584-49.3981323
				c-24.7322998-14.0358276-51.1544189-23.2565918-78.9834595-28.892334
				c-25.6419678-5.1928101-51.197998-10.9174194-77.3070679-13.2424927
				c-27.2504883-2.4267578-55.3007812-0.4105225-80.2686157,11.5422363
				c-16.1427002,7.7279663-34.416748,24.0317383-36.1793213,42.6400757
				c-0.5532837-0.6603394-1.1091309-1.3153076-1.6563721-1.9887695
				c-5.1003418-6.2763672-12.0089722-13.8672485-14.2157593-22.1386108
				c3.2449951,0.0462646,6.4362793-3.1737671,4.0786743-6.5345459c-0.006897-0.0098267-0.0115967-0.0202637-0.0183716-0.0300903
				c-0.0668335-0.7368774-0.3276367-1.4676514-0.7342529-2.1194458c-0.3741455-4.8280029,6.335083-11.3594971,8.8378906-14.0758667
				c5.8927002-6.395752,12.6224365-12.0374146,19.4233398-17.4346924c4.0455322-3.2105713,8.2046509-5.8223267,12.6132812-7.9237061
				c0.1083374,0.0084229,0.2175293,0.0130005,0.3258057,0.0217285c1.7936401,0.1448975,3.0244751-0.621521,3.7019653-1.7594604
				c3.2605591-1.2859497,6.6618042-2.3363647,10.2695312-3.1565552
				C131.1973877,133.0192261,144.430603,133.3598633,157.5778809,133.1303711z M54.4568481,177.3774414
				c-0.2272949,0.9800415-0.3320312,1.9842529-0.3352051,2.9855957c-0.5926514,0.3646851-1.0838623,0.6298218-1.2452393,0.604248
				c-2.456665-0.3891602-3.6578979-3.5790405-4.2160645-5.5744019c-1.1938477-4.2680054,0.0982666-8.5629272,2.4997559-12.0927124
				c4.057251-5.9633789,12.2575684-9.1677856,19.5111084-8.5220947c-0.9265137,0.8812256-1.8624878,1.7522583-2.767334,2.6563721
				C62.416626,162.9174194,56.262146,169.5936279,54.4568481,177.3774414z M53.5444336,201.8400879
				c-7.9428101-6.663208-20.7376709-15.0431519-21.7850342-26.4262695
				c-1.3250122-14.4019775,15.3163452-23.8336792,26.5993652-28.1223145c9.03125-3.4327393,18.7729492-5.571106,28.5668335-6.383728
				c-0.039917,0.0308838-0.0805664,0.0595703-0.1204224,0.0905762c-2.7611084,2.1479492-5.4749756,4.3583374-8.1459351,6.6186523
				c-0.3375854-0.2310791-0.7171631-0.4315796-1.1517944-0.5848389
				c-13.4089355-4.7276001-30.7545776,2.7858276-36.4078369,15.8685913
				c-2.8734741,6.6498413-2.5923462,15.8648682,2.1125488,21.6553345c1.7157593,2.1116943,4.6696167,4.6694946,7.6608887,5.2758179
				c0.3808594,1.6026001,0.8895264,3.1635132,1.4886475,4.6921387c-0.3149414,1.9032593,0.4494629,4.0076294,2.2788086,4.9015503
				c1.3659668,2.5291138,2.9512329,4.9643555,4.640564,7.3237305
				C57.3599243,205.0430298,55.4159546,203.4101562,53.5444336,201.8400879z M456.4963379,300.4800415
				c-20.40448,28.2080078-62.7709961,2.9191895-85.7005005,27.8380737c-3.921814,4.262146,2.4263306,10.6432495,6.3639526,6.3639526
				c5.84198-6.3488159,14.0819092-8.8376465,22.7894897-9.8084717c-1.7351074,2.8887939-3.3455811,5.8603516-5.4594116,8.5231934
				c-4.1516724,5.2299194-8.8909912,10.1089478-14.3023071,14.0379639
				c-11.3895264,8.2695312-26.9328613,11.934082-40.4684448,14.8811035
				c-29.0239868,6.3192749-58.9250488,6.9455566-87.9269409,0.4202881
				c-29.4111328-6.6173706-56.7126465-19.2113647-84.6144409-30.2149658
				c-25.5756836-10.0861816-52.6204834-18.5774536-71.4315796-39.6811523
				c-4.40448-9.5010376-7.8070679-19.3624268-11.2778931-29.2301636c-3.4341431-9.7635498-8.6606445-19.178772-9.9904175-29.5717773
				c-0.0484619-0.37854-0.1361084-0.7302246-0.2529297-1.0588379c0.3959961-0.8013306,0.5761719-1.7462158,0.4255371-2.8040771
				c-0.3547363-2.4915161-1.0924683-4.8317261-2.0931396-7.0529785
				c6.6008301,7.2286987,13.7644043,13.5756836,22.1585083,19.1970215
				c12.5026245,8.3726807,26.0239258,15.5124512,39.5457764,22.0765381
				c13.3046265,6.4586182,27.8424072,10.6173096,40.7206421,17.828186
				c5.6419678,3.1591187,11.0894165,6.4962769,17.0576782,9.0330811c5.166748,2.196167,10.8618774,3.6262817,16.2727661,5.1169434
				c10.8842163,2.9985352,21.8671265,5.163208,32.7120361,8.3206177c15.019043,4.3726196,30.1315918,6.4623413,45.6298828,8.3137817
				c15.1680298,1.8119507,30.4273682,2.9776611,45.7114868,2.7820435
				c20.3984375-0.2611084,40.3039551-4.0908813,58.4911499-12.5249634c0.1712036-0.036499,0.34552-0.0823975,0.5234375-0.1399536
				c1.1148071-0.3604736,2.1256104-0.9328613,3.0752563-1.6132202c2.6002808-1.3111572,5.1622314-2.72052,7.6829834-4.2316284
				c-0.1340332,0.6462402-0.2275391,1.3030396-0.253479,1.9758911c-0.3005981,7.7915039,9.2982788,8.8725586,14.9312134,8.5637207
				c8.8973389-0.487915,18.8727417-1.690979,25.8954468-7.6514282c6.9819946-5.9258423,13.2254028-13.8353271,14.975708-23.0088501
				c1.5296631-8.0175171-1.9690552-15.1608276-7.5794678-20.6257324c-3.9657593-3.8629761-9.7862549-7.6763916-15.5819092-7.2819214
				c-0.0294189-3.3493042-0.3693237-6.706604-0.9645996-10.0257568c3.2003784,2.7163696,6.4440918,5.3887939,10.1442871,7.5969849
				c6.7536011,4.0303955,15.2059326,6.5772095,20.1436768,13.0139771
				C473.7811279,272.7836914,464.6290283,289.2371216,456.4963379,300.4800415z"/>
		</g>
	</g>
</g>
</svg>
