<?xml version="1.0" encoding="utf-8"?>
<!-- Generator: Adobe Illustrator 18.0.0, SVG Export Plug-In . SVG Version: 6.00 Build 0)  -->
<!DOCTYPE svg PUBLIC "-//W3C//DTD SVG 1.1//EN" "http://www.w3.org/Graphics/SVG/1.1/DTD/svg11.dtd">
<svg version="1.1" id="Layer_1" xmlns="http://www.w3.org/2000/svg" xmlns:xlink="http://www.w3.org/1999/xlink" x="0px" y="0px"
	 width="500px" height="500px" viewBox="0 0 500 500" enable-background="new 0 0 500 500" xml:space="preserve">
<g>
	<g>
		<g>
			<path d="M318.5196533,278.8869629c-0.6942139,0.2373047-1.3991699,0.425293-2.1082764,0.5916748
				c-0.0703125,0.0085449-0.1425781,0.0324707-0.213623,0.0462646c-8.2058105,1.8424072-17.2907715-0.786499-25.0949707-3.0783691
				c-10.1973877-2.9945068-20.0465088-7.0959473-29.9018555-11.0394287
				c-24.0532227-9.6241455-49.4783936-17.4931641-75.4819336-18.8543701
				c-23.8001709-1.2459717-47.2974854,3.9587402-68.7297363,14.2133789
				c-22.0373535,10.5443115-41.178833,26.5235596-58.4100342,43.630127
				c-0.7774658,0.7717285-1.0679932,1.6468506-1.0275879,2.4852295c-2.2462158,2.4266357-0.4179688,7.2999268,3.2025146,5.8254395
				c8.7553711-3.5657959,18.5427246-3.0931396,27.7670898-2.1304932c9.7080078,1.0133057,19.3380127,3.2854004,28.6922607,6.0234375
				c24.647583,7.2143555,48.9179688,14.4033203,74.9290771,12.2126465
				c22.2026367-1.869751,44.3100586-7.7548828,65.3747559-14.786499c21.0559082-7.0285645,41.7745361-15.9604492,60.625-27.7503662
				c0.753418-0.1831055,1.5019531-0.3869629,2.2381592-0.6386719
				C324.6262207,284.1854248,322.8029785,277.4226074,318.5196533,278.8869629z M254.0858154,307.800293
				c-21.0977783,7.0426025-43.4056396,12.798584-65.6663818,14.2941895
				c-25.3146973,1.7006836-48.8225098-6.5534668-72.786499-13.2269287
				c-13.6842041-3.810791-30.5970459-7.8394775-45.6243896-5.7908936
				c15.170166-14.2878418,31.7087402-27.0462646,50.5137939-36.2662354
				c21.8962402-10.7354736,46.107666-14.7427979,70.336792-12.928833
				c25.1711426,1.8845215,49.7510986,10.7670898,73.0162354,20.0930176
				c10.001709,4.0092773,20.0681152,7.9299316,30.5101318,10.6489258c2.9997559,0.7811279,6.1635742,1.4997559,9.373291,1.965332
				C287.9595947,295.262085,271.1677246,302.0983887,254.0858154,307.800293z"/>
			<path d="M436.4112549,160.1970215c-5.9880371-1.6532593-10.460083-7.8212891-14.6051025-12.0473022
				c-4.7539062-4.8465576-9.7773438-8.977356-16.6755371-9.8931274
				c-16.0296631-2.1279297-32.6462402-1.9227295-48.7192383-0.3867798
				c-16.6696777,1.5928955-33.2436523,5.8304443-49.4388428,9.9489746
				c-9.4066162,2.3921509-18.2821045,5.1815186-27.2520752,8.8952026c-8.4648438,3.5045166-17.380127,7.427063-26.7150879,7.1796875
				c-0.699707-0.0185547-1.2775879,0.1482544-1.7602539,0.4194946c-0.2336426,0.0065308-0.4669189,0.0089722-0.7006836,0.0162964
				c-4.5028076,0.140564-4.5164795,7.1409912,0,7c38.3642578-1.197876,75.9907227,7.3820801,114.0957031,10.1783447
				c24.9489746,1.8308105,49.5783691-5.5794678,72.6337891-14.3443604c0.9289551-0.3531494,1.5466309-0.9689941,1.9226074-1.6856689
				c0.911377-1.4993286,0.8398438-3.5533447-0.6694336-4.555603
				C437.987793,160.411499,437.2658691,160.1286621,436.4112549,160.1970215z M364.6401367,174.5078125
				c-28.7695312-1.9504395-57.2009277-7.4284668-85.9130859-9.4901733c7.8476562-3.1212158,15.5953369-6.71875,23.4821777-8.749939
				c16.9909668-4.3758545,34.2424316-8.9890747,51.6904297-11.1257935
				c16.0822754-1.9694214,32.8684082-1.9559326,48.96521-0.1729126
				c10.9984131,1.2182617,16.2574463,12.2631836,24.4638672,18.4244385
				C407.1723633,170.5767822,386.175415,175.9677734,364.6401367,174.5078125z"/>
			<path d="M467.3236084,188.3497925c-0.4464111-11.8914795-4.8356934-23.3932495-10.5198975-33.7067261
				c-6.012207-10.9088745-14.2314453-20.7012939-23.4152832-29.0664062
				c-8.8464355-8.0576172-18.9370117-14.999939-30.8076172-17.4402466
				c-24.3430176-5.0044556-50.295166,4.2730103-73.0511475,12.0773926
				c-12.145752,4.1655273-24.1975098,8.618103-36.1412354,13.3312988
				c-7.9611816,3.1416016-16.1865234,6.1914673-23.692627,10.3444214
				c-54.1755371,30.8422241-112.5900879,53.6100464-165.9523926,85.9215088
				c-19.3995361,11.7467041-39.5546875,23.9577637-54.7967529,41.0163574
				c-7.0335693,7.8718262-12.6678467,17.1005859-15.1099854,27.4401855
				c-2.7641602,11.7039795-0.9763184,24.5043945,2.9936523,35.6959229
				c5.1103516,14.4064941,14.572998,26.8442383,24.4049072,38.3433838c0.2784424,0.3256836,0.5780029,0.5539551,0.8837891,0.7369385
				c0.2540283,0.3850098,0.598999,0.7401123,1.0550537,1.0406494
				c18.0330811,11.8867188,40.2648926,16.1767578,61.4418945,18.0848389
				c18.2341309,1.6428223,37.6298828,1.6229248,55.5522461-2.5787354
				c13.4714355-3.1582031,26.6870117-8.7369385,39.6157227-13.5925293
				c13.9447021-5.2370605,28.5622559-9.907959,41.7575684-16.8706055
				c11.7664795-6.2084961,22.0993652-14.8686523,32.5224609-23.0385742
				c11.5244141-9.032959,23.6260986-16.7387695,36.6269531-23.4758301
				c26.0994873-13.5249023,53.5563965-23.9526367,77.7429199-40.9609375
				c19.3483887-13.605957,38.9927979-28.4572144,50.5318604-49.6275635
				C464.5489502,211.781189,467.7624512,200.0395508,467.3236084,188.3497925z M457.1948242,208.6860352
				c-7.8078613,23.7935181-29.2194824,40.4519043-48.7918701,54.4416504
				c-23.8299561,17.032959-50.3851318,28.1105957-76.4923096,41.0366211
				c-12.9726562,6.4228516-25.3328857,13.6791992-36.888916,22.4108887
				c-10.8293457,8.1824951-21.1352539,17.0368652-32.7687988,24.0968018
				c-13.0646973,7.9285889-28.3023682,12.5067139-42.5341797,17.8985596
				c-13.342041,5.0546875-26.8791504,10.5068359-40.7055664,14.0959473
				c-16.5432129,4.2944336-34.8162842,3.9287109-51.7144775,2.7194824
				c-20.7860107-1.4875488-42.9309082-5.7045898-60.5916748-17.3457031
				c-0.0240479-0.0158691-0.0477295-0.022583-0.0717773-0.0378418c-0.1224365-0.2194824-0.270752-0.4355469-0.4503174-0.6453857
				c-16.5195312-19.3206787-32.5058594-44.3492432-24.6246338-70.8824463
				c6.5146484-21.9321289,29.0185547-37.1558838,47.1386719-48.9725342
				c14.2836914-9.3148804,28.9873047-17.8214111,43.9237061-25.8849487
				c-0.3535156,0.6957397-0.4094238,1.5206909-0.2337646,2.3110352c0.2025146,1.5605469,1.3112793,2.9829712,3.3432617,2.9879761
				c15.770752,0.0390625,31.5246582,0.9258423,47.2958984,0.9170532c15.4731445-0.008606,30.7213135-2.5287476,46.1627197-2.7180786
				c23.539917-0.2886353,46.4605713,5.5084229,69.4987793,9.5252686
				c21.3013916,3.7139282,42.8898926,6.6184692,64.5447998,6.7201538
				c18.1242676,0.085083,38.7408447-1.5906982,54.0336914-12.3374634c0.7233887-0.5083618,1.1588135-1.1547241,1.3774414-1.8422852
				c1.4689941-0.5534058,2.9121094-1.2012329,4.3192139-1.9729614c3.9581299-2.1708984,0.4266357-8.2160034-3.5330811-6.0443115
				c-8.2727051,4.5372314-18.2492676,3.6774292-27.2183838,2.1346436
				c-9.956665-1.7126465-19.6473389-4.8099976-29.3277588-7.6325684
				c-23.0157471-6.7109375-47.4743652-10.4695435-71.3126221-12.7108154
				c-52.6170654-4.9470825-104.5186768,7.7513428-155.5509033,18.821228
				c36.0151367-19.2338867,73.3492432-35.9631348,109.6339111-54.8269043
				c9.286499-4.8278198,18.4772949-9.8370972,27.572876-15.0152588
				c13.7960205-7.6329956,29.4320068-12.6572876,44.1931152-18.0289917
				c16.1975098-5.8943481,32.8129883-12.2684326,49.7785645-15.5930176
				c12.9129639-2.5304565,26.9782715-3.8390503,39.701416,0.1749268
				c11.6744385,3.6831055,21.9853516,13.7233887,30.0441895,22.5372925
				C454.2230225,157.9202271,465.5230713,183.3058472,457.1948242,208.6860352z M165.2886963,220.5944824
				c42.8878174-9.111145,86.0491943-16.7081299,130.1578369-12.2623901
				c24.4140625,2.4606934,48.7897949,7.1707764,72.3266602,14.0599365c10,2.9269409,21.5819092,6.5709229,32.8347168,7.1868896
				c-12.6713867,4.4174805-27.0026855,4.901123-40.0396729,4.7610474
				c-21.3477783-0.2293701-42.6175537-3.3544312-63.5985107-7.0795898
				c-22.5216064-3.9987793-44.7634277-9.1724243-67.7789307-9.1452637
				c-15.4283447,0.0181885-30.7030029,2.6261597-46.1627197,2.7180786
				C177.1135254,220.8683472,171.2009277,220.7536621,165.2886963,220.5944824z"/>
		</g>
	</g>
</g>
</svg>
