<?xml version="1.0" encoding="utf-8"?>
<!-- Generator: Adobe Illustrator 18.0.0, SVG Export Plug-In . SVG Version: 6.00 Build 0)  -->
<!DOCTYPE svg PUBLIC "-//W3C//DTD SVG 1.1//EN" "http://www.w3.org/Graphics/SVG/1.1/DTD/svg11.dtd">
<svg version="1.1" id="Layer_1" xmlns="http://www.w3.org/2000/svg" xmlns:xlink="http://www.w3.org/1999/xlink" x="0px" y="0px"
	 viewBox="0 0 500 500" enable-background="new 0 0 500 500" xml:space="preserve">
<g id="g4184" transform="matrix(17.319933,0,0,17.319933,533.7165,-5924.4678)">
	<path id="path4151" inkscape:connector-curvature="0" d="M-8.1243134,368.5684204
		c-6.3408737,0.007843-10.2118244,0.0394897-15.2650928,1.5431824c-0.133297,0.0319214-0.2154827,0.1658325-0.183569,0.2991333
		s0.165844,0.2154846,0.299139,0.1835632c0.0087852-0.0021057,0.0174484-0.0046692,0.0259533-0.0077209
		c4.9888744-1.4844971,8.7850266-1.5140076,15.1245384-1.5218506c0.1370521,0.001709,0.2495556-0.1079712,0.2512841-0.2450256
		c0.0017276-0.1370544-0.1079741-0.2495728-0.2450261-0.2513123c-0.0024166-0.0000305-0.0048342-0.0000305-0.0072508,0.0000305
		H-8.1243134z"/>
	<path id="path4153" inkscape:connector-curvature="0" d="M-15.0259809,342.3886108
		c-0.082078-0.0003052-0.1590071,0.0399475-0.2054996,0.107605c-4.4539022,6.2570801-6.4642973,8.4969177-10.6917677,12.8620911
		c-0.0964546,0.0974121-0.0957031,0.2545166,0.0016785,0.3509827c0.0973797,0.0964661,0.2545147,0.0957031,0.3509674-0.0016785
		c0.0013733-0.0014038,0.0027294-0.0027771,0.0040684-0.0042114c4.231842-4.3696899,6.2768383-6.650238,10.7392664-12.9193115
		c0.0813608-0.1102905,0.0578985-0.2656555-0.0524054-0.3470154
		C-14.9220638,342.4057922-14.9733057,342.3888245-15.0259809,342.3886108z"/>
	<path id="path4155" inkscape:connector-curvature="0" d="M-15.0599079,342.39151
		c-0.1274576,0.0047607-0.2305613,0.1053467-0.2384567,0.2326355c-1.0105991,12.7274475-1.7373142,17.2256165-2.1722794,26.4483337
		c-0.0064297,0.1370544,0.0994606,0.2533569,0.2365093,0.2597961c0.1370487,0.0064087,0.2533607-0.0994568,0.2597885-0.2365112
		c0.4340992-9.2043457,1.158989-13.6958618,2.1703424-26.4328308c0.0129223-0.1364441-0.0872202-0.2575378-0.2236729-0.2704468
		c-0.0107117-0.0010071-0.0214787-0.0013428-0.0322313-0.000946V342.39151z"/>
</g>
</svg>
