<?xml version="1.0" encoding="utf-8"?>
<!-- Generator: Adobe Illustrator 18.0.0, SVG Export Plug-In . SVG Version: 6.00 Build 0)  -->
<!DOCTYPE svg PUBLIC "-//W3C//DTD SVG 1.1//EN" "http://www.w3.org/Graphics/SVG/1.1/DTD/svg11.dtd">
<svg version="1.1" id="Layer_1" xmlns="http://www.w3.org/2000/svg" xmlns:xlink="http://www.w3.org/1999/xlink" x="0px" y="0px"
	 width="500px" height="500px" viewBox="0 0 500 500" enable-background="new 0 0 500 500" xml:space="preserve">
<g>
	<g>
		<g>
			<path d="M267.2616577,206.4401855C267.2947998,206.4830322,267.2911377,206.4775391,267.2616577,206.4401855
				L267.2616577,206.4401855z"/>
			<path d="M443.8485107,257.8911133c-1.2095947-5.6464844-3.2130737-11.411377-6.6322021-16.1118774
				c-3.0375366-4.1757812-9.6868286-8.628418-7.8635864-14.4181519c0.7524414-2.3894043-0.6748657-4.102356-2.5182495-4.6880493
				c1.8233643-3.0427246,3.444458-6.1420898,4.765686-9.2442627c9.4740601-22.2445068-4.2313843-45.0545654-15.2832642-63.8094482
				c-5.2376099-8.8882446-10.0316162-18.166626-18.6359863-24.2805176
				c-2.7979736-1.9880981-5.7241211-2.9430542-8.7210693-3.2820435c-1.065979-3.6872559-1.1463623-7.7232056-2.729126-11.2901001
				c-2.2374878-5.0422974-5.9819336-9.6598511-8.9963989-14.270752
				c-7.0255127-10.7459717-15.7384033-17.5742798-27.1251221-23.3717041
				c-5.6262207-2.864502-11.6740723-4.5755005-18.0025635-4.5707397
				c-6.7658081,0.0050049-13.4083252,2.5892944-19.8565063,4.3117676
				c-7.276062,1.9436035-14.5689087,3.8277588-21.8482666,5.7597046c-5.0377197,1.3370361-13.5322876,5.8638306-18.625061,3.6068726
				c-1.6286011-0.7218018-3.1748657-0.3424072-4.3114624,0.5308838c-3.1260376-0.8810425-6.4332275-1.3414917-9.715332-1.5960083
				c-9.5374146-0.739624-20.19104,0.3328247-29.3376465,3.1570435c-1.5789185,0.4875488-3.1032104,1.0702515-4.5887451,1.7197266
				c-0.1965942-0.1060791-0.3933105-0.2123413-0.6199951-0.293457c-4.0267944-1.4407959-6.859314-4.9397583-10.213623-7.4384766
				c-3.6090698-2.6885376-7.8098755-4.3395996-11.9849854-5.9491577c-9.253418-3.5675049-19.3753662-5.3565674-29.2834473-5.2420654
				c-5.1553345,0.0595703-5.1611328,8.0596313,0,8c9.9151611-0.114563,19.5073242,2.0072021,28.7311401,5.5632324
				c5.8147583,2.2417603,10.0718384,6.6671753,15.0756226,9.9389038
				c-5.7038574,3.7803955-10.8781128,8.4248047-16.0457153,12.9298096
				c-7.534729,6.5684814-17.4443359,14.3747559-17.7558594,25.2694092c-0.000061,0.0028076,0.0006104,0.0050659,0.0005493,0.0078735
				c-8.1412964,2.2559814-15.9710083,6.1069336-22.5005493,10.3134155c-0.4258423,0.274353-0.8527222,0.5565186-1.2797852,0.8430176
				c-5.0421143,0.2937622-9.940918-1.3525391-14.8652344-2.6187744c-4.8139648-1.237915-9.7572632-1.5175171-14.69104-1.9224854
				c-6.1911011-0.5081787-12.7197876-0.9536743-19.0504761-0.3153076c0.5358887-0.50177,0.9668579-1.1481323,1.2543945-1.8831177
				c1.4916382-3.8131714,0.6282349-7.7509766,0.703125-11.7072754c0.0976562-5.1618652-7.9024658-5.1524048-8,0
				c-0.0609131,3.2163086,0.7868652,6.5021362-0.4173584,9.5805664c-0.6970825,1.7821045,0.4860229,3.8102417,2.0928955,4.6430664
				c-2.4411011,0.4712524-4.8334351,1.1428223-7.1420288,2.086731c-4.7080688,1.9249878-2.6500854,9.6672974,2.126709,7.7142334
				c9.3903198-3.8394775,20.0158691-2.8097534,29.8919067-1.9991455c6.2766113,0.5151978,12.5662842,2.4646606,18.8612061,3.5881958
				c-9.8933716,8.8269043-18.2781982,20.5648193-19.4349365,33.3662109
				c-17.1968384,4.4682007-25.4908447,24.2971191-28.3434448,40.3834839
				c-1.8577271,10.4760742-1.782959,21.6381836-0.3128662,32.1477051c0.2179565,1.5579834,0.4761353,3.1845703,0.7839355,4.8317871
				c-1.4350586-1.6394043-2.824707-3.3214111-4.2451172-4.9528809c-3.444519-3.9562988-7.3468018-7.0258789-11.8585205-9.6759644
				c-4.5221558-2.656189-9.1216431-4.8245239-12.6330566-8.8358765c-3.1896362-3.6437988-4.7993164-8.72052-6.1702271-13.260498
				c-1.4053955-4.6541138-2.3933105-9.4331665-3.6836548-14.1203003c-0.8345337-3.03125-1.6688232-6.3172607-0.1791382-9.2716064
				c1.0955811-2.1726685,2.8895874-4.06073,4.277832-6.0496826c6.5714111-9.4146118,7.2401733-22.1738281,12.4681396-32.303894
				c2.3616943-4.5762329-4.5411987-8.6234741-6.9077759-4.0377197
				c-5.7164917,11.0765381-6.6532593,24.6084595-14.1866455,34.6803589
				c-3.2804565,4.3859253-5.0875244,8.5222168-4.2252808,14.1074829c0.920105,5.9604492,2.7581787,11.9373779,4.3353271,17.763855
				c2.8900146,10.6767578,7.7440796,19.3098145,17.3622437,25.1227417c1.5669556,0.9470215,3.0924072,1.8481445,4.5802002,2.7579346
				c0.0022583,6.0311279-0.2918091,11.3463135-3.2730103,16.9755859c-2.499939,4.7203369-3.8574219,9.3389893-3.8155518,14.7025146
				c0.0866089,11.0944824,6.234375,22.0283203,12.7173462,30.6347656c3.0725098,4.0788574,6.5126343,7.7736816,9.3861084,12.0144043
				c2.8218384,4.1644287,5.5353394,8.3598633,8.7915039,12.2072754
				c8.0611572,9.5245361,21.4257202,12.3730469,32.2088013,17.9012451
				c-0.4536743,3.9864502-0.5736084,8.0230713-0.2769165,12.1080322
				c0.7797852,10.7365723,3.7727661,21.9073486,10.4417114,30.4796143
				c7.9172974,10.177002,22.6610718,13.5823975,34.2885132,17.3577881
				c13.6293945,4.4255371,25.8997803,11.84729,39.442688,16.3776855
				c13.1413574,4.3961182,25.9786987,1.6157227,37.7198486-5.2158203
				c10.68927-6.2196045,20.2119751-16.0078125,28.4966431-25.0793457
				c8.1640015-8.939209,15.2157593-19.6943359,16.2438354-32.0344238c0.1513672-1.8166504-0.1240234-3.6591797-0.6045532-5.4370117
				c0.78125-0.3157959,1.5568848-0.6445312,2.3248901-0.9891357c0.7792358,0.1651611,1.5497437,0.3868408,2.3128052,0.605835
				c2.1387939,0.6142578,4.225647,1.4216309,6.3005371,2.2199707c3.8638306,1.4865723,7.6749268,3.1408691,11.4696045,4.7949219
				c11.8441772,5.1630859,22.6152954,10.2163086,35.8453369,7.8845215
				c16.1445312-2.845459,36.2307129-12.0927734,39.9676514-29.3754883
				c11.3735962-0.2363281,21.6136475-9.1843262,28.5294189-17.4847412
				c8.3548584-10.0274658,13.2385864-22.8739014,15.7759399-35.5487061
				C447.0795898,282.6755371,446.4511108,270.0402832,443.8485107,257.8911133z M205.1394653,109.2091064
				c7.8580933-6.8166504,15.3883057-13.6841431,25.3995972-17.1711426
				c6.9812012-2.4315796,14.9887085-2.921936,22.3248291-3.0147095c5.8948975-0.0745239,14.1159668,0.2580566,18.9110718,4.4890747
				c0.1035767,0.4801636,0.3237915,0.9760742,0.6913452,1.4749146c3.1036987,4.2125854,5.0301514,9.0144043,5.6161499,14.2271729
				c0.5695801,5.0667725,8.5758667,5.1223145,8,0c-0.6179199-5.4971313-2.117981-10.7453003-4.8877563-15.4645386
				c0.0334473-0.7067871-0.170105-1.468689-0.7001953-2.2401733c-0.3463135-0.5040283-0.7113037-0.9801025-1.0889893-1.4368286
				c0.8851318-0.1811523,1.7807617-0.4014893,2.6920776-0.652832c6.5180664-1.7977905,12.9863281-3.7605591,19.5291138-5.4981689
				c13.0953979-3.4778442,27.59198-10.1168823,41.0004883-5.4042969
				c12.1717529,4.2778931,21.6161499,12.7114258,28.5455933,23.3104858
				c2.6678467,4.0806885,6.453064,8.3910522,8.0969238,13.0028076c0.8811646,2.4719849,1.2454224,4.9972534,1.7294312,7.4769287
				c-4.2839355,0.5955811-8.6098022,1.6946411-12.8251343,2.1925659c-4.8444214,0.5722046-9.5310059-1.0906372-14.3919678-0.8501587
				c-4.96698,0.2456665-9.828125,1.927124-14.3369751,3.9163818c-10.116272,4.4631958-19.4095459,11.2555542-30.3428345,13.6264038
				c-1.7668457-1.6328735-3.9731445-2.9623413-6.5890503-3.9470215c-4.0980225-1.5426636-8.3881226-1.7601318-12.7263794-1.9735718
				c-4.4208374-0.2174683-10.2041626,0.0509644-13.2789917-3.677124c-1.916687-2.3237915-4.6188965-1.3465576-5.9008789,0.6483154
				c-5.8695068-4.2145996-12.3393555-7.5767212-19.5490112-9.6846313
				c-10.4492188-3.0551147-19.9946289-2.1387939-29.3805542,3.3690186
				c-2.7772827,1.6297607-5.5147095,3.3966675-8.0614014,5.3673096c-7.2252808-4.2271118-15.453064-5.1911011-23.7005005-4.1350098
				C191.2844849,119.8094482,199.9819336,113.6830444,205.1394653,109.2091064z M367.255249,257.3361816
				c-1.144043-7.5496826-4.2857666-15.1074219-7.5328979-20.9927979
				c-4.2982178-7.7905273-10.8428955-13.2821655-18.7841797-17.1376953
				c-4.798584-2.3297729-9.7377319-3.8675537-13.8475342-7.4071655c-3.7401123-3.2211304-6.7353516-7.2767334-10.2479248-10.7374878
				c-1.2119751-1.1940918-2.6351318-1.3673706-3.8724976-0.9503174c0.0090942-5.4417725,0.0794067-10.0718994-3.8477173-14.6108398
				c-0.951355-1.0996094-2.019043-2.2106323-3.1865845-3.2175293c-0.059082-3.2299805-1.1147461-6.5438843-2.7074585-9.4514771
				c-1.3255615-2.4200439-3.2262573-4.1505737-5.432373-5.4271851c1.2985229-1.1019897,1.882019-2.897644,0.625061-4.7476196
				c-4.7263794-6.9561768-9.9098511-13.7803955-15.7596436-19.8590698
				c3.6831055,0.4870605,7.5144653,0.4680176,10.8870239,0.6849976c4.0427246,0.2600708,8.1134644,1.3660889,11.076416,4.2741699
				c2.8491211,2.7962646,1.2446289,8.2357788,0.4614258,11.5113525c-1.3858643,5.7959595-1.8747559,17.0501709,7.1870117,15.8066406
				c4.4992676-0.6173706,8.0465698-4.5448608,11.1092529-7.5639648c4.0797119-4.0217285,7.7959595-6.2462158,13.7169189-5.3591309
				c8.3651123,1.2532959,13.3739624,8.5871582,17.5684814,15.1905518c2.2975464,3.6169434,4.4897461,7.2894287,7.0177002,10.7541504
				c2.7122803,3.7174072,5.5396729,6.9221191,7.2316284,11.2862549c6.9024048,17.8037109,1.2423096,39.140564-1.6190186,57.223938
				C367.2583618,256.8586426,367.2545166,257.0983887,367.255249,257.3361816z M354.8813477,276.7932129
				c-0.085144-0.114502-0.1660156-0.230957-0.2541504-0.34375c-6.8989868-8.8269043-19.6813354-5.9101562-29.2851562-4.9039307
				c-6.2958984,0.6595459-11.0489502-0.1208496-16.8818359-2.677124c-2.3366089-1.0239258-4.6833496-1.7885742-7.0529785-2.3984375
				c2.1585083-3.9976807,3.1530762-8.3554688,3.3651123-12.81604c4.2769165-4.8616943,6.2056885-13.2329102,7.7277222-18.5605469
				c2.1157227-7.4060669,4.1236572-15.5819092,3.4251709-23.4138184c3.7544556,4.0357666,7.5043945,7.9819946,12.5067139,10.6855469
				c7.6886597,4.1554565,15.8498535,6.1432495,21.4466553,13.4570312
				c6.6522827,8.6929932,15.2445679,28.5351562,6.1238403,38.0657959
				C355.1334229,274.7961426,354.8189087,275.8188477,354.8813477,276.7932129z M211.7020874,144.4365234
				c3.418335-4.9859009,8.868042-8.4398804,14.0130615-11.600769c8.5896606-5.2771606,16.8899536-4.6713257,26.2023315-1.6403809
				c16.4075928,5.3401489,28.6054688,19.6479492,38.1964722,33.4630127
				c-1.9685669-0.4143066-3.9605713-0.696228-5.8635864-0.9324341c-8.6219482-1.0701294-16.9052124,0.5632935-24.8276367,3.9539185
				c-3.5640259,1.5253296-6.9310303,3.4382935-10.2561035,5.4360352c-7.1893311-2.8439941-14.4082031-5.5759888-18.737793,3.347229
				c-2.0552979,4.2359619-1.723999,8.8945312-1.6858521,13.4677124c0.0077515,0.9223633-0.4490356,9.3175659-2.5338745,8.4191284
				c-2.0327148-0.8759155-3.1779175-4.1623535-4.0578003-5.9770508c-1.394043-2.8752441-2.5891113-5.8388062-4.1199951-8.647583
				c-2.1793213-3.9986572-5.5371094-6.9850464-9.6051636-6.822876c1.5656738-2.2704468,3.9659424-4.1474609,5.7980957-5.9829102
				C220.9696045,164.1618652,223.7929077,145.1993408,211.7020874,144.4365234z M304.3189087,193.453064
				c-0.7260742-0.586853-1.4403076-1.1802368-2.1316528-1.7883911c0.0294189-0.0274048,0.0609131-0.0438232,0.0900879-0.0723877
				c0.2792969-0.2736816,0.5316772-0.5579834,0.776001-0.8452148
				C303.6347046,191.6033936,304.0392456,192.5047607,304.3189087,193.453064z M296.9779663,178.3838501
				c-4.1265259,0.0220337-7.1872559,4.0827026-7.2921753,7.8862305c-0.1177368,4.2705078,3.7423096,8.1433716,6.5582886,10.855835
				c2.7688599,2.6670532,5.9263916,4.8682251,8.8249512,7.3811035c4.355835,3.7762451,3.1300659,12.2740479,2.3390503,17.2265015
				c-0.7807007,4.8875122-2.1312866,9.7250366-3.5735474,14.4535522c-0.2130127,0.6984253-0.4442139,1.5292358-0.7026978,2.4284058
				c-0.0822144-0.352417-0.1611938-0.7068481-0.2473755-1.0565186c-1.3359375-5.4212646-3.4776001-10.5645142-6.7293091-15.1129761
				c-3.5871582-5.0177002-9.2112427-7.8748169-12.8596191-12.7324829
				c-3.0579224-4.0714722-10.0090332-0.0914307-6.9077759,4.0377808c1.0057373,1.3390503,2.1066895,2.5405273,3.2665405,3.6732788
				c-0.1008301,0.7749634,0.0766602,1.6251831,0.6549072,2.4889526c3.4569702,5.1636963-2.2738037,7.8588867-5.5478516,11.4147339
				c-0.2877197,0.312439-0.5817871,0.7422485-0.8826904,1.2324829c-1.1056519-2.4328003-2.4055786-4.7557983-4.2509155-6.7279663
				c0.5112305-0.319519,0.977417-0.7775269,1.3432007-1.437561c2.812439-5.0748901,1.1461182-9.4807739-4.0837402-11.6563721
				c-1.659729-0.6903687-3.4435425-1.0443115-5.1345825-1.6553955c0.0028687-0.0186768-0.5854492-0.2821045-0.644165-0.3138428
				c-0.1051025-0.0595093-0.2036743-0.1293335-0.3052979-0.1942749c0.0325317-0.2006836-0.0276489-0.8086548-0.072937-0.5806274
				c0.1043091-0.5253296,0.0951538-1.0106812,0.0275269-1.4682617c2.0556641-1.2530518,2.161377-4.5974731,0.3511963-6.3787842
				c0.6140137,0.0203857,1.2319336,0.0271606,1.8515625,0.0270996c-0.0001221,0.0114136-0.0036621,0.0227051-0.0036621,0.0341187
				c0,2.1682739,1.6489868,3.6846924,3.6763306,3.9522095c0.1585083,0.0297241,0.3172607,0.062439,0.4717407,0.1054077
				c0.0065918,0.0037231,0.0134277,0.0072021,0.0199585,0.0109863c0.0578613,0.0654907,0.1070557,0.125061,0.1367798,0.1627197
				c-0.0205078-0.0264282-0.0584717-0.0766602-0.1135864-0.1499634c0.0131226,0.0076904,0.0269775,0.0142212,0.0401001,0.0220947
				c0.5519409,0.6696777,1.1591187,1.1846924,2.0665894,1.4342651c1.0324097,0.2839966,2.1583862,0.1379395,3.0822144-0.4031982
				c1.7313232-1.0142212,2.7312622-3.7133789,1.4349976-5.4727783c-0.1657104-0.2249146-0.3354492-0.4386597-0.5074463-0.649231
				c1.8199463-2.1065674,0.8240967-6.5819092-2.9464111-6.93396c-3.5344238-0.3300781-10.4335327,1.3275146-13.3488159-0.9320679
				c-2.0389404-1.5803223-3.3178101-4.1092529-4.8699341-6.1228027c-1.3212891-1.7141113-2.7807617-2.9958496-4.3462524-3.8354492
				c1.013855-0.6002808,2.0250854-1.204895,3.0353394-1.8096924c0.5354614-0.1484375,0.9993896-0.4335327,1.3787842-0.8215942
				c6.4086914-3.8148804,12.8842773-7.4307861,20.3572998-8.9100342c6.1712036-1.2216187,13.1002197-0.37323,19.048584,1.4514771
				c2.1499023,0.6594849,4.348999,2.7015381,5.5930176,5.0842896
				C297.1030884,178.390686,297.0412598,178.3834839,296.9779663,178.3838501z M264.130188,220.2369995
				c-0.0221558,0.0397339-0.0418091,0.0748901-0.0670166,0.1204224c-0.4067383,0.7339478-0.5445557,1.4501953-0.5133667,2.1240845
				c-1.9776611-0.3395386-4.0620117-0.1517944-6.0593872,0.5193481c-0.8374023,0.2813721-1.4550781,0.7511597-1.9015503,1.3148804
				c-2.4360352-1.5596924-3.600769-4.5930786-4.7965698-7.3427124c-0.0178223-0.0409546-0.0352783-0.0820923-0.0530396-0.1230469
				c1.7049561-0.010376,2.8302612-0.9018555,3.3994141-2.0822754c1.1914062,1.7855835,3.1149902,3.1365967,5.5690308,4.072937
				C261.1532593,219.3922119,262.6665649,219.7383423,264.130188,220.2369995z M265.0929565,220.6873779
				C265.1026611,220.6936646,265.1044312,220.6950684,265.0929565,220.6873779L265.0929565,220.6873779z M260.4154053,230.4818115
				c1.6548462-0.4048462,2.6486206-0.0395508,3.96875,1.4274292c1.4817505,1.6466675,2.3686523,4.072998,3.1972656,6.0958252
				c0.2971191,0.7254028,0.7246094,1.3668213,1.25177,1.8682251c-0.4202881,0.2410278-0.8566895,0.3800659-1.3161011,0.3511353
				c-0.6369019-0.0401001-1.1932373,0.048645-1.671936,0.232605c-1.8184814-1.4445801-3.6315918-2.8996582-5.2111206-4.6087036
				c-0.9197388-0.9951172-1.7620239-2.0349121-2.5751343-3.0905151
				C259.1411743,232.3428345,259.9609375,231.489624,260.4154053,230.4818115z M266.8641968,205.9083252
				c0.0736084,0.0999146,0.1505127,0.1864624,0.2251587,0.2807007c-0.012085-0.0096436-0.031311-0.0252686-0.0425415-0.0342407
				C266.9941406,206.0839844,266.9385376,206.0092163,266.8641968,205.9083252z M237.6605835,179.8930664
				c0.0831909-0.2022705,0.1671753-0.40448,0.2643433-0.6047363c0.512146-1.055481,1.5641479-1.2932129,2.8269043-1.1102295
				C239.7307129,178.7677002,238.7012939,179.3411865,237.6605835,179.8930664z M203.0389404,208.43396
				c1.2450562-6.5074463,3.3522949-12.5952759,3.375-19.2971802c0.0042725-1.2624512-0.0220947-2.5010986-0.007019-3.7305908
				c0.6572266,0.0278931,1.3528442-0.0975952,2.0664062-0.4711304c1.7224731-0.9016113,5.3252563,8.3441772,6.0857544,10.0106201
				c1.97229,4.3221436,4.727417,10.3078003,10.0252686,11.1393433c8.0899048,1.2697754,11.6481323-7.0797119,12.1088257-13.7033081
				c0.0341187-0.4902954,0.0491943-0.982605,0.0552979-1.475769c1.1122437,0.8612671,2.6343384,1.1426392,4.2169189,0.1914062
				c2.2980347-1.3813477,3.1394043-1.2369995,4.756958,0.8615112c1.4899902,1.9329834,2.788269,3.987793,4.3725586,5.852478
				c1.4049072,1.6535645,3.0494385,2.6731567,4.8314209,3.3166504c-3.3435669,0.4462891-6.5033569,1.762146-9.5955811,3.2290649
				c-0.5612793,0.2662354-0.9887085,0.6917114-1.3093872,1.1914062c-0.0020142-0.0018311-0.0036011-0.0039062-0.0056152-0.0057373
				c-3.7957153-3.4767456-9.468689,2.1653442-5.6568604,5.6568604c2.2178955,2.0314941,3.6325073,4.7016602,4.8761597,7.4797363
				c-2.9082031-1.2479248-6.0383301-1.9307251-9.3304443-1.9836426c-5.1616211-0.0828857-5.1535645,7.9172363,0,8
				c11.1851196,0.1796265,15.4147949,10.6877441,21.9874268,17.7993774
				c3.0786743,3.3311157,7.1574097,5.4888306,10.1992188,8.8695679c1.821167,2.0240479,2.7495728,4.7449951,3.4248657,7.4637451
				c-0.6436157-0.2590332-1.2871704-0.5185547-1.9325562-0.7783203c-6.7783813-2.7285156-13.2022705-3.8571777-20.4200439-4.5574951
				c-6.807373-0.6605225-10.21875-5.9228516-15.1915283-9.8513794c-4.12146-3.2560425-8.6638794-5.925415-13.0957642-8.7263794
				c-4.2687988-2.6978149-8.3803711-5.550354-11.8748779-9.2224731
				C202.3537598,220.8085938,201.8135376,214.8387451,203.0389404,208.43396z M278.0966797,260.5274658
				c-1.0355835-4.6392822-2.2510376-9.1990967-5.0222168-13.1331787c-0.1114502-0.1582031-0.2415161-0.2971191-0.3572388-0.4508057
				c3.9960327-2.5396729,5.8795776-8.2196655,9.2973633-11.6159058c3.0211182-3.0021362,5.7475586-5.9081421,6.9468384-9.1290283
				c2.4000244,3.0530396,4.0944214,6.5810547,5.3218384,10.3358765c1.3491211,4.1270752,2.3910522,8.6826172,2.5875854,13.1988525
				c-0.0003662,0.0001221-0.0006714,0.0003662-0.0010376,0.0006104c-3.0131836,1.3713379-2.4025269,4.6970215-0.3512573,6.3447266
				c-0.5125122,3.0214844-1.5552368,5.9189453-3.324585,8.5351562c-0.0591431,0.0875244-0.1077881,0.1745605-0.1588745,0.2617188
				c-1.7081909-0.2359619-3.4363403-0.4394531-5.1911011-0.6368408c-3.3504028-0.3768311-6.5512695-1.1826172-9.6905518-2.1968994
				C278.2189941,261.5717773,278.2178345,261.0703125,278.0966797,260.5274658z M160.9244995,147.6759644
				c0.7789917-0.1102905,1.5579834-0.2471313,2.3369141-0.4317627c1.755249-0.4160156,2.6201782-1.6334229,2.8091431-2.9855347
				c11.9021606-7.253418,28.3139648-12.8370361,41.3011475-7.135376c-2.5664062,2.9593506-4.6344604,6.3240967-5.8947754,10.2423096
				c-1.2870483,4.0012817,3.5702515,6.1325073,6.2814331,4.1690674c0.8261719,0.6049194,1.8855591,0.9337158,3.1206665,0.7514038
				c2.4821777-0.366394,0.8985596,7.3833008,0.5325928,8.6722412c-0.7398071,2.6053467-3.039856,4.5334473-4.9191895,6.3413086
				c-2.4874268,2.3927002-4.6311646,4.828064-6.1988525,7.9243774c-2.6939697,5.3208008-1.6843872,11.4934692-1.96698,17.2119141
				c-0.3619995,7.3253174-3.6373291,14.2301636-3.9650269,21.6356812
				c-0.4725342,10.6801147,7.1868896,18.4345703,15.1904297,24.229126c4.0900269,2.9611206,8.4899902,5.484314,12.7265625,8.2250366
				c4.803833,3.1075439,8.388855,7.3295898,12.9152832,10.7254639c5.0126953,3.7607422,10.7576294,4.1474609,16.8024292,4.6715088
				c7.4603271,0.6466064,14.4482422,4.3540039,21.3513794,6.9783936c6.4342651,2.4462891,13.0223999,3.1467285,19.803833,3.9379883
				c7.6450806,0.8919678,13.9462891,4.9351807,21.3154907,6.5981445c4.8754883,1.1000977,10.1555176,0.2077637,15.0380859-0.3508301
				c5.2562866-0.6010742,11.9385986-1.9707031,16.8991699,0.4926758c1.6409912,0.8149414,4.9473267,4.9685059,3.3762817,6.8765869
				c-1.3129883,1.5946045-4.9258423,1.2384033-6.7121582,1.230835c-5.8959351-0.0247803-11.8009033-0.7746582-17.6845703-1.0601807
				c-6.4447021-0.3126221-10.8886108,3.243042-16.9144897,4.1595459c-5.0869751,0.7738037-2.9181519,8.4816895,2.126709,7.7143555
				c2.7796021-0.4228516,5.1751099-1.5612793,7.6919556-2.7645264c1.4361572-0.6866455,2.97229-0.980835,4.5369263-1.086792
				c-6.7233887,6.0460205-13.8434448,9.3029785-23.06604,10.3869629c-8.685791,1.020752-17.5406494,0.310791-26.2268677-0.3242188
				c-8.6953125-0.6358643-16.520813-0.7282715-24.8723755,1.5085449c-0.8120117-0.2111816-1.6279297-0.3649902-2.4304199-0.4515381
				c-1.9790039-0.2133789-3.1773682,0.852417-3.6217041,2.2685547c-3.4048462,1.0167236-6.7784424,1.8709717-10.4594727,2.02771
				c-5.2991333,0.2254639-10.725647-0.2785645-16.0089722-0.6810303
				c-18.3658447-1.3988037-25.6602173-21.5670166-25.140564-37.7974854
				c0.9625854-0.8447266,1.4434814-2.1478271,0.8262329-3.7762451c-0.1696167-0.4475098-0.3371582-0.895874-0.5055542-1.3438721
				c0.8322144-9.6108398,2.7134399-19.0650635,2.6382446-28.8151855
				c-0.0888062-11.5139771-2.4666748-22.3711548,0.1081543-33.8187256c1.130188-5.0247192-6.5823364-7.1591187-7.7142334-2.126709
				c-2.5901489,11.5158081-1.0090942,22.4232788-0.4464111,34.0385132c0.2384033,4.9213867-0.1071167,9.7838745-0.637146,14.6272583
				c-2.8057861-7.1416626-5.8907471-14.1581421-9.8237915-20.7976685
				c-7.685791-12.9747925-14.6561279-25.4653931-20.0327148-39.6324463c-0.9539795-2.5135498-3.543457-3.1169434-5.5205078-2.432312
				c-2.8522949-4.0861206-7.5753784-6.0324097-12.600647-6.5755615
				C138.7034912,167.331665,150.0900879,155.4589844,160.9244995,147.6759644z M334.5020142,321.9528809
				c-6.5229492,8.1142578-12.2519531,17.0065918-19.8268433,24.2039795
				c-3.0222778,2.871582-6.7404175,5.3569336-10.8433838,7.3696289c-1.5088501,0.0040283-2.9269409,0.2744141-4.1609497,0.9661865
				c-0.6826172,0.3825684-1.1480103,0.8728027-1.4660034,1.4091797c-9.9390869,3.5650635-21.1817627,4.4697266-30.1975098,1.5949707
				c-7.3213501-2.3344727-30.1665649-10.4317627-24.5115356-21.5227051c1.631958-3.2006836,6.0028687-4.9747314,8.7599487-7.0533447
				c2.9752808-2.243042,4.8929443-4.8519287,6.1705933-8.3372803c1.1626587-3.1716309,0.6842041-5.9711914-0.7423096-8.2640381
				c5.1817627-0.7926025,10.6763306,0.0106201,15.8479614,0.3922119c10.0877075,0.7441406,20.0898438,1.2188721,30.142334-0.1854248
				c10.390686-1.4515381,18.5774536-6.2188721,26.0531616-13.3741455c1.3572998-1.2990723,1.4627075-2.8693848,0.880249-4.1746826
				c4.4951782,0.3551025,9.0548706,0.744751,13.5591431,0.6965332c-0.7138672,0.6429443-1.1636353,1.6054688-1.1003418,2.8905029
				C343.5283203,307.9418945,340.2793579,314.7658691,334.5020142,321.9528809z M137.7531738,346.0549316
				c-9.2463379-4.2329102-19.9636841-7.0892334-27.0240479-14.3452148
				c-3.3348389-3.4272461-5.8264771-7.6582031-8.4683838-11.614502c-2.7776489-4.159668-5.994751-7.855835-9.1467285-11.7205811
				c-6.3826294-7.8260498-11.7952881-18.0255127-11.8754883-28.3033447
				c-0.0429077-5.494751,3.4157715-9.5617676,5.2503052-14.4726562c1.2294922-3.2912598,1.6672974-6.6984863,1.8099365-10.1434326
				c1.098938,0.9559326,2.1705322,1.9797363,3.2030029,3.1307373c4.2214355,4.7058105,8.0250244,9.4780273,13.2168579,13.1813965
				c0.6000977,0.4279785,1.1946411,0.6481934,1.7628174,0.7124023c2.0772705,3.342041,4.8743286,6.0897217,8.7137451,7.6638184
				c4.321167,1.7714844,9.6465454,0.9709473,14.194397,1.3300781c5.9163208,0.4671631,9.4976196,5.217041,11.8526611,10.1396484
				c2.2622681,4.7287598,3.6026001,9.800293,6.1461792,14.416748c1.2225342,2.21875,2.7756958,4.2202148,4.4696655,6.1166992
				c-4.2116089,4.4851074-6.7390747,12.1760254-8.5778198,16.6911621
				C140.9928589,334.4549561,139.0654297,340.1975098,137.7531738,346.0549316z M282.8690796,392.2576904
				c-6.8116455,8.1671143-15.0559692,16.0545654-23.5,22.5272217c-9.7272949,7.4560547-21.5437012,11.9456787-33.7495117,9.0048828
				c-12.0220337-2.8966064-22.7167969-10.0559082-34.2289429-14.4133301
				c-11.3972168-4.3137207-24.1355591-6.5894775-34.3493042-13.5266113
				c-7.9990845-5.4331055-10.5748901-15.4885254-12.222229-24.420166
				c-2.2615356-12.2618408,0.0841675-24.378418,4.3763428-35.9279785c1.3618164-3.6643066,2.8839111-7.284668,4.5720215-10.8094482
				c0.7875366-1.6444092,2.0571899-4.8389893,3.7625732-6.7484131c0.8081055,0.7961426,1.6107178,1.5922852,2.3862915,2.3974609
				c3.9173584,4.0667725,6.7503662,8.7858887,11.3259888,12.2167969c4.8543091,3.6397705,11.7803345,2.6574707,17.3555298,4.0222168
				c6.2370605,1.5268555,11.328125,1.9257812,17.5287476-0.262085c3.1613159-1.1153564,6.1049805-2.6627197,9.3590698-3.5400391
				c3.413208-0.920166,7.3873901,1.288208,10.6331177,2.135498c4.9966431,1.3043213,7.1147461-6.4122314,2.126709-7.7142334
				c-5.2303467-1.3652344-9.4009399-3.0495605-14.8865356-2.135498c-6.2385864,1.0394287-11.059021,5.246582-17.6810303,4.9870605
				c-2.6869507-0.1053467-5.4110107-1.3775635-8.0650024-1.8291016c-2.6339111-0.4482422-5.317749-0.506958-7.9576416-0.9152832
				c-5.6837158-0.8793945-8.7440796-6.2498779-12.0751343-10.3675537c-1.586853-1.9615479-3.3591309-3.7580566-5.1520996-5.5369873
				c-0.4528198-1.0791016-1.3106689-2.0124512-2.4663086-2.4587402c-1.1931152-1.2025146-2.3653564-2.4240723-3.4620972-3.7139893
				c-3.4685059-4.0794678-5.0053711-9.4442139-6.9328613-14.3302002c-3.3910522-8.595459-9.225708-16.06604-18.9561157-17.2739258
				c-4.0444336-0.5020752-8.2073975-0.0007324-12.1977539-0.8653564c-5.2276611-1.1328125-7.0537109-8.3676758-8.3126831-12.769043
				c-2.9598389-10.3482666-2.921814-21.8358154-2.0360107-32.487793
				c1.2131348-14.5890503,7.8024292-34.6231079,23.2254639-39.1896973c0.5516357,0.3049316,1.1760254,0.4899292,1.8642578,0.4683228
				c3.3157959-0.104126,9.1803589,0.1049805,10.621582,3.8466187c0.8999634,2.3363647,3.2188721,3.0216064,5.1304932,2.5513916
				c4.6035156,11.7680054,9.887207,23.1852417,16.7053833,33.8701172
				c7.7669678,12.1716309,12.5953369,25.246582,17.6497803,38.6400146
				c-0.1801758,2.1541748-0.3085938,4.3131104-0.3400879,6.4815674c-0.2576904,17.7558594,9.510376,39.0927734,28.354126,42.5944824
				c9.3648071,1.7402344,20.6094971,2.3891602,29.8839722,0.1096191c2.6617432-0.6542969,5.2557983-1.5097656,7.8605957-2.3311768
				c3.4839478,1.9309082,0.4988403,6.6184082-2.8071289,8.9224854c-3.1585083,2.2011719-6.8496704,4.145874-8.9910278,7.4822998
				c-3.6500244,5.6871338-3.3134155,12.1993408,0.6636963,17.6092529
				c7.5686646,10.295166,23.5650635,16.7250977,35.9089966,18.3771973
				c6.6382446,0.8884277,13.6757202,0.2646484,20.5109253-1.536377
				C295.8131104,375.1428223,288.8434448,385.0944824,282.8690796,392.2576904z M438.0028687,284.6872559
				c-0.7992554,12.206543-4.8966064,24.4698486-11.1853638,34.9138184
				c-5.1664429,8.5799561-15.7505493,20.135498-26.53125,20.340332c-0.3722534,0.0070801-0.7097168,0.0654297-1.0282593,0.1489258
				c-2.2997437-1.366333-6.1767578-0.2648926-6.3330078,3.2907715c-0.4130859,9.3991699-7.8084106,15.5145264-15.4925537,19.7127686
				c-8.288269,4.5283203-19.3607788,8.083252-28.8550415,6.7362061
				c-9.8980103-1.4042969-19.1820068-7.0087891-28.3196411-10.8378906c-1.6472778-0.6903076-3.7161865-1.703125-5.9572754-2.6708984
				c3.5383911-2.3911133,6.7683105-5.0921631,9.5422363-8.0344238c7.1802368-7.6162109,13.3465576-16.6171875,19.6547852-24.9605713
				c5.5593872-7.3529053,8.0215454-15.5726318,7.5690308-24.7618408c-0.0789795-1.6033936-0.9137573-2.708252-2.0167236-3.3127441
				c3.09198-0.6098633,6.2593994-1.9873047,7.6399536-4.7102051c1.7579956-3.467041,1.5614014-7.166626,0.0917969-10.5090332
				c1.40802,0.9796143,3.335144,1.1242676,4.8777466-0.4875488c5.4770508-5.7233887,6.7132568-13.3430176,5.7561035-21.0600586
				c1.0608521,3.6148682,6.9019165,4.6418457,7.597168,0.2478027c2.9979858-18.9470215,7.5527954-38.7872314,2.7693481-57.8276367
				c-2.2459717-8.9400024-8.2883911-15.0762329-13.0911255-22.6185303
				c-4.6809082-7.3508911-8.9783325-14.8587646-16.190979-20.0385132
				c-7.0856323-5.088623-17.6147461-5.9171753-25.0437012-1.2920532c-4.2648926,2.6552734-7.1359253,7.0179443-11.3283081,9.749939
				c-0.0001221-0.0253906,0.0039673-0.0483398,0.0019531-0.0748291c-0.0983887-1.2868652,0.1266479-2.5870361,0.3540649-3.8446655
				c0.4536133-2.5085449,1.1810913-4.9315186,1.4564209-7.4781494c0.2734375-2.5291138,0.0932007-4.854126-0.4840088-6.9642334
				c16.1190796-4.5427856,30.1766357-19.3418579,47.6362915-16.0779419
				c7.6975708,1.4389648,15.0543823-1.7348633,22.6256104-2.3477783c0.0775146,0.1204834,0.1473389,0.2424316,0.2294922,0.3620605
				c1.8016357,2.6239624,5.1604004,2.0742188,6.7443848,0.2592163c8.1242676,2.8786621,13.3103027,13.7997437,17.1565552,20.4523315
				c10.1766357,17.6016846,25.1309204,38.9416504,16.1505127,60.0270996
				c-4.0644531,9.5430908-11.6417236,18.8114014-18.6205444,26.3551025
				c-7.2939453,7.8842163-17.4649048,11.4324341-26.1582031,17.4015503
				c-4.2232056,2.8999023-0.2277832,9.8366699,4.0377197,6.9078369
				c9.3364868-6.4107666,19.7710571-10.3691406,27.7773438-18.6525269
				c3.4603882-3.5801392,6.9129028-7.5947876,10.086731-11.8554077c1.0927734,7.2073364,8.3726807,12.2735596,11.7929688,18.9208984
				C438.0878906,260.1501465,438.7279053,273.614502,438.0028687,284.6872559z"/>
			<path d="M252.0741577,111.0848999c5.4334106,2.8287964,12.1070557,0.9766235,16.7225342,5.505188
				c5.9337769,5.8220825,13.4063721,7.6898193,21.18573,9.9263916c4.9690552,1.4286499,7.0755005-6.2914429,2.126709-7.7142334
				c-5.0588379-1.4544678-10.4585571-2.5405884-14.9277344-5.4390869c-1.7735596-1.1502075-3.1233521-2.9360962-4.7597046-4.2666016
				c-2.1514893-1.7493896-4.6646729-2.6380615-7.3271484-3.3017578c-1.4639282-0.3648682-9.4567871-2.3227539-10.1243286-1.8209229
				c2.701355-2.0308838,8.8382568-0.3557739,11.9866333-0.28302c5.1619873,0.1192627,5.1504517-7.8809814,0-8
				c-5.3655396-0.1239624-11.9949951-1.6540527-16.6526489,1.8475952
				C245.2167969,101.3631592,246.8713989,108.3762207,252.0741577,111.0848999z"/>
			<path d="M138.6967163,85.7130737c2.7939453-2.5150757,6.0697021-4.4224243,8.4683838-7.5320435
				c1.3355103-1.7313232,0.2655029-4.4766235-1.4349976-5.4727783c-2.0631714-1.2085571-4.1438599-0.2877808-5.4727783,1.4350586
				c-1.7999878,2.3334961-4.9291382,3.8530273-7.2174683,5.9129028c-1.6210327,1.4592285-1.4804688,4.1763916,0,5.6568604
				C134.6414185,87.3146362,137.0776367,87.1705322,138.6967163,85.7130737z"/>
		</g>
	</g>
</g>
</svg>
