<?xml version="1.0" encoding="utf-8"?>
<!-- Generator: Adobe Illustrator 18.0.0, SVG Export Plug-In . SVG Version: 6.00 Build 0)  -->
<!DOCTYPE svg PUBLIC "-//W3C//DTD SVG 1.1//EN" "http://www.w3.org/Graphics/SVG/1.1/DTD/svg11.dtd">
<svg version="1.1" id="Layer_1" xmlns="http://www.w3.org/2000/svg" xmlns:xlink="http://www.w3.org/1999/xlink" x="0px" y="0px"
	 width="500px" height="500px" viewBox="0 0 500 500" enable-background="new 0 0 500 500" xml:space="preserve">
<g>
	<g>
		<g>
			<path d="M390.852478,182.3226318c-1.5962524-18.9563599-9.993042-37.9564209-28.5339355-45.5875854
				c-8.7892456-3.6174927-17.7678833-4.4928589-26.6902466-3.6257935c-0.2474365-0.3156128-0.5389404-0.6147461-0.8908081-0.885437
				c-9.5132446-7.3178711-20.9992065-12.3682861-32.7429199-7.3009033c-1.7503052,0.755249-3.4067383,1.6599121-5.00354,2.6585083
				c-9.0123291-7.6991577-20.1886597-13.1953125-31.6149292-9.1848145c0.8327637-4.3241577,1.9014893-9.3157349,5.656311-11.9406738
				c3.7701416-2.6356812,9.2666626-1.9725952,13.5598145-1.5858154c5.0193481,0.4522095,12.3483887,0.2407837,15.5876465,4.6929932
				c2.3270874,3.1984863,4.2120361,8.2794189,7.9735107,10.0949707c6.3118896,3.0464478,13.3203735-6.5806885,16.8184204-10.4887085
				c4.8947144-5.4683838,10.8188477-11.5639648,12.8133545-18.8217773c1.1033325-4.0149536-0.7230835-7.2617188-3.8814697-9.5628052
				c-1.6814575-1.2250366-3.8757935-1.9251099-5.7407227-2.8168945c-3.0827637-1.4741821-5.954834-3.3648682-8.9671021-4.9733887
				c-11.4610596-6.1201172-25.9616699-2.9068604-37.8394165,0.3483887
				c-11.8665161,3.2521973-24.0888062,8.1624146-32.9371948,16.9557495
				c-7.4508057,7.4044189-11.512207,17.246521-14.2660522,27.3731689
				c-10.8100586-0.7771606-21.6384888-0.3312988-32.052002,2.9727783
				c-7.8861084,2.5021362-15.1566772,6.5941772-22.3410034,10.6972046
				c-4.8815308-3.3984985-10.3425293-5.5106201-16.8359375-5.5250854c-5.2723999-0.0117188-5.7377319,7.3918457-1.4324341,8.7625732
				c-15.1386108,1.1784668-27.0081177,9.5053711-35.7956543,20.8147583
				c2.4904785-4.7662964,7.2985229-8.9885254,10.7418823-12.2731934c4.206665-4.0127563-2.1668701-10.3676147-6.3639526-6.3640137
				c-8.0927124,7.7197266-18.6989136,18.6279297-13.9867554,30.8391113c0.246582,0.638916,0.5895996,1.1653442,0.9955444,1.5934448
				c-0.7540283,1.5043335-1.4724731,3.0253296-2.1455688,4.5611572c-2.3060303,5.2617188,5.446228,9.8474731,7.7712402,4.5424805
				c7.1557007-16.3273315,18.1547852-31.1077271,36.6560669-34.4351807
				c8.081604-1.4534302,16.878479-0.2233887,24.2440186,3.3243408c5.6600952,2.7262573,14.3015747,8.2755127,15.12854,15.3579102
				c-0.4313965,0.0564575-0.8626099,0.1159058-1.2927856,0.1886597c-7.0263062,1.1884155-13.6880493,3.496521-20.1463623,6.4760742
				c-12.9489136,5.973938-24.2232666,16.0804443-31.0888672,28.6010132
				c-2.791748,5.0911865,4.9804688,9.6318359,7.7712402,4.5424805
				c5.7763062-10.5340576,14.6245728-18.3536987,25.1307983-24.0099487
				c5.463623-2.9414673,11.3685303-4.9146729,17.3980103-6.3093872c7.1912231-1.6633911,14.6798096-0.8093262,21.901123-2.4901733
				c6.9667358-1.6216431,13.1442871-3.125061,20.411499-1.8551025c7.9119263,1.3825684,13.1923828,5.7122192,12.5963135,14.1442871
				c-0.409668,5.7947998,8.5931396,5.755127,9,0c0.1159668-1.6401367,0.0653076-3.1704102-0.1035767-4.618103
				c6.7172852-4.2650146,12.1600342-10.1095581,18.8182983-14.4616089
				c5.4647217-3.5719604,11.2045288-3.4346924,17.3985596-2.6937866c5.7073975,0.6827393,13.3037109,2.4581909,19.1955566,5.668335
				c25.5756226,13.9346924,27.9213867,50.7224731,28.0084229,76.1450195c0.0198975,5.8027344,9.0198975,5.8046875,9,0
				c-0.0996704-29.0979614-3.8527832-67.2626953-31.9231567-83.6104736
				c-5.3471069-3.1140747-11.1719971-4.9313965-17.1627197-6.0948486
				c21.5466309-9.8181152,48.4708862-17.8599243,66.6161499,0.6532593
				c7.5512085,7.7044067,10.5438843,19.0785522,11.586792,29.5068359
				c1.5177002,15.1760254-0.3738403,30.7423096-2.6778564,45.7359619
				c-2.3605347,15.3616943-5.5237427,30.5415649-7.1118164,46.019104
				c-1.6340332,15.9248047-2.1157837,31.9507446-2.8728638,47.9331665
				c-0.6004028,12.6745605-1.1669922,25.7145386-6.3197632,37.5164185
				c-5.7982178,13.2800903-17.5679932,23.7369385-26.8533936,34.5898438
				c-3.7619019,4.3969727-7.2470703,8.9549561-10.690918,13.5994873c-3.3302002,4.491272-7.1711426,9.0013428-12.7331543,10.56604
				c-13.7252808,3.8612061-24.3257446-10.9547729-34.9962769-16.3192749
				c-10.2626953-5.1595459-17.164856,2.7664795-23.6741943,9.6082153
				c-8.5900879,9.0286865-20.3344116,11.3479614-32.2459106,8.671936
				c-13.3968506-3.0097656-21.96875-12.4541016-31.2856445-21.7974243
				c-10.8452759-10.8760376-22.380188-21.616394-32.1602173-33.4710693
				c-8.4633789-10.258728-12.6460571-23.7345581-16.6384888-36.1842041
				c-4.3959961-13.7078857-8.9334717-27.3198242-12.1203613-41.3756714
				c-3.4190063-15.0797119-4.7603149-30.4467773-6.8745728-45.7351074
				c-2.3169556-16.7540894-4.7996826-33.4724731-4.8870239-50.4232178c-0.0299072-5.8022461-9.0299072-5.8051147-9,0
				c0.081543,15.821167,2.2089844,31.4749146,4.4086304,47.1139526c2.1665649,15.4036865,3.5397339,30.9238892,6.5614014,46.1949463
				c2.8435059,14.3708496,7.3629761,28.1981201,11.8043823,42.1271362
				c3.9411011,12.3597412,7.8596191,24.8105469,14.4072876,36.0881348
				c7.2150879,12.4272461,18.8463135,22.4098511,28.8076172,32.5872192
				c9.5076904,9.7139893,18.7974243,21.1815186,30.6755981,28.0682373
				c9.6384277,5.5881958,21.6558228,8.1818848,32.6893921,6.3587036
				c11.9490967-1.9744873,19.2302856-8.9646606,27.3257446-17.2971802
				c4.0419312-4.1602783,6.9931641-3.5561523,11.6635742-0.3818359c5.6759033,3.8578491,10.5571289,8.4550171,16.7293701,11.6204834
				c10.7303467,5.5030518,22.5780029,5.2089844,31.8111572-2.7542725c3.8569336-3.3264771,6.8079834-7.7628174,9.7992554-11.8411865
				c4.3657227-5.9522705,9.3604126-11.4506226,14.2268066-16.9924927
				c9.0945435-10.3567505,18.1956177-20.1674194,23.1397095-33.2441406
				c4.4050903-11.6511841,4.84021-24.5965576,5.4299927-36.8936768c0.7669678-15.9904175,1.3250122-31.992981,2.8728638-47.9331665
				C384.0375977,243.4428711,393.4681396,213.3849487,390.852478,182.3226318z M323.2454224,135.3546143
				c-12.2498169,3.1687012-24.1705322,8.8218384-35.0994873,14.3299561
				c-0.6482544,0.3267212-1.144165,0.7340698-1.5056152,1.1915283c-1.5042114,0.1653442-2.9992065,0.4359131-4.4955444,0.8324585
				c4.8197021-3.9869385,9.28302-8.4592896,14.1212158-12.4188232c0.1993408,0.2089844,0.397644,0.4176025,0.5913086,0.6237183
				c3.8165894,4.0615845,9.8046875-1.6277466,6.7991943-5.8272095
				C310.4463501,130.5412598,317.0332031,131.9367065,323.2454224,135.3546143z M289.6624146,133.0775757
				c-2.505127,2.1554565-4.9190674,4.4470215-7.3549805,6.6895752c-0.9732666,0.3796387-1.6791992,1.0742798-2.1154175,1.9240723
				c-1.6065674,1.4360352-3.2368164,2.8276367-4.9232178,4.1212769c-3.175354,2.435791-1.9355469,6.9942627,0.6724243,8.3031006
				c-3.210144,1.6807861-6.0969238,3.914917-8.9076538,6.2838745c-0.0059814-0.4991455-0.1084595-1.0362549-0.3416138-1.6108398
				c-3.8894043-9.5858765-4.1630249-20.1555176-2.9343872-30.4063721c0.0689697,0.0026245,0.1281738,0.0197144,0.1988525,0.0197144
				c0.9509277,0,1.7300415-0.2585449,2.3693848-0.6625977C274.5238647,123.4128418,282.8604126,127.4978638,289.6624146,133.0775757
				z M329.3692627,88.5388184C329.4525757,88.5952759,329.430542,88.5911865,329.3692627,88.5388184L329.3692627,88.5388184z
				 M209.8363647,161.8099365c-0.7449951,0.0609741-1.4910889,0.1047974-2.2374878,0.1437988
				c-0.8626099-10.4660645-9.3294678-17.9697266-19.505249-22.4694214
				c-0.1830444-0.6506958-0.5386963-1.2941284-1.1108398-1.8930664c5.3081665-2.9939575,10.6943359-5.8533325,16.4325562-7.9041748
				c9.2202759-3.2952881,18.9468384-3.7349243,28.6165771-3.1595459c-0.3210449,1.4979248-0.6303711,2.9902954-0.927124,4.4662476
				c-1.4283447,7.104126-2.5966797,14.4208984-2.5145264,21.6848755c0.0200195,1.7694702,0.1577148,3.7327271,0.5526123,5.6345825
				c-3.2354736,0.1682739-6.3951416,0.6347046-9.2879028,1.3660889
				C216.4719849,160.534729,213.3666382,161.5209351,209.8363647,161.8099365z M239.4255981,158.859375
				c-0.144165-0.0924072-0.2974243-0.1802979-0.4606323-0.2630005c-3.605896-1.8269043-0.7559204-16.1149902-0.1911011-19.6500854
				c1.2345581-7.7263184,2.9993896-15.4307251,5.2785034-22.9172363
				c3.5443115-11.642334,10.184082-21.0509644,21.0078735-26.8588867
				c12.0665894-6.4747925,26.7720337-10.3481445,40.4403687-10.5396729
				c6.5201416-0.0913086,11.3955688,3.4957275,16.8862305,6.4810181c2.0316772,1.1046143,4.1914062,1.9515991,6.2456055,3.0114746
				c0.1596069,0.0823364,0.2840576,0.1497803,0.3893433,0.2084351c-0.2153931,0.9776611-0.6644287,1.9245605-1.161499,2.7796021
				c-3.7634277,6.4736938-9.5319214,12.4092407-14.8638916,17.5932007
				c-0.5358887,0.5210571-1.0829468,1.0338135-1.6535645,1.5170898c-0.0579834-0.0907593-0.1168213-0.1851807-0.1741943-0.270813
				c-2.7397461-4.090271-4.9492798-8.4544678-9.4992065-10.7567139c-5.1342773-2.5980225-11.4602661-2.7285156-17.0772095-3.3236694
				c-4.8095703-0.5096436-9.8303223-0.498291-14.4523926,1.0744019
				c-10.5235596,3.5808716-12.8641357,15.0521851-14.4769897,24.7233276
				c-2.15802,12.9403687-2.6657715,27.1499023,2.3505859,39.5133667c0.8615112,2.1231689,2.7731934,3.0227661,4.6166382,2.9963989
				c-1.7922974,1.5286255-3.6101685,3.0164185-5.5155029,4.3587646
				C253.3023682,163.0979614,246.6735229,160.0636597,239.4255981,158.859375z"/>
			<path d="M245.6263428,297.8449707c1.0330811,11.8527832,2.2877197,23.6638794,4.8733521,35.289856
				c2.5424194,11.4315796,5.9779663,22.6385498,8.3156128,34.1201172c1.1574097,5.6851196,9.8319092,3.2727051,8.6784668-2.3925781
				c-2.2144165-10.8764038-5.329834-21.53125-7.9008179-32.3233643
				c-2.8712769-12.0524292-4.0635376-24.3324585-5.1373291-36.6524048
				c-2.114563-24.2611084,0.3466187-48.2984009-0.432373-72.5560303c-0.1859131-5.7888184-9.1865234-5.8068848-9,0
				c0.399231,12.432312-0.3164062,24.8475342-0.6879883,37.2711792
				C243.9625854,273.0620728,244.5444946,285.432373,245.6263428,297.8449707z"/>
			<path d="M137.2928467,269.3399658c0.2930298,17.90448,2.9226074,35.7519531,7.6608276,53.0117188
				c1.5345459,5.5897827,10.2175293,3.2136841,8.6784668-2.3925171c-4.3821411-15.9627075-6.7563477-32.2064209-7.2937012-48.74646
				c-0.2491455-7.6698608,0.2675171-15.3078613,0.2544556-22.9708862
				c-0.0108032-6.2828369-0.9514771-13.5559082,1.7745972-19.4326782c2.425415-5.2286377-5.3309326-9.8031616-7.7712402-4.5424805
				c-2.8659058,6.1781616-3.1012573,12.7982178-3.0571289,19.512207
				C137.5951538,252.3036499,137.1533203,260.8135986,137.2928467,269.3399658z"/>
		</g>
	</g>
</g>
</svg>
