<?xml version="1.0" encoding="utf-8"?>
<!-- Generator: Adobe Illustrator 18.0.0, SVG Export Plug-In . SVG Version: 6.00 Build 0)  -->
<!DOCTYPE svg PUBLIC "-//W3C//DTD SVG 1.1//EN" "http://www.w3.org/Graphics/SVG/1.1/DTD/svg11.dtd">
<svg version="1.1" id="Layer_1" xmlns="http://www.w3.org/2000/svg" xmlns:xlink="http://www.w3.org/1999/xlink" x="0px" y="0px"
	 width="500px" height="500px" viewBox="0 0 500 500" enable-background="new 0 0 500 500" xml:space="preserve">
<g>
	<g>
		<g>
			<path d="M291.181,60.133c-44.057-6.395-88.685-1.195-129.285,17.413c-35.342,16.198-65.796,42.527-87.47,74.734
				c-19.696,29.268-31.785,64.335-31.533,99.785c0.266,37.403,17.031,71.52,39.88,100.374
				c48.122,60.766,129.334,95.788,206.523,89.487c36.722-2.997,72.194-16.156,100.459-40.046
				c37.152-31.4,59.558-80.317,65.615-127.969c6.254-49.205-5.424-99.487-35.064-139.529
				c-27.201-36.747-67.734-62.134-112.378-71.559c-5.928-1.252-11.928-2.137-17.943-2.851c-5.756-0.683-5.69,8.324,0,9
				c46.135,5.478,88.64,28.599,118.211,64.416c31.921,38.662,44.26,89.634,38.375,138.942c-5.72,47.93-29.355,96.331-67.446,126.688
				c-28.786,22.941-65.751,33.573-102.147,34.579c-77.983,2.154-157.333-38.502-199.724-104.176
				c-10.055-15.577-18.283-32.539-22.375-50.686c-3.672-16.285-3.854-33.403-1.386-49.879c5.378-35.904,23.16-69.283,47.515-95.902
				c47.529-51.947,118.719-74.167,187.78-64.143C294.463,69.635,296.906,60.964,291.181,60.133L291.181,60.133z"/>
		</g>
	</g>
	<g>
		<g>
			<path d="M238.658,147.753c0.94,29.632,0.44,59.292-0.686,88.911c-0.497,13.083-1.419,26.156-1.838,39.24
				c-0.394,12.319-0.598,24.785-4.429,36.622c-1.792,5.538,6.899,7.89,8.679,2.393c3.813-11.785,4.327-24.366,4.682-36.654
				c0.367-12.702,1.249-25.392,1.768-38.089c1.258-30.782,1.801-61.624,0.824-92.422
				C247.474,141.964,238.473,141.946,238.658,147.753L238.658,147.753z"/>
		</g>
	</g>
	<g>
		<g>
			<path d="M243.968,309.791c41.015-32.037,79.377-71.529,128.418-91.311c5.311-2.142,2.993-10.851-2.393-8.679
				c-50.643,20.428-90.026,60.535-132.39,93.626C233.034,306.997,239.452,313.319,243.968,309.791L243.968,309.791z"/>
		</g>
	</g>
	<g>
		<g>
			<path d="M87.265,254.798c5.804,0,5.804-9,0-9C81.461,245.798,81.461,254.798,87.265,254.798L87.265,254.798z"/>
		</g>
	</g>
	<g>
		<g>
			<path d="M240.194,100.981c5.804,0,5.804-9,0-9C234.39,91.981,234.39,100.981,240.194,100.981L240.194,100.981z"/>
		</g>
	</g>
	<g>
		<g>
			<path d="M413.572,221.012c5.804,0,5.804-9,0-9C407.768,212.012,407.768,221.012,413.572,221.012L413.572,221.012z"/>
		</g>
	</g>
	<g>
		<g>
			<path d="M251.752,403.281c5.804,0,5.804-9,0-9C245.949,394.281,245.949,403.281,251.752,403.281L251.752,403.281z"/>
		</g>
	</g>
</g>
</svg>
