<?xml version="1.0" encoding="utf-8"?>
<!-- Generator: Adobe Illustrator 18.0.0, SVG Export Plug-In . SVG Version: 6.00 Build 0)  -->
<!DOCTYPE svg PUBLIC "-//W3C//DTD SVG 1.1//EN" "http://www.w3.org/Graphics/SVG/1.1/DTD/svg11.dtd">
<svg version="1.1" id="Layer_1" xmlns="http://www.w3.org/2000/svg" xmlns:xlink="http://www.w3.org/1999/xlink" x="0px" y="0px"
	 width="500px" height="500px" viewBox="0 0 500 500" enable-background="new 0 0 500 500" xml:space="preserve">
<g>
	<g>
		<g>
			<path d="M147.707,282.683c0.018,1.291,0.033,2.58,0.043,3.862c0.095,11.559,2.105,22.707,4.307,34.02
				c1.069,5.494,2.194,11.027,2.412,16.632c0.249,6.415-2.164,11.272-5.663,16.426c-2.719,4.005-5.074,8.001-6.641,12.6
				c-1.559,4.576-3.09,8.806-6.181,12.609c-1.708,2.102-3.482,4.125-5.274,6.122c1.29-0.594,2.843-0.495,4.268,0.132
				c1.814,0.798,3.61,1.776,5.495,2.394c1.188-1.392,2.354-2.803,3.457-4.275c2.387-3.185,4.054-6.598,5.487-10.298
				c2.067-5.335,3.917-9.958,7.16-14.741c6.298-9.288,7.632-18.062,6.073-29.09c-1.66-11.738-4.809-23.195-5.704-35.047
				c-0.89-11.8-0.399-23.545-1.912-35.334c-1.361-10.601-4.214-18.92-9.943-27.913c-5.981-9.388-9.62-19.378-11.773-30.286
				c-0.812-4.112-1.266-8.295-1.995-12.424c-0.646-3.656-1.888-8.766,0.458-12.016c3.404-4.716-4.409-9.201-7.771-4.542
				c-4.555,6.312-1.945,15.56-0.731,22.546c1.822,10.487,3.755,20.343,7.942,30.211c3.896,9.183,11.175,16.6,13.451,26.47
				c1.611,6.988,2.355,14.225,2.72,21.466c1.295,0.706,2.594,1.413,3.828,2.205C155.742,277.308,152.169,284.237,147.707,282.683z"
				/>
			<path d="M128.517,387.38c-4.38,4.824-8.767,9.614-12.514,15.108c-1.491,2.186-0.244,4.781,1.615,6.157
				c8.6,6.37,23.157,5.139,32.756,2.019c9.171-2.981,12.418-13.652,15.296-22.499c0.475,0.172,0.953,0.35,1.44,0.528
				c2.377,0.869,4.832-0.958,5.536-3.143c2.017-6.263,1.575-12.719,1.644-19.204c0.08-7.575,3.265-14.798,4.906-22.108
				c1.447-6.443,1.797-13.082,3.141-19.547c1.457-7.005,5.138-12.469,8.949-18.364c6.112-9.454,6.403-21.252,7.587-32.444
				c-0.978-1.765-2.196-3.245-3.776-4.185c-0.528-0.314-0.943-0.684-1.268-1.087c-1.194-0.961-1.858-2.508-1.251-4.446
				c1.44-4.597,5.105-7.61,9.279-9.838c1.548-11.525,2.532-23.176,6.166-34.235c1.817-5.53-6.875-7.88-8.678-2.393
				c-4.631,14.092-4.72,29.029-7.581,43.486c-1.385,6.999-2.402,13.941-3.033,21.049c-0.684,7.702-1.84,14.327-6.082,20.888
				c-3.666,5.67-6.829,11.023-8.616,17.596c-1.72,6.323-2.041,12.997-3.18,19.434c-1.292,7.3-4.163,14.195-5.189,21.556
				c-0.782,5.609-0.006,11.289-0.709,16.847c-0.323-0.071-0.644-0.146-0.98-0.195c-2.59-0.38-4.613,0.618-5.535,3.143
				c-2.305,6.307-4.194,18.444-11.408,20.789c-5.687,1.848-13.965,2.839-20.341,0.812c2.358-2.982,4.895-5.789,7.454-8.571
				c-1.235-0.551-2.464-1.132-3.708-1.679C128.434,391.976,127.828,389.317,128.517,387.38z"/>
			<path d="M223.961,362.331c1.107-1.184,1.868-2.537,2.49-3.961c-2.714-1.758-5.76-3.086-8.767-4.412
				c-0.33-0.145-0.657-0.251-0.979-0.321c1.401-1.541,2.718-3.132,3.858-4.763c3.293-4.713,1.193-10.662,0.703-15.798
				c-0.627-6.58,0.962-13.297,0.706-19.912c-0.224-5.787-2.468-10.123-5.693-14.784c-2.731-3.946-3.641-8.395-4.737-12.992
				c-1.687-7.073-3.425-15.774-8.853-21.087c-0.667,0.68-1.173,1.427-1.433,2.257c-1.125,3.593-5.2,3.846-7.427,2.053
				c0.325,0.403,0.74,0.774,1.268,1.087c1.58,0.94,2.798,2.42,3.776,4.185c2.67,4.819,3.489,11.823,4.549,16.226
				c0.852,3.541,1.843,6.941,3.46,10.214c1.123,2.273,2.836,4.299,4.208,6.424c1.895,2.936,1.945,6.324,1.947,9.703
				c0.002,5.556-0.914,11.059-0.77,16.625c0.07,2.697,0.844,5.35,1.119,8.026c0.337,3.282-2.159,5.078-4.287,7.111
				c-3.297,3.149-6.383,6.499-9.729,9.621c-3.596,3.355-6.637,7.118-8.139,11.852c-0.916,2.888,1.522,5.589,4.339,5.696
				c12.135,0.461,24.47,1.192,35.532-4.698c1.926-1.026,2.7-3.583,1.896-5.561c-0.74,1.233-1.599,2.424-2.672,3.573
				C226.353,372.942,220.002,366.564,223.961,362.331z M203.134,366.702c2.065-2.351,4.641-4.381,6.822-6.389
				c0.324-0.298,0.651-0.604,0.979-0.909c0.278,0.938,0.97,1.779,2.207,2.325c2.356,1.039,5.183,2.048,7.607,3.494
				C215.106,366.825,209.086,366.908,203.134,366.702z"/>
			<path d="M230.376,266.543c1.307,5.383,2.438,9.789,1.901,15.394c-0.523,5.466-1.577,10.757-1.484,16.276
				c0.102,6.021,1.488,11.975,2.139,17.942c0.599,5.488,0.48,11.037,1.099,16.519c0.42,3.716,1.831,7.245,2.232,10.957
				c0.212,1.962-4.951,4.149-6.193,6.101c-1.701,2.675-2.381,5.8-3.621,8.638c-0.622,1.424-1.383,2.777-2.49,3.961
				c-3.959,4.233,2.392,10.611,6.364,6.364c1.074-1.148,1.932-2.339,2.672-3.573c1.508-2.511,2.485-5.212,3.504-8.187
				c1.288-3.76,5.594-4.965,7.774-8.203c2.077-3.085,0.7-7.925-0.046-11.185c-1.34-5.854-1.597-11.523-1.977-17.519
				c-0.389-6.136-1.579-12.155-2.226-18.26c-0.644-6.088,0.229-12.02,1.037-18.042c0.766-5.713,0.375-10.767-1.119-16.316
				c-1.523-5.659-1.94-11.463-3.269-17.135c-2.845,1.035-5.672,2.12-8.492,3.22C229.073,257.818,229.333,262.243,230.376,266.543z"
				/>
			<path d="M192.578,264.166c-0.607,1.938,0.058,3.485,1.251,4.446c2.228,1.793,6.302,1.54,7.427-2.053
				c0.26-0.829,0.765-1.577,1.433-2.257c3.037-3.097,9.547-4.757,12.801-5.939c4.26-1.547,8.472-3.218,12.694-4.866
				c2.82-1.101,5.647-2.185,8.492-3.22c1.526-0.555,3.056-1.101,4.597-1.618c9.18-3.081,17.871-3.159,27.255-1.037
				c3.824,0.865,9.45,1.15,12.529,3.777c2.31,1.971,2.77,6.471,4.456,9.016c3.189,4.814,10.987,0.312,7.771-4.542
				c-2.336-3.526-3.033-7.544-5.864-10.838c-3.137-3.651-8.648-4.273-13.015-5.274c-11.68-2.677-22.146-3.675-33.829-0.312
				c-10.432,3.003-20.476,7.595-30.638,11.399c-2.611,0.977-5.447,2.074-8.081,3.48
				C197.683,256.556,194.018,259.568,192.578,264.166z"/>
			<path d="M342.02,228.68c-5.75,4.363-12.02,7.919-18.528,11.031c-6.063,2.899-12.778,4.079-18.742,7.044
				c-5.02,2.496-6.499,9.716-10.277,13.574c-4.142,4.229-7.183,8.516-8.963,14.214c-1.735,5.555,6.954,7.913,8.679,2.393
				c1.8-5.762,5.795-8.852,9.505-13.326c1.744-2.104,2.817-4.648,4.078-7.047c1.417-2.694,4.034-3.018,6.759-3.752
				c9.968-2.686,19.632-7.739,28.279-13.69c0.005-0.742,0.006-1.482,0.017-2.227C342.869,234.072,342.686,231.201,342.02,228.68z"/>
			<path d="M335.784,407.562c1.302-0.309,2.748-0.059,4.014,1.085c0.711,0.643,1.563,1.391,2.488,2.135
				c4.953-4.65,8.346-10.798,10.904-17.102c4.353-10.728,8.312-22.429,10.459-33.805c2.312-12.252,1.17-24.834,0.291-37.165
				c-0.423-5.937-0.551-11.862-1.519-17.744c-0.958-5.819-2.889-11.476-4.576-17.111c-3.256-10.881-5.223-21.955-5.916-33.289
				c-0.602-9.857,1.361-20.568-1.424-30.151c-5.859-20.158-30.503-10.54-43.078-4.442c-5.221,2.532-0.656,10.292,4.542,7.771
				c6.087-2.952,12.449-6.113,19.29-6.691c6.548-0.553,9.513,2.911,10.759,7.627c0.666,2.521,0.849,5.392,0.807,8.212
				c-0.011,0.745-0.013,1.486-0.017,2.227c-0.114,18.741,1.927,36.462,7.382,54.535c2.946,9.759,4.048,18.925,4.749,29.055
				c0.743,10.75,1.592,21.462,0.422,32.215c-1.165,10.707-5.677,21.16-8.971,31.339c-2.356,7.282-6.173,15.71-12.798,20.025
				c-0.287,0.187-0.539,0.391-0.762,0.608C333.92,406.758,334.936,407.032,335.784,407.562z"/>
			<path d="M39.562,88.286c-4.248-2.139-8.439-4.579-13.322-4.59c-1.223-0.003-2.173-0.419-2.88-1.052
				c-5.037,1.454-9.76,4.572-12.933,8.407c-1.104,1.334-1.299,2.844-0.937,4.185c0.621-2.131,2.578-3.807,5.315-2.936
				c1.778,0.566,3.355,1.377,4.796,2.355c4.916-3.952,11.517-5.234,17.087-1.462c5.68,3.847,11.422,6.932,17.396,1.816
				c0.881-0.755,1.326-1.611,1.448-2.469c-0.481,0.143-1.012,0.223-1.622,0.178C48.74,92.339,44.162,90.602,39.562,88.286z"/>
			<path d="M9.49,95.237c-0.638,2.188,0.132,4.855,2.923,5.743c6.546,2.083,9.946,10.718,14.694,15.233
				c5.761,5.48,11.703,6.169,18.728,3.914c0.005-0.428,0.062-0.856,0.181-1.273c-0.119-0.68-0.168-1.372-0.145-2.049
				c0.045-1.352,0.63-2.514,1.523-3.317c0.333-0.743,0.865-1.382,1.524-1.853c-0.953-0.907-2.339-1.308-4.023-0.687
				c-2.813,1.038-5.697,2.457-8.587,1c-3.253-1.639-5.616-5.005-7.749-7.834c-2.682-3.557-5.391-7.037-8.957-9.458
				c-1.441-0.979-3.018-1.789-4.796-2.355C12.068,91.43,10.111,93.106,9.49,95.237z"/>
			<path d="M48.958,82.735c0.098-0.854,0.459-1.717,1.168-2.51c0.43-0.481,0.846-0.963,1.257-1.442
				c-8.293-0.752-16.125-4.422-24.541-4.688c-1.669-0.053-2.841,0.665-3.549,1.702c0.713-0.665,1.684-1.104,2.947-1.101
				C34.751,74.716,41.323,80.366,48.958,82.735z"/>
			<path d="M56.49,86.589c-3.163,3.538-7.966-0.065-7.532-3.854c-7.635-2.37-14.206-8.019-22.717-8.039
				c-1.263-0.003-2.234,0.436-2.947,1.101c-1.874,1.747-1.852,5.132,0.067,6.848c0.708,0.633,1.657,1.049,2.88,1.052
				c4.882,0.011,9.073,2.451,13.322,4.59c4.6,2.316,9.178,4.052,14.347,4.433c0.61,0.045,1.141-0.034,1.622-0.178
				c2.842-0.847,3.427-4.585,1.786-6.925C57.049,85.942,56.777,86.268,56.49,86.589z"/>
			<path d="M105.044,76.662c0.992-0.283,1.989-0.543,2.985-0.807c-8.518-7.503-17.086-8.193-28.038-7.297
				c-5.841,0.478-11.709,0.396-17.443,1.763c-5.208,1.242-7.982,4.749-11.165,8.463c-0.41,0.479-0.827,0.961-1.257,1.442
				c-0.709,0.793-1.071,1.656-1.168,2.51c-0.434,3.789,4.37,7.392,7.532,3.854c0.287-0.321,0.559-0.647,0.828-0.973
				c2.242-2.715,4.014-5.5,7.623-6.617c4.276-1.323,9.07-1.034,13.495-1.32c8.942-0.578,16.241-1.71,23.42,4.699
				c0.116,0.104,0.235,0.197,0.354,0.286C101.353,80.41,102.053,77.514,105.044,76.662z"/>
			<path d="M142.826,77.505c0.133,0.023,0.264,0.051,0.396,0.076c0.102-0.02,0.203-0.04,0.305-0.06
				c5.687-1.148,3.274-9.822-2.393-8.679c-11.063,2.232-22.194,4.115-33.105,7.012c-0.996,0.265-1.993,0.525-2.985,0.807
				c-2.991,0.852-3.691,3.748-2.835,6.003c0.739,1.946,2.636,3.414,5.227,2.676c3.935-1.121,7.904-2.082,11.891-2.967
				c6.366-2.931,12.145-7.016,17.725-11.273C141.131,67.989,145.094,73.732,142.826,77.505z"/>
			<path d="M114.655,88.09c3.222,1.107,7.001-0.93,9.96-2.136c2.861-1.166,5.699-2.357,8.732-2.949
				c-0.664-2.564,0.719-5.801,4.172-5.903c1.841-0.054,3.601,0.103,5.307,0.403c2.268-3.774-1.695-9.517-5.774-6.405
				c-5.579,4.257-11.358,8.342-17.725,11.273c-1.711,0.788-3.455,1.51-5.26,2.108c-2.073,0.687-3.025,2.358-3.109,4.071
				C111.894,87.849,113.156,87.575,114.655,88.09z"/>
			<path d="M133.347,83.005c-3.033,0.592-5.871,1.783-8.732,2.949c-2.959,1.206-6.738,3.244-9.96,2.136
				c-1.499-0.515-2.761-0.242-3.697,0.462c-2.502,1.88-2.664,6.852,1.305,8.216c6.277,2.158,12.727-1.39,18.462-3.624
				c2.657-1.035,5.178-1.382,7.604-1.225c1.674-0.242,3.4-0.384,5.206-0.382c2.431,0.003,3.829,1.587,4.224,3.422
				c1.663,0.92,3.302,1.993,4.933,3.159c0.726,0.519,1.446,0.772,2.128,0.821c0.501-0.713,0.922-1.472,1.218-2.294
				c0.591-1.645,1.805-2.572,3.153-2.917c-0.047-0.578-0.2-1.151-0.477-1.69c-7.003-2.414-13.665-6.159-21.194-5.937
				C135.175,86.172,133.797,84.741,133.347,83.005z"/>
			<path d="M120.075,107.178c1.663-0.077,3.332,0,5.001,0.131c5.405-4.035,11.107-6.778,18.458-6.77
				c3.373,0.004,4.771-3.031,4.224-5.578c-0.395-1.836-1.793-3.42-4.224-3.422c-1.806-0.002-3.533,0.139-5.206,0.382
				c-9.469,1.372-16.994,6.442-24.442,12.966c-2.935,2.571-1.021,6.267,1.868,7.273C115.63,109.825,117.064,107.316,120.075,107.178
				z"/>
			<path d="M156.037,96.647c-0.295,0.822-0.717,1.581-1.218,2.294c-2.788,3.969-8.374,6.33-12.582,7.884
				c-5.592,2.065-11.381,0.935-17.161,0.484c-1.669-0.13-3.338-0.207-5.001-0.131c-3.011,0.139-4.445,2.647-4.321,4.982
				c0.018,0.34,0.071,0.672,0.156,0.996c1.872-0.768,4.216-0.481,5.645,1.664c0.29,0.435,0.546,0.882,0.787,1.333
				c4.355,0.072,8.651,0.815,13.018,0.937c4.424,0.124,8.669-1.219,12.683-2.938c7.147-3.06,13.944-7.514,16.673-15.113
				c1.37-3.814-2.433-6.101-5.526-5.309C157.842,94.075,156.627,95.002,156.037,96.647z"/>
			<path d="M47.392,113.487c1.072-0.963,2.589-1.408,4.173-1.022c1.573,0.383,2.973,0.537,4.251,1.636
				c-0.535-1.89-2.266-3.315-4.314-3.315c-0.956,0-1.848,0.32-2.587,0.848C48.258,112.106,47.726,112.744,47.392,113.487z"/>
			<path d="M51.638,124.887c-0.193-0.128-0.388-0.244-0.583-0.355c-0.213,0.029-0.327,0.051-0.014-0.008
				c-0.018-0.01-0.036-0.02-0.054-0.03c-1.259,0.126-2.485-0.168-3.436-0.87c0.648,3.981-0.182,8.228,0.221,12.233
				c0.586,5.834,1.371,11.866,3.603,17.317c0.1,0.244,0.218,0.466,0.344,0.678c0.662-0.683,1.449-1.295,2.389-1.81
				c1.98-1.084,4.064-1.263,6.083-0.874c-0.041-0.128-0.083-0.256-0.137-0.387c-2.109-5.151-2.858-10.708-3.411-16.218
				c-0.336-3.347,0.058-6.667-0.056-9.974C55.169,125.628,53.16,125.9,51.638,124.887z"/>
			<path d="M113.13,116.148c-0.576-0.62-1.312-1.102-2.119-1.366c-2.669-0.873-5.172-0.273-7.644,0.83
				c-1.255,0.56-1.947,1.818-2.131,3.154c-0.509,0.496-0.916,1.128-1.14,1.941c-0.59,2.147,0.713,5.173,3.143,5.536
				c2.482,0.37,4.513,0.211,6.828-0.815c2.063-0.915,3.408-3.062,4.087-5.111c0.025-0.075,0.04-0.149,0.06-0.224
				c-0.131-0.249-0.273-0.493-0.431-0.73C113.031,118.234,112.883,117.126,113.13,116.148z M105.941,117.365
				C105.966,117.343,105.966,117.344,105.941,117.365L105.941,117.365z"/>
			<path d="M60.953,161.176c-2.772-2.31-3.823-0.456-2.833,2.578c0.734,2.248,2.048,6.24,4.441,7.36
				c0.399,0.187,0.875,0.267,1.387,0.291c0.683-1.393,0.513-2.982-0.281-4.349c0.904-0.823,1.491-1.966,1.359-3.211
				c-0.06-0.565-0.181-1.102-0.326-1.626C63.474,162.429,62.143,162.167,60.953,161.176z"/>
			<path d="M77.963,159.325c-0.905,0.259-1.725,0.245-2.441,0.038c-1.576,1.348-2.898,3.064-3.844,4.78
				c-1.185,2.148-0.539,4.895,1.615,6.157c1.672,0.98,3.864,0.707,5.277-0.55c0.4-0.002,0.803-0.061,1.198-0.199
				c2.652-0.926,5.248-2.438,6.8-4.829C85.554,160.769,82.281,158.091,77.963,159.325z"/>
			<path d="M54.108,152.043c-0.94,0.514-1.727,1.127-2.389,1.81c-3.052,3.149-3.325,7.882-2.277,12.293
				c1.139,4.795,4.423,10.547,8.966,12.899c-1.247-4.995,6.886-6.958,8.863-1.797c-0.702-1.833-0.763-0.963,1.08-0.6
				c1.044,0.206,2.083,0.322,3.15,0.356c2.029,0.065,4.102,0.092,6.08-0.396c0.788-0.354,1.691-0.451,2.64-0.184
				c0.629,0.146,1.183,0.438,1.649,0.834c1.568,1.037,2.858,2.29,3.956,3.826c1.122-0.232,2.246-0.577,3.383-1.081
				c4.893-2.17,6.706-8.848,6.642-13.665c-0.14-10.635-10.009-18.628-20.281-15.692c-4.668,1.335-3.757,7.648-0.048,8.717
				c0.716,0.206,1.536,0.22,2.441-0.038c4.318-1.234,7.591,1.443,8.604,5.397c0.133,0.52,0.231,1.059,0.284,1.617
				c0.679,7.27-5.583,6.408-10.646,5.46c-2.345-0.439-4.706-0.825-7.095-0.876c-1.394-0.03-3.49,0.558-5.162,0.481
				c-0.512-0.024-0.988-0.104-1.387-0.291c-2.393-1.12-3.707-5.111-4.441-7.36c-0.99-3.034,0.061-4.888,2.833-2.578
				c1.189,0.991,2.521,1.254,3.747,1.042c3.334-0.575,5.881-4.687,2.617-7.406c-2.021-1.684-4.519-3.139-7.127-3.642
				C58.172,150.78,56.088,150.959,54.108,152.043z"/>
			<path d="M76.902,184.736c-3.549-2.186-2.203-6.834,0.679-8.127c-1.978,0.488-4.05,0.46-6.08,0.396
				c-1.067-0.034-2.105-0.15-3.15-0.356c-1.843-0.364-1.782-1.233-1.08,0.6c-1.977-5.161-10.11-3.198-8.863,1.797
				c0.049,0.195,0.107,0.392,0.185,0.596c2.59,6.758,12.772,7.344,19.55,6.062C77.762,185.342,77.353,185.014,76.902,184.736z"/>
			<path d="M81.87,177.259c-0.466-0.396-1.021-0.688-1.649-0.834c0.402,0.113,0.811,0.286,1.223,0.54
				C81.594,177.057,81.725,177.163,81.87,177.259z"/>
			<path d="M81.87,177.259c-0.145-0.096-0.276-0.202-0.426-0.294c-0.413-0.254-0.822-0.427-1.223-0.54
				c-0.949-0.267-1.852-0.169-2.64,0.184c-2.882,1.293-4.228,5.941-0.679,8.127c0.451,0.278,0.86,0.606,1.241,0.966
				c2.5,2.367,3.724,6.256,6.754,8.288c3.45,2.313,9.473,3.622,11.192,8.045c0.726,1.868-0.171,4.818-0.377,6.734
				c-0.322,2.991,0.305,5.831,1.403,8.592c2.401,6.039,5.61,12.094,8.825,17.738c5.26,9.232,15.654,14.142,20.474,23.662
				c2.488,4.915,3.229,9.809,6.726,14.277c3.366,4.301,9.075,6.28,13.537,9.14c0.347,0.222,0.691,0.384,1.031,0.503
				c4.462,1.554,8.035-5.374,3.511-8.274c-1.235-0.792-2.533-1.498-3.828-2.205c-3.403-1.856-6.785-3.709-8.941-7.096
				c-2.804-4.403-3.374-9.928-6.296-14.403c-5.936-9.091-15.735-14.195-20.527-24.22c-2.663-5.572-7.274-11.309-6.914-17.715
				c0.327-5.821,0.931-10.061-3.395-14.634c-3.2-3.383-6.728-5.236-10.838-7.219c-2.032-0.981-3.191-3.71-4.392-5.484
				c-0.083-0.122-0.176-0.229-0.261-0.348C84.729,179.549,83.438,178.296,81.87,177.259z"/>
			<path d="M392.952,79.324c-6.56-3.705-16.431-3.504-23.497-3.244c-9.936,0.365-19.831,2.385-29.495,4.594
				c-10.724,2.45-21.25,4.257-32.249,4.96c-11.919,0.762-23.875,0.735-35.799,1.414c-23.462,1.337-46.678,5.416-70.214,2.641
				c-5.754-0.678-11.392-2.101-17.145-2.834c-6.624-0.844-13.283-1.092-19.856-2.343c-7.618-1.449-14.05-5.525-21.475-6.931
				c-0.132-0.025-0.264-0.053-0.396-0.076c-1.707-0.299-3.466-0.457-5.307-0.403c-3.453,0.102-4.836,3.338-4.172,5.903
				c0.45,1.736,1.828,3.166,4.172,3.097c7.529-0.222,14.191,3.523,21.194,5.937c1.796,0.619,3.614,1.155,5.475,1.51
				c5.435,1.034,11.007,1.379,16.506,1.895c6.049,0.568,11.922,1.926,17.917,2.83c22.486,3.392,45.202,0.076,67.659-1.826
				c22.326-1.892,44.808-0.567,66.899-4.97c9.424-1.878,18.635-4.472,28.193-5.701c4.79-0.616,9.614-0.859,14.441-0.742
				c4.209,0.102,10.317,0.374,13.881,2.86c1.747,1.219,3.454,0.942,4.688-0.055C389.908,87.245,389.424,80.998,392.952,79.324z"/>
			<path d="M462.735,143.191c2.064,5.47,4.055,10.891,4.977,16.687c0.156,0.984,0.315,1.977,0.475,2.975
				c0.06,0.285,0.128,0.567,0.187,0.852c0.499,2.44,0.85,4.887,1.08,7.339c1.26,8.614,2.227,17.462,1.858,25.856
				c-0.552,12.553-3.436,24.725-6.445,36.876c-0.023,0.093-0.053,0.178-0.08,0.267c0.015,0.621,0.047,1.243,0.076,1.865
				c0.624-0.372,1.373-0.611,2.282-0.611c0.133,0,0.246,0.028,0.373,0.037c1.532-1.926,4.354-2.733,6.142-1.039
				c-0.662-16.05,3.632-32.085,4.916-48.096c1.68-20.951-5.425-40.259-12.354-59.643c-5.443-15.227-9.032-31.479-22.225-42.151
				c-14.157-11.451-32.625-5.233-49.032-5.5c-0.777-0.013-1.442,0.147-2.01,0.417c-3.528,1.674-3.044,7.921,1.419,8.515
				c0.195,0.026,0.381,0.065,0.591,0.068c15.688,0.255,33.369-6.259,46.159,5.928c5.496,5.236,8.652,12.458,11.184,19.471
				c0.873,2.417,1.709,4.847,2.536,7.28c0.87,2.086,1.7,4.19,2.45,6.329C459.187,132.319,460.711,137.83,462.735,143.191z"/>
			<path d="M470.398,251.447c-0.295-1.372-0.627-2.736-1.011-4.087c-0.385,1.178-0.771,2.356-1.155,3.535
				C468.881,251.28,469.632,251.458,470.398,251.447z"/>
			<path d="M466.67,167.611c-0.977,3.207-0.408,6.336-0.369,9.621c0.037,3.08-0.308,6.179-0.936,9.197
				c-0.751,3.608-1.749,7.201-3.044,10.676c-0.323,11.618-3.357,23.062-6.135,34.278c-1.372,5.541,6.994,7.938,8.598,2.66
				c0.027-0.089,0.057-0.174,0.08-0.267c3.009-12.151,5.893-24.322,6.445-36.876c0.37-8.395-0.598-17.242-1.858-25.856
				c-0.404-2.763-0.837-5.499-1.267-8.191c-0.159-0.998-0.318-1.991-0.475-2.975c-0.922-5.796-2.912-11.217-4.977-16.687
				c-2.023-5.362-3.548-10.872-5.443-16.276c-0.75-2.139-1.58-4.243-2.45-6.329c-3.469-8.312-7.825-16.219-12.685-23.811
				c-3.118-4.87-10.91-0.361-7.771,4.542c5.378,8.401,10.119,17.105,13.664,26.444c1.815,4.781,3.105,9.731,4.798,14.553
				c1.933,5.503,4.184,10.842,5.565,16.526c0.345,1.421,0.604,2.875,0.817,4.344C462.14,160.499,468.101,162.914,466.67,167.611z"/>
			<path d="M418.711,240.4c0.005,0.486,0.041,0.967,0.093,1.444c5.578-4.03,11.57-7.617,16.894-11.72
				c9.486-7.31,18.224-15.832,23.782-26.566c1.079-2.084,2.019-4.245,2.842-6.452c1.295-3.475,2.293-7.068,3.044-10.676
				c0.628-3.018,0.973-6.117,0.936-9.197c-0.04-3.286-0.609-6.414,0.369-9.621c1.431-4.697-4.53-7.112-7.441-4.427
				c-0.539,0.497-0.974,1.169-1.237,2.034c-1.72,5.643-0.174,11.418-1.011,17.165c-0.913,6.269-3.084,12.408-5.988,18.014
				c-5.531,10.683-15.415,18.864-24.985,25.8c-9.155,6.636-19.089,12.219-26.294,21.145c-8.288,10.267-8.683,21.183-5.738,33.574
				c1.432,6.025,3.114,11.881,3.378,18.109c0.241,5.674-1.689,11.071-3.873,16.218c-5.315,12.521-9.737,25.336-13.871,38.288
				c-3.95,12.376-8.309,25.213-9.639,38.196c-0.28,2.736-0.206,5.52-0.255,8.267c-0.023,1.28-0.1,2.556-0.185,3.833
				c-3.986,2.26-6.092,6.942-9.028,10.233c-3.85,4.316,2.493,10.703,6.364,6.364c2.739-3.071,4.652-7.774,8.573-9.487
				c3.417-1.493,3.051-6.221,3.221-9.234c0.377-6.68,0.634-12.775,2.15-19.343c1.642-7.108,3.588-14.105,5.777-21.062
				c4.152-13.192,8.429-26.348,13.668-39.156c2.213-5.409,4.626-10.629,5.611-16.434c0.99-5.827,0.246-11.672-0.852-17.425
				c-1.183-6.2-3.344-12.172-3.963-18.481c-0.646-6.577,1.935-12.266,5.995-17.295c1.216-1.506,2.541-2.907,3.935-4.243
				c-0.705-2.57-1.241-5.169-1.271-7.863C409.646,234.593,418.646,234.6,418.711,240.4z"/>
			<path d="M349.85,414.546c-2.354-0.003-5.206-1.869-7.563-3.765c-0.925-0.744-1.776-1.492-2.488-2.135
				c-1.266-1.143-2.713-1.394-4.014-1.085c2.67,1.666,3.685,5.843,0.096,7.551c-0.503,0.24-0.981,0.505-1.448,0.783
				c4.231,3.698,9.727,7.645,15.418,7.651C355.654,423.553,355.653,414.553,349.85,414.546z"/>
			<path d="M130.71,384.953c-0.742,0.342-1.398,0.909-1.889,1.747c-0.124,0.211-0.219,0.443-0.304,0.68
				c-0.69,1.937-0.083,4.596,1.918,5.477c1.244,0.548,2.474,1.128,3.708,1.679c3.175,1.417,6.388,2.633,9.991,2.544
				c5.793-0.142,5.807-9.143,0-9c-1.274,0.031-2.485-0.215-3.662-0.601c-1.885-0.617-3.681-1.596-5.495-2.394
				C133.553,384.458,132,384.359,130.71,384.953z"/>
			<path d="M335.784,407.562c-0.849-0.529-1.865-0.804-2.953-0.665c-0.486,0.062-0.986,0.204-1.493,0.445
				c-6.993,3.327-11.264,9.83-15.449,16.05c-2.726,4.051,2.32,7.866,5.92,6.169c-0.077,0.003-0.153-0.002-0.23,0.001
				c-5.805,0.249-5.781-8.752,0-9c2.394-0.103,4.746,0.088,7.082,0.405c1.653-1.97,3.51-3.73,5.771-5.072
				c0.467-0.277,0.945-0.543,1.448-0.783C339.469,413.405,338.454,409.227,335.784,407.562z"/>
			<path d="M321.579,420.561c-5.781,0.248-5.805,9.249,0,9c0.077-0.003,0.153,0.002,0.23-0.001
				c6.424-0.225,12.676,1.623,19.019,2.407c5.751,0.711,5.682-8.298,0-9c-4.094-0.506-8.105-1.449-12.166-2.001
				C326.325,420.649,323.973,420.459,321.579,420.561z"/>
			<path d="M468.721,407.976c-1.847-0.224-3.564-0.723-5.322-1.838c-4.917-3.119-9.428,4.673-4.542,7.771
				c2.655,1.684,5.419,2.528,8.341,2.927c-0.164,1.005-0.406,2.003-0.708,2.997c0.126-0.416-6.014-0.264-6.951-0.203
				c-4.272,0.279-9.766,1.177-14.131-0.288c3.204-2.984,6.993-5.36,9.517-9.126c4.468-6.667,3.014-16.721,2.852-24.241
				c-0.356-16.582,1.965-32.6-2.166-48.958c-2.041-8.084-5.923-15.715-9.363-23.269c-3.905-8.577-8.007-17.063-12.227-25.49
				c-4.108-8.204-8.848-15.826-10.373-24.992c-0.619-3.72-0.841-7.409-1.878-11.051c-0.982-3.45-2.574-6.797-2.968-10.372
				c-0.052-0.477-0.088-0.958-0.093-1.444c-0.065-5.8-9.065-5.806-9,0c0.03,2.693,0.566,5.292,1.271,7.863
				c1.174,4.281,2.817,8.482,3.372,12.908c0.988,7.891,3.075,14.496,6.746,21.545c8.224,15.789,16.128,31.856,23.023,48.275
				c6.381,15.196,5.515,31.648,4.831,47.743c-0.356,8.37,1.275,17.512-1.125,25.628c-0.82,2.773-3.906,4.82-6.047,6.508
				c-2.744,2.163-5.081,4.393-7.121,7.242c-1.139,1.59-0.663,4.166,0.704,5.453c7.73,7.28,17.91,4.945,27.5,4.925
				c3.822-0.008,8.871,0.453,11.072-3.524c1.967-3.555,2.862-8.274,2.392-12.313c-0.034-0.292-0.089-0.577-0.158-0.854
				C473.639,413.917,468.683,411.95,468.721,407.976z"/>
			<path d="M463.4,237.39c0.005-0.007,0.009-0.014,0.014-0.021C463.41,237.376,463.405,237.382,463.4,237.39z"/>
			<path d="M463.519,237.219c0.954-1.272,2.43-1.795,3.871-1.723c0.04-0.055,0.083-0.108,0.126-0.161
				c-0.126-0.009-0.24-0.037-0.373-0.037c-0.908,0-1.658,0.239-2.282,0.611C464.3,236.243,463.85,236.69,463.519,237.219z"/>
			<path d="M463.519,237.219c-0.036,0.048-0.07,0.099-0.104,0.149c-0.005,0.007-0.009,0.014-0.014,0.021
				c-0.239,0.352-0.444,0.752-0.597,1.212c-4.479,13.481-8.657,27.064-13.835,40.301c-1.056,2.7,0.581,4.63,2.747,5.224
				c0.036-0.34,0.063-0.681,0.1-1.02c0.305-2.801,2.63-4.233,4.845-4.292c0.644-4.864,1.556-9.679,3.135-14.348
				c0.63-1.863,2.055-2.817,3.586-3.049c-0.026-2.111,1.259-3.705,2.871-4.486c0.662-2.011,1.322-4.023,1.979-6.036
				c0.385-1.178,0.77-2.356,1.155-3.535c-0.682-2.403-1.499-4.775-2.521-7.096c-0.788-1.789-0.409-3.499,0.523-4.769
				C465.949,235.424,464.472,235.947,463.519,237.219z"/>
			<path d="M462.643,266.866c0.001-1.232,0.422-2.187,1.062-2.896c-0.099-0.641-0.213-1.279-0.3-1.923
				c-0.029-0.218-0.02-0.422-0.023-0.63c-1.531,0.232-2.956,1.186-3.586,3.049c-1.58,4.669-2.492,9.484-3.135,14.348
				c2.297-0.061,4.474,1.356,4.155,4.292c-0.199,1.83-0.371,3.663-0.541,5.497c0.814-0.031,1.635-0.243,2.365-0.646
				C462.466,280.943,462.636,273.907,462.643,266.866z"/>
			<path d="M464.447,282.505c-0.003-1.981,1.051-3.268,2.43-3.897c-1.294-4.83-2.406-9.698-3.172-14.638
				c-0.64,0.709-1.061,1.664-1.062,2.896c-0.007,7.041-0.177,14.077-0.002,21.091c0.17,6.828,0.668,13.635,1.968,20.406
				c0.007,0.039,0.019,0.073,0.027,0.112c0.223-0.003,0.446,0.008,0.668,0.034C464.844,299.849,464.462,291.203,464.447,282.505z"/>
			<path d="M471.666,321.603c-0.198-2.442,1.294-3.833,3.116-4.209c-0.015-0.329-0.029-0.659-0.047-0.988
				c-0.233-4.24-0.47-8.471-0.676-12.7c-0.876-3.349-1.83-6.684-2.815-10.014c-0.28-0.433-0.497-0.951-0.621-1.57
				c-0.117-0.583-0.239-1.166-0.364-1.748c-1.165-3.913-2.327-7.829-3.381-11.767c-1.38,0.629-2.434,1.917-2.43,3.897
				c0.014,8.698,0.397,17.344,0.856,26.003c1.796,0.21,3.503,1.352,3.895,3.232c1.228,5.889,1.699,11.907,2.806,17.819
				c0.735,3.923,1.453,8.532,3.463,12.214c0.191-0.178,0.368-0.361,0.535-0.547c-0.148-0.293-0.279-0.608-0.377-0.963
				C473.917,334.091,472.186,328.012,471.666,321.603z"/>
			<path d="M486.146,328.875c0.485-0.682,0.779-1.492,0.738-2.405c-0.267-5.965-1.187-11.79-2.447-17.542
				C485.027,315.576,485.472,322.235,486.146,328.875z"/>
			<path d="M466.253,256.931c-1.612,0.781-2.896,2.375-2.871,4.486c0.003,0.208-0.007,0.412,0.023,0.63
				c0.087,0.644,0.201,1.282,0.3,1.923c0.766,4.94,1.878,9.808,3.172,14.638c1.055,3.938,2.216,7.854,3.381,11.767
				c-2.021-9.409-4.985-18.62-5.21-28.321c-0.089-3.834,3.796-5.114,6.49-3.886c-0.007-0.056-0.015-0.112-0.022-0.168
				C470.437,256.218,468.141,256.016,466.253,256.931z"/>
			<path d="M474.781,317.394c-1.822,0.375-3.314,1.767-3.116,4.209c0.521,6.41,2.252,12.488,3.96,18.661
				c0.098,0.354,0.228,0.67,0.377,0.963c1.412-1.572,1.999-3.482,1.747-6.44c-0.333-3.905-0.989-7.756-1.217-11.672
				c-0.113-1.943-0.259-3.88-0.417-5.814c-0.001,0.001-0.003,0.002-0.004,0.003C475.66,317.276,475.213,317.305,474.781,317.394z"/>
			<path d="M471.244,293.692c0.985,3.33,1.939,6.665,2.815,10.014c0.448,1.714,0.872,3.432,1.265,5.157
				c-0.468-4.511-0.983-9.016-1.462-13.539C472.821,295.18,471.869,294.658,471.244,293.692z"/>
			<path d="M465.049,262.054c0.225,9.701,3.189,18.912,5.21,28.321c0.125,0.582,0.247,1.164,0.364,1.748
				c0.124,0.619,0.341,1.136,0.621,1.57c0.624,0.966,1.577,1.488,2.618,1.632c-0.075-0.706-0.151-1.412-0.224-2.119
				c-1.175-11.45-0.614-23.469-2.1-35.037C468.845,256.94,464.96,258.22,465.049,262.054z"/>
			<path d="M467.516,235.335c-0.042,0.053-0.085,0.106-0.126,0.161c-0.932,1.27-1.311,2.98-0.523,4.769
				c1.022,2.321,1.839,4.692,2.521,7.096c0.383,1.351,0.716,2.715,1.011,4.087c0.465,2.163,0.832,4.349,1.119,6.553
				c0.007,0.056,0.015,0.112,0.022,0.168c1.486,11.568,0.925,23.587,2.1,35.037c0.073,0.707,0.149,1.413,0.224,2.119
				c0.479,4.522,0.993,9.028,1.462,13.539c0.292,2.808,0.56,5.619,0.791,8.437c0.159,1.934,0.304,3.871,0.417,5.814
				c0.228,3.916,0.884,7.767,1.217,11.672c0.252,2.958-0.335,4.868-1.747,6.44c-0.167,0.186-0.345,0.369-0.535,0.547
				c-2.01-3.682-2.728-8.29-3.463-12.214c-1.107-5.912-1.578-11.93-2.806-17.819c-0.392-1.88-2.099-3.023-3.895-3.232
				c-0.223-0.026-0.445-0.037-0.668-0.034c-0.282,0.004-0.56,0.036-0.835,0.089c-0.677-3.232-1.493-6.432-2.575-9.568
				c-0.328-0.952-0.928-1.719-1.664-2.275c0.229-2.707,0.464-5.413,0.713-8.117c0.169-1.833,0.341-3.666,0.541-5.497
				c0.319-2.935-1.859-4.353-4.155-4.292c-2.215,0.058-4.54,1.491-4.845,4.292c-0.037,0.34-0.065,0.68-0.1,1.02
				c-0.89,8.471-1.414,16.975-2.363,25.44c-0.395,3.524,3.523,5.094,6.302,4.075c0.512,2.744,0.948,5.505,1.369,8.268
				c0.393,2.581,2.887,3.54,5.116,3.111c1.184,9.484,2.582,19.373,9.131,26.115c0.439,0.452,0.967,0.772,1.533,0.99
				c0.034-1.365,0.059-2.72,0.066-4.057c0.029-5.791,8.993-5.803,8.997-0.031c4.165-4.123,5.381-9.243,4.586-16.249
				c-0.11-0.971-0.207-1.943-0.306-2.914c-0.674-6.64-1.12-13.299-1.709-19.947c-0.311-3.506-0.66-7.009-1.116-10.505
				c-2.729-20.928,0.017-42.941-8.684-62.7c-0.264-0.599-0.6-1.066-0.98-1.426C471.869,232.602,469.048,233.409,467.516,235.335z"/>
			<path d="M472.868,348.069c-0.007,1.338-0.032,2.692-0.066,4.057c-0.328,13.307-1.521,27.76,4.365,39.846
				c0.877-0.897,2.076-1.479,3.255-1.424c3,0.141,5.289,1.384,7.6,3.084c-0.041-0.679-0.272-1.395-0.753-2.12
				c-8.289-12.493-5.472-29.279-5.401-43.443c0-0.011-0.003-0.02-0.003-0.031C481.861,342.266,472.898,342.278,472.868,348.069z"/>
			<path d="M488.662,394.108c-0.214-0.164-0.427-0.319-0.64-0.476c-2.311-1.7-4.6-2.943-7.6-3.084
				c-1.179-0.055-2.377,0.527-3.255,1.424c-0.821,0.839-1.352,1.953-1.327,3.079c-0.986,0.456-1.924,1.128-2.79,2.061
				c-2.461,2.654-3.54,6.445-4.231,9.91c-0.066,0.329-0.095,0.646-0.098,0.953c-0.038,3.974,4.918,5.941,7.449,3.823
				c0.632-0.529,1.114-1.312,1.327-2.383c0.328-1.641,0.672-3.37,1.377-4.894c0.235-0.507,0.467-0.899,0.781-1.274
				c2.084,0.798,4.009,0.288,5.189-0.954c1.92,0.792,4.44-0.334,5.432-2.028C491.634,397.948,490.605,395.598,488.662,394.108z
				 M479.382,403.149C479.29,403.124,479.259,403.097,479.382,403.149L479.382,403.149z"/>
			<path d="M315.274,135.137c-2.112,15.884,0.907,31.583,4.973,46.911c1.487,5.605,10.168,3.224,8.678-2.393
				c-3.882-14.635-6.668-29.354-4.651-44.518C325.038,129.397,316.028,129.47,315.274,135.137z"/>
			<path d="M115.91,113.156c-1.344,0.551-2.439,1.646-2.779,2.992c-0.247,0.978-0.099,2.086,0.653,3.215
				c0.158,0.237,0.3,0.482,0.431,0.73c2.087,3.956,0.882,9.267,0.14,13.432c-0.854,4.794-2.065,9.535-2.388,14.408
				c-0.784,11.825-7.192,17.964-16.125,24.924c-4.575,3.564,1.844,9.885,6.364,6.364c10.419-8.117,17.458-16.148,18.673-29.746
				c0.906-10.147,6.665-23.58,1.465-33.321c-0.241-0.452-0.497-0.898-0.787-1.333C120.126,112.675,117.781,112.388,115.91,113.156z"
				/>
			<path d="M47.392,113.487c-0.893,0.803-1.478,1.965-1.523,3.317c-0.023,0.677,0.026,1.37,0.145,2.049
				c-0.119,0.417-0.176,0.846-0.181,1.273c-0.004,0.397,0.024,0.792,0.127,1.168c0.279,1.015,0.854,1.786,1.59,2.329
				c0.951,0.702,2.177,0.996,3.436,0.87c0.018,0.01,0.036,0.02,0.054,0.03c-0.313,0.059-0.199,0.036,0.014,0.008
				c0.196,0.111,0.391,0.226,0.583,0.355c1.521,1.014,3.531,0.741,4.948-0.296c0.487-0.357,0.906-0.801,1.209-1.318
				c0.532-0.908,0.681-1.877,0.551-2.802c0.08-0.591,0.034-1.179-0.167-1.704c-0.592-1.546-0.967-3.397-2.232-4.559
				c-0.043-0.039-0.087-0.069-0.131-0.106c-1.279-1.1-2.679-1.253-4.251-1.636C49.982,112.079,48.464,112.524,47.392,113.487z"/>
		</g>
	</g>
</g>
</svg>
