<?xml version="1.0" encoding="utf-8"?>
<!-- Generator: Adobe Illustrator 18.0.0, SVG Export Plug-In . SVG Version: 6.00 Build 0)  -->
<!DOCTYPE svg PUBLIC "-//W3C//DTD SVG 1.1//EN" "http://www.w3.org/Graphics/SVG/1.1/DTD/svg11.dtd">
<svg version="1.1" id="Layer_1" xmlns="http://www.w3.org/2000/svg" xmlns:xlink="http://www.w3.org/1999/xlink" x="0px" y="0px"
	 width="500px" height="500px" viewBox="0 0 500 500" enable-background="new 0 0 500 500" xml:space="preserve">
<g>
	<g>
		<g>
			<path d="M124.8334961,391.4245605c0.1340942-0.2288818,0.2887573-0.4234619,0.4456787-0.6135254
				c-1.1680908,1.166748-2.3175049,2.3395996-3.3816528,3.5534668c-3.7113037,4.2336426-7.1460571,8.7352295-10.3174438,13.3846436
				c-1.4910889,2.1861572-0.2437744,4.7806396,1.6143799,6.1568604c8.8622437,6.5639648,23.8613281,5.2871094,33.7519531,2.0727539
				c9.4708862-3.0778809,12.7921143-14.1833496,15.7597656-23.3110352c0.5367432,0.1929932,1.0756836,0.3919678,1.6261597,0.5932617
				c2.3770142,0.8691406,4.8317261-0.958252,5.5355225-3.1430664c2.0819092-6.4630127,1.6234741-13.1239014,1.694458-19.8162842
				c0.0830078-7.8206787,3.3625488-15.274292,5.0614014-22.8199463c1.4329224-6.364502,1.8210449-12.9226074,3.0587158-19.3248291
				c1.4309692-7.4023438,5.0411987-13.2166748,9.1065674-19.4139404
				c6.6546021-10.1442871,6.9013672-22.6477051,8.2314453-34.5776367c-0.9819336-1.6500244-2.189209-3.026123-3.7125854-3.928833
				c-0.5418091-0.3210449-0.9650879-0.7012939-1.2939453-1.116333c-1.1812134-0.9628906-1.8369141-2.5045166-1.2405396-4.4320068
				c1.4259644-4.6085205,5.0726929-7.6690674,9.255188-9.9437256c1.6220093-12.0180664,2.6217651-24.1787109,6.4202881-35.7095947
				c1.821167-5.5283203-6.8713989-7.8782349-8.6784668-2.3925781c-4.7983398,14.5657349-4.8812866,30.0181885-7.8382568,44.9644775
				c-1.4290771,7.2235107-2.4790649,14.3881836-3.1304321,21.7237549
				c-0.7333374,8.2581787-2.0338135,15.1533203-6.6143799,22.1358643c-3.6056519,5.49646-6.6512451,10.8088379-8.4545288,17.1791992
				c-1.9088135,6.7434082-2.2196045,13.894043-3.4526978,20.7723389
				c-1.3201294,7.3636475-4.2947388,14.3253174-5.2844238,21.7592773
				c-0.7926025,5.9534912,0.0093994,12.0288086-0.7910156,17.9346924c-0.3921509-0.0904541-0.7857666-0.1776123-1.1952515-0.237793
				c-2.5908203-0.3803711-4.6118164,0.6177979-5.5355225,3.1430664c-1.4814453,4.0501709-2.7946777,8.1552734-4.3872681,12.1652832
				c-1.2784424,3.2189941-3.0307007,7.8209229-6.5327148,9.1179199c-6.1082153,2.262207-15.3858032,3.4033203-22.3262329,1.0974121
				c2.4987183-3.1875,5.192749-6.178833,7.9121094-9.1433105c-1.2290039-0.5507812-2.4533081-1.1279297-3.6918335-1.6730957
				C124.2016602,396.5928955,123.7016602,393.3566895,124.8334961,391.4245605z"/>
			<path d="M144.3904419,283.6860352c0.0244751,2.0119629,0.0367432,4.0175781,0.0421753,6.010498
				c0.03125,11.4041748,2.3806763,22.602417,4.5429688,33.7478027c1.1488647,5.921875,2.3583984,11.8837891,2.4006348,17.9345703
				c0.0418701,6.0090332-2.3652344,10.6584473-5.6408691,15.4943848c-2.8778076,4.2486572-5.4391479,8.4550781-7.0889282,13.3413086
				c-1.4746704,4.3676758-2.9605713,8.3424072-5.6452637,12.1340332c-2.0237427,2.8581543-4.6223145,5.3806152-7.1685181,7.9099121
				c1.4141846-1.1812744,3.3820801-1.2297363,5.1577148-0.4483643c1.8087769,0.7958984,3.6010742,1.7559814,5.4727783,2.4007568
				c1.2001343-1.3952637,2.3823242-2.8081055,3.508728-4.2763672c5.8587646-7.6364746,7.3222046-17.2719727,12.6643677-25.2385254
				c6.194519-9.237793,8.7457886-17.791748,7.1661377-28.9819336c-1.7283325-12.2436523-4.9343262-24.2487793-6.0541382-36.5791016
				c-1.0951538-12.0584717-0.4402466-24.1628418-1.8510132-36.2365723
				c-0.6764526-5.7895508-1.4220581-11.7304688-3.3261719-17.2580566
				c-1.6601562-4.8192139-4.4590454-9.1665039-7.1789551-13.4358521
				c-6.2615356-9.8286133-10.0499878-20.3005981-12.258606-31.7268677c-0.8563843-4.4306641-1.3845215-8.9368896-2.149292-13.387207
				c-0.6159668-3.5846558-1.6555786-8.4697266,0.6449585-11.6271973c3.4240723-4.699646-4.3902588-9.1829834-7.7712402-4.5424805
				c-4.5153198,6.1972656-2.1383667,15.3178101-0.9108887,22.2113037
				c1.8845825,10.5836792,3.5006104,20.8042603,7.7695312,30.7841797
				c4.2315674,9.8927002,12.0773315,18.2105713,14.5202026,28.8065186
				c1.6871948,7.3182373,2.477356,14.8950195,2.8528442,22.4837646c1.244751,0.6901855,2.4893799,1.3879395,3.6935425,2.1641846
				C152.2573853,278.2553711,148.7887573,285.0852051,144.3904419,283.6860352z"/>
			<path d="M223.1838379,366.2575684c1.1170044-1.1945801,1.8953857-2.552002,2.5314331-3.9816895
				c-2.8410645-1.8652344-6.046814-3.2585449-9.2062988-4.6518555c-0.4191895-0.1848145-0.8331299-0.2993164-1.2390747-0.3640137
				c1.5123901-1.6474609,2.9376831-3.3510742,4.1610107-5.1020508c3.6890259-5.2802734,0.8214722-12.03125,0.6647949-17.776123
				c-0.1765747-6.4753418,1.0635376-12.8930664,0.7507935-19.3826904
				c-0.3127441-6.4909668-3.2554321-10.9713135-6.7226562-16.2272949c-2.491333-3.7767334-3.1973877-8.6217041-4.2290649-12.947876
				c-1.6911621-7.092041-3.5415649-15.7553711-9.0237427-21.0328369c-0.65625,0.6932373-1.1593628,1.4499512-1.4191284,2.2894287
				c-1.1171875,3.6105957-5.2119751,3.8540039-7.4379883,2.0395508c0.3288574,0.4150391,0.7521362,0.7952881,1.2939453,1.116333
				c1.5233765,0.90271,2.7306519,2.2788086,3.7125854,3.928833c3.0220337,5.078125,3.8828735,12.7862549,5.0369263,17.5610352
				c0.9848633,4.074707,2.145813,7.9597168,4.2952881,11.5880127c1.3464355,2.2728271,3.0041504,4.3319092,4.3135986,6.6343994
				c1.604248,2.8208008,1.3026123,6.7294922,1.239563,9.8431396c-0.1090088,5.3843994-0.9158325,10.7122803-0.7687378,16.1079102
				c0.0760498,2.7884521,0.8726196,5.5316162,1.1565552,8.2987061c0.3531494,3.4406738-2.2469482,5.3302002-4.4775391,7.4606934
				c-3.5842896,3.423584-6.9923096,7.0428467-10.6010132,10.4645996c-3.4827271,3.3024902-6.3864746,7.0540771-7.8354492,11.6706543
				c-0.9067383,2.888916,1.5145874,5.5893555,4.3392334,5.6962891c12.5062866,0.4737549,25.2645874,1.2513428,36.6629639-4.8366699
				c1.9468994-1.0397949,2.7157593-3.6396484,1.8646851-5.6273193c-0.7504883,1.2397461-1.6174927,2.4385986-2.6987305,3.5948486
				C225.5762939,376.8686523,219.2251587,370.4909668,223.1838379,366.2575684z M201.2054443,370.8098145
				c2.239624-2.6210938,5.1204224-4.8572998,7.5159912-7.0732422c0.3215942-0.2974854,0.6473999-0.6030273,0.9724731-0.9072266
				c0.2241821,1.03479,0.930542,1.9741211,2.272583,2.565918c2.5432129,1.121582,5.6012573,2.2077637,8.1744995,3.8037109
				C214.0891724,370.9869385,207.6030273,371.0421143,201.2054443,370.8098145z"/>
			<path d="M229.8567505,267.0643311c1.3535767,5.5770264,2.5272827,10.1507568,1.9716187,15.9576416
				c-0.5408325,5.65271-1.6304321,11.1223145-1.5343018,16.8289795c0.1029053,6.1048584,1.4974976,12.1397705,2.175293,18.1878662
				c0.6112061,5.4543457,0.7057495,10.9659424,1.0596924,16.4399414c0.2721558,4.2092285,1.9710083,8.1612549,2.4215698,12.3349609
				c0.2317505,2.1469727-5.1311035,4.3532715-6.4239502,6.3859863c-1.7902832,2.8149414-2.4890137,6.1037598-3.8114014,9.0761719
				c-0.6360474,1.4296875-1.4144287,2.7871094-2.5314331,3.9816895c-3.9586792,4.2333984,2.3924561,10.611084,6.3639526,6.3640137
				c1.0812378-1.15625,1.9482422-2.3551025,2.6987305-3.5948486c1.5765991-2.6043701,2.5897827-5.4066162,3.6486206-8.4969482
				c1.3456421-3.9272461,5.7841187-5.1479492,8.0540161-8.5183105c2.1224365-3.1513672,0.6989136-8.1186523-0.0631104-11.4467773
				c-1.30896-5.7172852-1.631897-11.2026367-1.9782104-17.0622559c-0.3613281-6.114502-1.4182739-12.104248-2.1821289-18.1708984
				c-0.8728027-6.932251-0.0402222-13.5852051,0.8811646-20.4584961c0.7903442-5.8955078,0.3901367-11.1032715-1.151123-16.8294678
				c-1.5855713-5.8909912-2.0109253-11.9346924-3.4078979-17.8378906c-2.8407593,1.0477295-5.670105,2.1247559-8.4910278,3.2236328
				C228.5006104,257.9439697,228.7658691,262.5695801,229.8567505,267.0643311z"/>
			<path d="M190.7733765,264.6881104c-0.5963745,1.9274902,0.0593262,3.4691162,1.2405396,4.4320068
				c2.2260132,1.8144531,6.3208008,1.5710449,7.4379883-2.0395508c0.2597656-0.8394775,0.7628784-1.5961914,1.4191284-2.2894287
				c3.1452637-3.322876,10.0736694-5.0826416,13.5367432-6.3397217c4.4105835-1.6010742,8.7769165-3.3189697,13.1490479-5.0220947
				c2.8209229-1.098877,5.6502686-2.1759033,8.4910278-3.2236328c0.9914551-0.3656006,1.9783936-0.7431641,2.9746094-1.0965576
				c9.446228-3.3510742,18.5357056-4.2032471,28.3709106-2.1240234c4.2730103,0.9033203,9.3461304,1.4682617,13.333374,3.2961426
				c3.5744629,1.6385498,4.1048584,7.3605957,6.1256104,10.4108887c3.1889038,4.8137207,10.9869385,0.3116455,7.7712402-4.5424805
				c-2.4080811-3.6348877-3.1224976-7.7810059-6.0389404-11.175293c-3.2247925-3.7532349-8.9025879-4.3857422-13.3903809-5.4142456
				c-12.210144-2.7982178-23.1228027-3.7940674-35.3009033-0.2001343
				c-10.5397949,3.1104126-20.6833496,7.7196045-30.9766846,11.5505371
				c-2.8533325,1.0618896-5.9974976,2.2618408-8.8881226,3.8338623
				C195.8460693,257.019043,192.1993408,260.0795898,190.7733765,264.6881104z"/>
			<path d="M345.3604126,227.9848633c-5.984436,4.5562134-12.5113525,8.2653198-19.2930298,11.5081177
				c-6.269104,2.9976807-13.2136841,4.2178955-19.3787231,7.2831421
				c-5.1644287,2.5678711-6.7042847,10.038208-10.5952759,14.0112305
				c-4.2640991,4.3538818-7.3955078,8.7626953-9.2282104,14.6293945c-1.7354736,5.5552979,6.9539185,7.9130859,8.6784668,2.3925781
				c1.8703003-5.9868164,6.0134277-9.1982422,9.8670654-13.8466797c1.7938843-2.1638184,2.8955078-4.7877197,4.1929932-7.2553711
				c1.4863892-2.8266602,4.223999-3.1799316,7.0803223-3.949707c10.3959961-2.8012695,20.4766846-8.0963135,29.4728394-14.3223267
				c-0.0041504-0.9925537-0.0072021-1.9857178-0.0037231-2.9840698
				C346.1621094,232.8878174,345.9580078,230.2999878,345.3604126,227.9848633z"/>
			<path d="M338.6759033,413.076416c1.3153076-0.3287354,2.7839966-0.0872803,4.0673218,1.0715332
				c0.7058716,0.6374512,1.5390015,1.3774414,2.4452515,2.1184082c5.5250244-5.1409912,9.0535889-12.0539551,11.9018555-19.0736084
				c4.2863159-10.5638428,8.0967407-22.2230225,10.2385254-33.4156494
				c2.3358154-12.2067871,1.3249512-24.7547607,0.4420776-37.0505371
				c-0.4304199-5.9946289-0.4006958-12.1101074-1.3779907-18.0478516c-1.0950928-6.652832-3.0990601-13.050293-5.0280762-19.4963379
				c-3.4117432-11.401123-5.4511108-23.005127-6.1455078-34.8825684
				c-0.5905151-10.1003418,1.5030518-21.2241821-1.5449829-31.0078735
				c-6.3433228-20.3612061-31.3188477-10.4628296-44.2167358-4.2079468
				c-5.2213745,2.5321045-0.6557007,10.2921143,4.5424805,7.7712402c6.4592896-3.1324463,13.2218018-6.4914551,20.5023193-6.9624023
				c6.5828247-0.4258423,9.6011353,3.2225952,10.8579712,8.092041c0.5975952,2.3151245,0.8016968,4.9029541,0.7927246,7.4663086
				c-0.003479,0.9983521-0.0004272,1.9915161,0.0037231,2.9840698c0.0786133,18.8262329,1.5942383,36.6473999,7.0571289,54.902771
				c1.4025879,4.6868896,2.8088989,9.3548584,3.8567505,14.137085c1.2441406,5.6779785,1.1688843,11.5783691,1.5656738,17.355957
				c0.7915649,11.5251465,1.9082031,23.1740723,0.3201904,34.6843262
				c-1.428833,10.3568115-5.5935669,20.2888184-8.7451782,30.1994629
				c-2.5371704,7.9780273-6.4130859,17.274292-13.6988525,22.019165c-0.3018799,0.1966553-0.5673828,0.4112549-0.7987671,0.6402588
				C336.8087769,412.2453613,337.8276978,412.532959,338.6759033,413.076416z"/>
			<path d="M32.4852905,82.6565552c-4.4181519-2.2243042-8.7747192-4.755127-13.8518677-4.7667236
				c-1.1043701-0.0025024-1.9957275-0.3331299-2.6798096-0.8624878c-5.2839355,1.4682007-10.2606201,4.7217407-13.5632324,8.7293701
				c-1.1091309,1.3460693-1.2969971,2.8713989-0.9223633,4.22052c0.6359863-2.1088867,2.5836182-3.7546997,5.3006592-2.8900146
				c1.7559814,0.5588379,3.3206787,1.3482666,4.7504883,2.3012085c4.7821045-3.901062,11.5231323-5.7938843,16.9940796-2.3344727
				c6.2012939,3.9212036,12.1359863,8.2871094,18.8022461,2.5789185c0.9156494-0.7840576,1.3607178-1.6779175,1.4608154-2.5689697
				c-0.4594116,0.1252441-0.9592896,0.1974487-1.53302,0.1552124
				C41.9265137,86.8279419,37.2161255,85.0383301,32.4852905,82.6565552z"/>
			<path d="M1.4680176,89.9772339C0.8056641,92.1732178,1.56604,94.87146,4.3762207,95.7657471
				c6.8131104,2.1682739,10.3217773,11.0930786,15.2605591,15.7904053
				c5.9701538,5.6782837,12.1217651,6.3361206,19.4163818,3.9414062c0.0210571-0.3712769,0.0757446-0.7407837,0.1818848-1.1016235
				c-0.1246948-0.7022705-0.1755981-1.4192505-0.1522217-2.119751c0.0454102-1.3618164,0.6381226-2.5300293,1.5420532-3.3335571
				c0.3144531-0.7192993,0.8224487-1.3343506,1.4439697-1.8054199c-0.9550781-0.9661865-2.3721924-1.4109497-4.1072388-0.7694092
				c-2.6447144,0.9779053-5.3473511,2.2363281-8.1743164,1.4391479c-3.2832642-0.9258423-6.1015625-4.9063721-8.0655518-7.4827271
				c-3.0897217-4.0530396-6.0764771-8.1859741-10.2025757-10.935791c-1.4298096-0.9529419-2.9945068-1.7423706-4.7504883-2.3012085
				C4.0516357,86.2225342,2.1040039,87.8683472,1.4680176,89.9772339z"/>
			<path d="M42.2571411,77.2412109c0.0670166-0.9088135,0.4262695-1.8339844,1.1821899-2.6796875
				c0.4292603-0.4802246,0.8446655-0.9610596,1.2544556-1.439209c-8.5991211-0.7649536-16.7155151-4.5788574-25.4384155-4.8544312
				c-1.6712036-0.0527954-2.843689,0.6665649-3.5512695,1.7059937c0.711853-0.6554565,1.677063-1.0869141,2.9293213-1.0840454
				C27.4786987,68.9099731,34.3022461,74.815979,42.2571411,77.2412109z"/>
			<path d="M49.8032837,80.9254761c-3.1153564,3.4854126-7.8209229,0.0408936-7.5461426-3.6842651
				c-7.954895-2.4252319-14.7784424-8.3312378-23.6237183-8.3513794c-1.2522583-0.0028687-2.2174683,0.4285889-2.9293213,1.0840454
				c-1.9597168,1.8044434-1.8856201,5.4011841,0.2495117,7.0534668c0.684082,0.5293579,1.5754395,0.8599854,2.6798096,0.8624878
				c5.0771484,0.0115967,9.4337158,2.5424194,13.8518677,4.7667236c4.730835,2.3817749,9.4412231,4.1713867,14.7579956,4.562561
				c0.5737305,0.0422363,1.0736084-0.0299683,1.53302-0.1552124c2.9554443-0.8057861,3.5526123-4.6859741,1.8132935-7.0414429
				C50.3347778,80.3206787,50.0753784,80.6210938,49.8032837,80.9254761z"/>
			<path d="M100.1569214,70.9164429c0.999939-0.2852173,2.0050049-0.5471191,3.0089111-0.8143921
				c-8.8151855-7.8181763-17.6959229-8.4801636-29.0261841-7.5537109
				c-6.0029297,0.4908447-12.0305786,0.4064941-17.9232788,1.8114014c-5.3804321,1.2827148-8.2312622,4.9223022-11.522583,8.7625732
				c-0.40979,0.4781494-0.8251953,0.9589844-1.2544556,1.439209c-0.7559204,0.8457031-1.1151733,1.770874-1.1821899,2.6796875
				c-0.2747803,3.7251587,4.4307861,7.1696777,7.5461426,3.6842651c0.2720947-0.3043823,0.5314941-0.6047974,0.7863159-0.9030151
				c2.8433838-3.3276367,4.7780762-6.2114258,9.4818115-7.3328857c4.5259399-1.0790405,9.4469604-0.7810059,14.0682373-1.1412354
				c8.7751465-0.68396,15.8248901-1.2058105,22.7876587,5.0234985c0.1241455,0.111084,0.2504883,0.2116089,0.3778076,0.3060913
				C96.4741821,74.6296997,97.1854248,71.7640381,100.1569214,70.9164429z"/>
			<path d="M138.9812622,71.6848755c0.2950439-0.059082,0.5905151-0.1157227,0.885437-0.175293
				c5.6867676-1.1481323,3.2734985-9.8224487-2.3925781-8.6785278c-11.4645386,2.3145752-23.0025024,4.2613525-34.3082886,7.2709961
				c-1.0039062,0.2672729-2.0089722,0.5291748-3.0089111,0.8143921c-2.9714966,0.8475952-3.6827393,3.7132568-2.8518066,5.9614868
				c0.7270508,1.967041,2.6343994,3.4615479,5.2443848,2.717041c4.5293579-1.2919922,9.1016235-2.3873291,13.6958008-3.3839722
				c6.0801392-2.9781494,11.6495361-6.9445801,17.0440674-11.0604248
				C137.4151001,62.0028076,141.4219971,67.914978,138.9812622,71.6848755z"/>
			<path d="M110.0129395,82.7335815c3.3634644,1.1561279,7.2904663-0.9492188,10.380249-2.2088623
				c3.0031128-1.2243652,5.9823608-2.4736328,9.1721191-3.0759888c-0.7711182-2.5883789,0.600647-5.9672241,4.1294556-6.0710449
				c1.8064575-0.0531616,3.5457153,0.0979614,5.2450562,0.3726196c0.0144653-0.0216064,0.0274048-0.0437012,0.0414429-0.0654297
				c2.4407349-3.7698975-1.5661621-9.6820679-5.6918945-6.5343018c-5.3945312,4.1158447-10.9639282,8.0822754-17.0440674,11.0604248
				c-2.1828003,1.0691528-4.4276123,2.0181885-6.7590942,2.7908325c-2.1054688,0.6977539-3.052002,2.4100952-3.1106567,4.1508789
				C107.3057861,82.4817505,108.5454102,82.229126,110.0129395,82.7335815z"/>
			<path d="M129.5653076,77.4487305c-3.1897583,0.602356-6.1690063,1.8516235-9.1721191,3.0759888
				c-3.0897827,1.2596436-7.0167847,3.3649902-10.380249,2.2088623c-1.4675293-0.5044556-2.7071533-0.2518311-3.6373901,0.4191284
				c-2.5585327,1.84552-2.7554321,6.8843994,1.244812,8.2593384c6.4592896,2.2202759,13.1084595-1.4484253,19.0079956-3.7467041
				c3.2545166-1.2678833,6.315979-1.5493774,9.25-1.1392212c1.3093262-0.1402588,2.649292-0.2230225,4.0359497-0.2215576
				c2.2799072,0.0023804,3.6503906,1.3970337,4.1390381,3.0841675c1.8253174,0.9875488,3.62146,2.1596069,5.4068604,3.4355469
				c0.831604,0.5942993,1.6543579,0.8372192,2.4223633,0.8253784c0.4519043-0.6810303,0.8321533-1.4022217,1.1071777-2.1755371
				c0.5627441-1.5822144,1.7016602-2.5004272,2.9831543-2.8773193c-0.0352783-0.7521973-0.2501831-1.501709-0.677002-2.1835327
				c-7.1265869-2.4951172-13.9143677-6.2618408-21.6011353-6.0355835
				C131.4265747,80.444458,130.0595093,79.1077271,129.5653076,77.4487305z"/>
			<path d="M115.6581421,102.4753418c1.5852661-0.0765381,3.1749268-0.0162964,4.7651978,0.0982666
				c5.7094116-4.321228,11.7120972-7.2772217,19.4909668-7.269043c3.5239868,0.0036621,4.8942871-3.3082886,4.1390381-5.9158325
				c-0.4886475-1.6871338-1.8591309-3.0817871-4.1390381-3.0841675c-1.3866577-0.0014648-2.7266235,0.0812988-4.0359497,0.2215576
				c-10.3898315,1.1130981-18.4911499,6.5092163-26.5119629,13.5355225c-2.967041,2.5991211-0.9783936,6.348999,1.963562,7.3059082
				C111.2523193,105.0616455,112.690979,102.6186523,115.6581421,102.4753418z"/>
			<path d="M152.9897461,91.4741211c-0.2750244,0.7733154-0.6552734,1.4945068-1.1071777,2.1755371
				c-2.8516235,4.2971191-8.8468018,6.8314209-13.329834,8.4770508c-5.9119873,2.1702271-12.0255127,0.8865967-18.1293945,0.4468994
				c-1.590271-0.114563-3.1799316-0.1748047-4.7651978-0.0982666c-2.9671631,0.1433105-4.4058228,2.5863037-4.328186,4.8922119
				c0.0140991,0.4186401,0.0809326,0.8292236,0.1958008,1.2241211c1.8508911-0.7052002,4.1279907-0.3841553,5.5301514,1.7099609
				c0.2497559,0.3730469,0.4759521,0.7542114,0.6903687,1.1393433c4.2175903,0.0379639,8.3731689,0.71875,12.5953369,0.9569702
				c4.8815308,0.2754517,9.5168457-1.038147,13.9614258-2.9154663c7.4047241-3.1276245,14.5614014-7.732605,17.3652344-15.6157837
				c1.3814697-3.8842163-2.5807495-6.1859131-5.6953735-5.2698975
				C154.6914062,88.9736938,153.5524902,89.8919067,152.9897461,91.4741211z"/>
			<path d="M40.6248779,108.942627c1.0706177-0.9515991,2.5792236-1.3897705,4.1541748-1.0056763
				c1.5884399,0.3873291,3.0124512,0.5371704,4.3056641,1.6344604c-0.5181274-1.9146729-2.2631226-3.3643799-4.3292236-3.3643799
				c-1.0016479,0-1.9291382,0.3560791-2.6866455,0.9301758C41.4473267,107.6082764,40.9393311,108.2233276,40.6248779,108.942627z"
				/>
			<path d="M44.9720459,120.5012207c-0.2138062-0.1424561-0.4307861-0.2692871-0.6486206-0.3912964
				c-0.2399292,0.0310669-0.3946533,0.0601196-0.0198364-0.0109863c-0.0161133-0.0089722-0.0322876-0.0179443-0.0484009-0.0268555
				c-1.258606,0.1387939-2.4866333-0.1438599-3.4458008-0.8325806c0.6897583,4.1442261-0.1782837,8.565918,0.2407227,12.737915
				c0.6044922,6.019043,1.4173584,12.2412109,3.7197876,17.8650513c0.0828857,0.2025146,0.1782837,0.3900757,0.2793579,0.5705566
				c0.5922241-0.5620117,1.2807617-1.0424805,2.1055298-1.3908081c2.2870483-0.9658203,4.4428711-1.2410889,6.5003052-0.9445801
				c-0.0541992-0.204834-0.1187744-0.4128418-0.2067261-0.6277466c-2.1853638-5.3380737-2.9591064-11.1000366-3.5325317-16.8095093
				c-0.3502808-3.4879761,0.0700073-6.9491577-0.059021-10.3970337
				C48.4429932,121.2450562,46.4718628,121.5006104,44.9720459,120.5012207z"/>
			<path d="M108.5637817,111.9285889c-0.6001587-0.7304077-1.4136353-1.3007812-2.3178711-1.5966797
				c-2.7183228-0.8895874-5.2677002-0.2806396-7.7858887,0.8432007c-1.2695312,0.5665894-1.9639893,1.8474731-2.1378174,3.2017822
				c-0.5261841,0.5003662-0.9451904,1.1431885-1.1741333,1.9753418c-0.5904541,2.1466675,0.7128906,5.1730957,3.1430054,5.5355225
				c2.520874,0.3760376,4.5911865,0.215271,6.9420166-0.8274536c2.0976562-0.9304199,3.4655762-3.1087646,4.1558228-5.1928711
				c0.0673218-0.203186,0.1106567-0.4058228,0.1435547-0.6077881c-0.0818481-0.1387939-0.1572876-0.2803345-0.2478027-0.4155273
				C108.6052856,113.8294067,108.4161987,112.8309326,108.5637817,111.9285889z"/>
			<path d="M54.6345215,158.0477295c-1.8411865-1.5457764-3.9091797-1.9366455-3.5453491,1.1716919
				c0.3488159,2.9797974,2.0370483,6.7921753,4.3233032,8.8005371c0.5628662,0.4944458,1.2660522,0.6913452,2.020874,0.74646
				c0.7642212-1.4562378,0.5777588-3.1413574-0.2937622-4.5661621c0.9523926-0.8278809,1.5819702-2.0011597,1.4451904-3.2852173
				c-0.0663452-0.6229858-0.2053223-1.2125854-0.3737793-1.7883911
				C57.0325317,159.2855225,55.7683105,158.9995728,54.6345215,158.0477295z"/>
			<path d="M72.0737915,156.0952148c-0.7862549,0.2263184-1.5059204,0.2432251-2.1516113,0.1105347
				c-1.7193604,1.4094849-3.1583252,3.2540894-4.1741943,5.0960693c-1.1848755,2.1483765-0.5393677,4.8952637,1.6143799,6.1568604
				c1.6895752,0.9897461,3.9091797,0.7017822,5.3200684-0.5894775c0.4195557,0.0049438,0.8428345-0.0561523,1.2572021-0.2008057
				c2.8080444-0.9803467,5.5446777-2.6090088,7.1055298-5.2076416
				C79.8807983,157.5055542,76.5357056,154.8109131,72.0737915,156.0952148z"/>
			<path d="M47.1547852,149.0222168c-0.8247681,0.3483276-1.5133057,0.8287964-2.1055298,1.3908081
				c-3.15448,2.9937744-3.2275391,8.5984497-2.3809814,12.465332c1.1087646,5.0646973,4.5795898,11.2104492,9.362793,13.6529541
				c-1.1383667-4.9343262,6.9140625-6.8481445,8.8807373-1.7154541c-0.6934204-1.8097534-0.5389404-0.8609009,1.2236328-0.5131226
				c1.0932007,0.2156372,2.1810303,0.3383179,3.2972412,0.3737793c2.1142578,0.0671997,4.2766724,0.0943604,6.3398438-0.4177856
				c0.788147-0.3538818,1.6916504-0.4512939,2.6408691-0.1843872c0.6286621,0.1462402,1.1829834,0.4376221,1.6489868,0.8336182
				c1.5510864,1.0244751,2.8359375,2.2581177,3.9341431,3.7565918c1.2757568-0.2495728,2.5493774-0.6496582,3.8255005-1.2597046
				c4.8150635-2.3018188,6.6196899-8.776123,6.6477051-13.6279297c0.0634766-10.9949951-10.190918-19.4104614-20.7885132-16.3602295
				c-4.7838135,1.3769531-3.7039185,7.9785767,0.2409668,8.7890625c0.6456909,0.1326904,1.3653564,0.1157837,2.1516113-0.1105347
				c4.4619141-1.2843018,7.8070068,1.4103394,8.9713745,5.3655396c0.2166138,0.7357788,0.3664551,1.5101929,0.4245605,2.3161621
				c0.5524292,7.6656494-6.3526001,6.421875-11.5570068,5.4474487c-2.7772827-0.5200195-5.5160522-0.8897705-8.343811-0.784668
				c-1.2316895,0.0458374-2.7712402,0.4263916-4.1355591,0.3267212c-0.7548218-0.0551147-1.4580078-0.2520142-2.020874-0.74646
				c-2.2862549-2.0083618-3.9744873-5.8207397-4.3233032-8.8005371c-0.3638306-3.1083374,1.7041626-2.7174683,3.5453491-1.1716919
				c1.1337891,0.9518433,2.3980103,1.237793,3.5764771,1.0789185c3.4087524-0.4596558,6.0946045-4.6663818,2.7874756-7.4429321
				c-2.3338623-1.9593506-4.7609863-3.2339478-7.3433838-3.6060791
				C51.5976562,147.7811279,49.4418335,148.0563965,47.1547852,149.0222168z"/>
			<path d="M71.0940552,182.3855591c-3.5490112-2.1862793-2.2028198-6.8329468,0.6784668-8.1268311
				c-2.0631714,0.512146-4.2255859,0.4849854-6.3398438,0.4177856c-1.1162109-0.0354614-2.2040405-0.1581421-3.2972412-0.3737793
				c-1.7625732-0.3477783-1.9170532-1.2966309-1.2236328,0.5131226c-1.9666748-5.1326904-10.019104-3.2188721-8.8807373,1.7154541
				c0.0509033,0.22052,0.1132812,0.4448853,0.2022705,0.677124c2.6522217,6.921814,13.1906128,7.4761963,20.1177979,6.1491089
				C71.9649658,182.9953003,71.5501709,182.6665649,71.0940552,182.3855591z"/>
			<path d="M76.0623779,174.907959c-0.4660034-0.3959961-1.0203247-0.6873779-1.6489868-0.8336182
				c0.4014282,0.112915,0.8104248,0.2857056,1.2231445,0.539978
				C75.7860718,174.7064209,75.9176025,174.8123169,76.0623779,174.907959z"/>
			<path d="M76.0623779,174.907959c-0.1447754-0.0956421-0.2763062-0.2015381-0.4258423-0.2936401
				c-0.4127197-0.2542725-0.8217163-0.427063-1.2231445-0.539978c-0.9492188-0.2669067-1.8527222-0.1694946-2.6408691,0.1843872
				c-2.8812866,1.2938843-4.227478,5.9405518-0.6784668,8.1268311c0.4561157,0.2810059,0.8709106,0.6097412,1.2570801,0.9719849
				c2.6091919,2.4475098,3.8634644,6.4874878,7.0098267,8.597168c4.0544434,2.7185669,8.605957,3.6884766,11.5180054,8.0571289
				c1.1550903,1.7328491-0.111084,5.8602295-0.2927246,7.7722778c-0.2788696,2.9353027,0.4041748,5.7268066,1.4779663,8.4281006
				c2.477417,6.2319946,5.7918091,12.480835,9.1096802,18.3045654
				c5.7171631,10.0350952,17.6281738,15.1642456,21.8546143,26.1594849
				c2.0467529,5.324707,3.3751221,10.0749512,7.4521484,14.298584c3.5189209,3.6455078,8.5739746,5.4685059,12.7600098,8.1671143
				c0.3874512,0.2497559,0.7716675,0.4238281,1.1497803,0.5440674c4.3983154,1.3991699,7.8669434-5.4306641,3.3927002-8.3153076
				c-1.2041626-0.7762451-2.4487915-1.473999-3.6935425-2.1641846c-2.9731445-1.6481934-5.9457397-3.2496338-8.3592529-5.75
				c-3.7184448-3.8520508-4.2714233-10.8588867-6.954834-15.4847412
				c-5.8637695-10.1082764-16.843811-15.4501343-21.9860229-26.2086792
				c-2.9655151-6.2044067-7.7558594-12.1622314-7.0756226-19.3223877c0.5280151-5.5576782,0.5222778-9.8339233-3.5601196-14.095459
				c-3.3248901-3.4708252-6.9257812-5.3901978-11.1752319-7.440918c-2.128418-1.0271606-3.3378296-3.8665771-4.5956421-5.7255249
				c-0.1224365-0.1809082-0.2591553-0.3406982-0.3863525-0.5142822
				C78.8983154,177.1660767,77.6134644,175.9324341,76.0623779,174.907959z"/>
			<path d="M397.8086548,73.7006226c-7.0219727-4.0209961-17.7304077-3.6925659-25.3093872-3.3285522
				c-9.9769287,0.479248-19.8926392,2.5059204-29.6037598,4.7300415
				c-11.4186401,2.6151733-22.6343384,4.460022-34.3466187,5.1618042
				c-12.0039062,0.7192993-24.0390015,0.7150269-36.0452271,1.4058838
				c-24.4597778,1.4074707-48.8862305,5.9246216-73.4021606,2.5924072
				c-5.4556274-0.7415771-10.8102417-2.0230103-16.2741699-2.7401733
				c-6.4051514-0.8408203-12.8650513-1.0847778-19.2453003-2.1391602
				c-8.6851807-1.4353638-16.1088867-6.2532349-24.6422119-7.6325684c-1.6993408-0.2746582-3.4385986-0.4257812-5.2450562-0.3726196
				c-3.5288086,0.1038208-4.9005737,3.482666-4.1294556,6.0710449c0.4942017,1.6589966,1.8612671,2.9957275,4.1294556,2.9289551
				c7.6867676-0.2262573,14.4745483,3.5404663,21.6011353,6.0355835c1.9317627,0.6763306,3.8870239,1.2645874,5.8935547,1.6481323
				c5.2772217,1.008728,10.6846924,1.3786621,16.0267334,1.8690796c6.5854492,0.6045532,12.9696045,2.0165405,19.4927979,3.0101929
				c23.2971191,3.5489502,46.84375,0.1047363,70.1137085-1.8658447c23.1040649-1.9564819,46.3755493-0.5751343,69.2334595-5.1542969
				c10.0022583-2.0037842,19.7733765-4.7399902,29.930481-5.9796143c4.81073-0.5870972,9.6535645-0.7982178,14.4960938-0.6521606
				c4.2661743,0.1286621,10.4180298,0.4450073,14.0269775,2.9623413c1.763916,1.2303467,3.487854,0.9377441,4.7241211-0.0836182
				C394.8625488,81.5240479,394.3803711,75.4182739,397.8086548,73.7006226z"/>
			<path d="M465.8943481,127.8414307c0.6402588,1.8685303,1.2871094,3.7349243,1.9544678,5.5945435
				c1.2958374,3.6106567,2.5498047,7.2331543,3.7142334,10.8814087c1.2561646,3.5274048,2.3654175,7.0802002,3.0836182,10.7655029
				c0.5134888,2.0537109,0.9903564,4.117981,1.4041138,6.2004395c0.7669067,3.8597412,1.1687622,7.7381592,1.315979,11.6244507
				c0.9579468,7.3120117,1.6057129,14.6986084,1.3273926,21.7943115
				c-0.5028076,12.8188477-3.4031982,25.2572021-6.4686279,37.6610107c0.0123291,1.0498657,0.0448608,2.1011963,0.0940552,3.1536255
				c0.6097412-0.3449097,1.3340454-0.5653687,2.2055054-0.5653687c0.1559448,0,0.2910767,0.0308228,0.4386597,0.043457
				c1.5041504-1.9563599,4.3330688-2.805481,6.1465454-1.1567383c-0.7012939-16.6844482,3.7874756-33.3513184,5.0948486-49.9992065
				c1.694397-21.5775146-5.6467896-41.4744873-12.7822266-61.4376221
				c-5.6171875-15.7153931-9.3165283-32.5097656-22.9412231-43.5159912
				c-14.6057129-11.7987671-33.6723633-5.3598633-50.5909424-5.6417236
				c-0.8117676-0.0135498-1.4975586,0.1642456-2.0820923,0.4570923c-3.4282837,1.7176514-2.946106,7.8234253,1.4251709,8.4668579
				c0.2147217,0.0316162,0.4234009,0.0721436,0.6569214,0.0760498c16.1986694,0.2698975,34.4926758-6.4659424,47.7322388,6.0706177
				c5.8897095,5.5769653,9.2095337,13.3027344,11.883667,20.8009644c1.5632935,4.3834229,3.036499,8.7975464,4.5185547,13.2092285
				c0.0532837,0.1498413,0.1134644,0.2966309,0.1661377,0.4467773
				C464.7820435,124.4552612,465.3422852,126.1473389,465.8943481,127.8414307z"/>
			<path d="M478.0333862,251.3408203c-0.3366089-1.552002-0.7218018-3.0925293-1.1693726-4.6185303
				c-0.4326782,1.3218994-0.864624,2.644165-1.2963257,3.9664307
				C476.2884521,251.1716309,477.1547852,251.3759766,478.0333862,251.3408203z"/>
			<path d="M473.8887329,164.7693481c-1.0151367,3.3311768-0.4279175,6.5769043-0.3867188,9.9888916
				c0.038269,3.1712646-0.3155518,6.3613281-0.9624023,9.4691772c-0.7130127,3.4257202-1.6439209,6.8626709-2.8307495,10.2045288
				c-0.211853,12.3276978-3.4188843,24.4658203-6.364502,36.3596802c-1.3953857,5.6344604,7.2838745,8.0240479,8.6785278,2.3925781
				c0.067749-0.2736816,0.1350098-0.5474243,0.2026367-0.821106c3.0654297-12.4038086,5.9658203-24.8421631,6.4686279-37.6610107
				c0.2783203-7.0957031-0.3694458-14.4822998-1.3273926-21.7943115
				c-0.7081909-5.4059448-1.5852051-10.7713623-2.3869019-15.9470215c-0.0976562-0.6306152-0.2119141-1.2554321-0.3331909-1.8778687
				c-0.7182007-3.6853027-1.8274536-7.2380981-3.0836182-10.7655029c-0.430542-1.2089233-0.8759155-2.4153442-1.3305054-3.6229248
				c-1.5967407-4.2415161-2.9373779-8.5545044-4.3381958-12.8530273c-0.552063-1.6940918-1.1123047-3.3861694-1.7030029-5.0703125
				c-0.0526733-0.1501465-0.112854-0.296936-0.1661377-0.4467773c-3.8540649-10.8446045-9.2748413-21.0061646-15.4682007-30.6812744
				c-3.1177979-4.8704224-10.9104614-0.3615112-7.7712402,4.5424805
				c5.8814087,9.1877441,10.9810791,18.7155762,14.7270508,28.9781494
				c1.9693604,5.3953247,3.4345703,10.9471436,5.4414062,16.3325806c1.9846802,5.3261108,3.9847412,10.5837402,5.0869751,16.1777954
				c0.1715698,0.8706055,0.3143921,1.7510376,0.4466553,2.6350098
				C469.4129639,157.6813965,475.3136597,160.0935669,473.8887329,164.7693481z"/>
			<path d="M424.2932129,240.0733032c0.0053711,0.4836426,0.0422363,0.9612427,0.0926514,1.4362183
				c5.6682129-4.0933838,11.7457275-7.7455444,17.1639404-11.895752
				c9.5368042-7.3048706,18.3084717-15.7537231,24.2041016-26.3287354c1.5671997-2.8110352,2.8679199-5.7923584,3.9549561-8.8530884
				c1.1868286-3.3418579,2.1177368-6.7788086,2.8307495-10.2045288c0.6468506-3.1078491,1.0006714-6.2979126,0.9624023-9.4691772
				c-0.0411987-3.4119873-0.628418-6.6577148,0.3867188-9.9888916c1.4249268-4.6757812-4.475769-7.0879517-7.4008789-4.4602661
				c-0.557251,0.5005493-1.0076904,1.1819458-1.2776489,2.067688c-1.7770386,5.8311768-0.180481,11.8082886-1.0457764,17.7485962
				c-1.0180054,6.9891357-3.5143433,13.8327026-6.9423218,19.9813843
				c-6.1204224,10.9782104-16.583252,19.3272095-26.6608887,26.4860229
				c-9.3907471,6.6708374-19.677063,12.53479-26.6073608,22.0087891
				c-7.8082275,10.6743164-7.8078003,21.4567871-4.7960815,33.8945312
				c1.4320679,5.9138184,3.0343018,11.692627,3.3476562,17.8032227c0.3100586,6.0461426-1.6838379,11.7536621-4.0147095,17.2390137
				c-5.5419922,13.0424805-10.133728,26.4016113-14.4364624,39.8970947
				c-4.1889648,13.1385498-9.0593872,26.9837646-9.9643555,40.8317871
				c-0.1865845,2.8555908-0.1156616,5.7330322-0.2084961,8.5928955c-0.0247803,0.762207-0.0742798,1.5245361-0.1304932,2.286499
				c-4.1681519,2.3040771-6.3394165,7.1864014-9.383728,10.598999c-3.8498535,4.3155518,2.4928589,10.7033691,6.3639526,6.3640137
				c2.8035889-3.1428223,4.7703857-7.9697266,8.7491455-9.770752c3.5956421-1.6276855,3.2161865-6.2061768,3.401123-9.4787598
				c0.3909912-6.9194336,0.6577148-13.2373047,2.2290649-20.0412598c1.6864624-7.3027344,3.6815186-14.4936523,5.9307251-21.6417236
				c4.3209229-13.7318115,8.7676392-27.4283447,14.2302246-40.7562256c2.3588257-5.755249,4.920166-11.3076172,5.8374023-17.5141602
				c0.8531494-5.7727051,0.1278687-11.5118408-0.9550781-17.2041016c-1.1606445-6.1005859-3.2668457-11.993042-4.0244751-18.1760254
				c-0.8671875-7.0780029,1.4868164-13.1608887,5.8387451-18.6700439c1.4003296-1.7727051,2.940918-3.4129639,4.5767822-4.9610596
				c-0.6962891-2.5549316-1.2216797-5.1403809-1.2515869-7.8222046
				C415.2284546,234.2670898,424.2285156,234.2733765,424.2932129,240.0733032z"/>
			<path d="M353.2442627,420.293457c-2.5903931-0.0026855-5.5996704-2.0187988-8.0557861-4.0270996
				c-0.90625-0.7409668-1.7393799-1.480957-2.4452515-2.1184082c-1.2833252-1.1588135-2.7520142-1.4002686-4.0673218-1.0715332
				c2.6324463,1.6865234,3.612915,5.8205566,0.046814,7.5172119c-0.4868774,0.2315674-0.9507446,0.4873047-1.4047241,0.7530518
				c4.3568726,3.8203125,10.0435791,7.9404297,15.9262695,7.9467773
				C359.0483398,429.2995605,359.0477295,420.2995605,353.2442627,420.293457z"/>
			<path d="M125.8326416,390.2585449c-0.1955566,0.1633301-0.3814697,0.3442383-0.5534668,0.5524902
				c-0.1569214,0.1900635-0.3115845,0.3846436-0.4456787,0.6135254c-1.1318359,1.9321289-0.6318359,5.168335,1.6144409,6.1567383
				c1.2385254,0.545166,2.4628296,1.1223145,3.6918335,1.6730957c3.3049927,1.4810791,6.6452026,2.7652588,10.3964844,2.6730957
				c5.793396-0.142334,5.807251-9.1427002,0-9c-1.4208984,0.0349121-2.7658081-0.2661133-4.0731201-0.7165527
				c-1.8717041-0.6447754-3.6640015-1.6048584-5.4727783-2.4007568
				C129.2147217,389.0288086,127.2468262,389.0772705,125.8326416,390.2585449z"/>
			<path d="M338.6759033,413.076416c-0.8482056-0.543457-1.8671265-0.8310547-2.9620972-0.7021484
				c-0.4989014,0.0588379-1.0126343,0.2003174-1.5335083,0.4482422
				c-7.2070923,3.4289551-11.605835,10.1296387-15.9193115,16.5412598
				c-2.7374878,4.0688477,2.3651123,7.9014893,5.9671631,6.1484375c-0.0720825,0.0024414-0.1435547-0.0024414-0.2156982,0.0007324
				c-5.8052368,0.2486572-5.7811279-8.7524414,0-9c2.3745117-0.1016846,4.7080078,0.0805664,7.0258179,0.3845215
				c1.788208-2.1655273,3.8012695-4.0993652,6.2797241-5.5507812c0.4539795-0.2657471,0.9178467-0.5214844,1.4047241-0.7530518
				C342.2888184,418.8969727,341.3083496,414.7629395,338.6759033,413.076416z"/>
			<path d="M324.0124512,426.5129395c-5.7811279,0.2475586-5.8052368,9.2486572,0,9
				c0.0721436-0.0031738,0.1436157,0.001709,0.2156982-0.0007324c6.6514282-0.237915,13.1211548,1.6773682,19.6867676,2.4885254
				c5.7508545,0.7105713,5.682312-8.2978516,0-9c-4.3328247-0.5352783-8.5764771-1.5393066-12.8766479-2.1032715
				C328.720459,426.5935059,326.3869629,426.4112549,324.0124512,426.5129395z"/>
			<path d="M476.3092651,413.5157471c-1.9954224-0.2244873-3.8450928-0.7401123-5.7324219-1.9372559
				c-4.916748-3.1187744-9.4275513,4.6726074-4.5424805,7.7712402c2.776062,1.7608643,5.6652222,2.6258545,8.7228394,3.0266113
				c-0.1694946,1.0985107-0.4308472,2.1876221-0.7599487,3.2716064c0.0496826-0.1638184-6.4338379-0.1566162-7.2086792-0.1064453
				c-4.5424805,0.2939453-10.4152832,1.2645264-15.0193481-0.380249c3.3984985-3.2010498,7.4754028-5.6859131,10.1031494-9.7645264
				c4.1945801-6.510498,3.0551147-16.0350342,2.8453979-23.3422852
				c-0.5082397-17.7087402,2.1506348-34.8901367-2.3468628-52.3514404
				c-2.2369995-8.6846924-6.4679565-16.9052734-10.184082-25.0251465
				c-3.9243164-8.5748291-8.0387573-17.0618896-12.2659302-25.4910889
				c-4.0079956-7.9921875-8.7330322-15.5092773-10.3505249-24.4084473
				c-0.7578735-4.1696777-0.9418945-8.3537598-2.1063843-12.4462891c-1.024353-3.6000977-2.6819458-7.0889893-3.078125-10.8225098
				c-0.050415-0.4749756-0.0872803-0.9525757-0.0926514-1.4362183c-0.0646973-5.7999268-9.0647583-5.8062134-9,0
				c0.0299072,2.6818237,0.5552979,5.2672729,1.2515869,7.8222046c1.2103882,4.4416504,2.9414673,8.789917,3.5150146,13.3858643
				c1.0209961,8.1817627,3.1204224,15.0438232,6.930603,22.3572998
				c8.7720337,16.8376465,17.5957031,34.0227051,24.5247803,51.7160645
				c6.2147217,15.8691406,4.9613037,33.019165,4.2758789,49.6760254
				c-0.3284302,7.9815674,2.1260986,18.4908447-1.6899414,25.8234863c-1.2817383,2.4628906-3.9599609,4.2336426-6.088562,5.9042969
				c-2.6893921,2.1108398-4.9556274,4.3579102-6.9425659,7.1459961c-1.1380005,1.5966797-0.6619873,4.1594238,0.7036133,5.453125
				c7.4811401,7.0874023,17.8828735,5.5406494,27.3045044,5.0498047c4.1675415-0.2171631,9.8630981,0.9033203,12.3381958-3.5705566
				c2.0216675-3.6540527,2.9353638-8.5036621,2.4529419-12.6547852c-0.0379639-0.3266602-0.1017456-0.6435547-0.18396-0.9509277
				C481.1688843,419.2285156,476.4042969,417.345459,476.3092651,413.5157471z"/>
			<path d="M470.7822876,237.043335c0.005249-0.0077515,0.0101318-0.0160522,0.0154419-0.0237427
				C470.7930908,237.027832,470.7869263,237.0350342,470.7822876,237.043335z"/>
			<path d="M470.9000854,236.8731689c0.97052-1.2949219,2.4823608-1.8137817,3.9475708-1.7188721
				c0.038147-0.0536499,0.0759888-0.1073608,0.1160889-0.1594849c-0.147583-0.0126343-0.2827148-0.043457-0.4386597-0.043457
				c-0.87146,0-1.5957642,0.220459-2.2055054,0.5653687C471.7219849,235.8547363,471.2462769,236.3198242,470.9000854,236.8731689z"
				/>
			<path d="M470.9000854,236.8731689c-0.0353394,0.0471802-0.0684814,0.097168-0.102356,0.1464233
				c-0.0053101,0.0076904-0.0101929,0.0159912-0.0154419,0.0237427c-0.2391968,0.3522339-0.4437256,0.7520752-0.5964355,1.211731
				c-4.6315308,13.93927-8.9489746,27.9849243-14.3049316,41.6709595c-1.0741577,2.7446289,0.6369629,4.6918945,2.8561401,5.2504883
				c0.0331421-0.3146973,0.0587158-0.6300049,0.0928955-0.9445801c0.3113403-2.862793,2.7335815-4.3026123,4.9911499-4.3000488
				c0.6656494-5.0622559,1.611145-10.0738525,3.2550049-14.9328613c0.6477051-1.9144287,2.1351929-2.8676758,3.7143555-3.0654297
				c-0.0831299-2.0413818,1.053833-3.6098633,2.5521851-4.4593506c0.7451172-2.2606201,1.4862671-4.522583,2.2250366-6.7855225
				c0.4317017-1.3222656,0.8636475-2.6445312,1.2963257-3.9664307c-0.6815796-2.3238525-1.5006714-4.6153564-2.4927979-6.8655396
				c-0.7753296-1.7584229-0.4215088-3.4391479,0.4764404-4.7024536
				C473.3824463,235.0593872,471.8706055,235.5782471,470.9000854,236.8731689z"/>
			<path d="M470.0250854,267.439209c0.0010986-1.2487793,0.4334106-2.2121582,1.0881958-2.923584
				c-0.1089478-0.6984863-0.2110596-1.3981934-0.305481-2.0996094c-0.0224609-0.1668701-0.0107422-0.321167-0.017334-0.4824219
				c-1.5791626,0.1977539-3.0666504,1.151001-3.7143555,3.0654297c-1.6438599,4.8590088-2.5893555,9.8706055-3.2550049,14.9328613
				c2.2418213,0.0024414,4.3212891,1.427002,4.0088501,4.3000488c-0.2009888,1.8482666-0.3743286,3.6989746-0.5457153,5.5498047
				c0.9441528-0.0095215,1.9022827-0.2844238,2.727356-0.7971191
				C469.8427734,281.8184814,470.0188599,274.6303711,470.0250854,267.439209z"/>
			<path d="M471.8909912,283.6101074c-0.0033569-2.0314941,1.1047974-3.3356934,2.5370483-3.9449463
				c-1.3422852-5.0003662-2.5171509-10.0361328-3.3147583-15.1495361c-0.6547852,0.7114258-1.0870972,1.6748047-1.0881958,2.923584
				c-0.0062256,7.1911621-0.182312,14.3792725-0.0134888,21.5454102c0.1681519,7.1352539,0.6782837,14.2487793,2.0401001,21.3217773
				c0.0205078,0.1066895,0.0488281,0.204834,0.074585,0.3057861c0.2201538,0.0050049,0.4401245,0.0240479,0.6586304,0.057251
				C472.3060913,301.6578369,471.9058228,292.6608887,471.8909912,283.6101074z"/>
			<path d="M479.3544312,324.0369873c-0.1855469-2.3518066,1.1959839-3.723999,2.9251099-4.159668
				c-0.0180664-0.4049072-0.0354614-0.8101807-0.0576172-1.213501c-0.2680054-4.8723145-0.5375366-9.7325439-0.7654419-14.5926514
				c-0.8063965-3.0001221-1.6733398-5.9888916-2.5568848-8.9752197c-0.2836914-0.435791-0.50354-0.9572754-0.6283569-1.5822754
				c-0.1181641-0.5917969-0.2420044-1.182373-0.3684082-1.7724609c-1.1964111-4.0163574-2.3899536-8.034668-3.4747925-12.0760498
				c-1.432251,0.6092529-2.5404053,1.9134521-2.5370483,3.9449463c0.0148315,9.0507812,0.4151001,18.0477295,0.8939209,27.0593262
				c1.7294922,0.2629395,3.3382568,1.3935547,3.7178345,3.2110596c1.2272949,5.8775635,1.7182617,11.8807373,2.7879639,17.786499
				c0.7789307,4.300293,1.5310059,9.427002,3.7828979,13.4443359c0.2828979-0.2600098,0.548645-0.5236816,0.7827759-0.7971191
				c-0.1625977-0.3095703-0.307312-0.6424561-0.4124146-1.0227051
				C481.6838989,336.9257812,479.8760986,330.6499023,479.3544312,324.0369873z"/>
			<path d="M482.279541,319.8773193c-1.729126,0.4356689-3.1106567,1.8078613-2.9251099,4.159668
				c0.5216675,6.612915,2.3294678,12.8887939,4.0895386,19.2545166c0.1051025,0.380249,0.2498169,0.7131348,0.4124146,1.0227051
				c1.5803223-1.8460693,2.0693359-4.060791,1.7247314-7.4780273c-0.3746338-3.7150879-0.9708252-7.381958-1.1870728-11.112793
				c-0.1174316-2.0268555-0.2677612-4.0458984-0.4238892-6.0637207c-0.036499,0.0280762-0.0774536,0.050293-0.1129761,0.079834
				C483.3190308,319.703125,482.7872314,319.7495117,482.279541,319.8773193z"/>
			<path d="M493.9922485,331.548584c0.5178223-0.696167,0.8343506-1.532959,0.7921753-2.4790039
				c-0.2785034-6.2520752-1.24823-12.3557129-2.5793457-18.3833008
				C492.7978516,317.6425781,493.2322388,324.6096191,493.9922485,331.548584z"/>
			<path d="M471.1132812,264.515625c0.7976074,5.1134033,1.9724731,10.1491699,3.3147583,15.1495361
				c1.0848389,4.0413818,2.2783813,8.0596924,3.4747925,12.0760498c-2.0839233-9.7268066-5.1702881-19.2486572-5.3898926-29.2775879
				c-0.0841675-3.8427734,3.8208008-5.1208496,6.5142822-3.8776855c-1.0783691-2.0806885-3.6764526-2.2502441-5.6845703-1.1116943
				c-1.4983521,0.8494873-2.6353149,2.4179688-2.5521851,4.4593506c0.0065918,0.1612549-0.005127,0.3155518,0.017334,0.4824219
				C470.9022217,263.1174316,471.0043335,263.8171387,471.1132812,264.515625z"/>
			<path d="M478.8995972,295.0959473c0.8835449,2.9863281,1.7504883,5.9750977,2.5568848,8.9752197
				c0.6395874,2.3796387,1.2379761,4.7670898,1.7784424,7.1656494c-0.4765015-4.8349609-1.0252075-9.6628418-1.5980835-14.5061035
				C480.5510864,296.6131592,479.5489502,296.0932617,478.8995972,295.0959473z"/>
			<path d="M472.5129395,262.463623c0.2196045,10.0289307,3.3059692,19.5507812,5.3898926,29.2775879
				c0.1264038,0.5900879,0.2502441,1.1806641,0.3684082,1.7724609c0.1248169,0.625,0.3446655,1.1464844,0.6283569,1.5822754
				c0.649353,0.9973145,1.6514893,1.5172119,2.7372437,1.6347656c-0.0113525-0.0961914-0.0218506-0.1921387-0.0332642-0.2883301
				c-1.4594116-12.321167-0.7559204-25.2841797-2.3269653-37.7458496c-0.0801392-0.0429688-0.166748-0.0725098-0.2493896-0.1105957
				C476.3337402,257.3427734,472.428772,258.6208496,472.5129395,262.463623z"/>
			<path d="M474.9637451,234.994812c-0.0401001,0.052124-0.0779419,0.105835-0.1160889,0.1594849
				c-0.8979492,1.2633057-1.25177,2.9440308-0.4764404,4.7024536c0.9921265,2.2501831,1.8112183,4.541687,2.4927979,6.8655396
				c0.4475708,1.526001,0.8327637,3.0665283,1.1693726,4.6185303c0.5263062,2.4262695,0.9311523,4.8807373,1.2432251,7.3557129
				c1.5710449,12.4616699,0.8675537,25.4246826,2.3269653,37.7458496c0.0114136,0.0961914,0.0219116,0.1921387,0.0332642,0.2883301
				c0.572876,4.8432617,1.121582,9.6711426,1.5980835,14.5061035c0.2761841,2.8027344,0.5175781,5.6103516,0.7352295,8.4228516
				c0.1561279,2.0178223,0.3064575,4.0368652,0.4238892,6.0637207c0.2162476,3.730835,0.812439,7.3977051,1.1870728,11.112793
				c0.3446045,3.4172363-0.1444092,5.631958-1.7247314,7.4780273c-0.2341309,0.2734375-0.4998779,0.5371094-0.7827759,0.7971191
				c-2.2518921-4.017334-3.0039673-9.144043-3.7828979-13.4443359c-1.0697021-5.9057617-1.5606689-11.9089355-2.7879639-17.786499
				c-0.3795776-1.8175049-1.9883423-2.9481201-3.7178345-3.2110596c-0.2185059-0.0332031-0.4384766-0.0522461-0.6586304-0.057251
				c-0.3978882-0.0090332-0.7921753,0.0340576-1.1749268,0.1206055c-0.7057495-3.3886719-1.5585938-6.7435303-2.6923218-10.0316162
				c-0.3382568-0.9810791-0.9655151-1.7645264-1.7316284-2.322998c0.2422485-2.866333,0.4915161-5.7321777,0.7568359-8.5964355
				c0.1713867-1.8508301,0.3447266-3.7015381,0.5457153-5.5498047c0.312439-2.8730469-1.7670288-4.2976074-4.0088501-4.3000488
				c-2.2575684-0.0025635-4.6798096,1.4372559-4.9911499,4.3000488c-0.0341797,0.3145752-0.0597534,0.6298828-0.0928955,0.9445801
				c-0.927002,8.7952881-1.4686279,17.6254883-2.4536743,26.4152832c-0.4035034,3.6005859,3.690918,5.1535645,6.4764404,3.9975586
				c0.5440063,2.8950195,1.0047607,5.8088379,1.4489136,8.7246094c0.4022217,2.6403809,3.0022583,3.5804443,5.2684937,3.0762939
				c1.2196045,9.8280029,2.6380615,20.109375,9.4233398,27.0765381c0.4650269,0.4775391,1.0290527,0.8111572,1.6323242,1.0268555
				c0.0335693-1.3765869,0.0587769-2.7421875,0.0654297-4.0906982c0.0285034-5.8023682,9.0285034-5.8050537,9,0
				c-0.0001831,0.0343018-0.0009155,0.0692139-0.0010986,0.1036377c1.4802856-1.3193359,2.7711792-2.8327637,3.7348633-4.6413574
				c2.0394287-3.8276367,1.432251-8.7794189,0.9304199-12.8874512c-0.0988159-0.80896-0.1815796-1.6193848-0.2702637-2.4291992
				c-0.7600098-6.9389648-1.194397-13.9060059-1.7871704-20.8623047c-0.305481-3.5849609-0.6517944-7.1669922-1.1205444-10.7398682
				c-2.8302002-21.572998,0.0402832-44.260376-8.9420776-64.6321411c-0.2763062-0.6265869-0.630127-1.1106567-1.0321655-1.4761963
				C479.296814,232.1893311,476.4678955,233.0384521,474.9637451,234.994812z"/>
			<path d="M480.5983276,351.4029541c-0.0066528,1.3485107-0.0318604,2.7141113-0.0654297,4.0906982
				c-0.3365479,13.7963867-1.6073608,28.817627,4.5415649,41.3381348c0.8701172-0.8551025,2.0342407-1.40625,3.1810913-1.352417
				c3.0419312,0.1427002,5.3676758,1.3990479,7.7091064,3.1135254c-0.0288086-0.7005615-0.2624512-1.4422607-0.7611694-2.192749
				c-8.5762329-12.9034424-5.6914062-30.246582-5.6062622-44.8935547c0.0001831-0.0344238,0.0009155-0.0693359,0.0010986-0.1036377
				C489.6268311,345.5979004,480.6268311,345.6005859,480.5983276,351.4029541z"/>
			<path d="M496.6988525,399.1394043c-0.2455444-0.1882324-0.4898071-0.3675537-0.7341919-0.5465088
				c-2.3414307-1.7144775-4.6671753-2.9708252-7.7091064-3.1135254c-1.1468506-0.053833-2.3109741,0.4973145-3.1810913,1.352417
				c-0.9321899,0.9160156-1.5197144,2.1811523-1.3842773,3.4365234c-3.9451294,1.965332-6.2758789,7.0771484-7.28479,12.133667
				c-0.0773315,0.3875732-0.1049805,0.7581787-0.0961304,1.1137695c0.0950317,3.8297119,4.8596191,5.7127686,7.3760376,3.7154541
				c0.6665649-0.5290527,1.1771851-1.3267822,1.3986206-2.4366455c0.3414307-1.7114258,0.7037354-3.506958,1.4395752-5.09729
				c0.2489624-0.5380859,0.5144653-0.9952393,0.8850708-1.4194336c2.1762085,0.8851318,4.1896362,0.3309326,5.3845215-0.9953613
				c1.9304199,0.8652344,4.5123291-0.2657471,5.5201416-1.986084
				C499.670166,402.9798584,498.6412964,400.6289062,496.6988525,399.1394043z M487.2716064,408.2288818
				c0.0170288,0.0074463,0.0335693,0.0108643,0.0505371,0.0180664
				C487.1359253,408.2547607,486.9589844,408.0932617,487.2716064,408.2288818z"/>
			<path d="M317.6466064,131.2315063c-2.1826782,16.4122314,0.9356079,32.6271362,5.1363525,48.4647217
				c1.4866333,5.6049194,10.1682739,3.2241821,8.6785278-2.3925781c-4.0168457-15.144104-6.9017334-30.380249-4.8148804-46.0721436
				C327.4099121,125.4917603,318.4001465,125.5653687,317.6466064,131.2315063z"/>
			<path d="M111.5257568,108.5916748c-1.4985352,0.5709839-2.7131348,1.8158569-2.9619751,3.3369141
				c-0.147583,0.9023438,0.0415039,1.9008179,0.7208862,2.9155273c0.0905151,0.1351929,0.1659546,0.2767334,0.2478027,0.4155273
				c2.328125,3.9475098,1.2286377,9.3008423,0.4980469,13.5715942c-0.890686,5.2070312-2.2575684,10.343689-2.604126,15.6317749
				c-0.3470459,5.2958374-1.3987427,9.9851685-4.3598633,14.4441528C100.0111694,163.5081177,94.9992065,167,90.7077637,170.3423462
				c-4.5748901,3.5631714,1.8436279,9.8846436,6.3639526,6.3639526c5.1010132-3.9728394,9.947998-7.9924316,13.7660522-13.2566528
				c3.6747437-5.0665894,4.9662476-11.3425903,5.5009155-17.4486084
				c0.9210205-10.5186157,6.9953613-24.5244141,1.4075928-34.5600586c-0.2144165-0.3851318-0.4406128-0.7662964-0.6903687-1.1393433
				C115.6537476,108.2075195,113.3766479,107.8864746,111.5257568,108.5916748z"/>
			<path d="M40.6248779,108.942627c-0.9039307,0.8035278-1.4966431,1.9717407-1.5420532,3.3335571
				c-0.0233765,0.7005005,0.0275269,1.4174805,0.1522217,2.119751c-0.1061401,0.3608398-0.1608276,0.7303467-0.1818848,1.1016235
				c-0.0266724,0.4694824-0.0027466,0.9383545,0.1191406,1.3814087c0.2848511,1.0356445,0.8792114,1.8164062,1.637085,2.3605347
				c0.9591675,0.6887207,2.1871948,0.9713745,3.4458008,0.8325806c0.0161133,0.0089111,0.0322876,0.0178833,0.0484009,0.0268555
				c-0.3748169,0.071106-0.2200928,0.0420532,0.0198364,0.0109863c0.2178345,0.1220093,0.4348145,0.2488403,0.6486206,0.3912964
				c1.4998169,0.9993896,3.4709473,0.7438354,4.8847656-0.2578735c0.5128784-0.3634033,0.9567871-0.8182983,1.2720947-1.3565063
				c0.5366821-0.9162598,0.6834717-1.8944092,0.546875-2.8261108c0.0820923-0.5950928,0.0377808-1.1868286-0.1644897-1.7153931
				c-0.6016235-1.5720215-0.9819336-3.4655762-2.2687378-4.6461182c-0.0519409-0.0476074-0.1054688-0.083374-0.1578369-0.1278076
				c-1.2932129-1.09729-2.7172241-1.2471313-4.3056641-1.6344604
				C43.2041016,107.5528564,41.6954956,107.9910278,40.6248779,108.942627z"/>
		</g>
	</g>
</g>
</svg>
