<?xml version="1.0" encoding="utf-8"?>
<!-- Generator: Adobe Illustrator 18.0.0, SVG Export Plug-In . SVG Version: 6.00 Build 0)  -->
<!DOCTYPE svg PUBLIC "-//W3C//DTD SVG 1.1//EN" "http://www.w3.org/Graphics/SVG/1.1/DTD/svg11.dtd">
<svg version="1.1" id="Layer_1" xmlns="http://www.w3.org/2000/svg" xmlns:xlink="http://www.w3.org/1999/xlink" x="0px" y="0px"
	 width="500px" height="500px" viewBox="0 0 500 500" enable-background="new 0 0 500 500" xml:space="preserve">
<g>
	<g>
		<g>
			<path d="M257.784,144.445c-9.979-3.714-20.82-5.996-31.135-2.223c-11.226,4.106-18.87,14.509-24.406,24.601
				c-6.562,11.962-10.312,25.235-15.634,37.745c-5.619,13.208-13.883,24.794-22.926,35.848
				c-16.746,20.469-34.819,40.627-43.098,66.278c-8.534,26.441,0.166,52.532,10.672,77.009
				c5.604,13.056,12.137,25.665,19.878,37.586c6.691,10.304,14.022,20.142,24.407,26.944c18.783,12.303,44.639,13.77,65.597,6.859
				c14.947-4.928,30.031-8.381,45.768-5.367c10.621,2.034,20.569,5.699,31.03,0.828c11.221-5.226,20.784-15.158,29.462-23.767
				c9.635-9.559,18.326-20.133,25.607-31.593c14.336-22.564,21.082-49.541,15.485-75.951c-2.741-12.936-8.71-25.111-15.486-36.369
				c-7.796-12.952-18.052-24.262-24.892-37.784c-14.798-29.254-21.508-65.167-44.354-90.785
				c-9.092-10.195-21.976-15.712-34.705-8.586c-5.064,2.835-0.527,10.609,4.542,7.771c13.061-7.312,24.042,6.247,30.581,16.107
				c9.164,13.817,15.451,29.469,21.372,44.88c2.261,5.885,4.531,11.738,7.004,17.537c2.747,6.443,5.407,12.913,8.571,19.167
				c3.556,7.029,8.263,13.23,12.876,19.577c16.431,22.604,29.813,47.326,27.198,76.109c-2.557,28.139-19.808,52.766-39.005,72.388
				c-4.555,4.655-9.363,9.058-14.281,13.326c-4.666,4.049-9.635,8.413-15.526,10.561c-4.389,1.6-9.045,1.061-13.52,0.175
				c-7.263-1.438-14.162-3.352-21.608-3.767c-14.748-0.822-28.341,4.022-42.258,8.02c-11.086,3.185-23.093,3.317-34.358,1.051
				c-11.416-2.296-22.036-7.614-30.041-16.137c-9.365-9.971-16.482-22.736-22.813-34.763c-6.389-12.136-11.64-24.84-16.022-37.828
				c-4.295-12.728-7.128-25.474-5.251-38.955c3.651-26.218,21.712-47.967,38.09-67.603c8.559-10.262,17.052-20.582,23.784-32.169
				c6.58-11.324,10.605-23.893,15.361-36.032c4.538-11.582,10.439-24.488,20.95-31.837c9.41-6.579,20.737-3.875,30.689-0.172
				C260.842,155.152,263.173,146.45,257.784,144.445L257.784,144.445z"/>
		</g>
	</g>
	<g>
		<g>
			<path d="M253.497,158.402c7.202,4.265,18.037,6.578,24.286-0.704c3.758-4.379-2.578-10.775-6.364-6.364
				c-3.498,4.076-9.597,1.537-13.38-0.704C253.034,147.666,248.509,155.448,253.497,158.402L253.497,158.402z"/>
		</g>
	</g>
	<g>
		<g>
			<path d="M260.108,155.712c2.953-18.988,17.873-33.529,24.619-51.14c4.23-11.043,1.911-22.353,2.199-33.804
				c0.05-1.981,0.379-3.943,0.554-5.914c0.288-3.244-2.327,0.574-0.243,0.152c4.113-0.833,8.324,1.181,12.245,2.225
				c-1.101-1.446-2.202-2.893-3.304-4.339c0.697,6.194-0.917,12.448-2.504,18.385c-2.23,8.341-5.217,16.483-8.328,24.529
				c-5.44,14.069-11.741,27.767-17.905,41.527c-2.352,5.25,5.402,9.831,7.771,4.542c6.483-14.472,13.045-28.898,18.812-43.677
				c3.273-8.389,6.288-16.901,8.615-25.604c1.676-6.269,3.272-13.177,2.538-19.703c-0.226-2.008-1.208-3.782-3.304-4.339
				c-5.703-1.518-16.78-5.85-21.6,0.059c-2.217,2.718-1.864,6.989-2.23,10.303c-0.753,6.828,0.446,13.819,0.435,20.666
				c-0.02,12.432-7.459,23.364-13.734,33.56c-5.776,9.385-11.596,19.124-13.316,30.181
				C250.547,158.995,259.218,161.434,260.108,155.712L260.108,155.712z"/>
		</g>
	</g>
	<g>
		<g>
			<path d="M279.956,77.3c-5.483,2.195-12.22-1.488-17.45-3.18c-6.844-2.215-14.06-1.832-20.979-0.173
				c-15.052,3.609-27.323,14.655-39.652,23.345c-14.219,10.022-29.143,17.527-45.447,23.482
				c-15.277,5.58-29.464,13.077-42.226,23.191c-4.548,3.604,1.867,9.928,6.364,6.364c12.419-9.841,26.576-16.716,41.436-22.026
				c15.383-5.496,29.503-13.007,42.972-22.236c12.452-8.533,24.093-19.308,38.945-23.441c7.015-1.952,13.303-0.85,20.005,1.449
				c5.771,1.979,12.431,4.304,18.424,1.905C287.668,83.849,285.349,75.141,279.956,77.3L279.956,77.3z"/>
		</g>
	</g>
	<g>
		<g>
			<path d="M119.268,146.769c-1.617-5.971,3.615-14.654,5.749-20.061c3.345-8.48,5.296-16.942,10.127-24.836
				c5.099-8.33,12.128-15.79,18.884-22.794c7.406-7.677,15.627-14.499,25.048-19.558c15.215-8.169,36.141-11.836,52.944-7.444
				c9.453,2.471,19.206,10.309,24.442,18.486c2.448,3.824,1.489,15.477,9.51,12.697c5.448-1.888,3.106-10.585-2.393-8.679
				c3.152,2.476,4.31,2.722,3.473,0.738c-0.306-1.016-0.501-2.076-0.734-3.11c-0.409-1.816-0.88-3.626-1.675-5.317
				c-2.078-4.421-6.333-8.205-9.851-11.485c-7.354-6.856-15.92-11.492-25.84-13.179c-18.973-3.226-40.634,1.682-57.251,11.083
				c-9.446,5.345-17.699,12.833-25.193,20.602c-7.624,7.903-15.151,16.504-20.69,26.021c-4.668,8.021-6.551,16.958-9.918,25.492
				c-2.818,7.143-7.447,15.846-5.31,23.735C112.105,154.758,120.788,152.38,119.268,146.769L119.268,146.769z"/>
		</g>
	</g>
	<g>
		<g>
			<path d="M261.532,74.581c-10.066,1.551-13.593,17.326-16.226,25.183c-1.744,5.203-3.327,9.871-6.726,14.234
				c-5.156,6.62-11.37,12.371-18.362,16.997c-15.259,10.097-33.251,12.503-51.18,12.36c-9.501-0.076-19.03-0.479-28.527-0.783
				c-8.977-0.287-17.982-1.358-26.779,1.054c-5.59,1.533-3.214,10.216,2.393,8.679c8.413-2.307,17.344-0.958,25.933-0.683
				c9.582,0.307,19.19,0.671,28.777,0.748c17.545,0.141,34.804-2.762,50.255-11.37c11.684-6.509,24.648-17.556,29.796-30.204
				c2.159-5.305,3.755-10.823,5.716-16.201c1.181-3.24,3.278-10.711,7.323-11.334C269.647,82.378,267.208,73.707,261.532,74.581
				L261.532,74.581z"/>
		</g>
	</g>
</g>
</svg>
