<?xml version="1.0" encoding="utf-8"?>
<!-- Generator: Adobe Illustrator 18.0.0, SVG Export Plug-In . SVG Version: 6.00 Build 0)  -->
<!DOCTYPE svg PUBLIC "-//W3C//DTD SVG 1.1//EN" "http://www.w3.org/Graphics/SVG/1.1/DTD/svg11.dtd">
<svg version="1.1" id="Layer_1" xmlns="http://www.w3.org/2000/svg" xmlns:xlink="http://www.w3.org/1999/xlink" x="0px" y="0px"
	 width="500px" height="500px" viewBox="0 0 500 500" enable-background="new 0 0 500 500" xml:space="preserve">
<g>
	<g>
		<g>
			<path d="M129.38,243.859c4.514,0,4.514-7,0-7C124.866,236.859,124.866,243.859,129.38,243.859L129.38,243.859z"/>
		</g>
	</g>
	<g>
		<g>
			<path d="M127.614,243.382c9.933,5.133,22.792,5.139,33.565,3.173c13.478-2.459,25.659-10.31,37.724-16.362
				c26.972-13.53,53.551-28.256,82.221-37.965c14.684-4.973,29.767-8.316,45.284-8.925c15.608-0.613,31.51,0.911,46.951,3.117
				c28.286,4.042,55.45,16.449,76.098,36.303c8.092,7.781,15.22,16.521,22.198,25.291c7.235,9.092,13.656,18.997,15.155,30.763
				c0.562,4.414,7.569,4.469,7,0c-1.618-12.697-7.488-23.197-15.237-33.193c-8.565-11.049-17.564-21.832-27.879-31.299
				c-20.216-18.555-46.883-29.941-73.773-34.354c-29.811-4.893-59.916-5.479-89.112,2.873
				c-28.532,8.162-54.964,22.332-81.283,35.728c-12.37,6.296-24.647,13.492-37.616,18.472c-11.112,4.268-26.774,6.013-37.764,0.334
				C127.143,235.269,123.602,241.309,127.614,243.382L127.614,243.382z"/>
		</g>
	</g>
	<g>
		<g>
			<path d="M127.659,281.017c1.663-2.53,9.623-1.778,12.222-1.83c6.203-0.124,12.275-0.536,18.475,0.144
				c14.876,1.631,28.92,8.744,42.162,15.249c25.366,12.462,49.939,26.782,77.385,34.305c29.802,8.168,61.484,10.802,92.057,6.321
				c31.052-4.55,60.913-14.331,89.883-26.108c12.411-5.046,21.483-13.51,30.57-23.105c3.101-3.275-1.84-8.233-4.95-4.95
				c-4.732,4.996-9.472,10.039-14.941,14.246c-6.249,4.807-13.564,7.452-20.808,10.345c-14.663,5.854-29.412,10.94-44.7,14.93
				c-15.522,4.051-31.235,7.541-47.215,9.165c-16.22,1.648-32.548,0.665-48.64-1.731c-15.018-2.236-29.865-5.414-44.17-10.55
				c-13.638-4.896-26.633-11.439-39.516-18.022c-24.657-12.6-50.725-28.743-79.406-27.502c-7.25,0.314-19.84-1.456-24.452,5.56
				C119.127,281.268,125.191,284.771,127.659,281.017L127.659,281.017z"/>
		</g>
	</g>
	<g>
		<g>
			<path d="M439.069,236.51c-2.298-0.842-5.217-0.315-6.281,2.144c-1.208,2.79-0.167,5.684,1.165,8.235
				c3.024,5.792,10.177,8.633,16.21,5.721c5.072-2.448,6.444-8.274,5.208-13.387c-1.446-5.979-6.642-9.675-12.489-10.426
				c-4.468-0.574-4.413,6.433,0,7c3.994,0.513,7.458,5.482,5.487,9.319c-1.023,1.992-3.761,1.766-5.572,1.269
				c-1.24-0.339-2.203-2.019-2.799-3.03c-0.295-0.5-0.473-0.977-0.651-1.525c-0.57-1.76-3.816,0.815-2.138,1.43
				C441.457,244.816,443.272,238.049,439.069,236.51L439.069,236.51z"/>
		</g>
	</g>
	<g>
		<g>
			<path d="M445.433,242.257c0-0.316,0-0.632,0-0.949c0-1.908-1.592-3.5-3.5-3.5s-3.5,1.592-3.5,3.5c0,0.316,0,0.632,0,0.949
				c0,1.908,1.592,3.5,3.5,3.5S445.433,244.164,445.433,242.257L445.433,242.257z"/>
		</g>
	</g>
	<g>
		<g>
			<path d="M401.917,226.262c-3.421,7.609-4.132,15.827-4.773,24.054c-0.638,8.18-0.809,15.985,0.868,24.066
				c3.336,16.075,13.985,29.226,26.977,38.72c3.651,2.668,7.138-3.41,3.533-6.044c-11.366-8.305-19.878-19.448-23.442-33.171
				c-1.76-6.777-1.769-13.751-1.166-20.677c0.681-7.829,0.768-16.122,4.047-23.414C409.796,225.713,403.765,222.15,401.917,226.262
				L401.917,226.262z"/>
		</g>
	</g>
	<g>
		<g>
			<path d="M371.739,271.691c0.452-0.023,0.904-0.046,1.356-0.069c-0.255-1.882-0.51-3.765-0.764-5.647
				c-13.289,3.161-12.944,23.647-2.517,29.987c3.177,1.932,6.065-3.042,2.902-4.965c-6.305-3.834-7.115-17.512,1.144-19.477
				c3.14-0.747,2.489-5.814-0.764-5.647c-0.452,0.023-0.904,0.046-1.356,0.069C368.05,266.13,368.032,271.881,371.739,271.691
				L371.739,271.691z"/>
		</g>
	</g>
	<g>
		<g>
			<path d="M369.504,263.938c-2.399-2.114-5.177-2.672-8.155-3.681c-4.72-1.6-9.533-2.928-14.341-4.234
				c-10.115-2.747-20.23-5.454-30.309-8.332c-19.904-5.684-40.063-11.064-60.819-12.248c-3.454-0.197-3.614,4.571-0.764,5.647
				c13.569,5.125,27.473,9.228,41.386,13.296c10.616,3.104,23.23,4.056,32.599,10.258c0.484-1.786,0.967-3.572,1.451-5.357
				c-0.974,0.005-1.948,0.01-2.921,0.015c-3.707,0.019-3.709,5.769,0,5.75c0.974-0.005,1.948-0.01,2.921-0.015
				c2.966-0.015,3.783-3.813,1.451-5.357c-8.933-5.913-20.259-6.922-30.352-9.778c-15.143-4.286-30.28-8.793-45.008-14.356
				c-0.255,1.882-0.51,3.765-0.764,5.647c19.003,1.084,37.479,5.894,55.728,11.031c8.87,2.497,17.711,5.079,26.623,7.424
				c4.833,1.272,9.663,2.551,14.464,3.938c3.635,1.05,9.837,1.858,12.743,4.418C368.208,270.445,372.291,266.394,369.504,263.938
				L369.504,263.938z"/>
		</g>
	</g>
	<g>
		<g>
			<path d="M310.557,257.879c-7.92-0.506-15.814-1.334-23.751-1.528c-2.829-0.069-3.97,4.002-1.451,5.357
				c11.458,6.167,24.016,9.574,36.295,13.675c3.527,1.178,5.027-4.376,1.529-5.545c-11.804-3.942-23.905-7.166-34.921-13.095
				c-0.484,1.786-0.967,3.572-1.451,5.357c7.937,0.194,15.831,1.022,23.751,1.528C314.261,263.865,314.238,258.114,310.557,257.879
				L310.557,257.879z"/>
		</g>
	</g>
	<g>
		<g>
			<path d="M488.413,279.905c4.514,0,4.514-7,0-7S483.899,279.905,488.413,279.905L488.413,279.905z"/>
		</g>
	</g>
	<g>
		<g>
			<path d="M487.483,273.03c-8.33,1.548-16.07,4.59-23.602,8.416c-4.026,2.045-0.482,8.083,3.533,6.044
				c7.015-3.563,14.18-6.27,21.93-7.71C493.778,278.956,491.894,272.21,487.483,273.03L487.483,273.03z"/>
		</g>
	</g>
	<g>
		<g>
			<path d="M349.904,175.328c-12.726-2.988-25.865-3.094-38.649-5.714c-12.394-2.54-24.435-6.446-37.145-7.176
				c-3-0.172-4.705,3.976-2.475,5.975c6.14,5.502,13.383,9.319,20.248,13.798c0.279-2.132,0.557-4.265,0.836-6.397
				c-4.856,1.994-10.972,0.049-16.032-0.255c-7.198-0.433-14.43-1.67-21.63-0.703c-2.835,0.381-4.878,3.607-2.475,5.975
				c0.553,0.545,1.018,1.008,1.433,1.66c0.321,0.504,0.096-0.38,0.07-0.353c-0.982,1.006-3.184,1.238-4.468,1.52
				c-3.998,0.877-8.194,0.975-12.271,1.054c-13.898,0.271-27.476,0.203-41.099,3.518c-2.925,0.712-3.462,4.953-0.836,6.397
				c7.789,4.283,16.642,5.495,25.101,7.854c0-2.25,0-4.5,0-6.75c-9.696,2.412-19.671,3.253-29.456,5.208
				c-4.425,0.884-2.547,7.63,1.861,6.75c9.785-1.954,19.76-2.795,29.456-5.208c3.408-0.848,3.281-5.835,0-6.75
				c-7.826-2.183-16.229-3.19-23.429-7.149c-0.279,2.132-0.557,4.265-0.836,6.397c15.805-3.846,31.507-2.201,47.45-3.714
				c4.673-0.443,9.739-1.112,13.477-4.179c3.969-3.256,1.379-8.368-1.502-11.207c-0.825,1.992-1.65,3.983-2.475,5.975
				c7.503-1.007,15.103,0.311,22.608,0.762c5.504,0.331,11.587,2.134,16.915-0.054c2.774-1.139,3.563-4.618,0.836-6.397
				c-6.35-4.143-13.155-7.616-18.832-12.704c-0.825,1.992-1.65,3.983-2.475,5.975c12.645,0.726,24.751,4.767,37.091,7.297
				c12.183,2.497,24.71,2.495,36.842,5.344C352.434,183.109,354.298,176.359,349.904,175.328L349.904,175.328z"/>
		</g>
	</g>
	<g>
		<g>
			<path d="M130.31,236.984c-10.225-3.884-19.292-9.593-28.897-14.771c-10.056-5.421-20.322-10.449-30.637-15.354
				c-19.974-9.498-39.566-19.811-60.156-27.955c-3.3-1.305-5.895,3.589-3.405,5.85c16.983,15.419,36.429,27.595,55.154,40.721
				c1.178-2.015,2.355-4.03,3.533-6.044c-10.552-5.548-21.759-9.513-33-13.403c-3.537-1.224-5.566,3.414-3.405,5.85
				c11.062,12.467,26.61,19.68,37.995,31.801c0.236-1.832,0.472-3.665,0.708-5.497c-3.495,1.677-8.766-0.606-12.344-1.243
				c-3.411-0.607-5.88,3.14-3.405,5.85c7.177,7.86,21.104,7.683,26.731,16.787c0.182-1.414,0.365-2.828,0.547-4.241
				c-3.434,2.824-9.84,1.969-14.033,2.843c-4.418,0.921-2.544,7.669,1.861,6.75c5.97-1.245,12.143-0.548,17.122-4.644
				c1.179-0.969,1.312-3.004,0.547-4.241c-6.419-10.387-20.075-9.715-27.826-18.204c-1.135,1.95-2.27,3.9-3.405,5.85
				c5.903,1.051,11.996,3.293,17.738,0.537c2.106-1.011,2.149-3.964,0.708-5.497c-11.388-12.125-26.94-19.342-37.995-31.801
				c-1.135,1.95-2.27,3.9-3.405,5.85c10.675,3.694,21.307,7.429,31.328,12.698c4.043,2.126,7.196-3.476,3.533-6.044
				c-18.236-12.784-37.197-24.609-53.737-39.626c-1.135,1.95-2.27,3.9-3.405,5.85c21.188,8.381,41.388,19.078,61.929,28.891
				c10.305,4.923,20.504,10.064,30.535,15.523c9.059,4.929,17.563,9.995,27.226,13.666
				C132.677,245.34,134.487,238.571,130.31,236.984L130.31,236.984z"/>
		</g>
	</g>
	<g>
		<g>
			<path d="M90.814,270.385c-10.552-0.415-22.428,2.11-31.682,7.233c-1.953,1.081-2.313,3.955-0.708,5.497
				c3.957,3.802,9.213,3.339,14.268,4.158c-0.515-1.95-1.03-3.9-1.544-5.85c-5.287,4.742-11.927,7.588-17.234,12.344
				c-1.201,1.076-1.252,2.899-0.547,4.241c-0.655-1.247-0.012-1.058-1,0.358c-0.944,1.353-2.346,2.502-3.554,3.607
				c-3.54,3.238-7.457,6.067-11.334,8.88c-6.216,4.511-13.727,8.564-18.993,14.227c-1.881,2.023-0.951,4.954,1.544,5.85
				c4.717,1.693,9.589-0.299,13.89-2.269c5.949-2.724,11.716-6.318,17.272-9.739c13.87-8.541,26.566-18.866,39.491-28.735
				c3.536-2.7,0.056-8.785-3.533-6.044c-11.508,8.787-22.852,17.797-34.925,25.81c-5.311,3.525-10.859,6.592-16.385,9.754
				c-3.788,2.167-9.419,6.1-13.949,4.473c0.515,1.95,1.03,3.9,1.544,5.85c6.285-6.758,15.46-11.442,22.788-16.988
				c4.582-3.468,17.031-11.248,13.188-18.566c-0.182,1.414-0.365,2.828-0.547,4.241c5.291-4.743,11.929-7.587,17.234-12.344
				c1.836-1.647,1.038-5.431-1.544-5.85c-3.33-0.54-8.626,0.096-11.179-2.358c-0.236,1.832-0.472,3.665-0.708,5.497
				c8.196-4.537,18.825-6.644,28.148-6.277C95.33,277.562,95.313,270.562,90.814,270.385L90.814,270.385z"/>
		</g>
	</g>
	<g>
		<g>
			<path d="M185.055,212.105c-1.09-0.482-2.184-0.946-3.285-1.404c-0.31,2.292-0.62,4.583-0.93,6.875
				c3.847-0.144,7.662-0.152,11.505,0.106c-0.589-2.174-1.178-4.348-1.767-6.522c-10.049,5.462-21.184,8.448-31.405,13.554
				c-2.004,1.001-2.271,4.012-0.708,5.497c3.33,3.166,7.314,5.178,11.4,7.198c4.031,1.994,7.579-4.043,3.533-6.044
				c-3.511-1.737-7.115-3.377-9.983-6.104c-0.236,1.832-0.472,3.665-0.708,5.497c10.221-5.105,21.347-8.087,31.405-13.554
				c3.244-1.763,1.525-6.301-1.767-6.522c-3.843-0.259-7.658-0.25-11.505-0.106c-4.193,0.157-4.449,5.409-0.93,6.875
				c0.538,0.233,1.075,0.466,1.613,0.699C185.611,219.958,189.176,213.928,185.055,212.105L185.055,212.105z"/>
		</g>
	</g>
</g>
</svg>
