<?xml version="1.0" encoding="utf-8"?>
<!-- Generator: Adobe Illustrator 18.0.0, SVG Export Plug-In . SVG Version: 6.00 Build 0)  -->
<!DOCTYPE svg PUBLIC "-//W3C//DTD SVG 1.1//EN" "http://www.w3.org/Graphics/SVG/1.1/DTD/svg11.dtd">
<svg version="1.1" id="Layer_1" xmlns="http://www.w3.org/2000/svg" xmlns:xlink="http://www.w3.org/1999/xlink" x="0px" y="0px"
	 width="500px" height="500px" viewBox="0 0 500 500" enable-background="new 0 0 500 500" xml:space="preserve">
<g>
	<g>
		<g>
			<path d="M154.372,345.304c18.308,5.017,37.473,1.017,56.05,0.232c21.892-0.925,43.903-1.09,65.815-1.435
				c21.608-0.341,43.112-1.341,64.639-3.293c6.528-0.592,13.051-1.24,19.549-2.107c5.4-0.721,11.865-1.082,16.694-3.882
				c5.017-2.91,0.488-10.688-4.542-7.771c-3.97,2.302-10.202,2.41-14.658,2.982c-5.93,0.761-11.886,1.311-17.839,1.851
				c-21.256,1.928-42.506,2.917-63.844,3.221c-21.416,0.305-42.826,1.005-64.24,1.387c-18.284,0.326-37.21,5.076-55.232,0.138
				C151.158,335.089,148.781,343.772,154.372,345.304L154.372,345.304z"/>
		</g>
	</g>
	<g>
		<g>
			<path d="M158.198,478.592c17.176-5.306,34.833-1.456,52.222,0.55c18.688,2.156,37.538,2.588,56.333,2.561
				c37.49-0.054,74.907-2.897,112.395-2.95c5.803-0.008,5.804-9.008,0-9c-38.138,0.054-76.205,2.898-114.347,2.953
				c-18.812,0.027-37.627-0.631-56.325-2.788c-17.689-2.041-35.212-5.398-52.671-0.004
				C150.278,471.621,152.637,480.31,158.198,478.592L158.198,478.592z"/>
		</g>
	</g>
	<g>
		<g>
			<path d="M152.702,341.165c5.804,0,5.804-9,0-9C146.898,332.165,146.898,341.165,152.702,341.165L152.702,341.165z"/>
		</g>
	</g>
	<g>
		<g>
			<path d="M160.068,336.665c1.865-82.722-23.93-162.314-35.991-243.408c-0.851-5.724-9.523-3.283-8.679,2.393
				c11.944,80.307,37.516,159.098,35.669,241.015C150.937,342.473,159.938,342.46,160.068,336.665L160.068,336.665z"/>
		</g>
	</g>
	<g>
		<g>
			<path d="M383.648,329.499c1.409-11.858-0.335-24.016-0.952-35.889c-0.687-13.231-1.142-26.474-1.459-39.719
				c-0.633-26.495-0.552-53.001-0.17-79.499c0.372-25.775,0.812-51.548,1.471-77.317c0.338-13.214,0.747-26.427,1.229-39.636
				c0.435-11.92,2.065-24.037-0.28-35.841c-1.13-5.69-9.804-3.275-8.678,2.393c2.279,11.472,0.309,23.832-0.114,35.43
				c-0.482,13.21-0.869,26.423-1.207,39.637c-0.659,25.769-1.076,51.543-1.449,77.317c-0.373,25.838-0.387,51.682,0.198,77.517
				c0.285,12.583,0.745,25.161,1.359,37.731c0.611,12.516,2.537,25.38,1.052,37.877
				C373.964,335.255,382.972,335.189,383.648,329.499L383.648,329.499z"/>
		</g>
	</g>
	<g>
		<g>
			<path d="M329.025,327.829c7.99-35.46,8.432-71.466,8.983-107.626c0.287-18.869,0.821-37.733,1.162-56.601
				c0.265-14.676,3.353-32.008-3.433-45.622c-2.589-5.195-10.352-0.635-7.771,4.542c3.146,6.313,2.939,13.564,2.709,20.44
				c-0.275,8.182-0.423,16.358-0.577,24.543c-0.329,17.566-0.807,35.129-1.09,52.697c-0.569,35.36-0.847,70.55-8.661,105.233
				C319.073,331.089,327.75,333.49,329.025,327.829L329.025,327.829z"/>
		</g>
	</g>
	<g>
		<g>
			<path d="M276.158,333.799c0.06-39.18-0.968-78.348-1.433-117.523c-0.069-5.8-9.069-5.806-9,0
				c0.465,39.175,1.494,78.343,1.433,117.523C267.149,339.603,276.149,339.602,276.158,333.799L276.158,333.799z"/>
		</g>
	</g>
	<g>
		<g>
			<path d="M237.461,336.665c0.549-19.068-2.057-38.005-3.075-57.013c-1.062-19.826-1.398-39.687-1.323-59.539
				c0.149-39.055,2.159-78.078,4.397-117.06c0.333-5.801-8.669-5.769-9,0c-2.238,38.987-4.188,78.001-4.397,117.06
				c-0.103,19.192,0.279,38.386,1.221,57.556c0.966,19.672,3.745,39.269,3.177,58.997
				C228.294,342.473,237.294,342.456,237.461,336.665L237.461,336.665z"/>
		</g>
	</g>
	<g>
		<g>
			<path d="M198.604,329.736c-9.168-53.776-15.827-107.926-21.337-162.189c-0.58-5.716-9.586-5.773-9,0
				c5.591,55.06,12.356,110.015,21.659,164.581C190.899,337.841,199.571,335.411,198.604,329.736L198.604,329.736z"/>
		</g>
	</g>
	<g>
		<g>
			<path d="M157.004,48.631c15.989-6.423,34.279-7.571,51.238-9.627c19.035-2.309,38.15-3.928,57.279-5.221
				c37.831-2.558,75.744-3.613,113.627-5.056c5.785-0.22,5.806-9.221,0-9c-38.528,1.467-77.076,2.585-115.55,5.186
				c-19.123,1.293-38.218,3.013-57.246,5.32c-17.122,2.076-35.608,3.239-51.74,9.72C149.296,42.088,151.614,50.796,157.004,48.631
				L157.004,48.631z"/>
		</g>
	</g>
	<g>
		<g>
			<path d="M151.068,339.532c1.72,20.526,1.156,41.088,0,61.628c-0.327,5.801,8.675,5.77,9,0c1.156-20.54,1.72-41.102,0-61.628
				C159.587,333.792,150.583,333.745,151.068,339.532L151.068,339.532z"/>
		</g>
	</g>
	<g>
		<g>
			<path d="M374.848,338.299c5.804,0,5.804-9,0-9S369.044,338.299,374.848,338.299L374.848,338.299z"/>
		</g>
	</g>
	<g>
		<g>
			<path d="M371.942,336.428c2.669,7.709,1.24,16.628,1.304,24.664c0.073,9.172,0.202,18.344,0.306,27.515
				c0.216,18.995,0.293,37.993-0.338,56.981c-0.193,5.807,8.808,5.788,9,0c0.631-18.989,0.547-37.985,0.338-56.981
				c-0.108-9.827-0.244-19.654-0.322-29.482c-0.067-8.336,1.169-17.062-1.61-25.09C378.734,328.587,370.039,330.929,371.942,336.428
				L371.942,336.428z"/>
		</g>
	</g>
</g>
</svg>
