<?xml version="1.0" encoding="utf-8"?>
<!-- Generator: Adobe Illustrator 18.0.0, SVG Export Plug-In . SVG Version: 6.00 Build 0)  -->
<!DOCTYPE svg PUBLIC "-//W3C//DTD SVG 1.1//EN" "http://www.w3.org/Graphics/SVG/1.1/DTD/svg11.dtd">
<svg version="1.1" id="Layer_1" xmlns="http://www.w3.org/2000/svg" xmlns:xlink="http://www.w3.org/1999/xlink" x="0px" y="0px"
	 width="500px" height="500px" viewBox="0 0 500 500" enable-background="new 0 0 500 500" xml:space="preserve">
<g>
	<g>
		<g>
			<path d="M236.522,142.53c-3.86-1.903-1.876-14.271-1.468-18.06c0.936-8.699,2.881-17.337,5.029-25.808
				c2.324-9.167,5.436-18.004,10.862-25.835c7.171-10.349,18.882-15.644,30.352-19.765c12.165-4.371,28.338-9.262,41.247-5.878
				c5.709,1.496,10.714,5.606,15.984,8.156c4.456,2.156,7.16,1.597,4.632,6.515c-3.279,6.377-9.093,12.096-13.907,17.303
				c-2.27,2.455-4.637,5.069-7.361,7.033c-1.843,1.328,0.535-0.157,1.414,0.716c-1.665-1.654-2.808-4.107-4.072-6.068
				c-2.496-3.873-5.032-7.204-9.399-8.993c-6.148-2.519-13.071-2.876-19.628-3.514c-8.769-0.853-18.121,0.006-24.432,6.814
				c-7.408,7.99-8.299,21.553-9.412,31.82c-1.354,12.5-0.899,25.931,3.92,37.691c2.169,5.294,10.88,2.979,8.678-2.393
				c-4.987-12.171-4.791-25.577-3.239-38.433c1.086-8.994,2.154-23.016,12.471-26.068c4.221-1.248,8.971-0.728,13.276-0.309
				c5.765,0.561,14.029,0.359,18.063,5.111c4.214,4.965,7.53,16.292,15.968,11.984c6.551-3.345,11.941-10.855,16.551-16.347
				c4.512-5.375,10.546-11.69,11.3-19.024c0.401-3.896-1.513-6.722-4.623-8.849c-4.478-3.063-10.047-5.049-14.779-7.773
				c-11.715-6.745-24.197-5.618-37.044-3.158c-15.725,3.011-32.703,8.884-45.113,19.272c-10.258,8.586-15.937,21.404-19.437,34.013
				c-2.888,10.405-5.045,21.06-6.299,31.785c-0.879,7.51-2.543,21.657,5.926,25.832C237.166,152.857,241.728,145.096,236.522,142.53
				L236.522,142.53z"/>
		</g>
	</g>
	<g>
		<g>
			<path d="M259.399,164.597c9.241-5.142,16.18-13.186,25.036-18.811c6.538-4.152,13.437-3.939,20.789-3.051
				c7.12,0.859,16.188,3.025,23.324,6.993c30.246,16.816,33.132,60.333,33.22,90.647c0.017,5.803,9.017,5.805,9,0
				c-0.097-33.593-4.205-77.114-35.512-97.126c-7.989-5.106-17.27-7.75-26.583-9.061c-6.292-0.885-12.461-1.619-18.78-0.361
				c-10.235,2.037-17.98,10.293-25.693,16.662c-2.916,2.407-6.043,4.499-9.345,6.337
				C249.786,159.648,254.323,167.422,259.399,164.597L259.399,164.597z"/>
		</g>
	</g>
	<g>
		<g>
			<path d="M261.505,169.313c1.912-25.593-28.195-30.424-47.366-25.309c-3.788,1.011-7.28,2.076-11.235,2.411
				c-4.716,0.4-9.432,0.369-14.132,0.993c-8.408,1.117-16.518,4.048-24.19,7.577c-15.274,7.026-28.641,18.859-36.713,33.656
				c-2.78,5.096,4.991,9.638,7.771,4.542c6.99-12.813,17.908-22.342,30.737-29.076c6.408-3.363,13.313-5.653,20.357-7.247
				c8.588-1.943,17.505-0.827,26.089-3.009c8.301-2.11,15.979-3.612,24.61-1.99c9.518,1.789,15.829,7.322,15.072,17.451
				C252.072,175.106,261.075,175.064,261.505,169.313L261.505,169.313z"/>
		</g>
	</g>
	<g>
		<g>
			<path d="M194.391,155.553c5.804,0,5.804-9,0-9S188.587,155.553,194.391,155.553L194.391,155.553z"/>
		</g>
	</g>
	<g>
		<g>
			<path d="M198.73,152.249c2.187-12.496-6.195-21.996-15.861-28.662c-10.601-7.311-23.126-10.099-35.873-9.484
				c-27.432,1.324-45.818,22.445-56.14,46.066c-2.3,5.263,5.452,9.85,7.771,4.542c8.61-19.703,22.11-37.539,44.506-41.236
				c10.11-1.669,20.777,0.063,29.848,4.702c7.565,3.869,18.805,11.769,17.07,21.678C189.059,155.531,197.731,157.958,198.73,152.249
				L198.73,152.249z"/>
		</g>
	</g>
	<g>
		<g>
			<path d="M174.796,117.501c-7.751-7.985-16.402-13.63-27.857-13.656c-5.804-0.013-5.803,8.987,0,9
				c9.074,0.02,15.406,4.748,21.493,11.02C172.48,128.036,178.839,121.666,174.796,117.501L174.796,117.501z"/>
		</g>
	</g>
	<g>
		<g>
			<path d="M165.344,121.722c9.583-5.349,19-11.265,29.389-14.949c12.712-4.508,26.239-4.518,39.518-3.328
				c5.783,0.518,5.733-8.486,0-9c-13.739-1.231-27.579-0.958-40.813,3.279c-11.603,3.715-22.068,10.328-32.636,16.226
				C155.734,116.779,160.271,124.553,165.344,121.722L165.344,121.722z"/>
		</g>
	</g>
	<g>
		<g>
			<path d="M266.518,105.253c5.804,0,5.804-9,0-9C260.715,96.253,260.715,105.253,266.518,105.253L266.518,105.253z"/>
		</g>
	</g>
	<g>
		<g>
			<path d="M268.79,104.639c13.86-7.552,28.2,4.821,37.254,14.481c3.976,4.243,10.328-2.135,6.364-6.364
				c-12.175-12.99-30.259-25.643-48.16-15.888C259.15,99.645,263.692,107.417,268.79,104.639L268.79,104.639z"/>
		</g>
	</g>
	<g>
		<g>
			<path d="M290.245,128.979c5.804,0,5.804-9,0-9S284.441,128.979,290.245,128.979L290.245,128.979z"/>
		</g>
	</g>
	<g>
		<g>
			<path d="M284.867,135.171c9.207-7.044,16.976-16.139,26.834-22.287c11.901-7.422,23.559-1.578,33.633,6.204
				c4.593,3.548,9.065-4.277,4.542-7.771c-11.613-8.971-24.697-14.263-38.851-8.244c-11.973,5.091-20.559,16.568-30.701,24.327
				C275.782,130.875,280.256,138.698,284.867,135.171L284.867,135.171z"/>
		</g>
	</g>
	<g>
		<g>
			<path d="M300.108,139.753c24.825-12.517,56.616-27.441,83.695-12.524c21.308,11.738,24.023,39.023,23.525,60.716
				c-0.733,31.916-9.488,62.957-12.42,94.655c-1.499,16.207-2.076,32.487-2.827,48.741c-0.597,12.931-1.003,25.955-4.252,38.551
				c-3.594,13.93-11.982,24.354-21.249,34.998c-9.147,10.505-18.318,20.871-26.616,32.068c-3.168,4.275-6.667,8.431-11.239,11.242
				c-5.747,3.533-13.029,2.288-19.039,0.204c-11.978-4.154-19.831-16.844-32.243-19.463c-10.079-2.126-16.626,7.099-22.732,13.405
				c-8.593,8.873-19.822,12.064-31.938,11.076c-11.489-0.937-22.845-6.491-31.103-14.407
				c-11.586-11.106-22.742-22.705-33.895-34.242c-6.674-6.904-13.904-13.607-19.454-21.477c-5.185-7.352-8.894-15.677-12.062-24.057
				c-6.516-17.236-12.115-35.213-16.854-53.01c-5.323-19.992-7.508-40.241-10.28-60.676c-2.934-21.626-6.431-43.201-6.524-65.081
				c-0.025-5.803-9.025-5.805-9,0c0.067,15.685,1.859,31.231,3.964,46.754c2.127,15.685,3.937,31.422,6.157,47.09
				c4.087,28.85,13.079,56.938,22.772,84.341c4.235,11.974,9.496,23.871,17.512,33.829c9.68,12.026,21.342,22.793,32.172,33.779
				c9.591,9.73,18.865,20.827,30.708,27.887c9.783,5.831,21.425,8.772,32.783,8.459c11.554-0.319,22.15-5.01,30.451-12.948
				c3.449-3.299,6.296-7.388,10.107-10.294c4.98-3.797,10.115,0.08,14.254,3.375c9.971,7.939,20.063,15.183,33.089,16.541
				c11.931,1.244,20.895-5.91,27.851-14.751c8.542-10.857,17.161-21.455,26.279-31.856c9.103-10.383,17.585-20.438,22.602-33.461
				c4.426-11.487,5.478-24.106,6.203-36.287c0.926-15.566,1.359-31.156,2.356-46.718c1.769-27.612,7.619-54.415,11.248-81.776
				c2.95-22.239,4.815-46.751-3.471-68.126c-7.01-18.083-21.881-29.957-40.933-33.255c-26.055-4.511-51.505,7.515-74.137,18.926
				C290.382,134.596,294.94,142.359,300.108,139.753L300.108,139.753z"/>
		</g>
	</g>
	<g>
		<g>
			<path d="M100.979,149.856c-4.197-10.626,7.138-20.371,14.027-26.94c4.207-4.012-2.166-10.367-6.364-6.364
				c-9.3,8.868-21.905,21.614-16.342,35.697C94.407,157.581,103.114,155.26,100.979,149.856L100.979,149.856z"/>
		</g>
	</g>
	<g>
		<g>
			<path d="M244.936,218.435c0.466,14.114-0.309,28.212-0.761,42.315c-0.472,14.716,0.072,29.315,1.309,43.982
				c1.198,14.201,2.614,28.408,5.658,42.347c3.038,13.908,7.258,27.523,10.089,41.482c1.153,5.686,9.828,3.273,8.679-2.393
				c-2.707-13.35-6.593-26.413-9.68-39.674c-3.197-13.731-4.518-27.743-5.745-41.762c-1.226-14.015-1.735-27.986-1.366-42.051
				c0.388-14.753,1.305-29.484,0.818-44.247C253.745,212.646,244.744,212.628,244.936,218.435L244.936,218.435z"/>
		</g>
	</g>
	<g>
		<g>
			<path d="M121.225,219.96c-3.442,7.268-3.573,15.267-3.5,23.17c0.087,9.489-0.437,18.958-0.32,28.449
				c0.266,21.559,3.34,43.054,9.061,63.836c1.539,5.588,10.222,3.213,8.679-2.393c-5.2-18.885-8.019-38.142-8.656-57.713
				c-0.303-9.3,0.343-18.562,0.292-27.853c-0.041-7.43-1.063-16.028,2.217-22.953C131.467,219.287,123.709,214.717,121.225,219.96
				L121.225,219.96z"/>
		</g>
	</g>
</g>
</svg>
