<?xml version="1.0" encoding="utf-8"?>
<!-- Generator: Adobe Illustrator 18.0.0, SVG Export Plug-In . SVG Version: 6.00 Build 0)  -->
<!DOCTYPE svg PUBLIC "-//W3C//DTD SVG 1.1//EN" "http://www.w3.org/Graphics/SVG/1.1/DTD/svg11.dtd">
<svg version="1.1" id="Layer_1" xmlns="http://www.w3.org/2000/svg" xmlns:xlink="http://www.w3.org/1999/xlink" x="0px" y="0px"
	 width="500px" height="500px" viewBox="0 0 500 500" enable-background="new 0 0 500 500" xml:space="preserve">
<g>
	<g>
		<g>
			<path d="M486.482,235.367c-4.397-14.359-11.028-28.439-24.749-35.921c-18.484-10.079-41.911-4.631-61.899-4.991
				c-0.654-0.012-1.201,0.137-1.665,0.38c-2.844-0.474-5.7-0.737-8.564-0.842c-0.803-0.403-1.728-0.384-2.568-0.055
				c-18.194-0.121-36.66,5.169-54.426-0.083c-4.339-1.283-6.18,5.473-1.861,6.75c18.047,5.335,36.692-0.117,55.011,0.101
				c4.531,10.375,3.521,21.747,2.114,32.776c-0.57,4.469,6.437,4.414,7,0c1.404-11.016,1.99-21.926-1.501-32.313
				c2.822,0.327,5.633,0.84,8.43,1.611c1.664,0.459,2.958-0.245,3.685-1.353c11.523-0.277,23.458-1.707,34.947-0.581
				c-1.882,7.489-3.639,15.005-6.274,22.28c-1.541,4.254,5.225,6.071,6.75,1.861c2.732-7.541,4.52-15.341,6.482-23.102
				c2.735,0.563,5.434,1.318,8.083,2.325c0.591,0.225,1.15,0.489,1.713,0.746c-4.223,2.869-7.018,7.536-9.867,11.776
				c-2.525,3.759,3.542,7.258,6.044,3.533c2.443-3.636,5.063-8.993,9.509-10.476c0.411-0.137,0.748-0.335,1.049-0.559
				c1.194,1.007,2.306,2.098,3.347,3.26c-1.649,0.398-3.213,1.083-4.676,2.019c-1.604,1.026-2.249,3.093-1.256,4.789
				c0.935,1.595,3.18,2.285,4.789,1.256c0.334-0.214,0.67-0.416,1.016-0.611c0.216-0.118,0.436-0.228,0.659-0.333
				c0.062-0.023,0.145-0.054,0.271-0.101c0.984-0.361,1.3-0.386,2.089-0.41c0.594-0.018,1.149-0.189,1.644-0.455
				c0.982,1.607,1.881,3.276,2.708,4.989c-6.851,1.073-12.034,5.575-16.252,11.001c-2.734,3.518,2.182,8.511,4.95,4.95
				c3.189-4.103,7.223-8.669,12.751-9.125c0.497-0.041,0.931-0.175,1.318-0.361c0.903,2.381,1.711,4.778,2.45,7.132
				c1.554,4.949,2.879,9.928,3.753,14.99c-2.668,0-5.336,0-8.004,0c-4.514,0-4.514,7,0,7c2.739,0,5.478,0,8.217,0
				c0.238,0,0.457-0.03,0.67-0.066c0.096,1.225,0.168,2.455,0.195,3.693c0.005,0.208,0.001,0.416,0.003,0.624
				c-0.2-0.056-0.404-0.108-0.626-0.133c-5.303-0.593-10.618-0.728-15.951-0.725c-4.514,0.002-4.514,7.002,0,7
				c5.333-0.003,10.648,0.132,15.951,0.725c0.077,0.009,0.142-0.002,0.217,0.003c-0.8,6.368-2.686,12.567-5.043,18.561
				c-0.052,0.132-0.109,0.259-0.161,0.39c-3.121-0.512-6.339-0.909-9.197-2.274c-4.052-1.935-7.605,4.099-3.533,6.044
				c3.166,1.512,6.445,2.163,9.81,2.773c-2.905,5.82-6.502,11.143-11.288,15.792c-4.486,4.358-9.481,8.126-14.185,12.236
				c-0.844-0.994-1.698-1.978-2.572-2.946c-1.279-1.417-3.653-1.297-4.95,0c-1.4,1.4-1.277,3.535,0,4.95
				c0.839,0.929,1.661,1.874,2.472,2.827c-0.172,0.246-0.313,0.498-0.407,0.753c-11.196,1.887-22.342,4.416-33.492,5.936
				c3.076-0.58,6.149-1.189,9.214-1.849c4.412-0.95,2.541-7.697-1.861-6.75c-9.293,2-18.618,3.636-28.015,4.739
				c2.052-1.527,1.626-4.79-0.27-5.955c2.329-0.949,4.697-1.804,7.073-2.604c11.876-3.994,24.493-4.042,36.885-4.048
				c4.514-0.002,4.514-7.002,0-7c-13.739,0.007-27.436,0.378-40.544,4.911c-7.37,2.548-18.79,6.031-22.657,13.498
				c-0.127,0.245-0.221,0.487-0.29,0.727c-0.327,0.21-0.601,0.472-0.822,0.774c-0.037,0.048-0.069,0.097-0.102,0.147
				c-0.066,0.102-0.129,0.204-0.184,0.312c-0.066,0.125-0.122,0.252-0.171,0.383c-0.018,0.05-0.036,0.1-0.052,0.151
				c-0.031,0.097-0.069,0.19-0.091,0.289c-0.045-0.014-0.09-0.026-0.135-0.041c-4.309-1.388-6.139,5.371-1.861,6.75
				c28.124,9.062,55.745-0.144,83.791-4.35c2.673-0.401,3.045-2.987,1.969-4.851c5.593-5.18,11.748-9.708,17.221-15.025
				c7.147-6.944,11.412-15.728,15.155-24.828C493.458,272.291,492.23,254.138,486.482,235.367z"/>
			<path d="M386.249,252.213c9.144,0.093,18.41,1.663,26.873,4.894c-11.084,2.46-26.101,8.119-26.938,19.878
				c-0.046,0.65,0.073,1.194,0.289,1.655c0.023,0.157,0.045,0.312,0.083,0.487c0.179,0.82,0.775,1.707,1.378,2.266
				c1.398,1.295,3.563,1.387,4.95,0c1.125-1.125,1.343-3.009,0.497-4.34c-0.019-0.197-0.061-0.391-0.115-0.584
				c0.797-4.687,7.61-7.492,11.33-9.154c4.716-2.108,9.931-3.515,15.021-4.356c1.227-0.203,1.956-0.869,2.297-1.704
				c0.681,0.391,1.355,0.794,2.018,1.212c-11.465,2.007-23.963,8.975-26.544,20.031c-0.897,1.1-1.017,2.661-0.333,3.987
				c0.873,1.695,2.073,3.257,3.447,4.575c1.376,1.319,3.58,1.37,4.95,0c1.327-1.327,1.377-3.63,0-4.95
				c-0.261-0.25-0.512-0.506-0.758-0.771c-0.066-0.071-0.347-0.414-0.462-0.547c-0.078-0.107-0.151-0.219-0.226-0.329
				c0.015-0.078,0.043-0.148,0.054-0.229c1.397-10.486,18.903-15.677,27.677-15.351c0.145,0.005,0.272-0.016,0.408-0.025
				c0.617,0.589,1.223,1.191,1.81,1.814c-0.258,0.003-0.514,0.023-0.771,0.037c-1.206-0.38-2.436-0.697-3.659-0.967
				c-2.313-0.511-3.913,1.114-4.283,2.909c-4.635,1.943-8.98,5.012-12.673,7.836c-3.534,2.702-0.054,8.787,3.533,6.044
				c4.434-3.39,10.475-8.12,16.512-8.766c0.838,0.293,1.649,0.643,2.365,1.071c-2.428,0.897-4.601,2.361-6.443,4.373
				c-3.041,3.322,1.896,8.286,4.95,4.95c1.682-1.837,3.684-3.149,6.226-3.325c1.14-0.079,2.163-0.606,2.806-1.443
				c0.375,0.817,0.735,1.646,1.07,2.498c0.103,0.263,0.228,0.502,0.369,0.718c-0.003,0.315,0.022,0.637,0.114,0.974
				c0.021,0.076,0.061,0.148,0.088,0.223c-0.255,0.352-0.456,0.779-0.572,1.3c-1.572,7.085-4.873,13.487-7.25,20.301
				c-1.491,4.274,5.273,6.094,6.75,1.861c2.377-6.814,5.678-13.216,7.25-20.301c0.096-0.431,0.099-0.829,0.059-1.207
				c0.322,0.072,0.64,0.163,0.953,0.268c1.809,0.608,3.821-0.682,4.305-2.444c0.527-1.917-0.638-3.699-2.445-4.305
				c-1.085-0.364-2.257-0.564-3.425-0.568c-0.555-1.318-1.145-2.603-1.78-3.848c1.258-0.475,2.479-1.061,3.625-1.755
				c1.628-0.987,2.231-3.123,1.256-4.789c-0.952-1.625-3.156-2.245-4.789-1.256c-0.641,0.389-1.298,0.739-1.977,1.056
				c-0.031,0.015-0.053,0.025-0.079,0.037c-0.051,0.017-0.133,0.047-0.266,0.097c-0.391,0.149-0.791,0.272-1.193,0.39
				c-0.073,0.021-0.138,0.058-0.209,0.084c-1.216-1.78-2.53-3.46-3.918-5.06c0.355-1.002,0.283-2.169-0.211-3.106
				c1.357,1.251,3.528,1.229,4.843-0.087c0.322-0.322,0.644-0.645,0.967-0.967c1.348-1.348,1.348-3.601,0-4.95s-3.601-1.348-4.95,0
				c-0.322,0.322-0.644,0.645-0.967,0.967c-1.116,1.116-1.294,2.845-0.562,4.175c-0.554-0.512-1.305-0.85-2.28-0.85
				c-0.484,0-0.905,0.094-1.285,0.237c-1.427-1.312-2.92-2.544-4.466-3.707c2.758-8.637,10.224-14.769,12.993-23.519
				c1.366-4.316-5.393-6.148-6.75-1.861c-2.522,7.968-9.002,13.77-12.207,21.414c-3.766-2.206-7.77-4.048-11.947-5.526
				c-0.009-0.14-0.012-0.279-0.031-0.42c-0.287-2.11,0.08-4.29,0.483-6.356c0.365-1.871-0.502-3.771-2.445-4.305
				c-1.732-0.477-3.94,0.571-4.305,2.445c-0.433,2.219-0.702,4.356-0.71,6.528c-4.796-1.204-9.746-1.977-14.751-2.335
				c0.29-0.488,0.569-0.985,0.832-1.496c2.059-4.007-3.981-7.549-6.044-3.533c-4.639,9.03-13.635,12.939-23.48,12.901
				c-11.129-0.042-18.077-6.859-27.17-12.032c-5.802-3.301-11.208-7.4-17.607-9.48c-8.072-2.624-17.06-2.673-25.577-1.458
				c3.566-1.638,1.706-7.685-2.438-6.525c-6.34,1.776-12.677,3.561-18.91,5.589c0.376-1.634-0.284-3.355-2.431-3.655
				c-2.369-0.331-4.719-0.722-7.063-1.11c1.885-1.598,1.957-5.287-1.154-6.141c-7.034-1.929-14.191-2.946-21.394-3.351
				c-0.661-0.201-1.32-0.408-1.978-0.62c5.937,0.986,11.948,0.38,17.886,1.295c2.154,0.332,3.701-1.106,4.211-2.744
				c0.773,0.182,1.546,0.362,2.314,0.569c4.365,1.174,6.216-5.579,1.861-6.75c-2.154-0.579-4.328-1.064-6.525-1.45
				c-0.362-0.064-0.722-0.072-1.075-0.051c0.062-1.568-0.931-3.268-2.55-3.575c-2.894-0.548-5.845-0.7-8.701-1.45
				c-0.759-0.2-1.437-0.149-2.024,0.057c0.241-0.6,0.326-1.246,0.215-1.866c5.02,1.858,10.116,3.427,15.437,4.047
				c18.973,2.208,38.153-2.628,57.016,0.886c4.411,0.822,6.295-5.924,1.861-6.75c-4.03-0.751-8.065-1.131-12.103-1.302
				c-0.447-1.427-1.785-2.252-3.328-2.448c-3.634-0.464-7.208-1.254-10.876-1.45c-2.27-0.121-3.39,1.589-3.373,3.35
				c-0.003,0.087-0.006,0.172-0.003,0.259c-3.988-0.096-7.891-0.99-11.849-1.434c-1.546-0.173-2.878,1.099-3.326,2.52
				c-4.051,0.046-8.103-0.041-12.153-0.414c-17.653-1.624-32.511-13.7-50.5-13.707c-4.514-0.002-4.514,6.998,0,7
				c1.048,0,2.086,0.045,3.116,0.127c-0.178,0.846-0.05,1.742,0.388,2.49c0.497,0.848,1.206,1.264,2.092,1.608
				c0.932,0.363,1.871,0.49,2.864,0.608c0.867,0.103,1.885-0.435,2.475-1.025c0.567-0.567,0.906-1.321,0.989-2.114
				c1.942,0.516,3.865,1.123,5.775,1.789c-2.792,1.18-3.423,5.857,0.223,6.542c3.496,0.657,6.878,1.621,10.04,3.272
				c1.064,0.556,2.09,0.525,2.955,0.156c-0.638,1.749-0.088,3.938,2.231,4.547c2.856,0.751,5.807,0.902,8.701,1.45
				c0.036,0.007,0.071,0.006,0.107,0.012c-4.508-0.208-9.041-0.087-13.472-0.961c-3.813-0.752-5.725,4.188-3.309,6.102
				c-2.008-0.687-4.006-1.411-5.998-2.152c-9.823-3.653-19.539-7.069-29.634-9.909c-9.415-2.649-18.892-4.945-28.646-5.886
				c-8.11-0.783-16.368,0.188-24.382,1.825c-4.856-1.64-9.721-3.251-14.577-4.872c-19.889-6.641-39.865-13.046-59.655-19.978
				c-9.598-3.362-19.043-7.153-28.672-10.421c-4.808-1.632-9.704-2.94-14.694-3.878c-5.317-1-10.718-0.654-15.923-2.308
				c-4.314-1.371-6.146,5.388-1.861,6.75c4.339,1.379,8.782,1.621,13.293,1.985c5.27,0.425,10.474,2.034,15.495,3.604
				c10.306,3.222,20.319,7.427,30.5,11.019c20.356,7.181,40.94,13.729,61.414,20.565c0.664,0.222,1.324,0.446,1.987,0.668
				c-16.612,4.825-32.902,12.425-48.081,20.339c-4.365,2.275-8.862,4.999-13.484,7.667c-16.439,0.389-32.886,0.503-49.319,0.508
				c-4.514,0.001-4.514,7.001,0,7c11.751-0.003,23.505-0.073,35.255-0.256c-6.244,2.648-12.683,4.385-19.304,4.132
				c-4.516-0.173-4.499,6.828,0,7c12.325,0.471,24.162-5.314,35.116-11.457c24.069-0.618,48.117-1.836,72.098-4.153
				c9.361-0.904,18.672-2.114,27.972-3.405c11.07,3.575,22.359,6.04,34.268,5.428c9.603-0.493,19.114-2.325,28.674-3.288
				c9.347-0.942,17.945,0.444,27.013,1.776c-8.955,3.317-17.594,7.37-25.587,12.927c-3.678,2.557-0.184,8.628,3.533,6.044
				c12.896-8.966,27.444-13.853,42.313-18.142c-0.437,0.66-0.585,1.466-0.476,2.266c-9.022,2.96-17.481,8.186-24.81,14.004
				c-3.535,2.806,1.454,7.725,4.95,4.95c7.725-6.133,17.058-11.427,26.732-13.601c1.771-0.398,2.514-1.727,2.5-3.11
				c10.104-1.547,21.124-1.118,29.957,4.072c2.443,1.435,4.332,3.335,6.911,4.57c4.54,2.173,8.558,5.16,12.647,8.063
				c1.344,0.954,2.764,1.792,4.236,2.53c-5.025,2.793-14.466-2.215-19.273-3.298c-0.308-0.069-0.601-0.093-0.883-0.09
				c-4.834-7.33-13.22-12.092-21.835-13.444c-4.414-0.693-6.31,6.052-1.861,6.75c8.407,1.319,16.099,5.906,19.66,13.859
				c1.183,2.642,4.084,2.111,5.531,0.316c8.113,2.319,18.198,6.796,24.859-0.091c0.422-0.436,0.688-0.903,0.841-1.377
				C365.052,262.103,377.735,259.719,386.249,252.213z M252.796,208.639c0,0.001,0,0.003,0,0.004
				c-0.011-0.001-0.021-0.002-0.032-0.002C252.775,208.64,252.785,208.64,252.796,208.639z M231.361,221.883
				c1.519-0.001,3.037,0.03,4.553,0.081C234.391,221.946,232.873,221.919,231.361,221.883z M169.037,202.659
				c10.831,0.55,21.493,3.775,31.866,6.71c5.94,1.681,11.832,3.871,17.742,6.089c-4.104,0.302-8.2,0.712-12.274,1.191
				c-2.56,0.301-5.117,0.622-7.672,0.956c-3.831-1.112-7.636-2.492-11.414-4.243c-8.595-3.983-17.404-7.445-26.306-10.665
				C163.661,202.547,166.35,202.522,169.037,202.659z M147.924,224.331c-20.283,2.063-40.631,3.279-61.002,3.989
				c16.338-8.886,33.943-16.613,51.783-21.683c2.336-0.664,4.696-1.26,7.074-1.786c12.926,4.478,25.698,9.244,38.247,14.774
				c-3.1,0.442-6.201,0.884-9.301,1.322c-4.96-1.597-9.911-3.422-14.917-5.341c-4.222-1.618-6.031,5.151-1.861,6.75
				c0.548,0.21,1.096,0.418,1.644,0.627C155.708,223.472,151.821,223.935,147.924,224.331z M197.144,224.859
				c2.048,0.618,4.119,1.149,6.211,1.597c-3.54-0.112-7.019-0.465-10.457-1.009C194.313,225.249,195.728,225.054,197.144,224.859z"
				/>
			<path d="M292.953,244.059c-7.128,6.662-12.514,15.453-16.43,24.317c-3.787,8.572-6.602,18.906-2.244,27.777
				c1.991,4.051,8.027,0.502,6.044-3.533c-3.503-7.13,0.27-16.512,3.334-23.119c3.467-7.477,8.199-14.841,14.245-20.492
				C301.206,245.921,296.246,240.981,292.953,244.059z"/>
			<path d="M382.858,262.186c-2.633,2.585-4.37,5.819-5.844,9.164c-1.172,2.659-1.878,5.743-3.404,8.221
				c-1.284,2.086-0.095,4.061,1.635,4.837c0.131,0.253,0.29,0.491,0.486,0.71c0.03,0.037,0.058,0.074,0.089,0.11
				c0.01,0.011,0.017,0.024,0.028,0.034c0.322,0.322,0.644,0.644,0.967,0.967c1.348,1.349,3.601,1.349,4.95,0s1.348-3.601,0-4.95
				c-0.253-0.253-0.507-0.507-0.761-0.76c2.073-4.581,3.03-9.679,6.803-13.383C391.033,263.969,386.08,259.022,382.858,262.186z"/>
			<path d="M302.256,211.09c-0.004-0.102-0.011-0.204-0.01-0.306c0.008-0.032,0.015-0.065,0.023-0.097
				c0.124-0.037,0.247-0.079,0.373-0.109c0.269-0.018,0.539-0.019,0.808-0.011c0.125,0.004,0.248,0.02,0.372,0.031
				c-0.041,0.012,0.684,0.126,0.825,0.158c1.859,0.422,3.783-0.544,4.305-2.445c0.488-1.775-0.584-3.883-2.445-4.305
				c-3.194-0.724-6.939-0.71-9.347,1.866c-1.919,2.053-2.366,5.121-1.469,7.74c0.945,2.757,3.004,4.923,5.803,5.81
				c3.47,1.099,6.979-0.718,9.458-3.04c1.392-1.304,1.315-3.634,0-4.95c-1.381-1.381-3.558-1.303-4.95,0
				c-0.146,0.137-0.297,0.268-0.447,0.4c-0.101,0.082-0.253,0.204-0.314,0.246c-0.196,0.135-0.403,0.253-0.61,0.371
				c-0.078,0.044-0.121,0.07-0.167,0.098c-0.181,0.067-0.367,0.117-0.554,0.165c-0.014,0.004-0.023,0.006-0.036,0.01
				c-0.114,0.006-0.228,0.003-0.342-0.001c-0.008-0.002-0.013-0.003-0.021-0.005c-0.076-0.018-0.148-0.046-0.222-0.07
				c-0.094-0.05-0.183-0.11-0.273-0.168c-0.013-0.012-0.014-0.014-0.029-0.028c-0.1-0.092-0.191-0.193-0.282-0.293
				c-0.086-0.135-0.215-0.394-0.306-0.581C302.35,211.415,302.295,211.255,302.256,211.09z M302.223,210.966
				c-0.003-0.016-0.006-0.031-0.009-0.048c0.001-0.003,0.002-0.006,0.002-0.009C302.219,210.929,302.221,210.942,302.223,210.966z
				 M302.2,210.776c0.003,0.02,0.006,0.048,0.009,0.072c-0.001,0.007-0.002,0.015-0.003,0.022c-0.004-0.028-0.008-0.055-0.012-0.082
				C302.196,210.784,302.198,210.78,302.2,210.776z M302.568,210.531C302.584,210.525,302.586,210.524,302.568,210.531
				L302.568,210.531z M302.268,210.429C302.279,210.332,302.285,210.301,302.268,210.429L302.268,210.429z M302.184,210.652
				c-0.002,0.001-0.003,0.003-0.005,0.004C302.174,210.604,302.175,210.594,302.184,210.652z M303.449,212.721
				c-0.026-0.011-0.051-0.022-0.077-0.034c0.039,0.014,0.062,0.023,0.092,0.034C303.459,212.721,303.454,212.721,303.449,212.721z"
				/>
			<path d="M415.601,209.373c0.653-0.653,1.025-1.55,1.025-2.475c0-0.803-0.276-1.453-0.711-2.061
				c-0.091-0.128-0.178-0.258-0.255-0.392c-0.043-0.136-0.093-0.27-0.126-0.41c-0.427-1.859-2.527-2.934-4.305-2.445
				c-1.897,0.522-2.871,2.448-2.445,4.305c0.307,1.339,0.988,2.446,1.867,3.478C411.889,210.827,414.334,210.641,415.601,209.373z"
				/>
		</g>
	</g>
</g>
</svg>
