<?xml version="1.0" encoding="utf-8"?>
<!-- Generator: Adobe Illustrator 18.0.0, SVG Export Plug-In . SVG Version: 6.00 Build 0)  -->
<!DOCTYPE svg PUBLIC "-//W3C//DTD SVG 1.1//EN" "http://www.w3.org/Graphics/SVG/1.1/DTD/svg11.dtd">
<svg version="1.1" id="Layer_1" xmlns="http://www.w3.org/2000/svg" xmlns:xlink="http://www.w3.org/1999/xlink" x="0px" y="0px"
	 width="500px" height="500px" viewBox="0 0 500 500" enable-background="new 0 0 500 500" xml:space="preserve">
<g>
	<g>
		<g>
			<path d="M434.4398804,100.1143188c-10.6109619,6.4404297-18.5825806,16.1994629-27.7540283,24.3909302
				c-11.9296875,10.6549683-23.9594727,21.1975708-36.0663452,31.6506958
				c-11.1374512,9.6161499-22.6589355,18.4612427-34.5040894,27.1795044
				c-10.0997925,7.4336548-20.0668335,15.1624146-28.6080933,24.3724976
				c-0.4139404-0.536377-0.8374023-1.0700684-1.2811279-1.5979614c-0.3068848-0.3651123-0.637146-0.6228638-0.9744873-0.8325195
				c8.2670898-9.6407471,14.2407227-21.4649658,21.5877075-31.7515869
				c9.9658813-13.9534302,20.5213013-27.4768066,30.9493408-41.0844116
				c3.1389771-4.0960083-3.8155518-8.0726929-6.9077148-4.0377197
				c-9.6568604,12.6012573-19.3831787,25.1500854-28.7202759,37.9919434
				c-4.4973755,6.1854858-8.9274292,12.4212036-12.9550781,18.9246826
				c-3.4626465,5.5911865-6.8276978,11.2311401-11.2412109,16.1202393c-2.098938-1.1763916-4.2261963-2.0942993-6.3821411-2.7683105
				c7.2801514-7.9987793,12.7160034-17.5564575,17.8674927-27.0234375
				c6.9276123-12.7310181,13.9123535-25.4176025,20.305542-38.4296265
				c13.798584-28.0844116,25.2862549-57.2877197,34.9334106-87.0424194c1.5957031-4.9215698-6.130127-7.0125122-7.7142334-2.126709
				c-9.2531738,28.5396118-20.2504883,56.4558105-33.3168945,83.4696655
				c-6.1349487,12.6835327-12.9681396,24.9733887-19.6463013,37.3716431
				c-6.2030029,11.5160522-12.5094604,23.3616943-22.2409668,32.3267212
				c-0.0120239,0.0110474-0.0187378,0.0232544-0.0305786,0.0343628c-2.5548706,0.0391846-5.149231,0.3731079-7.7854004,0.9899292
				c-23.1767578,5.4229736-42.2243652,23.0077515-57.9465942,39.9285278
				c-18.098999,19.4786987-34.6480103,40.6786499-51.1804199,61.4777222
				c-19.4378052,24.4543457-38.1287842,49.5182495-55.5053711,75.4837646
				c-8.9169922,13.3245239-17.203125,27.0159302-26.4977417,40.0879517
				c-8.7332153,12.2824097-17.3890381,24.5883789-23.1401978,38.6027222
				c-1.4995728,3.6542969,3.1259766,5.7524414,5.8760376,4.5172729
				c26.5111084-11.9075928,49.899231-29.4594727,72.2966919-47.7512817
				c23.0029907-18.7863159,45.6415405-37.9102783,69.0346069-56.2246704
				c1.4520874-1.1368408,2.8897095-2.2841187,4.3342896-3.4263306c1.4803467-0.1948242,2.8043823-1.2843018,3.3799438-2.671814
				c19.8485107-15.8190918,38.9893799-32.1958618,57.4667358-49.6820679
				c14.6577148-13.8713989,30.4389648-27.953064,39.3933105-46.4042969
				c6.1640625-12.7016602,6.4385376-25.7940063,0.4805298-37.4886475
				c17.6445923-19.7009277,41.4573364-33.2051392,61.4215698-50.3723145
				c11.6430664-10.0117798,23.1952515-20.1290283,34.675354-30.3270874
				c9.9916382-8.8759155,18.9520874-20.0004272,30.4345093-26.9697876
				C442.8799438,104.3500977,438.8623047,97.4301147,434.4398804,100.1143188z M291.8834229,267.1870728
				c-6.6104736,7.9038696-14.0974121,15.0405273-21.5907593,22.0922852
				c-8.8632812,8.3409424-17.5477905,16.8466797-26.6948853,24.8834839
				c-10.6204224,9.3311768-21.609375,18.218811-32.7019043,26.9804077
				c-3.4500122-3.7103882-6.7491455-7.5609131-10.3151245-11.1638794c-3.6329346-3.6705933-9.2879639,1.9880981-5.6568604,5.6568604
				c3.3434448,3.3781128,6.4472656,6.9782104,9.6650391,10.4728394
				c-10.6808472,8.3745117-21.4144287,16.684021-31.9814453,25.190918
				c-23.0246582,18.5359497-44.8814087,38.4862671-69.0159912,55.6195068
				c-10.1068115,7.1748657-20.6325684,13.7765503-31.6397095,19.4660645
				c5.1209106-9.5140991,11.5425415-18.3577881,17.7802124-27.1274414
				c8.5715942-12.0507812,16.2772827-24.6171265,24.416687-36.9558716
				c7.0837402-10.7384033,14.4295654-21.3005371,21.961853-31.7294312
				c4.8388062,3.1170654,8.9313965,7.1725464,13.3102417,10.8914795c3.9069214,3.3182983,9.5946045-2.3123779,5.6568604-5.6568604
				c-4.6930542-3.9859009-9.1193237-8.3068848-14.2579956-11.713501
				c9.6313477-13.1242676,19.5540771-26.0366211,29.6646118-38.7883911
				c9.1040039-11.4822388,18.2565918-23.0266113,27.6460571-34.3617554
				c9.4164429,8.130127,17.9550781,17.208374,27.0962524,25.6453247c3.7837524,3.4922485,9.4553223-2.151062,5.6568604-5.6568604
				c-9.3164673-8.5987549-18.0111694-17.8591309-27.6432495-26.1071777
				c6.0125122-7.1294556,12.1315308-14.1577759,18.4244995-20.9973145
				c15.2982178-16.6270142,35.6742554-36.1989136,59.3255615-38.8641357
				c4.9326172-0.5559082,22.2587891,4.4119263,18.0420532,11.6119385c-2.612793,4.4613647,4.3029785,8.4854736,6.9077759,4.0377808
				c0.0136108-0.0231934,0.0246582-0.0461426,0.0380859-0.0693359
				C312.5944824,236.6119385,303.1428833,253.7246704,291.8834229,267.1870728z"/>
			<path d="M398.8865967,153.046814c-27.5454102,19.6928101-58.376709,34.9475708-83.1300049,58.3882446
				c-3.7525024,3.5535278,1.9141846,9.2010498,5.6568604,5.6568604
				c24.2400513-22.9546509,54.5310059-37.8488159,81.5109253-57.1373291
				C407.0814819,156.982605,403.0930786,150.0395508,398.8865967,153.046814z"/>
		</g>
	</g>
</g>
</svg>
