<?xml version="1.0" encoding="utf-8"?>
<!-- Generator: Adobe Illustrator 18.0.0, SVG Export Plug-In . SVG Version: 6.00 Build 0)  -->
<!DOCTYPE svg PUBLIC "-//W3C//DTD SVG 1.1//EN" "http://www.w3.org/Graphics/SVG/1.1/DTD/svg11.dtd">
<svg version="1.1" id="Layer_1" xmlns="http://www.w3.org/2000/svg" xmlns:xlink="http://www.w3.org/1999/xlink" x="0px" y="0px"
	 width="500px" height="500px" viewBox="0 0 500 500" enable-background="new 0 0 500 500" xml:space="preserve">
<g>
	<g>
		<g>
			<path d="M453.7021484,187.6222534c-4.7512207-9.7559204-11.6821289-18.4556885-19.842041-24.8007812
				c-21.7036133-16.8768311-45.7740479-30.9237671-71.4483643-40.7984009
				c-26.8469238-10.3256836-54.8944092-13.1851196-83.3935547-14.8462524
				c-74.8262939-4.3613892-163.8681641,2.755249-214.9743652,65.3425903
				c-3.6374512,4.4546509,2.6907959,10.8622437,6.3638916,6.3640137
				c32.9630127-40.3681641,85.3693848-57.6599121,135.6989746-62.1451416
				c30.1665039-2.6882935,60.6455078-1.7669678,90.7929688,0.6901245
				c28.8146973,2.3484497,55.8085938,8.7870483,81.9018555,21.4591064
				c15.0561523,7.3118896,29.2905273,16.2492065,42.8671875,26.0112305
				c13.3320312,9.5861816,22.8481445,20.5667114,27.4555664,36.5863647
				c3.9450684,13.7167969,2.4384766,26.781311-5.0419922,38.9537354
				c-7.9848633,12.993042-20.8903809,22.8156128-33.2369385,31.3646851
				c-4.7359619,3.2792969-0.2427979,11.0846558,4.5424805,7.7712402
				c18.9213867-13.1016846,39.27771-29.6634521,44.1077881-53.4368286c0.18396-0.9051514,0.333374-1.8154907,0.4667969-2.7279053
				c14.0718994,53.3056641-13.9868164,114.3614502-57.3708496,147.7489624
				c3.862915-8.6350098,4.0507812-18.6870117,3.418457-27.9520264c-0.776001-11.3703613-3.1035156-22.6091919-5.3068848-33.7683105
				c-1.7473145-8.848999-4.0124512-18.0343018-3.5480957-27.1188965c0.0030518-0.0597534-0.0091553-0.1094971-0.0080566-0.1680298
				c0.008667-0.2330933-0.0028076-0.4655762-0.0334473-0.6964111c-0.0181885-0.1477661-0.0491943-0.2851562-0.0805664-0.4234619
				c-0.0214844-0.0866699-0.0427246-0.1732788-0.0703125-0.258728c-0.3322754-1.1170044-1.086792-1.8961792-2.0372314-2.3394775
				c-9.6341553-5.2804565-18.0357666-12.9971924-26.2794189-20.1589966
				c-11.2130127-9.7414551-22.1022949-19.8502197-33.1010742-29.8308716
				c-8.4680176-7.6841431-16.901123-15.6325684-26.3024902-22.1834717
				c-14.2446289-9.9258423-30.7265625-16.7664795-43.9775391-28.1118774
				c-0.1594238-0.1364136-0.3218994-0.2556152-0.4858398-0.3659668c-1.0864258-0.9872437-2.5974121-1.4234619-4.2050781-0.7388916
				c-2.1657715-0.218689-4.4748535,0.9815063-5.0045166,3.0906372
				c-27.8691406,17.4954834-57.6400146,31.5445557-86.3193359,47.6222534
				c-25.3001709,14.1834106-51.2979736,31.2235107-68.1474609,55.352356
				c-0.5159912,0.7388306-0.7636719,1.4707642-0.8035889,2.1630249c-0.4926758-0.1149292-1.0047607-0.1534424-1.5214844-0.116394
				c-2.3117676-6.2371826-11.5151367-8.8162842-17.0234375-11.0232544
				c-10.2763672-4.1176147-18.8986816-10.1242065-25.9106445-18.774353
				c-8.2453613-10.171814-13.7641602-22.6455078-10.3278809-35.6915283
				c2.8605957-10.8602295,8.9013672-21.777832,16.0883789-30.3770142c3.6940918-4.4200439-2.6376953-10.8223267-6.3640137-6.3639526
				c-7.4759521,8.9450684-13.1634521,19.3338013-17.1220703,30.2800903
				c-4.6010742,12.7232056-2.9384766,24.581604,3.3094482,36.4506836
				c5.9403076,11.284729,14.8048096,20.7020264,25.6221924,27.3925781
				c3.8942871,2.4086914,8.0750732,4.0741577,12.3121338,5.7619629c2.2333984,0.8897095,4.4433594,1.8153076,6.6157227,2.8460693
				c0.9709473,0.4606323,1.9066162,0.9829712,2.8370361,1.519043c1.3586426,0.7828369,1.6328125,2.1033936,1.4729004,0.2444458
				c0.2155762,2.5041504,2.0526123,3.9233398,4.0130615,4.2478027c-0.0269775,5.8076782,1.2321777,11.5014038,2.6019287,17.1420898
				c1.6904297,6.9612427,2.8117676,13.8823242,3.8206787,20.9718018c1.6273193,11.4350586,4.668457,22.5050659,6.5404053,33.8650513
				c1.0300293,6.2510986,2.557373,14.234314,5.7495117,20.4151611c-0.2800293-0.071106-0.5698242-0.1296997-0.8840332-0.1525269
				c-11.3027344-0.8208618-22.0843506-8.4588623-31.1210938-14.6921997
				c-8.4500732-5.8286743-15.3547363-12.157959-21.2661133-20.5998535
				c-13.1689453-18.8057251-23.4692383-43.0767212-23.7001953-66.2977905c-0.0577393-5.800415-9.0578613-5.8060303-9,0
				c0.2519531,25.3190918,11.3305664,51.4212036,25.6806641,71.9137573
				c6.5654297,9.3758545,14.4274902,16.2318726,23.7431641,22.755127
				c10.4715576,7.3325806,22.5946045,14.9718628,35.6635742,15.9209595c2.7332764,0.1984863,4.1512451-1.703064,4.300293-3.8083496
				c3.6967773,4.0690918,8.8728027,6.0319214,16.277832,3.647583c5.5012207-1.7712402,3.1478271-10.4624023-2.3925781-8.6784668
				c-12.7811279,4.1152954-13.5385742-18.1942749-14.9489746-26.2203979
				c-1.9040527-10.8361206-4.6768799-21.416626-6.2332764-32.3530884
				c-0.8364258-5.8772583-1.7330322-11.6424561-3.1418457-17.4135132c-1.505249-6.1664429-3.03125-12.2260742-2.6226807-18.6229248
				c0.0029297-0.0437012-0.0059814-0.079834-0.0042725-0.1228638c1.8414307,0.6673584,4.0926514,0.3441162,5.510498-1.6862793
				c16.4993896-23.6275024,42.7716064-39.8103638,67.5169678-53.574585
				c26.6998291-14.8512573,54.2736816-28.0548706,80.3112793-44.0562134
				c0.0440674,2.3978882-0.0289307,4.8184204,0.1210938,7.0939941c0.2822266,4.2820435,0.5039062,8.5682373,0.7207031,12.8540039
				c0.5274658,10.4304199,0.9702148,20.8651123,1.4436035,31.2980957
				c0.8127441,17.9156494,1.2766113,35.9934692,3.2192383,53.8474121c-0.8959961-0.1756592-1.881958-0.0817871-2.8933105,0.4022217
				c-10.6668701,5.1047974-20.6730957,11.3731689-30.5566406,17.8381348
				c-11.7521973,7.6873779-23.5969238,15.2635498-35.2495117,23.0994873
				c-18.7039795,12.5778809-35.6616211,27.0663452-50.8972168,43.6732788
				c-3.9150391,4.267395,2.4326172,10.6491089,6.3640137,6.3639526
				c15.1523438-16.5163574,31.9355469-30.7397461,50.5319824-43.2453003
				c11.1672363-7.5096436,22.5437012-14.7318115,33.7932129-22.1201782
				c9.8685303-6.4813843,19.894043-12.7353516,30.5566406-17.8381348c0.1970215-0.0942993,0.3757324-0.1982422,0.5454102-0.3065796
				c31.317627,31.4803467,66.2044678,59.2210693,103.5402832,83.1937256
				c2.5255127,1.621582,4.9433594,0.3347168,6.0307617-1.7189331c0.3162842,2.4439697,2.4555664,4.8331299,5.5975342,4.2127686
				c7.9654541-1.5727539,14.9698486-5.4694824,19.6968994-11.8178101c0.4470215,2.96875,3.3862305,5.4620972,6.4008789,3.2034302
				C462.4736328,337.4937134,495.880249,251.1243286,453.7021484,187.6222534z M395.4196777,364.6795654
				c-2.6113281,8.8128662-9.5015869,13.5845337-18.2423096,15.3103638
				c-1.2525635,0.2473145-2.1115723,0.8608398-2.6304932,1.6547241c-0.1246338-1.2158203-0.7502441-2.3985596-2.0627441-3.241272
				c-36.439209-23.3968506-70.4206543-50.4387817-101.03479-81.1073608
				c-2.1522217-18.5619507-2.612915-37.3833618-3.461792-56.0294189
				c-0.4916992-10.8001709-0.9532471-21.6018066-1.4993896-32.3994141
				c-0.2122803-4.1991577-0.4437256-8.397522-0.7203369-12.5929565c-0.140625-2.1334839-0.1240234-4.317627-0.1569824-6.4985962
				c11.6706543,8.4777222,24.803833,14.9274292,36.876709,22.7713623
				c9.6962891,6.2999878,18.1555176,14.5228271,26.6933594,22.2607422
				c11.0058594,9.9746704,21.9060059,20.0673218,33.1011963,29.8309326
				c8.1217041,7.0830688,16.4818115,14.6997681,25.8238525,20.2589111
				c0.0136719,7.3537598,1.5725098,14.7753906,2.942627,21.9390259c1.9139404,10.0081177,4.1104736,19.9806519,5.3520508,30.1029663
				C397.5241699,346.0986328,398.0708008,355.7318726,395.4196777,364.6795654z"/>
		</g>
	</g>
</g>
</svg>
