<?xml version="1.0" encoding="utf-8"?>
<!-- Generator: Adobe Illustrator 18.0.0, SVG Export Plug-In . SVG Version: 6.00 Build 0)  -->
<!DOCTYPE svg PUBLIC "-//W3C//DTD SVG 1.1//EN" "http://www.w3.org/Graphics/SVG/1.1/DTD/svg11.dtd">
<svg version="1.1" id="Layer_1" xmlns="http://www.w3.org/2000/svg" xmlns:xlink="http://www.w3.org/1999/xlink" x="0px" y="0px"
	 width="500px" height="500px" viewBox="0 0 500 500" enable-background="new 0 0 500 500" xml:space="preserve">
<g>
	<g>
		<g>
			<path d="M420.3052979,134.3828735c-27.2008667-36.7473755-67.734314-62.1339111-112.3779907-71.5593872
				c-5.8327637-1.2315063-11.7352295-2.1061401-17.6523438-2.81427
				c-43.7623291-6.1936035-88.0576782-0.9435425-128.3790283,17.5369263
				c-35.342041,16.1983032-65.7956543,42.5271606-87.4701538,74.734375
				c-19.696228,29.2675781-31.7854004,64.3354492-31.5332031,99.7852173
				c0.2661133,37.40271,17.0307007,71.5205078,39.8799438,100.3736572
				c48.121582,60.7661133,129.3341064,95.7876587,206.5227051,89.4873047
				c36.7216797-2.9973145,72.1936035-16.1559448,100.4592896-40.0457153
				c37.1520386-31.4004517,59.5581055-80.3168335,65.6148071-127.9690552
				C461.6233521,224.7072144,449.9450684,174.4251709,420.3052979,134.3828735z M446.5703125,272.3308105
				c-5.720459,47.9302368-29.3546143,96.3314209-67.4458008,126.6876831
				c-28.7860718,22.9406128-65.7506714,33.5734253-102.1466675,34.5785522
				c-77.9832764,2.1535645-157.3327026-38.5024414-199.7238159-104.1765137
				c-10.0546875-15.5771484-18.2826538-32.5388794-22.3746338-50.6858521
				c-3.6722412-16.2850952-3.8540039-33.4030762-1.3861084-49.8788452
				c5.3779907-35.9035645,23.1604614-69.2827148,47.5154419-95.9016113
				c47.5285645-51.9464722,118.7189331-74.1674194,187.77948-64.1425781
				c0.1711426,0.0248413,0.3294678,0.0148315,0.4945679,0.0228882c0.2247314,0.0587769,0.4559937,0.1087036,0.7017212,0.1378784
				c46.135437,5.4781494,88.6396484,28.5994263,118.2108765,64.4161987
				C440.1160278,172.0509644,452.4552002,223.0223389,446.5703125,272.3308105z"/>
			<path d="M369.9944458,209.8016357c-48.1564941,19.4252319-86.1322021,56.6391602-126.1702271,88.6989746
				c0.8019409-6.7145996,1.0474243-13.5189819,1.241394-20.236145c0.3666992-12.7016602,1.2485352-25.3919067,1.7675781-38.0892944
				c1.2583618-30.7824097,1.8009644-61.6235352,0.8243408-92.421875c-0.1835327-5.7890625-9.1841431-5.8069458-9,0
				c0.9396362,29.6315918,0.4401855,59.2921143-0.685791,88.9113159
				c-0.4973755,13.083374-1.4190674,26.1557007-1.8375244,39.2397461c-0.394043,12.3192749-0.5985107,24.78479-4.428833,36.6216431
				c-1.7920532,5.5378418,6.8994141,7.8903809,8.6784668,2.3925781c0.4417725-1.3652344,0.8348999-2.7421265,1.1929932-4.1270752
				c0.8101196-0.0942383,1.6279907-0.4036865,2.3916626-1.0001831
				c41.0153809-32.0372314,79.3771362-71.5289917,128.418457-91.3111572
				C377.697876,216.3378296,375.3803711,207.6290283,369.9944458,209.8016357z"/>
			<path d="M87.2652588,245.7984009c-5.803833,0-5.803833,9,0,9
				C93.0690308,254.7984009,93.0690308,245.7984009,87.2652588,245.7984009z"/>
			<path d="M240.1937866,100.9807129c5.803833,0,5.803833-9,0-9
				C234.3900146,91.9807129,234.3900146,100.9807129,240.1937866,100.9807129z"/>
			<path d="M413.5721436,221.0118408c5.803833,0,5.803833-9,0-9S407.7683105,221.0118408,413.5721436,221.0118408z"/>
			<path d="M251.7523804,394.2813721c-5.803833,0-5.803833,9,0,9
				C257.5561523,403.2813721,257.5561523,394.2813721,251.7523804,394.2813721z"/>
		</g>
	</g>
</g>
</svg>
