<?xml version="1.0" encoding="utf-8"?>
<!-- Generator: Adobe Illustrator 18.0.0, SVG Export Plug-In . SVG Version: 6.00 Build 0)  -->
<!DOCTYPE svg PUBLIC "-//W3C//DTD SVG 1.1//EN" "http://www.w3.org/Graphics/SVG/1.1/DTD/svg11.dtd">
<svg version="1.1" id="Layer_1" xmlns="http://www.w3.org/2000/svg" xmlns:xlink="http://www.w3.org/1999/xlink" x="0px" y="0px"
	 width="500px" height="500px" viewBox="0 0 500 500" enable-background="new 0 0 500 500" xml:space="preserve">
<g>
	<g>
		<g>
			<g>
				<path d="M63.529,309.346c16.927-16.805,35.477-31.986,56.993-42.536c21.896-10.735,46.108-14.743,70.337-12.929
					c25.171,1.884,49.751,10.767,73.016,20.093c10.002,4.009,20.068,7.93,30.51,10.649c8.24,2.146,17.715,3.844,25.995,1.013
					c4.246-1.451,2.422-8.214-1.861-6.75c-8.782,3.002-18.869,0.07-27.417-2.44c-10.197-2.995-20.046-7.096-29.902-11.039
					c-24.053-9.624-49.478-17.493-75.482-18.854c-23.8-1.246-47.298,3.959-68.73,14.213c-22.037,10.544-41.179,26.524-58.41,43.63
					C55.373,307.58,60.323,312.528,63.529,309.346L63.529,309.346z"/>
			</g>
		</g>
		<g>
			<g>
				<path d="M60.754,312.707c8.755-3.566,18.543-3.093,27.767-2.13c9.708,1.013,19.338,3.285,28.692,6.023
					c24.648,7.214,48.918,14.403,74.929,12.213c22.203-1.87,44.31-7.755,65.375-14.787c21.19-7.073,42.04-16.071,60.986-27.972
					c3.811-2.394,0.301-8.453-3.533-6.044c-18.953,11.906-39.697,20.719-60.885,27.791c-21.098,7.043-43.406,12.799-65.666,14.294
					c-25.315,1.701-48.822-6.553-72.786-13.227c-17.197-4.789-39.497-9.933-56.74-2.911C54.77,307.636,56.572,314.41,60.754,312.707
					L60.754,312.707z"/>
			</g>
		</g>
	</g>
	<g>
		<g>
			<g>
				<path d="M136.663,226.791c52.333-11.327,104.85-23.895,158.784-18.459c24.414,2.461,48.79,7.171,72.327,14.06
					c16.954,4.962,38.457,11.994,55.192,2.816c3.958-2.171,0.427-8.216-3.533-6.044c-8.273,4.537-18.249,3.677-27.218,2.135
					c-9.957-1.713-19.647-4.81-29.328-7.633c-23.016-6.711-47.474-10.47-71.313-12.711c-53.036-4.987-105.346,7.956-156.771,19.086
					C130.391,220.996,132.262,227.744,136.663,226.791L136.663,226.791z"/>
			</g>
		</g>
		<g>
			<g>
				<path d="M135.732,226.916c15.771,0.039,31.525,0.926,47.296,0.917c15.473-0.009,30.721-2.529,46.163-2.718
					c23.54-0.289,46.46,5.508,69.499,9.525c21.301,3.714,42.89,6.619,64.545,6.72c18.124,0.085,38.741-1.591,54.034-12.337
					c3.663-2.574,0.17-8.647-3.533-6.044c-15.101,10.612-35.35,11.553-53.167,11.361c-21.348-0.229-42.618-3.354-63.598-7.08
					c-22.522-3.999-44.764-9.172-67.779-9.145c-15.428,0.018-30.703,2.626-46.163,2.718c-15.77,0.094-31.526-0.878-47.296-0.917
					C131.218,219.905,131.219,226.905,135.732,226.916L135.732,226.916z"/>
			</g>
		</g>
	</g>
	<g>
		<g>
			<g>
				<path d="M253.005,170.894c17.215,0.456,32.912-10.43,49.204-14.626c16.991-4.376,34.242-8.989,51.691-11.126
					c16.082-1.969,32.868-1.956,48.965-0.173c14.185,1.571,18.819,19.494,32.548,22.194c4.409,0.867,6.288-5.879,1.861-6.75
					c-6.428-1.265-11.125-7.836-15.468-12.264c-4.754-4.847-9.777-8.977-16.675-9.893c-16.03-2.128-32.646-1.923-48.719-0.387
					c-16.67,1.593-33.244,5.83-49.439,9.949c-9.407,2.392-18.282,5.182-27.252,8.895c-8.465,3.505-17.38,7.427-26.715,7.18
					C248.489,163.774,248.5,170.774,253.005,170.894L253.005,170.894z"/>
			</g>
		</g>
		<g>
			<g>
				<path d="M250.544,171.329c38.364-1.198,75.991,7.382,114.096,10.178c24.949,1.831,49.578-5.579,72.634-14.344
					c4.176-1.588,2.366-8.357-1.861-6.75c-22.603,8.593-46.342,15.751-70.773,14.094c-38.145-2.586-75.696-11.377-114.096-10.178
					C246.042,164.47,246.028,171.471,250.544,171.329L250.544,171.329z"/>
			</g>
		</g>
	</g>
	<g>
		<g>
			<g>
				<path d="M66.185,367.357c-16.52-19.321-32.506-44.349-24.625-70.882c6.515-21.932,29.019-37.156,47.139-48.973
					c49.728-32.429,104.443-55.252,156.957-82.553c9.286-4.828,18.477-9.837,27.573-15.015c3.921-2.232,0.396-8.281-3.533-6.044
					c-54.175,30.842-112.59,53.61-165.952,85.921c-19.4,11.747-39.555,23.958-54.797,41.016c-7.034,7.872-12.668,17.101-15.11,27.44
					c-2.764,11.704-0.976,24.504,2.994,35.696c5.11,14.407,14.573,26.844,24.405,38.343
					C64.173,375.743,69.101,370.768,66.185,367.357L66.185,367.357z"/>
			</g>
		</g>
		<g>
			<g>
				<path d="M273.229,149.934c13.796-7.633,29.432-12.657,44.193-18.029c16.197-5.894,32.813-12.268,49.778-15.593
					c12.913-2.53,26.978-3.839,39.702,0.175c11.674,3.683,21.985,13.723,30.044,22.537c17.277,18.896,28.577,44.282,20.249,69.662
					c-7.808,23.794-29.219,40.452-48.792,54.442c-23.83,17.033-50.385,28.111-76.492,41.036
					c-12.973,6.423-25.333,13.679-36.889,22.411c-10.829,8.182-21.135,17.037-32.769,24.097
					c-13.065,7.928-28.302,12.507-42.534,17.899c-13.342,5.055-26.879,10.507-40.706,14.096
					c-16.543,4.294-34.816,3.929-51.715,2.719c-20.786-1.487-42.931-5.705-60.592-17.346c-3.781-2.492-7.284,3.572-3.533,6.044
					c18.033,11.887,40.265,16.177,61.442,18.085c18.234,1.643,37.63,1.623,55.552-2.579c13.471-3.158,26.687-8.737,39.616-13.592
					c13.945-5.237,28.562-9.908,41.758-16.87c11.766-6.208,22.099-14.869,32.522-23.039c11.524-9.033,23.626-16.739,36.627-23.476
					c26.099-13.525,53.556-23.953,77.743-40.961c19.348-13.606,38.993-28.457,50.532-49.628c5.583-10.243,8.797-21.985,8.358-33.675
					c-0.446-11.892-4.836-23.393-10.52-33.707c-6.012-10.909-14.231-20.701-23.415-29.066c-8.846-8.058-18.937-15-30.808-17.44
					c-24.343-5.004-50.295,4.273-73.051,12.077c-12.146,4.166-24.198,8.618-36.141,13.331c-7.961,3.142-16.187,6.191-23.693,10.344
					C265.746,146.075,269.276,152.121,273.229,149.934L273.229,149.934z"/>
			</g>
		</g>
	</g>
</g>
</svg>
