<?xml version="1.0" encoding="utf-8"?>
<!-- Generator: Adobe Illustrator 18.0.0, SVG Export Plug-In . SVG Version: 6.00 Build 0)  -->
<!DOCTYPE svg PUBLIC "-//W3C//DTD SVG 1.1//EN" "http://www.w3.org/Graphics/SVG/1.1/DTD/svg11.dtd">
<svg version="1.1" id="Layer_1" xmlns="http://www.w3.org/2000/svg" xmlns:xlink="http://www.w3.org/1999/xlink" x="0px" y="0px"
	 width="500px" height="500px" viewBox="0 0 500 500" enable-background="new 0 0 500 500" xml:space="preserve">
<g>
	<g>
		<g>
			<path d="M220.872,175.737c19.794-2.639,10.226-26.558,4.808-37.824c-4.158-8.646-9.249-16.875-14.749-24.726
				c-3.52-5.024-7.372-11.188-12.596-14.656c-4.851-3.22-9.353,4.578-4.542,7.771c0.774,0.514-0.845-0.725,0.017,0.008
				c0.297,0.252,0.574,0.528,0.852,0.8c0.723,0.706,1.392,1.467,2.057,2.227c1.95,2.23,3.722,4.608,5.456,7.008
				c4.809,6.654,9.153,13.659,13.056,20.879c3.502,6.478,6.676,13.268,8.294,20.485c0.921,4.11,1.12,8.525-2.654,9.028
				C215.206,167.493,215.132,176.502,220.872,175.737L220.872,175.737z"/>
		</g>
	</g>
	<g>
		<g>
			<path d="M194.868,94.753c8.357,1.848,15.91-0.384,23.999-2.401c5.629-1.403,3.24-10.083-2.393-8.679
				c-6.347,1.582-12.625,3.858-19.214,2.401C191.605,84.823,189.202,93.499,194.868,94.753L194.868,94.753z"/>
		</g>
	</g>
	<g>
		<g>
			<path d="M210.584,91.084c3.249,7.598,9.349,13.371,14.166,19.947c5.806,7.928,11.392,16.795,16.093,25.425
				c7.262,13.331,8.552,30.103,20.86,40.363c4.424,3.688,10.827-2.643,6.364-6.364c-11.28-9.404-13.061-26.019-19.453-38.542
				c-4.29-8.406-10.161-16.253-15.246-24.198c-4.691-7.329-11.54-13.056-15.013-21.175C216.08,81.219,208.329,85.81,210.584,91.084
				L210.584,91.084z"/>
		</g>
	</g>
	<g>
		<g>
			<path d="M258.087,168.499c-10.157,3.763-20.089,4.245-30.813,3.84c-5.806-0.219-5.785,8.782,0,9
				c11.461,0.432,22.355-0.142,33.206-4.162C265.873,175.179,263.541,166.478,258.087,168.499L258.087,168.499z"/>
		</g>
	</g>
	<g>
		<g>
			<path d="M203.247,174.457c-12.061-13.365-31.542,8.589-38.062,17.94c-2.84,4.073-4.542,8.994-6.459,13.539
				c-2.94,6.971-5.363,14.149-7.442,21.42c-3.944,13.786-6.093,28.059-7.156,42.339c-2.212,29.723,2.106,60.245,7.894,89.372
				c4.13,20.784,14.78,42.15,37.243,46.979c5.659,1.217,8.066-7.459,2.393-8.678c-19.541-4.201-27.246-22.954-30.957-40.693
				c-5.434-25.973-8.938-53.282-7.971-79.833c0.907-24.893,6.227-49.538,16.339-72.33c2.987-6.733,6.88-11.918,12.184-17.041
				c2.914-2.814,11.53-11.192,15.63-6.648C200.779,185.139,207.124,178.753,203.247,174.457L203.247,174.457z"/>
		</g>
	</g>
	<g>
		<g>
			<path d="M272.491,177.177c21.903,3.46,41.27,14.27,56.337,30.451c16.525,17.747,24.161,39.965,28.503,63.389
				c4.747,25.612,5.54,53.113-3.696,77.824c-7.974,21.333-24.684,37.621-42.318,51.283c-4.583,3.551,1.837,9.871,6.364,6.364
				c18.819-14.58,35.025-31.628,44.117-53.934c10.511-25.79,9.099-55.265,4.523-82.177c-4.225-24.851-12.655-47.742-29.258-67.023
				c-15.215-17.67-36.423-30.045-59.326-34.383c-0.949-0.172-1.9-0.33-2.854-0.473C269.208,167.602,266.771,176.273,272.491,177.177
				L272.491,177.177z"/>
		</g>
	</g>
	<g>
		<g>
			<path d="M285.691,173.337c13.924,0.202,27.368-3.494,41.039-5.558c14.294-2.158,28.042,0.026,40.996,6.386
				c22.796,11.192,39.47,33.223,47.739,56.83c8.332,23.787,10.894,51.213,2.748,75.361c-7.865,23.317-25.61,42.805-44.945,57.399
				c-14.016,10.579-29.757,19.092-46.362,24.809c-5.453,1.877-3.11,10.573,2.393,8.678c43.613-15.014,87.235-49.144,99.651-95.287
				c6.505-24.174,2.848-51.498-5.315-74.804c-8.13-23.211-23.938-43.89-44.78-57.068c-12.916-8.166-28.023-12.613-43.307-12.129
				c-16.833,0.533-32.943,6.627-49.858,6.382C279.885,164.252,279.893,173.253,285.691,173.337L285.691,173.337z"/>
		</g>
	</g>
	<g>
		<g>
			<path d="M277.312,162.44c13.669,2.059,25.571-8.194,37.722-12.993c13.22-5.221,27.069-7.668,41.236-8.075
				c12.137-0.349,24.307,0.859,35.866,4.692c11.968,3.968,21.046,11.838,28.039,22.164c14.095,20.815,20.149,47.316,21.64,72.095
				c1.423,23.635-1.641,48.231-12.598,69.474c-7.765,15.054-19.787,27.071-34.703,35.031c-5.122,2.733-0.575,10.503,4.542,7.771
				c43.832-23.393,55.58-75.091,51.058-121.106c-2.403-24.452-9.596-49.945-23.836-70.225
				c-14.415-20.529-37.25-27.876-61.449-28.855c-14.228-0.576-28.586,1.041-42.271,4.971c-7.145,2.052-14.05,4.918-20.776,8.061
				c-6.732,3.146-14.227,9.501-22.078,8.319C274.03,152.907,271.589,161.578,277.312,162.44L277.312,162.44z"/>
		</g>
	</g>
	<g>
		<g>
			<path d="M185.661,153.133c-19.2,0.108-38.869,3.458-57.651,7.178c-8.971,1.777-17.713,3.928-25.882,8.144
				c-11.59,5.981-20.795,15.873-29.24,25.581c-15.617,17.952-21.604,41.217-23.471,64.482c-0.968,12.063-0.582,24.227,0.61,36.258
				c1.145,11.556,2.706,23.395,7.449,34.09c9.314,21.002,28.151,34.959,42.558,52.193c7.363,8.808,16.569,14.765,27.328,18.609
				c6.385,2.282,12.959,4.036,19.361,6.305c6.895,2.444,13.963,4.771,21.331,5.034c5.806,0.207,5.786-8.793,0-9
				c-7.107-0.254-14.015-2.967-20.647-5.318c-6.735-2.387-13.681-4.161-20.355-6.696c-11.999-4.556-19.077-13.964-27.491-23.042
				c-7.99-8.621-16.676-16.572-24.081-25.728c-7.817-9.665-12.487-20.724-14.609-32.917c-4.086-23.486-4.511-48.398,0.879-71.697
				c5.553-24.005,21.109-45.808,42.168-58.823c11.824-7.307,26.875-9.091,40.333-11.275c13.609-2.209,27.592-4.3,41.41-4.378
				C191.463,162.1,191.466,153.1,185.661,153.133L185.661,153.133z"/>
		</g>
	</g>
	<g>
		<g>
			<path d="M200.066,161.136c-22.065-2.37-43.176,8.898-59.607,22.659c-16.513,13.83-27.697,33.476-34.594,53.616
				c-16.027,46.801-8.808,103.584,16.693,145.76c2.998,4.958,10.782,0.438,7.771-4.542c-23.539-38.933-30.53-90.57-17.285-134.171
				c5.979-19.682,16.226-38.49,31.615-52.415c14.819-13.41,34.938-24.105,55.407-21.907
				C205.833,170.755,205.773,161.749,200.066,161.136L200.066,161.136z"/>
		</g>
	</g>
	<g>
		<g>
			<path d="M189.258,147.426c-17.258-4.699-35.014-7.229-52.89-7.682c-11.82-0.299-22.21,1.175-33.133,5.922
				c-25.837,11.229-48.403,36.357-48.779,65.558c-0.075,5.806,8.925,5.799,9,0c0.34-26.434,21.501-47.484,44.322-57.787
				c9.704-4.381,19.281-4.929,29.738-4.665c16.701,0.423,33.236,2.943,49.349,7.331
				C192.474,157.631,194.852,148.949,189.258,147.426L189.258,147.426z"/>
		</g>
	</g>
	<g>
		<g>
			<path d="M177.244,132.045c-10.208-10.038-26.083-4.445-37.988-1.157c-5.587,1.543-3.212,10.226,2.393,8.679
				c8.114-2.241,22.096-8.174,29.232-1.157C175.02,142.479,181.387,136.119,177.244,132.045L177.244,132.045z"/>
		</g>
	</g>
	<g>
		<g>
			<path d="M209.539,127.34c-13.576-8.46-31.358-20.492-47.755-12.804c-5.252,2.462-0.679,10.22,4.542,7.771
				c12.381-5.805,28.695,6.587,38.671,12.804C209.937,138.19,214.452,130.401,209.539,127.34L209.539,127.34z"/>
		</g>
	</g>
	<g>
		<g>
			<path d="M275.173,152.575c6.287-10.637,18.984-15.539,30.382-18.464c14.389-3.692,30.002-4.072,44.606-1.475
				c5.674,1.009,8.1-7.663,2.393-8.679c-16.374-2.912-33.218-2.428-49.391,1.475c-13.7,3.306-28.325,10.019-35.76,22.6
				C264.442,153.041,272.223,157.566,275.173,152.575L275.173,152.575z"/>
		</g>
	</g>
	<g>
		<g>
			<path d="M269.385,138.428c0.151-1.666,4.833-5.185,6.504-6.475c3.064-2.366,6.334-4.489,9.673-6.444
				c5.004-2.93,0.477-10.71-4.542-7.771c-4.497,2.633-8.779,5.613-12.809,8.918c-3.705,3.038-7.374,6.792-7.825,11.773
				C259.861,144.209,268.866,144.159,269.385,138.428L269.385,138.428z"/>
		</g>
	</g>
	<g>
		<g>
			<path d="M239.678,117.853c10.47-1.372,20.961-2.477,31.515-2.912c10.107-0.417,21.189-0.834,30.837,2.557
				c7.285,2.56,13.322,4.735,21.078,5.176c7.623,0.434,15.519,0.003,23.007,1.687c5.653,1.271,8.054-7.405,2.393-8.679
				c-7.005-1.576-14.308-1.571-21.448-1.835c-3.495-0.129-7.047-0.2-10.503-0.776c-4.193-0.7-8.186-2.757-12.133-4.252
				c-9.7-3.673-21.137-3.182-31.341-2.94c-11.179,0.265-22.325,1.522-33.403,2.974C234.008,109.596,233.935,118.606,239.678,117.853
				L239.678,117.853z"/>
		</g>
	</g>
	<g>
		<g>
			<path d="M158.057,115.683c-6.35,2.322-10.9,6.982-16.28,10.857c-4.663,3.358-0.177,11.17,4.542,7.771
				c4.566-3.288,8.757-7.985,14.13-9.949C165.854,122.385,163.521,113.685,158.057,115.683L158.057,115.683z"/>
		</g>
	</g>
	<g>
		<g>
			<path d="M244.541,174.673c-4.491,30.337,8.411,60.483,8.642,90.725c0.044,5.801,9.044,5.806,9,0
				c-0.11-14.462-3.159-28.929-5.453-43.158c-2.342-14.529-5.694-30.426-3.511-45.175
				C254.06,171.391,245.388,168.949,244.541,174.673L244.541,174.673z"/>
		</g>
	</g>
	<g>
		<g>
			<path d="M217.333,176.443c-12.964,33.719-16.799,70.921-17.096,106.821c-0.324,39.177,5.6,78.592,15.495,116.438
				c1.467,5.611,10.148,3.228,8.679-2.393c-9.573-36.613-15.105-74.352-15.179-112.23c-0.07-35.691,3.902-72.744,16.78-106.243
				C228.097,173.409,219.393,171.084,217.333,176.443L217.333,176.443z"/>
		</g>
	</g>
	<g>
		<g>
			<path d="M272.203,187.113c32.7,57.576,60.807,132.933,27.208,196.317c-2.716,5.124,5.052,9.672,7.771,4.542
				c35.244-66.487,7.227-144.771-27.208-205.402C277.109,177.525,269.332,182.059,272.203,187.113L272.203,187.113z"/>
		</g>
	</g>
	<g>
		<g>
			<path d="M226.473,413.408c8.357,0.357,15.669,3.776,24.208,2.629c8.117-1.091,15.691-4.219,22.877-8.044
				c5.124-2.728,0.578-10.497-4.542-7.771c-6.824,3.633-13.984,6.463-21.736,7.207c-6.975,0.67-13.837-2.723-20.806-3.02
				C220.668,404.16,220.692,413.161,226.473,413.408L226.473,413.408z"/>
		</g>
	</g>
	<g>
		<g>
			<path d="M272.216,407.992c8.875,4.54,19.444,1.231,26.26-5.505c4.133-4.084-2.234-10.446-6.364-6.364
				c-3.758,3.714-10.209,6.729-15.353,4.098C271.603,397.584,267.048,405.349,272.216,407.992L272.216,407.992z"/>
		</g>
	</g>
	<g>
		<g>
			<path d="M222.876,404.569c-7.615,3.182-15.44,1.928-23.215,0c-5.634-1.397-8.024,7.282-2.393,8.678
				c9.178,2.275,19.007,3.758,28,0C230.541,411.044,228.23,402.332,222.876,404.569L222.876,404.569z"/>
		</g>
	</g>
	<g>
		<g>
			<path d="M271.244,401.706c1.662-14.608,1.211-29.624,0.882-44.289c-0.372-16.533-0.65-33.835-4.502-50.001
				c-1.345-5.645-10.023-3.25-8.678,2.393c3.668,15.397,3.793,31.866,4.18,47.609c0.36,14.658,0.779,29.688-0.882,44.289
				C261.589,407.467,270.596,407.404,271.244,401.706L271.244,401.706z"/>
		</g>
	</g>
</g>
</svg>
