<?xml version="1.0" encoding="utf-8"?>
<!-- Generator: Adobe Illustrator 18.0.0, SVG Export Plug-In . SVG Version: 6.00 Build 0)  -->
<!DOCTYPE svg PUBLIC "-//W3C//DTD SVG 1.1//EN" "http://www.w3.org/Graphics/SVG/1.1/DTD/svg11.dtd">
<svg version="1.1" id="Layer_1" xmlns="http://www.w3.org/2000/svg" xmlns:xlink="http://www.w3.org/1999/xlink" x="0px" y="0px"
	 width="500px" height="500px" viewBox="0 0 500 500" enable-background="new 0 0 500 500" xml:space="preserve">
<g>
	<g>
		<g>
			<path d="M37.609,330.486c-0.277-6.01,5.168-10.399,8.481-14.892c3.686-4.999,5.672-10.723,6.002-16.898
				c0.342-6.388-2.227-12.513-4.88-18.163c-3.383-7.203-6.479-14.339-9.167-21.842c-8.394-23.421-14.375-52.578-1.755-75.637
				c2.901-5.301,6.875-9.825,11.291-13.908c5.276-4.879,11.739-8.16,16.883-13.224c4.965-4.887,9.325-9.826,15.456-13.326
				c6.524-3.725,14.277-5.237,21.657-6.07c14.992-1.692,30.029-1.43,44.977-3.87c7.463-1.218,14.721-3.358,22.191-4.548
				c8.021-1.277,16.241-1.38,24.34-1.114c35.996,1.183,70.901,11.495,105.701,19.768c13.971,3.321,27.451,8.363,40.377,14.611
				c14.436,6.978,24.056,20.975,39.869,25.667c5.578,1.655,7.943-7.032,2.393-8.679c-11.861-3.519-20.74-13.213-30.511-20.31
				c-9.912-7.199-22.521-11.57-34.043-15.513c-8.488-2.905-17.242-4.802-25.965-6.84c-13.392-3.13-26.629-6.824-40.086-9.701
				c-29.794-6.371-61.53-11.535-91.744-5.229c-7.701,1.608-15.221,3.427-23.054,4.363c-8.091,0.967-16.242,1.326-24.378,1.679
				c-13.64,0.592-27.377,2.397-39.175,9.751c-8.064,5.026-13.412,13.186-21.184,18.582c-7.642,5.305-14.255,11.032-19.746,18.6
				c-9.928,13.684-12.196,31.176-10.996,47.623c1.48,20.287,7.739,40.851,16.628,59.096c4.601,9.444,8.514,18.213,2.8,28.098
				c-4.316,7.468-11.798,12.434-11.36,21.926C28.876,336.265,37.877,336.291,37.609,330.486L37.609,330.486z"/>
		</g>
	</g>
	<g>
		<g>
			<path d="M381.323,188.38c5.953-8.497,17.086-7.416,26.214-6.813c12.298,0.813,24.434,0.219,36.35-3.103
				c-1.156-2.742-2.312-5.483-3.467-8.225c-12.381,6.12-26.422,6.715-35.839,17.946c-2.35,2.803-4.351,5.881-6.614,8.751
				c-2.956,3.75-6.67,6.591-10.528,9.348c-7.149,5.109-14.973,9.171-23.23,12.152c-5.415,1.955-3.08,10.654,2.393,8.679
				c15.26-5.51,30.44-14.078,40.337-27.194c4.996-6.621,9.12-11.332,17.03-14.328c6.981-2.644,14.267-4.258,20.993-7.583
				c4.652-2.3,1.362-9.571-3.467-8.225c-13.351,3.722-26.278,3.008-39.944,2.436c-11.073-0.463-21.391,2.185-27.999,11.616
				C370.213,188.603,378.02,193.094,381.323,188.38L381.323,188.38z"/>
		</g>
	</g>
	<g>
		<g>
			<path d="M393.395,181.491c17.089-0.738,31.431-11.62,48.158-13.896c-1.156-2.742-2.312-5.483-3.467-8.225
				c-5.371,3.81-11.051,7.145-16.512,10.821c-4.786,3.222-0.287,11.023,4.542,7.771c5.461-3.676,11.141-7.011,16.512-10.821
				c4.353-3.088,1.552-8.908-3.467-8.225c-15.86,2.159-29.66,12.879-45.765,13.575C387.614,172.741,387.59,181.742,393.395,181.491
				L393.395,181.491z"/>
		</g>
	</g>
	<g>
		<g>
			<path d="M422.382,209.916c6.564,8.473,11.442,17.809,21.277,23.005c10.112,5.342,21.545,2.654,31.8-0.649
				c5.501-1.772,3.148-10.463-2.393-8.679c-9.602,3.093-18.809,5.407-27.954-0.208c-7.157-4.394-11.355-13.364-16.367-19.833
				C425.195,198.969,418.874,205.389,422.382,209.916L422.382,209.916z"/>
		</g>
	</g>
	<g>
		<g>
			<path d="M470.496,229.129c1.115,4.218-0.386,9.229-1.372,13.336c-1.087,4.528-2.511,9.013-4.262,13.328
				c2.203-0.896,4.407-1.793,6.61-2.689c-9.313-5.346-19.022-4.216-29.205-2.943c-11.789,1.474-23.776-0.124-35.61,0.198
				c-5.792,0.158-5.807,9.158,0,9c10.619-0.289,21.226,0.727,31.841,0.135c9.687-0.54,19.391-3.81,28.432,1.381
				c2.745,1.576,5.53-0.026,6.61-2.689c3.671-9.047,8.231-21.63,5.634-31.45C477.692,221.13,469.01,223.511,470.496,229.129
				L470.496,229.129z"/>
		</g>
	</g>
	<g>
		<g>
			<path d="M455.776,251.59c-5.079,2.857-8.977,7.165-13.736,10.451c-5.74,3.964-13.292,6.073-19.617,9.025
				c-6.259,2.921-12.422,6.038-18.661,8.991c-9.56,4.525-23.581,6.62-33.106,1.108c-6.942-4.017-9.101-14.341-8.198-21.722
				c0.704-5.752-8.304-5.684-9,0c-1.121,9.16,2.032,19.211,8.261,25.977c8.919,9.688,25.912,8.952,37.524,5.84
				c7.599-2.036,14.805-6.214,21.867-9.631c7.094-3.433,14.35-6.447,21.518-9.706c6.734-3.061,11.318-8.977,17.69-12.562
				C465.376,256.516,460.84,248.741,455.776,251.59L455.776,251.59z"/>
		</g>
	</g>
	<g>
		<g>
			<path d="M354.054,273.591c-4.031,2.164-7.985,4.466-12.333,5.948c-6.63,2.26-13.033,0.023-19.23-2.506
				c-5.376-2.194-7.691,6.516-2.393,8.679c7.076,2.887,13.92,4.601,21.534,3.17c6.068-1.14,11.593-4.636,16.963-7.519
				C363.711,278.616,359.166,270.847,354.054,273.591L354.054,273.591z"/>
		</g>
	</g>
	<g>
		<g>
			<path d="M341.427,253.141c0.468,5.759-2.699,9.046-7.111,12.266c-4.463,3.257-9.009,6.307-13.214,9.911
				c-4.699,4.028-8.375,8.992-9.856,15.049c-1.524,6.231-1.017,11.907-4.768,17.471c-5.795,8.595-16.359,12.598-21.673,21.805
				c-5.951,10.311,1.752,24.54,6.819,33.479c2.861,5.048,10.637,0.514,7.771-4.542c-3.154-5.564-5.951-11.232-7.272-17.528
				c-1.163-5.543,1.535-9.098,5.318-12.797c7.094-6.936,16.093-11.811,19.84-21.552c2.172-5.647,1.288-12.065,3.807-17.531
				c2.559-5.551,8.788-9.699,13.616-13.106c8.199-5.786,16.636-11.689,15.722-22.925
				C349.96,247.398,340.956,247.353,341.427,253.141L341.427,253.141z"/>
		</g>
	</g>
	<g>
		<g>
			<path d="M268.826,235.431c1.431,7.254,2.14,15.162-1.757,21.795c-3.036,5.168-9.75,7.652-13.508,12.327
				c-3.982,4.954-4.098,10.452-0.706,15.712c1.903,2.951,3.819,5.359,5.005,8.735c1.299,3.698,1.998,7.612,2.689,11.458
				c1.33,7.402,2.94,14.614,4.607,21.94c1.007,4.425,1.038,8.8-0.072,13.195c-0.749,2.964-2.564,5.513-3.485,8.414
				c-1.667,5.248,3.889,9.464,7.511,12.077c2.666,1.923,6.139,3.133,6.561,6.871c0.381,3.37-0.261,6.58,0.55,9.948
				c0.676,2.806,4.179,4.167,6.611,2.689c1.768-1.075,3.483-1.947,5.128-3.222c-2.356-0.304-4.712-0.607-7.068-0.911
				c1.619,2.113,1.506,5.045,2.541,7.468c1.148,2.687,3.157,4.473,5.984,5.221c5.603,1.484,12.236-1.399,17.602-2.76
				c5.623-1.427,3.236-10.107-2.393-8.678c-3.626,0.92-7.215,2.197-10.944,2.647c-2.399,0.29-2.103,0.095-2.6-2.152
				c-0.501-2.267-0.982-4.411-2.42-6.287c-1.913-2.496-4.581-2.837-7.068-0.911c-0.955,0.74-2.269,1.184-3.307,1.815
				c2.203,0.896,4.407,1.793,6.611,2.689c-0.705-2.929-0.056-6.035-0.394-9.024c-0.355-3.137-1.805-5.62-3.777-8.01
				c-1.811-2.195-4.738-3.627-7.076-5.165c-1.204-0.792-2.213-1.853-3.219-2.872c-0.216,1.111-0.225,1.275-0.028,0.491
				c0.33-0.69,0.664-1.379,1.002-2.065c7.237-14.831,0.426-30.617-2.18-45.801c-1.133-6.604-2.568-13.517-6.327-19.178
				c-1.612-2.428-4.575-4.767-2.989-7.819c1.373-2.643,4.486-4.547,6.792-6.279c5.363-4.026,9.026-8.304,11.059-14.789
				c2.203-7.025,1.135-14.901-0.258-21.961C276.382,227.347,267.708,229.763,268.826,235.431L268.826,235.431z"/>
		</g>
	</g>
	<g>
		<g>
			<path d="M261.656,296.355c-12.984,3.144-24.674,10.026-37.72,12.976c-9.282,2.098-19.554,1.664-29.003,1.623
				c-4.617-0.02-9.244-0.169-13.838-0.647c-5.49-0.571-10.933-2.868-16.106-4.66c-14.946-5.178-29.365-11.763-44.172-17.312
				c-5.446-2.041-7.775,6.661-2.393,8.678c14.811,5.551,29.26,12.024,44.172,17.312c10.972,3.891,20.755,5.52,32.336,5.629
				c9.257,0.087,18.905,0.151,28.071-1.348c14.381-2.352,26.968-10.164,41.045-13.572
				C269.688,303.668,267.296,294.989,261.656,296.355L261.656,296.355z"/>
		</g>
	</g>
	<g>
		<g>
			<path d="M146.026,246.51c-13.153-5.061-27.768,4.377-36.713,13.346c-4.751,4.763-8.7,10.623-10.599,17.111
				c-0.97,3.315-0.877,6.854-0.361,10.231c0.84,5.491,0.465,7.38-3.737,11.423c-13.673,13.154-31.299,23.494-37.582,42.617
				c-2.691,8.189,1.354,16.861,4.656,24.229c1.654,3.691,3.754,6.742,6.963,9.234c1.813,1.408,3.716,2.644,5.386,4.228
				c1.89,1.794,3.125,4.389,4.91,6.33c1.061-2.561,2.121-5.121,3.182-7.682c-5.41,0.368-10.677,1.858-16.1,2.037
				c-4.425,0.147-7.661-5.666-11.309-7.793c-1.633-0.952-3.52-1.207-5.364-1.36c-2.249-0.186-1.477-4.286-1.643-6.066
				c-0.554-5.944-5.147-10.368-8.427-14.982c-3.333-4.687-11.143-0.199-7.771,4.542c1.777,2.499,3.755,4.842,5.492,7.369
				c2.232,3.249,1.41,6.217,2.218,9.796c1.184,5.247,4.869,8.17,10.132,8.34c2.348,0.076,4.38,3.02,5.865,4.559
				c1.976,2.049,4.256,3.505,7.006,4.24c6.343,1.695,13.56-1.253,19.902-1.683c3.932-0.267,5.934-4.689,3.182-7.682
				c-2.474-2.69-4.092-5.792-6.965-8.141c-2.916-2.384-5.796-3.976-7.674-7.366c-3.823-6.901-7.29-15.335-3.728-22.9
				c7.497-15.922,23.019-24.906,35.209-36.634c5.552-5.342,6.319-10.529,5.065-17.815c-1.047-6.086,1.562-11.453,5.229-16.17
				c6.543-8.416,19.803-19.06,31.184-14.681C149.059,257.276,151.384,248.572,146.026,246.51L146.026,246.51z"/>
		</g>
	</g>
	<g>
		<g>
			<path d="M83.771,309.237c-3.297,13.437-6.48,26.47-2.865,40.206c1.476,5.608,10.157,3.226,8.679-2.393
				c-3.185-12.1-0.033-23.613,2.865-35.421C93.833,305.993,85.154,303.603,83.771,309.237L83.771,309.237z"/>
		</g>
	</g>
	<g>
		<g>
			<path d="M97.87,364.737c2.128,1.595,3.366,4.033,4.025,6.544c0.689-1.694,1.379-3.388,2.068-5.082
				c-3.802,2.393-9.33,0.389-13.562,0.465c-5.797,0.104-5.807,9.104,0,9c6.234-0.112,12.413,1.889,18.104-1.694
				c1.729-1.089,2.595-3.077,2.068-5.082c-1.298-4.94-4.102-8.881-8.161-11.923c-1.968-1.474-5.023-0.321-6.157,1.614
				C94.909,360.879,95.912,363.269,97.87,364.737L97.87,364.737z"/>
		</g>
	</g>
	<g>
		<g>
			<path d="M263.301,347.121c-4.012-5.662-7.551-11.641-11.77-17.158c-0.538,2.052-1.076,4.105-1.614,6.157
				c11.534-8.052,8.042-21.056,1.614-31.395c-3.057-4.916-10.845-0.401-7.771,4.542c3.335,5.364,8.433,14.321,1.614,19.081
				c-1.813,1.265-3.19,4.096-1.614,6.157c4.218,5.517,7.758,11.496,11.77,17.158C258.855,356.358,266.664,351.869,263.301,347.121
				L263.301,347.121z"/>
		</g>
	</g>
	<g>
		<g>
			<path d="M41.683,163.317c1.628,1.118,0.637,0.325,0.463-1.257c-0.18-1.643-0.368-3.274-0.631-4.906
				c-0.467-2.905-2.232-5.325-4.123-7.476c-2.841-3.23-7.308-6.382-3.618-10.742c5.703-6.737,15.714-8.312,22.804-13.109
				c4.777-3.232,0.28-11.033-4.542-7.771c-8.931,6.042-21.738,7.938-27.257,18.229c-3.17,5.91-0.823,12.494,3.474,17.076
				c1.233,1.315,2.667,2.376,3.727,3.858c1.182,1.654,1.087,4.115,1.298,6.045c0.355,3.24,1.067,5.905,3.862,7.824
				C41.939,174.382,46.434,166.578,41.683,163.317L41.683,163.317z"/>
		</g>
	</g>
	<g>
		<g>
			<path d="M56.282,111.884c-1.886,1.897-3.817,3.734-5.546,5.779c-1.225,1.449-1.936,3.73-0.704,5.453
				c3.327,4.652,7.444,3.905,12.492,4.295c-1.061-2.561-2.121-5.121-3.182-7.682c-1.608,2.013-3.58,3.618-5.431,5.396
				c-2.276,2.186-1.335,5.387,0.911,7.068c1.334,0.998,2.583,2.069,4.089,2.8c5.198,2.522,9.763-5.238,4.542-7.771
				c-1.506-0.731-2.756-1.803-4.089-2.8c0.304,2.356,0.607,4.712,0.911,7.068c1.851-1.778,3.823-3.383,5.431-5.396
				c2.49-3.116,0.947-7.363-3.182-7.682c-1.037-0.08-2.06-0.053-3.098-0.02c-0.734,0.023-2.06-0.43-1.623,0.182
				c-0.235,1.818-0.469,3.635-0.704,5.453c1.729-2.045,3.66-3.882,5.546-5.779C66.74,114.129,60.378,107.764,56.282,111.884
				L56.282,111.884z"/>
		</g>
	</g>
	<g>
		<g>
			<path d="M31.888,129.205c-4.035,3.568-7.198,6.254-8.546,11.741c-1.157,4.71-0.867,9.783-0.23,14.538
				c1.085,8.089,3.717,19.953,12.508,22.981c5.503,1.896,7.846-6.8,2.393-8.679c-4.185-1.442-5.589-11.981-6.061-15.503
				c-0.437-3.258-0.611-6.736-0.116-9.997c0.66-4.353,3.331-5.988,6.416-8.717C42.608,131.717,36.218,125.376,31.888,129.205
				L31.888,129.205z"/>
		</g>
	</g>
	<g>
		<g>
			<path d="M315.15,376.341c-4.842-6.8-10.582-12.771-16.459-18.671c-4.099-4.116-10.463,2.249-6.364,6.364
				c5.317,5.339,10.669,10.695,15.052,16.85C310.715,385.567,318.525,381.08,315.15,376.341L315.15,376.341z"/>
		</g>
	</g>
	<g>
		<g>
			<path d="M412.142,223.972c0.71-4.406-0.624-8.455-5.193-9.931c-3.23-1.044-7.289,0.182-10.012,1.985
				c-2.041,1.351-2.906,3.951-1.614,6.157c1.187,2.027,4.109,2.97,6.157,1.614c0.277-0.183,0.556-0.353,0.846-0.516
				c0.2-0.108,0.404-0.209,0.611-0.304c-0.547,0.224-0.584,0.247-0.111,0.07c0.325-0.117,0.659-0.201,0.994-0.285
				c0.51-0.097,0.442-0.1-0.204-0.01c0.215-0.024,0.43-0.038,0.646-0.043c0.326-0.014,1.29,0.166,0.016-0.058
				c1.069,0.187-0.028-0.09-0.504-0.463c0.329,0.334,0.269,0.238-0.181-0.288c-0.231-0.65-0.27-0.733-0.117-0.249
				c-0.398-1.332-0.146,0.763-0.012-0.071c-0.39,2.42,0.588,4.833,3.143,5.536C408.774,227.711,411.752,226.397,412.142,223.972
				L412.142,223.972z"/>
		</g>
	</g>
</g>
</svg>
