<?xml version="1.0" encoding="utf-8"?>
<!-- Generator: Adobe Illustrator 18.0.0, SVG Export Plug-In . SVG Version: 6.00 Build 0)  -->
<!DOCTYPE svg PUBLIC "-//W3C//DTD SVG 1.1//EN" "http://www.w3.org/Graphics/SVG/1.1/DTD/svg11.dtd">
<svg version="1.1" id="Layer_1" xmlns="http://www.w3.org/2000/svg" xmlns:xlink="http://www.w3.org/1999/xlink" x="0px" y="0px"
	 width="500px" height="500px" viewBox="0 0 500 500" enable-background="new 0 0 500 500" xml:space="preserve">
<g>
	<g>
		<g>
			<path d="M85.249,267.864c-9.881-6.97-15.523-17.991-26.033-24.408c-5.433-3.317-11.263-5.805-15.638-10.574
				c-4.04-4.405-6.095-10.56-7.789-16.162c-1.701-5.629-2.93-11.409-4.463-17.085c-0.915-3.386-1.774-7.137-0.184-10.449
				c1.305-2.718,3.562-5.041,5.259-7.517c7.533-10.99,8.312-25.698,14.415-37.453c2.373-4.572-4.53-8.618-6.908-4.038
				c-6.588,12.69-7.596,28.315-16.163,39.905c-3.96,5.357-6.278,10.078-5.137,16.909c1.145,6.856,3.226,13.747,5.064,20.455
				c1.619,5.909,3.824,11.71,7.085,16.915c3.632,5.798,9.028,9.533,14.869,12.855c6.377,3.627,11.793,7.19,16.695,12.727
				c4.706,5.316,9.037,10.699,14.889,14.827C85.438,277.754,89.428,270.813,85.249,267.864L85.249,267.864z"/>
		</g>
	</g>
	<g>
		<g>
			<path d="M75.164,127.794c11.224-4.64,24.09-3.264,35.893-2.273c12.55,1.054,25.191,7.318,37.798,4.229
				c5.009-1.227,2.884-8.942-2.127-7.714c-7.159,1.754-14.05-0.626-20.955-2.415c-5.786-1.499-11.699-1.859-17.632-2.341
				c-11.539-0.937-24.17-1.72-35.103,2.799C68.339,122.022,70.396,129.765,75.164,127.794L75.164,127.794z"/>
		</g>
	</g>
	<g>
		<g>
			<path d="M134.693,180.913c-3.186-8.506-12.313-11.122-20.712-10.833c1.333,1.333,2.667,2.667,4,4
				c-0.81-19.051,16.019-35.8,30.67-45.62c15.651-10.491,40.112-19.553,57.117-7.591c4.231,2.976,8.222-3.965,4.038-6.908
				c-19.585-13.777-46.963-4.206-65.192,7.591c-17.076,11.05-35.558,30.761-34.632,52.528c0.09,2.119,1.752,4.077,4,4
				c4.194-0.144,11.237,0.259,12.997,4.96C128.771,187.825,136.506,185.754,134.693,180.913L134.693,180.913z"/>
		</g>
	</g>
	<g>
		<g>
			<path d="M131.543,182.388c5.694,15.02,12.257,29.599,20.95,43.144c9.552,14.883,15.202,31.065,21.438,47.503
				c1.812,4.775,9.548,2.706,7.714-2.127c-5.783-15.242-10.855-30.804-19.303-44.847c-4.242-7.052-8.719-13.832-12.469-21.181
				c-4.067-7.968-7.448-16.261-10.616-24.619C137.447,175.486,129.711,177.555,131.543,182.388L131.543,182.388z"/>
		</g>
	</g>
	<g>
		<g>
			<path d="M114.532,168.847c-20.695,2.739-31.35,22.374-36.053,40.859c-2.566,10.086-3.032,20.561-2.779,30.922
				c0.296,12.116,2.109,24.68,7.946,35.453c5.983,11.043,16.587,8.447,26.988,10.047c12.004,1.846,14.592,16.049,18.698,25.285
				c2.468,5.551,6.442,10.106,10.675,14.382c4.684,4.733,8.844,9.63,13.117,14.72c3.733,4.447,8.244,7.065,13.954,8.031
				c3.319,0.562,6.695,0.614,10.012,1.209c3.274,0.587,6.347,1.693,9.676,2.089c5.427,0.645,10.987-1.503,15.856-3.592
				c3.548-1.522,7.223-3.227,11.181-2.573c2.911,0.481,5.713,1.811,8.574,2.536c5.004,1.267,7.125-6.449,2.127-7.714
				c-5.891-1.492-10.613-3.521-16.799-2.525c-7.375,1.187-13.121,6.247-20.938,5.868c-3.088-0.15-6.158-1.554-9.194-2.099
				c-3.303-0.593-6.68-0.628-9.99-1.188c-6.606-1.118-10.229-7.563-14.135-12.345c-4.217-5.162-9.596-9.248-13.62-14.587
				c-3.603-4.781-5.306-10.664-7.497-16.15c-3.923-9.82-10.726-18.2-21.875-19.396c-4.945-0.53-10.061,0.146-14.877-1.267
				c-5.792-1.699-7.956-10.886-9.303-15.908c-3.154-11.764-3.148-24.645-2.19-36.715c1.407-17.714,9.506-42.768,29.189-47.127
				c0.419-0.072,0.839-0.143,1.258-0.215C119.57,176.18,119.635,168.171,114.532,168.847L114.532,168.847z"/>
		</g>
	</g>
	<g>
		<g>
			<path d="M53.145,247.19c0.047,8.171,0.097,15.156-3.811,22.529c-2.924,5.517-4.542,10.884-4.422,17.168
				c0.248,12.874,7.376,25.606,15.044,35.528c3.712,4.802,7.698,9.245,11.09,14.302c3.244,4.837,6.417,9.692,10.286,14.064
				c9.553,10.793,25.368,13.897,37.702,20.507c4.546,2.436,8.586-4.47,4.038-6.908c-6.036-3.235-12.307-5.927-18.612-8.587
				c-6.134-2.588-11.77-4.918-16.546-9.685c-3.945-3.938-6.891-8.815-9.96-13.429c-3.237-4.867-6.899-9.234-10.615-13.726
				c-7.631-9.224-14.219-21.283-14.454-33.479c-0.122-6.363,3.452-11.111,5.805-16.716c2.882-6.865,2.497-14.271,2.455-21.568
				C61.115,242.032,53.115,242.029,53.145,247.19L53.145,247.19z"/>
		</g>
	</g>
	<g>
		<g>
			<path d="M142.815,318.979c-8.078,1.155-12.4,13.419-15.084,19.762c-4.777,11.288-8.449,22.73-9.659,34.986
				c-1.174,11.888,1.041,25.054,5.613,36.089c4.433,10.7,12.427,17.69,22.852,22.373c13.701,6.155,28.518,9.287,42.185,15.549
				c12.578,5.763,24.682,12.733,38.66,14.361c25.589,2.98,48.101-19.79,63.903-36.866c11.025-11.914,24.205-30.403,17.526-47.377
				c-1.866-4.743-9.605-2.68-7.714,2.127c5.034,12.795-4.432,26.586-12.371,36.081c-8.046,9.623-17.77,18.974-27.781,26.544
				c-11.251,8.507-24.961,13.754-39.041,10.448c-14.009-3.29-26.426-11.602-39.794-16.705c-13.572-5.18-28.96-7.797-41.02-16.268
				c-9.343-6.562-12.337-18.439-14.244-29.017c-2.678-14.864,0.439-29.661,5.893-43.539c1.484-3.777,3.032-7.519,4.8-11.173
				c1.36-2.809,3.836-9.151,7.402-9.661C150.032,325.966,147.859,318.258,142.815,318.979L142.815,318.979z"/>
		</g>
	</g>
	<g>
		<g>
			<path d="M176.54,193.956c-2.982,13.119-1.224,25.578-0.522,38.814c0.793,14.947-2.967,29.381-3.437,44.207
				c-0.651,20.519,10.329,45.893,32.235,50.064c5.62,1.07,11.459,1.117,17.155,1.414c6.534,0.341,12.954,0.106,19.262-1.734
				c6.533-1.906,12.867-4.389,19.693-5.049c5.812-0.562,11.884,0.337,17.687,0.763c11.549,0.847,23.059,1.348,34.549-0.416
				c11.652-1.789,20.79-7.221,29.184-15.265c3.731-3.575-1.934-9.225-5.657-5.657c-7.988,7.656-16.386,11.997-27.431,13.472
				c-10.132,1.353-20.495,0.598-30.645-0.134c-10.962-0.79-20.85-1.149-31.516,2.064c-6.14,1.85-11.793,3.869-18.27,4.087
				c-5.913,0.199-11.932-0.343-17.829-0.767c-9.048-0.651-16.151-4.113-21.23-11.742c-6.784-10.188-9.74-22.281-9.038-34.408
				c0.758-13.093,3.586-25.784,3.355-38.995c-0.23-13.146-2.8-25.527,0.17-38.592C185.397,191.059,177.684,188.926,176.54,193.956
				L176.54,193.956z"/>
		</g>
	</g>
	<g>
		<g>
			<path d="M245.61,323.576c6.262,0.607,7.552,5.781,3.383,10.103c-3.515,3.644-8.503,5.512-12.017,9.246
				c-5.405,5.743-5.331,14.194-1.199,20.536c4.429,6.799,12.235,11.215,19.356,14.642c6.732,3.24,14.183,6.329,21.646,7.247
				c19.814,2.437,42.686-5.455,56.843-19.434c8.717-8.608,15.829-19.383,23.274-29.081c7.028-9.154,10.696-18.651,10.098-30.302
				c-0.264-5.133-8.265-5.158-8,0c0.574,11.169-3.412,19.327-10.298,27.857c-7.625,9.445-14.252,19.846-23.14,28.188
				c-6.992,6.562-16.531,10.271-25.631,12.771c-9.064,2.49-18.948,3.549-28.051,0.764c-6.86-2.099-13.497-4.971-19.666-8.635
				c-5.376-3.193-13.086-8.694-11.147-15.91c1.206-4.488,6.317-6.794,9.825-9.214c3.817-2.633,6.545-5.736,8.204-10.078
				c3.533-9.251-5.415-15.92-13.48-16.701C240.475,315.079,240.523,323.083,245.61,323.576L245.61,323.576z"/>
		</g>
	</g>
	<g>
		<g>
			<path d="M204.285,135.62c3.215-0.51,2.425,5.951,2.156,7.775c-0.822,5.577-4.593,8.78-8.437,12.564
				c-10.092,9.934-6.162,23.519-9.254,36.038c-2.898,11.734-4.906,23.226,3.058,33.409c6.389,8.17,15.782,13.331,24.401,18.79
				c9.809,6.214,16.717,16.597,28.751,18.305c6.951,0.987,13.291,1.542,19.963,3.962c6.881,2.496,13.45,5.641,20.58,7.422
				c7.203,1.799,14.748,1.668,21.982,3.384c6.848,1.624,12.725,5.937,19.839,6.67c10.744,1.107,21.649-3.295,32.313-1.124
				c3.269,0.665,10.995,7.4,6.375,10.548c-3.48,2.371-9.82,1.1-13.734,0.827c-5.628-0.392-11.354-0.951-16.993-0.897
				c-6.317,0.06-11.038,3.958-17.048,4.818c-5.09,0.728-2.917,8.436,2.127,7.714c2.842-0.407,5.301-1.481,7.873-2.712
				c3.455-1.655,6.794-1.904,10.586-1.777c6.004,0.201,12.015,0.833,18.019,1.142c9.744,0.501,20.309-2.998,17.774-14.799
				c-2.434-11.333-14.096-13.742-23.878-13.259c-5.451,0.27-10.855,1.186-16.295,1.594c-6.781,0.509-12.002-1.523-18.196-4.111
				c-6.686-2.794-13.545-3.717-20.695-4.503c-7.869-0.865-14.929-3.212-22.228-6.173c-6.075-2.465-12.234-5.013-18.801-5.763
				c-3.586-0.409-7.197-0.548-10.746-1.231c-4.211-0.81-7.069-3.623-9.999-6.517c-7.459-7.369-16.78-12.161-25.372-18.023
				c-4.092-2.793-8.077-6.024-10.99-10.072c-4.036-5.607-3.937-12.078-2.625-18.614c0.926-4.613,2.328-9.108,3.17-13.743
				c0.839-4.622,0.551-9.253,0.608-13.919c0.123-10.195,9.666-13.92,13.846-22.102c4.591-8.987,2.919-25.428-10.256-23.338
				C197.075,128.712,199.24,136.42,204.285,135.62L204.285,135.62z"/>
		</g>
	</g>
	<g>
		<g>
			<path d="M201.328,173.692c2.931-1.558,6.582,8.806,7.562,10.967c2.297,5.068,5.368,12.583,11.65,13.583
				c9.96,1.586,13.223-9.672,13.369-17.356c0.094-4.934-1.134-11.082,2.599-15.057c1.823-1.941,10.019,2.95,11.952,3.702
				c4.815,1.872,6.88-5.866,2.127-7.714c-4.309-1.675-8.34-4.02-13.043-4.305c-5.047-0.306-8.656,4.124-10.253,8.385
				c-1.814,4.841-1.38,9.91-1.382,14.989c-0.001,2.229-0.347,10.506-4.241,9.424c-1.85-0.514-3.377-4.499-4.136-6
				c-1.71-3.382-3.106-6.911-4.85-10.277c-3.117-6.013-8.482-10.922-15.391-7.249C192.734,169.207,196.776,176.112,201.328,173.692
				L201.328,173.692z"/>
		</g>
	</g>
	<g>
		<g>
			<path d="M236.543,177.605c13.589-6.356,25.18-16.667,40.302-19.339c7.222-1.276,15.335-0.268,22.239,2.001
				c5.437,1.787,10.575,10.909,5.65,15.62c-3.734,3.572,1.931,9.221,5.657,5.657c5.892-5.635,4.66-14.301,1.105-20.874
				c-4.403-8.142-14.464-9.701-22.809-10.563c-10.158-1.05-19.881,1.132-29.067,5.408c-9.405,4.378-17.706,10.781-27.115,15.182
				C227.835,172.881,231.9,179.777,236.543,177.605L236.543,177.605z"/>
		</g>
	</g>
	<g>
		<g>
			<path d="M322.649,193.715c-0.067-6.946,0.568-12.682-4.289-18.334c-3.1-3.607-9.495-9.772-14.879-7.924
				c-12.386,4.25-4.098,16.082,2.068,21.68c3.019,2.741,6.46,5.012,9.417,7.813c5.384,5.1,3.265,16.349,2.066,22.649
				c-1.028,5.4-2.533,10.746-4.2,15.979c-1.364,4.28-3.363,12.672-7.939,14.68c-4.715,2.069-0.639,8.96,4.038,6.908
				c8.374-3.675,11.328-17.963,13.493-25.773c2.976-10.736,6.357-24.056,1.629-34.74c-3.433-7.758-12.13-11.579-17.492-17.898
				c-3.561-4.196-0.425-3.725,2.798-1.069c2.024,1.668,4.056,3.744,5.01,6.226c1.114,2.898,0.253,6.773,0.282,9.804
				C314.699,198.871,322.699,198.876,322.649,193.715L322.649,193.715z"/>
		</g>
	</g>
	<g>
		<g>
			<path d="M281.284,207.472c3.4,4.568,7.938,7.719,12.063,11.57c4.498,4.2,7.173,9.844,8.991,15.618
				c3.285,10.437,5.021,23.159-1.49,32.684c-2.92,4.272,4.016,8.268,6.908,4.038c7.188-10.516,6.094-23.904,3.173-35.689
				c-1.594-6.432-4.134-12.525-8.091-17.86c-4.148-5.592-10.534-8.874-14.646-14.398C285.15,199.347,278.2,203.328,281.284,207.472
				L281.284,207.472z"/>
		</g>
	</g>
	<g>
		<g>
			<path d="M270.391,247.277c8.967,0.679,11.055-9.421,16.119-14.536c2.892-2.921,6.153-5.389,8.047-9.135
				c2.244-4.438,0.846-9.116-1.8-12.998c-2.887-4.235-9.822-0.238-6.908,4.038c4.143,6.079-1.738,9.148-5.803,13.253
				c-2.672,2.699-5.477,11.694-9.655,11.378C265.243,238.887,265.281,246.89,270.391,247.277L270.391,247.277z"/>
		</g>
	</g>
	<g>
		<g>
			<path d="M277.106,194.304c-0.863-1.172-1.782-2.175-3.097-2.856c-1.36-0.705-2.749-0.985-4.27-1.081c-2.178-0.137-4,1.924-4,4
				c0,2.284,1.825,3.863,4,4c0.443,0.035,0.331,0.011-0.335-0.071c0.155,0.024,0.309,0.054,0.461,0.089
				c0.317,0.068,1.255,0.498,0.105-0.029c0.291,0.133,1.072,0.751,0.104-0.03c0.244,0.197,0.844,0.994,0.123,0.016
				c1.29,1.752,3.441,2.625,5.473,1.435C277.402,198.763,278.402,196.064,277.106,194.304L277.106,194.304z"/>
		</g>
	</g>
	<g>
		<g>
			<path d="M273.652,185.802c-4.555-0.463-10.785,1.189-15.026-0.692c-2.76-1.224-4.473-4.78-6.171-7.097
				c-4.534-6.187-10.499-8.221-17.342-4.055c-4.398,2.678-0.381,9.598,4.038,6.908c2.707-1.648,3.834-1.689,5.935,0.633
				c2.007,2.218,3.483,4.921,5.423,7.212c5.87,6.932,15.217,4.286,23.143,5.092C278.783,194.324,278.733,186.319,273.652,185.802
				L273.652,185.802z"/>
		</g>
	</g>
	<g>
		<g>
			<path d="M236.913,204.369c8.16,7.474,6.934,22.737,20.025,25.158c5.042,0.932,7.195-6.777,2.127-7.714
				c-5.026-0.929-6.858-5.672-8.709-9.927c-2.056-4.727-3.894-9.608-7.786-13.173C238.774,195.235,233.101,200.877,236.913,204.369
				L236.913,204.369z"/>
		</g>
	</g>
	<g>
		<g>
			<path d="M231.264,219.887c12.992,0.135,18.122,12.06,25.629,20.459c3.502,3.919,8.228,6.442,11.838,10.246
				c3.529,3.719,4.556,9.144,5.629,13.963c1.121,5.035,8.833,2.899,7.714-2.127c-1.251-5.618-2.724-11.145-6.285-15.778
				c-3.962-5.155-9.87-8.191-14.187-13.021c-4.568-5.111-7.613-10.936-13.012-15.388c-4.983-4.109-10.879-6.288-17.326-6.355
				C226.103,211.834,226.108,219.834,231.264,219.887L231.264,219.887z"/>
		</g>
	</g>
	<g>
		<g>
			<path d="M254.144,201.129c-1.193,6.007,1.891,9.89,7.331,11.966c1.924,0.734,3.957,1.141,5.882,1.877
				c0.03,0.011,0.841,0.906,0.358,0.154c-0.15-0.246-0.215-0.513-0.194-0.801c-0.011,0.45,0,0.473,0.033,0.069
				c-0.098,0.521-0.316,0.889-0.616,1.431c-2.503,4.516,4.407,8.55,6.908,4.038c3.05-5.504,1.338-10.234-4.362-12.605
				c-2.035-0.847-4.235-1.249-6.295-2.035c-0.148-0.056-1.266-0.82-1.348-0.902c0.136,0.135-0.183-0.056,0.018-1.065
				C262.858,198.218,255.148,196.071,254.144,201.129L254.144,201.129z"/>
		</g>
	</g>
	<g>
		<g>
			<path d="M261.021,226.918c5.913-1.987,8.222,4.411,10.079,8.945c0.826,2.016,2.627,3.425,4.92,2.794
				c1.912-0.526,3.622-2.899,2.794-4.92c-3.51-8.568-9.043-18.187-19.919-14.532C254.03,220.838,256.116,228.566,261.021,226.918
				L261.021,226.918z"/>
		</g>
	</g>
	<g>
		<g>
			<path d="M250.827,210.757c5.159,0,5.159-8,0-8C245.669,202.757,245.669,210.757,250.827,210.757L250.827,210.757z"/>
		</g>
	</g>
	<g>
		<g>
			<path d="M248.934,204.342c3.546-1.682,7.041-3.018,11.024-2.715c5.148,0.392,5.11-7.61,0-8
				c-5.385-0.411-10.288,1.542-15.061,3.807C240.237,199.645,244.299,206.541,248.934,204.342L248.934,204.342z"/>
		</g>
	</g>
	<g>
		<g>
			<path d="M274.736,118.288c5.988,7.402,17.432,6.503,25.958,7.06c4.772,0.311,9.623,1.585,13.171,4.971
				c3.387,3.232,2.084,8.957,1.207,12.928c-1.274,5.769-3.271,21.997,8,18.811c5.075-1.435,8.804-5.513,12.448-9.099
				c4.88-4.802,9.63-6.965,16.564-5.758c10.045,1.749,15.95,10.922,20.96,18.899c2.529,4.027,4.995,8.084,7.833,11.906
				c3.276,4.411,6.466,8.245,8.398,13.489c7.668,20.81,1.228,45.307-2.098,66.37c-0.797,5.045,6.911,7.211,7.714,2.127
				c3.406-21.564,8.506-43.982,3.541-65.714c-2.394-10.481-9.011-17.417-14.665-26.132c-5.225-8.052-9.813-16.856-17.471-22.924
				c-7.925-6.28-19.053-8.387-28.393-4.179c-4.754,2.142-8.381,6.711-12.109,10.192c-1.213,1.133-2.513,2.042-3.957,2.848
				c-1.058,0.59,0.189,0.802-0.057-0.051c-0.771-2.67,0.384-6.078,1.005-8.658c2.193-9.108,1.542-17.609-6.544-23.364
				c-8.675-6.174-19.632-3.914-29.439-5.839c-2.605-0.511-4.73-1.462-6.411-3.54C277.147,108.618,271.524,114.316,274.736,118.288
				L274.736,118.288z"/>
		</g>
	</g>
	<g>
		<g>
			<path d="M321.69,199.152c6.572,6.446,11.87,13.892,20.209,18.244c9.279,4.843,18.842,7.472,25.362,16.354
				c7.626,10.389,17.396,33.354,6.6,44.522c-3.585,3.709,2.066,9.371,5.657,5.657c12.988-13.434,5.106-36.61-2.957-50.531
				c-5.099-8.804-12.791-14.796-21.9-19.084c-5.33-2.509-10.713-4.301-15.25-8.2c-4.406-3.787-7.92-8.555-12.062-12.618
				C323.663,189.881,318.002,195.535,321.69,199.152L321.69,199.152z"/>
		</g>
	</g>
	<g>
		<g>
			<path d="M305.8,148.655c-13.678-20.154-30.778-39.542-55.005-46.447c-11.921-3.397-22.741-2.385-33.433,3.928
				c-9.915,5.854-19.61,13.165-23.213,24.563c-1.559,4.933,6.165,7.027,7.714,2.127c3.123-9.879,12.585-15.678,21.036-20.667
				c9.712-5.734,19.943-4.351,30.2-0.85c19.876,6.785,34.411,24.611,45.794,41.384C301.771,156.935,308.706,152.937,305.8,148.655
				L305.8,148.655z"/>
		</g>
	</g>
	<g>
		<g>
			<path d="M312.19,379.113c-1.104,0.651-0.707,0.053,0.152,0.17c1.189,0.162,2.358,0.511,3.51,0.834
				c2.505,0.702,4.949,1.637,7.377,2.566c4.525,1.732,8.983,3.667,13.427,5.595c13.594,5.897,26.07,11.985,41.28,9.359
				c20.084-3.466,46.168-15.568,47.097-38.933c0.205-5.161-7.796-5.141-8,0c-0.435,10.929-8.867,18.235-17.795,23.21
				c-9.128,5.086-20.627,8.771-31.138,8.553c-12.388-0.257-24.437-7.868-35.606-12.585c-4.45-1.879-8.925-3.706-13.528-5.181
				c-3.268-1.048-7.612-2.383-10.815-0.496C303.712,374.822,307.735,381.738,312.19,379.113L312.19,379.113z"/>
		</g>
	</g>
	<g>
		<g>
			<path d="M424.946,363.356c13.025-0.157,24.919-10.679,32.793-20.165c9.554-11.51,15.185-26.207,18.127-40.733
				c2.859-14.118,2.205-28.7-0.763-42.743c-1.388-6.567-3.65-13.302-7.606-18.786c-3.661-5.076-11.655-10.4-9.348-17.457
				c1.608-4.918-6.119-7.008-7.714-2.127c-4.006,12.255,8.652,19.399,13.361,29.066c5.791,11.889,6.613,27.422,5.678,40.405
				c-1.052,14.597-6.004,29.284-13.776,41.646c-6.125,9.743-18.389,22.745-30.752,22.894
				C419.791,355.418,419.785,363.418,424.946,363.356L424.946,363.356z"/>
		</g>
	</g>
	<g>
		<g>
			<path d="M404.793,263.034c10.633-7.335,22.646-11.811,31.82-21.209c9.256-9.482,18.304-21.578,23.779-33.667
				c11.766-25.976-4.544-52.939-17.49-74.913c-5.974-10.139-11.465-20.857-21.321-27.795c-10.982-7.731-23.406-1.777-35.255-0.787
				c-5.78,0.483-11.295-1.549-17.146-0.921c-5.522,0.593-10.671,2.544-15.728,4.738c-11.593,5.03-22.026,12.857-34.563,15.512
				c-5.046,1.069-2.905,8.78,2.127,7.714c10.13-2.146,19.19-7.509,28.256-12.284c4.998-2.633,10.064-5.055,15.487-6.677
				c5.428-1.624,10.074-1.017,15.546-0.327c10.522,1.327,20.637-4.494,31.005-2.706c11.439,1.973,17.938,15.944,23.126,24.91
				c11.889,20.545,28.193,44.124,19.306,68.823c-2.22,6.169-6.565,11.785-10.27,17.129c-3.804,5.489-7.944,10.725-12.516,15.593
				c-8.453,8.999-20.214,13.068-30.201,19.958C396.539,259.034,400.534,265.972,404.793,263.034L404.793,263.034z"/>
		</g>
	</g>
	<g>
		<g>
			<path d="M179.18,108.938c0.197-9.46,11.192-17.274,17.659-22.883c9.176-7.959,17.967-16.104,29.599-20.322
				c8.595-3.118,18.566-3.748,27.638-3.78c7.898-0.028,19.035,0.692,23.948,7.92c2.881,4.239,9.817,0.242,6.908-4.038
				c-5.848-8.604-16.101-10.968-25.91-11.715c-10.803-0.823-22.764,0.347-33.171,3.394c-13.709,4.014-24.16,13.755-34.668,22.885
				c-8.439,7.331-19.747,16.329-20.002,28.54C171.073,114.1,179.073,114.089,179.18,108.938L179.18,108.938z"/>
		</g>
	</g>
	<g>
		<g>
			<path d="M269.739,71.027c-6.131-0.125-13.235-1.776-18.738,1.797c-6.354,4.127-3.599,12.628,2.46,15.197
				c6.691,2.837,13.823,1.216,19.347,6.671c6.557,6.474,15.324,8.455,23.909,10.929c4.968,1.432,7.074-6.288,2.127-7.714
				c-6.352-1.83-13.578-3.08-18.793-7.399c-4.41-3.652-7.374-6.73-13.31-7.868c-1.298-0.249-12.236-1.301-11.308-3.21
				c1.198-2.464,12.005-0.45,14.306-0.403C274.901,79.132,274.891,71.132,269.739,71.027L269.739,71.027z"/>
		</g>
	</g>
	<g>
		<g>
			<path d="M270.981,62.178c5.442,2.518,10.798,1.793,16.423,0.197c6.891-1.955,13.736-4.003,20.666-5.845
				c7.886-2.096,15.807-4.068,23.647-6.332c8.783-2.537,16.612-3.692,25.456-0.752c13.897,4.619,25.475,14.223,33.465,26.231
				c3.366,5.059,7.962,10.459,10.24,16.103c2.479,6.143,1.663,12.86,5.616,18.525c2.929,4.197,9.869,0.204,6.908-4.038
				c-3.618-5.183-2.899-11.879-5.209-17.603c-2.439-6.044-7.089-11.587-10.647-17.024c-3.881-5.931-8.169-11.611-13.648-16.157
				c-5.592-4.639-12.545-8.345-19.075-11.476c-6.373-3.056-13.173-4.776-20.255-4.522c-8.113,0.291-16.004,3.419-23.786,5.427
				c-8.666,2.236-17.308,4.566-25.959,6.857c-5.652,1.496-14.045,6.166-19.804,3.501C270.37,53.119,266.303,60.013,270.981,62.178
				L270.981,62.178z"/>
		</g>
	</g>
	<g>
		<g>
			<path d="M276.719,69.22c3.685,5.001,5.932,10.71,6.627,16.893c0.57,5.067,8.576,5.122,8,0c-0.852-7.579-3.161-14.743-7.72-20.931
				C280.602,61.077,273.655,65.061,276.719,69.22L276.719,69.22z"/>
		</g>
	</g>
	<g>
		<g>
			<path d="M87.087,113.914c1.713-4.38,0.709-8.908,0.795-13.454c0.098-5.162-7.902-5.152-8,0
				c-0.072,3.805,0.917,7.682-0.509,11.327c-0.795,2.033,0.857,4.388,2.794,4.92C84.435,117.332,86.294,115.943,87.087,113.914
				L87.087,113.914z"/>
		</g>
	</g>
	<g>
		<g>
			<path d="M119.969,58.292c3.293-2.965,7.005-5.07,9.755-8.635c1.335-1.731,0.265-4.477-1.435-5.473
				c-2.063-1.209-4.144-0.288-5.473,1.435c-2.213,2.868-5.84,4.617-8.504,7.016C110.471,56.093,116.147,61.733,119.969,58.292
				L119.969,58.292z"/>
		</g>
	</g>
	<g>
		<g>
			<path d="M158.877,45.769c11.429-0.157,22.554,2.268,33.2,6.334c5.141,1.963,9.353,4.517,13.486,8.118
				c3.353,2.921,6.71,5.446,10.943,6.926c4.883,1.707,6.964-6.023,2.127-7.714c-4.611-1.612-7.986-5.547-11.75-8.493
				c-4.211-3.296-9.276-5.251-14.234-7.144c-10.683-4.079-22.341-6.183-33.772-6.026C153.723,37.839,153.716,45.839,158.877,45.769
				L158.877,45.769z"/>
		</g>
	</g>
</g>
</svg>
