<?xml version="1.0" encoding="utf-8"?>
<!-- Generator: Adobe Illustrator 18.0.0, SVG Export Plug-In . SVG Version: 6.00 Build 0)  -->
<!DOCTYPE svg PUBLIC "-//W3C//DTD SVG 1.1//EN" "http://www.w3.org/Graphics/SVG/1.1/DTD/svg11.dtd">
<svg version="1.1" id="Layer_1" xmlns="http://www.w3.org/2000/svg" xmlns:xlink="http://www.w3.org/1999/xlink" x="0px" y="0px"
	 width="500px" height="500px" viewBox="0 0 500 500" enable-background="new 0 0 500 500" xml:space="preserve">
<g>
	<g>
		<g>
			<path d="M379.1478882,469.7528687c-38.1383057,0.0540161-76.2050781,2.8982544-114.3469849,2.953186
				c-18.812439,0.0270386-37.62677-0.6308594-56.324707-2.7880859c-17.689209-2.0408325-35.2123413-5.3979492-52.6710815-0.0043335
				c-5.5272827,1.7075806-3.1678467,10.3963013,2.3925781,8.6785278
				c17.1760254-5.3063354,34.8331909-1.4561157,52.2214966,0.5499878
				c18.6877441,2.1560669,37.5383911,2.5881348,56.3334961,2.5610962
				c37.4901123-0.0539551,74.9071655-2.8972778,112.3952026-2.9503784
				C384.9512939,478.7446899,384.9520874,469.7446899,379.1478882,469.7528687z"/>
			<path d="M381.2373657,253.8913574c-0.6329346-26.494751-0.5523682-53.0014648-0.1696777-79.4992065
				c0.3722534-25.7745972,0.8120728-51.5483398,1.4705811-77.3173828
				c0.3377075-13.2142334,0.7467041-26.4265747,1.2286987-39.6362915
				c0.4349365-11.9200439,2.0651245-24.0370483-0.2797852-35.8408813c-0.7845459-3.9490967-5.2008057-3.9916992-7.4545288-1.7546387
				c-37.4905396,1.4107056-74.9979858,2.5388184-112.4349976,5.0698242
				c-19.1231689,1.2928467-38.2180176,3.0126953-57.2461548,5.3203125
				c-17.121521,2.076416-35.6082153,3.2393799-51.7403564,9.7196045c-5.3152466,2.1351318-2.9970703,10.8435059,2.3925781,8.6785278
				c15.9890747-6.4227905,34.2788086-7.5706177,51.2382202-9.6273804
				c19.0350952-2.3085327,38.1499023-3.9278564,57.2785645-5.2210693
				c36.6248779-2.4760742,73.3265991-3.5466309,110.0045166-4.9213867
				c1.0336914,10.0505981-0.4664917,20.5858154-0.8303833,30.5583496
				c-0.4819946,13.2098389-0.8693237,26.4230347-1.2070312,39.6373291
				c-0.6585083,25.7687378-1.0762939,51.5430908-1.4485474,77.3173218
				c-0.3731689,25.8383179-0.3865967,51.6817017,0.1983032,77.5169678
				c0.2848511,12.5825195,0.7445679,25.1607056,1.3587036,37.7313232
				c0.5612183,11.4869995,2.2214966,23.2658691,1.3440552,34.7857666c-0.7493286-0.0220337-1.5491943,0.1665039-2.3630371,0.6384888
				c-3.9702759,2.3024292-10.2024536,2.4101562-14.6576538,2.9816284
				c-5.9297485,0.7606201-11.8859253,1.3113403-17.8390503,1.8511353
				c-21.2563477,1.9274902-42.5062866,2.9172974-63.8435059,3.2213135
				c-0.0916748,0.0012817-0.1833496,0.0036621-0.2750244,0.0050049c0.1137695-0.4008789,0.1950684-0.8265991,0.1958008-1.3070068
				c0.0603638-39.1796265-0.9677734-78.3481445-1.4331665-117.5227051c-0.0689087-5.7996216-9.0690308-5.8063354-9,0
				c0.4653931,39.1745605,1.4935303,78.3430786,1.4331665,117.5227051c-0.0008545,0.5441895,0.098999,1.0203857,0.2416992,1.4625244
				c-9.9752197,0.1864014-19.9498291,0.4210205-29.9242554,0.6641235
				c0.4620361-18.8180542-2.0836792-37.5111084-3.0887451-56.2735596
				c-1.0620117-19.8260498-1.3981323-39.6869507-1.3225098-59.5391235
				c0.1486816-39.0549316,2.1593628-78.078125,4.3973389-117.0596924c0.3330688-5.8008423-8.6688232-5.7686157-9,0
				c-2.2382812,38.9870605-4.1876831,78.0009155-4.3973389,117.0596924
				c-0.1030273,19.1921387,0.2794189,38.3862305,1.2207031,57.5557861
				c0.9574585,19.4981079,3.690979,38.9229736,3.1863403,58.473999c-5.491272,0.1276855-10.982666,0.2469482-16.4743652,0.3449097
				c-17.2000122,0.3067627-34.9685059,4.5262451-52.0180054,0.9145508c0.0404663-0.2382812,0.0838013-0.4748535,0.0897217-0.7368164
				c1.8651733-82.722168-23.9303589-162.3141479-35.9908447-243.4076538
				c-0.8513184-5.7243042-9.522522-3.2825317-8.6785278,2.3925781
				c11.7383423,78.9272461,36.6222534,156.3926392,35.7210693,236.7976074
				c-3.6881104,1.3191528-3.6728516,7.1659546,0.0442505,8.4492188c0.0093384,0.1185913,0.0158081,0.2373047,0.0250244,0.355896
				c0.0029297,0.1782837,0.0147095,0.3557739,0.0374146,0.5318604c1.4978638,19.7776489,0.9557495,39.5859985-0.1583862,59.3746338
				c-0.3266602,5.8012695,8.6751099,5.7696533,9,0c1.0227051-18.1644287,1.5743408-36.3456421,0.5006714-54.5042725
				c16.4076538,2.793335,33.3608398-0.4224854,49.8532104-1.1190796c21.892334-0.9246216,43.9035034-1.0899048,65.8147583-1.4351807
				c21.6079102-0.3405762,43.1123047-1.3414307,64.6393433-3.293457c6.5281982-0.59198,13.0510864-1.2398071,19.5492554-2.1068726
				c3.538269-0.472168,7.5316772-0.7943726,11.2246704-1.7453613c0.1873779,0.208252,0.3980713,0.3966064,0.6312866,0.5639038
				c2.1906128,7.4523926,0.9039307,15.9123535,0.9650879,23.5735474c0.0732422,9.1720581,0.2022095,18.3435669,0.3063965,27.5153198
				c0.2156982,18.994812,0.2931519,37.9925537-0.3381958,56.9807129c-0.1931152,5.8067627,8.8074951,5.7880859,9,0
				c0.6313477-18.9887085,0.5466919-37.9854126,0.3381958-56.9807129
				c-0.1078491-9.8272705-0.2436523-19.6542358-0.3220825-29.4818115c-0.0665894-8.3361816,1.1688232-17.0625-1.6101074-25.0903931
				c-0.0665283-0.1921997-0.1435547-0.3721924-0.2262573-0.545166c1.6155396-0.5568237,3.0036011-1.8889771,3.253418-3.991333
				c1.4091797-11.8579712-0.3353271-24.0164185-0.9516602-35.8894043
				C382.0093384,280.3787842,381.553772,267.1362305,381.2373657,253.8913574z"/>
			<path d="M330.0985718,167.5067749c-0.3292847,17.5662842-0.8074341,35.1293945-1.0901489,52.6966553
				c-0.5689697,35.3596802-0.8468628,70.550293-8.661499,105.2332764c-1.2736206,5.6525269,7.4030151,8.0535889,8.6785278,2.3925171
				c7.9898071-35.4603882,8.432312-71.4655151,8.9829712-107.6257935
				c0.2873535-18.8687744,0.8209229-37.7328491,1.1620483-56.6005859
				c0.2653809-14.6764526,3.3529053-32.0083618-3.4326782-45.6223755
				c-2.5892944-5.1949463-10.3516846-0.6347656-7.7711792,4.5424805c3.1463623,6.3126221,2.9394531,13.5639648,2.7086182,20.4404297
				C330.4005737,151.1449585,330.2520142,159.3212891,330.0985718,167.5067749z"/>
			<path d="M198.6039429,329.7363281c-9.1677856-53.7762451-15.8271484-107.9259644-21.3372803-162.1889038
				c-0.5804443-5.7163086-9.5862427-5.7728882-9,0c5.5910645,55.0604248,12.3563232,110.0150146,21.6587524,164.5814209
				C190.899353,337.8414307,199.5714722,335.411438,198.6039429,329.7363281z"/>
		</g>
	</g>
</g>
</svg>
