<?xml version="1.0" encoding="utf-8"?>
<!-- Generator: Adobe Illustrator 18.0.0, SVG Export Plug-In . SVG Version: 6.00 Build 0)  -->
<!DOCTYPE svg PUBLIC "-//W3C//DTD SVG 1.1//EN" "http://www.w3.org/Graphics/SVG/1.1/DTD/svg11.dtd">
<svg version="1.1" id="Layer_1" xmlns="http://www.w3.org/2000/svg" xmlns:xlink="http://www.w3.org/1999/xlink" x="0px" y="0px"
	 width="500px" height="500px" viewBox="0 0 500 500" enable-background="new 0 0 500 500" xml:space="preserve">
<g>
	<g>
		<g>
			<path d="M436.1085815,224.6420898c-3.4024658-23.7045288-11.8711548-49.3569946-28.9146729-66.8258057
				c-15.1968384-15.5761108-39.0844727-18.7230835-60.2597046-17.8500366
				c2.8687134-2.0310059,3.2050171-7.1654663-1.1085815-7.930603c-0.635498-0.1127319-1.2727661-0.2116699-1.9096069-0.3135376
				c2.102417-2.2563477,1.9876709-6.5511475-1.8682251-7.4125366c-6.6333618-1.4819946-13.5376587-1.4800415-20.2981567-1.7311401
				c-3.1287231-0.1162109-6.3071899-0.1858521-9.4032593-0.6832886c-4.2679443-0.685791-8.3137207-2.8440552-12.3469849-4.3114014
				c-8.6604004-3.1507568-19.0027466-2.6416626-28.0724487-2.4476318c-10.5634155,0.2260742-21.097229,1.416626-31.564209,2.7866211
				c-1.6500244,0.2159424-2.8223877,1.1339111-3.5189819,2.3059082c-0.7473755-1.1210327-1.4882812-2.2416382-2.2097778-3.3631592
				c-3.4237671-5.3220825-8.0299683-9.7426758-11.4290161-15.0246582c2.5272827-2.8009033,0.092041-8.5822754-4.5844727-7.4163208
				c-5.8670654,1.4627686-11.6887207,3.5887451-17.7799683,2.241394c-5.6553345-1.2509766-8.0584717,7.4251709-2.3925171,8.6784668
				c5.5496216,1.2275391,10.7199097,0.5473633,15.9580688-0.624939c3.3924561,6.0569458,8.484375,11.0012817,12.456665,16.6885376
				c5.2998047,7.5877686,10.8007812,15.749939,14.9786377,24.0126343
				c4.7595215,9.4130859,6.815979,20.4210815,12.5521851,29.2282715
				c-7.5362549,2.2893677-14.9940796,2.7876587-22.8779907,2.6237183
				c12.675415-13.8474121-19.0964966-61.9465332-29.6000977-68.946167
				c-4.8451538-3.2288818-9.3460083,4.5701294-4.5424805,7.7712402c-0.3540039-0.2359619,0.1774292,0.1397095,0.8857422,0.8417969
				c0.7373657,0.730896,1.4186401,1.5189819,2.0953979,2.3052979c1.8096924,2.1027222,3.456604,4.3373413,5.0726318,6.5900879
				c2.027832,2.8267212,3.9560547,5.7269287,5.8076782,8.675415c-12.6515503-7.9163818-28.7387695-18.2350464-43.7466431-11.241333
				c-0.4860229,0.2265015-0.8869629,0.4988403-1.2121582,0.803772c-0.6547241-0.1148071-1.3900757-0.0576782-2.1956787,0.2368164
				c-5.9591675,2.1787109-10.2217407,6.5303345-15.2703857,10.1663208
				c-1.3636475,0.9820557-2.2200317,2.4506836-2.2067261,4.0076904c-0.0253906,0.007019-0.0514526,0.0144043-0.0767822,0.0214233
				c-4.3011475,1.1888428-3.8800049,6.6051636-0.9024048,8.329895c-0.6852417-0.0228882-1.3693237-0.0628052-2.0549927-0.0791626
				c-11.1806641-0.2667236-20.9881592,1.2550659-31.2814331,5.8186646
				c-23.9963379,10.6389771-44.7755127,34.0488281-45.1513062,61.2241821
				c-0.038269,2.7679443,1.9884644,4.1987915,4.1271362,4.3267822c-7.1326294,16.3440552-9.2030029,35.243103-9.3235474,52.6022949
				c-0.1610718,23.1959229,2.2932129,48.0339355,16.3676147,67.2238159
				c5.2010498,7.0914917,11.4094849,13.3515625,17.5647583,19.602417
				c6.8635254,6.9700317,12.90625,14.9699097,20.1636963,21.4971924
				c7.0361938,6.3283081,15.7467651,10.0727539,24.755188,12.6275635
				c10.8216553,3.0690308,21.2850342,8.5334473,32.7032471,8.9413452c5.8064575,0.2074585,5.786377-8.7932739,0-9
				c-6.9609375-0.2486572-13.7386475-3.0148926-20.2290039-5.3212891
				c-6.6565552-2.3654175-13.6559448-3.9160767-20.114502-6.7984009
				c-11.4920044-5.1286011-18.4195557-15.4080811-26.8942261-24.2009277
				c-8.1723022-8.4790649-16.8458862-16.5462036-23.3443604-26.4483032
				c-6.762146-10.303894-9.1254272-21.9505615-10.5753174-33.9967651
				c-2.8393555-23.5910645-2.1325073-48.5964355,6.4398193-70.9946289
				c4.4095459-11.5214233,12.1813965-20.737793,20.7145386-29.4476929
				c8.0407715-8.2074585,17.2404785-14.3751831,28.3700562-17.3580933
				c10.5740356-2.8339844,21.4996338-4.5079956,32.324585-6.0415649c7.4365845-1.0535278,14.9821167-2.0518188,22.5210571-2.5007935
				c-13.0181885,3.4893188-25.1184082,11.0112915-35.3104858,19.5692749
				c-15.6987915,13.1817627-26.1774292,31.9587402-32.609436,51.154541
				c-14.5743408,43.4957275-7.6508789,96.1444092,15.9710083,135.2478638
				c2.9960327,4.9595337,10.7803955,0.4387207,7.7712402-4.5424805
				c-21.9589233-36.3505249-28.4462891-84.4666138-16.0697632-125.1595459
				c5.5296021-18.1808472,14.9983521-35.539917,29.1555786-48.4594116
				c11.8308105-10.7964478,27.3342285-19.6867065,43.5687866-20.7382202
				c-9.7238159,2.0821533-20.0635986,14.0327759-24.4884644,20.2850342
				c-2.5328369,3.5788574-4.0986328,7.8908081-5.7763672,11.9075317
				c-2.6912842,6.4433594-5.0232544,12.9984741-6.9977417,19.6963501
				c-3.8786011,13.1574097-5.9832764,26.8059692-7.0314941,40.463501
				c-2.149292,28.0029297,1.8952026,56.8394165,7.4102173,84.2741699
				c3.9050293,19.4258423,13.9678345,39.2373047,34.9176025,43.7663574
				c5.6585083,1.2232666,8.0643311-7.4523926,2.3925781-8.6785278
				c-18.0292358-3.897644-25.1529541-21.0967407-28.6317139-37.4804077
				c-5.1581421-24.293335-8.3886719-49.9130249-7.4932861-74.7585449
				c0.8314209-23.0690308,5.7502441-45.9262085,15.0740356-67.067627
				c2.854248-6.4719849,6.5299072-11.4182739,11.6389771-16.3223267c2.5822144-2.4786377,10.3702393-10.0397339,13.9997559-6.045166
				c3.9107056,4.3040771,10.2566528-2.0797729,6.3640137-6.3639526c-1.9052124-2.0968628-3.9990845-3.263916-6.190979-3.7391968
				c1.00177,0.041626,2.0047607,0.107666,3.0089722,0.2142944c5.7687378,0.6123657,5.7095947-8.3938599,0-9
				c-3.3782349-0.3586426-6.730835-0.3726807-10.0443726-0.0979004c0.9005127-1.1889648,1.1491089-2.8272095,0.7480469-4.2675171
				c3.1530762-1.6083984,3.6837769-7.2281494-0.7142944-8.4240112c-14.3064575-3.8899536-28.9735718-6.1880493-43.7629395-6.9572754
				c7.5519409-2.1896362,19.9281616-7.1933594,26.3136597-0.9620972c4.1544189,4.0540771,10.5233154-2.3051147,6.3639526-6.3639526
				c-5.2731934-5.145874-12.0764771-5.9462891-19.0005493-5.1087036c1.0206909-0.6192627,2.0771484-1.1588745,3.1893311-1.5654907
				c1.0005493-0.3657837,1.7344971-0.9628296,2.2338867-1.6790161c1.0055542,0.3079224,2.147522,0.2792969,3.3238525-0.2688599
				c11.4395142-5.3308716,26.5949097,6.2154541,35.8024292,11.9540405c3.118103,1.9432983,6.0635986-0.4423828,6.5796509-3.2363281
				c1.0327759,1.7762451,2.0413818,3.565979,3.0144043,5.3736572c3.3037109,6.1375732,6.303833,12.5947266,7.7059937,19.4597168
				c0.4365234,2.1373291,0.4776001,4.1866455-0.1656494,6.0923462c-0.2254028,0.6677856-1.4994507,1.1911621-3.3583374,1.4420166
				c-4.1671143,0.5623779-3.994873,5.2908325-1.4151611,7.5393677c-0.3995361,0.4260254-0.7376099,0.947937-0.9806519,1.5806274
				c-12.1430664,31.6101685-15.7234497,66.4868164-15.973877,100.1380615
				c-0.2716064,36.4935913,5.2662964,73.2070923,14.479126,108.4613037
				c1.4663086,5.611084,10.1473999,3.2283325,8.6784668-2.3925781
				c-9.0419922-34.600708-14.2285156-70.2719116-14.1575928-106.0687256
				c0.0635376-32.1008911,3.6509399-65.2985229,14.8569336-95.5700073c0.49646,0.2121582,1.050293,0.3571777,1.6860962,0.3811035
				c5.1625366,0.1940918,10.2011108,0.1638184,15.1722412-0.333252c-1.7980957,26.2453613,8.503479,52.3274536,8.7184448,78.5151978
				c0.0476074,5.8010864,9.0476685,5.8057251,9,0c-0.1124878-13.7025757-3.0147095-27.4060059-5.184021-40.8878174
				c-2.0230713-12.5732422-4.8343506-26.2554932-3.4894409-39.1260986c2.2935791-0.5454712,4.5800781-1.2199097,6.8641968-2.0643921
				c0.3103027-0.1147461,0.5921021-0.2539062,0.8521729-0.409729c2.6717529,2.2340088,6.064209,0.8012695,7.3473511-1.5036621
				c0.4807129,0.9489136,1.4025879,1.6830444,2.8562622,1.9133911
				c20.3104248,3.2185059,38.2453003,13.1776733,52.2687378,28.1396484
				c15.3052979,16.3296509,22.4752197,36.7861328,26.5717773,58.3921509
				c4.5646973,24.0753174,5.402832,49.9581909-3.2346191,73.2249146
				c-7.4003906,19.9342651-23.0335083,35.1408691-39.4885864,47.8943481
				c-4.5825195,3.5516968,1.8371582,9.8724365,6.3639526,6.3639526c3.4828491-2.6993408,6.862854-5.4927979,10.1188354-8.3917236
				c0.1948853-0.0420532,0.3928833-0.0933838,0.5966797-0.1636353
				c23.9537964-8.2554321,48.3706055-22.9447021,66.5979614-42.5075684
				C433.1677856,321.5352783,442.5216064,269.3204956,436.1085815,224.6420898z M132.753418,166.6541138
				c-9.6201172,2.0383301-18.4816284,4.9442139-26.7316284,10.4750977
				c-10.2779541,6.8904419-19.2341309,16.6954346-26.545105,26.6089478
				c-1.0176392,1.3798828-1.9729004,2.7990723-2.8817139,4.2460938
				c3.0845947-22.0168457,21.5457764-39.3527222,41.2749023-48.0998535
				c8.7541504-3.8812256,17.4367676-4.3258057,26.8412476-4.1014404c11.4241943,0.272522,22.7598877,1.6135864,33.9237061,3.907959
				C163.2280273,160.7220459,147.6549683,163.4967651,132.753418,166.6541138z M347.2780762,367.4885254
				c-2.7108154,1.5531616-5.4728394,3.0109253-8.2734375,4.3884888
				c6.3707275-7.8237915,11.7446289-16.4336548,15.6865845-26.1124268
				c9.9176636-24.3508911,8.4639282-52.2377319,4.057373-77.6188354
				c-4.0770264-23.4830322-12.2941895-45.0411377-28.2599487-63.0442505
				c-10.5935059-11.9453735-24.1634521-21.1620483-39.0980225-26.7057495
				c11.366333-1.0105591,22.4517212-4.050293,33.8276367-5.2928467c14.0631714-1.5360718,27.3108521,1.9716187,39.4389038,9.0358887
				c22.2801514,12.9776001,36.3779907,36.3379517,42.6703491,60.7738037
				c6.4011841,24.8583374,5.5526123,50.9620972-6.9587402,73.7289429c-4.343811,7.90448-9.7460327,15.1643677-15.87323,21.7998657
				c-0.746521,0.4591675-1.2600098,1.0333862-1.5734253,1.6660156
				C372.5170898,350.9776001,360.1618042,360.1069336,347.2780762,367.4885254z M353.0683594,167.0232544
				c-11.1450195-3.8007812-22.5500488-3.7527466-34.0776367-2.1291504
				c-11.9404297,1.6817627-23.5148315,4.9933472-35.6682129,4.8294067c-3.1477661-0.0424805-4.5718994,2.581543-4.3060303,5.0072632
				c-1.8903198-0.4221802-3.7893677-0.807373-5.7046509-1.1109009c-2.5601807-0.4057007-4.4502563,1.1389771-5.2410278,3.0369263
				c-0.2389526-0.3939209-0.5646362-0.7752686-0.9916992-1.1325073
				c-10.4498291-8.7402954-12.1582642-24.1478271-18.0469971-35.7941895
				c-2.2426758-4.4354248-4.9698486-8.7080078-7.7766113-12.9211426c9.5626221-1.2362671,19.1435547-2.2250977,28.7824097-2.6140747
				c9.6005859-0.3873901,19.9633179-0.699646,29.0914917,2.6212769c5.1696167,1.8807983,9.68927,3.3441162,14.7268066,4.1172485
				c-4.8050537,0.5168457-9.5826416,1.3424072-14.3023682,2.479126
				c-12.8795776,3.1019287-26.5671387,9.4307861-33.5652466,21.2371216
				c-2.9664307,5.0046387,4.8153687,9.5292969,7.7712402,4.5424805c5.84552-9.8618774,17.6123047-14.3823242,28.1865845-17.1011353
				c12.5836792-3.2354126,26.1819458-3.7321167,39.0532837-1.7758789c-0.4378662,0.0332031-0.8773804,0.0651245-1.3117065,0.1011963
				c-10.9943848,0.913147-21.71698,3.6221313-31.9888306,7.5900879c-4.7591553,1.8384399-9.4163818,3.9822388-13.9450684,6.3275146
				c-4.9380493,2.557312-10.0623169,6.390625-15.9412842,5.5272827c-5.6748657-0.833374-8.1176758,7.8377686-2.3925781,8.6784668
				c6.324707,0.928833,11.5483398-0.5420532,17.2079468-3.3609619c6.9002075-3.4367676,13.5003662-7.0541992,20.7640381-9.7418213
				c13.1219482-4.8553467,26.8841553-6.6777954,40.8184204-6.5891724
				c12.3028564,0.0782471,24.9129639,2.0046997,35.9619751,7.6408691
				c11.168335,5.6969604,18.413208,16.0617065,24.0327759,26.9328003
				c11.4035034,22.0601807,15.4812012,48.0811157,14.7645874,72.6968384
				c-0.5963745,20.4872437-5.6043701,41.588623-17.3803711,58.5515747
				c3.6928101-8.0340576,6.3244629-16.5411987,7.6343994-25.4638062
				C426.3491211,240.6740723,401.6257324,183.5827026,353.0683594,167.0232544z"/>
			<path d="M268.3972168,145.8327026c-0.0386353,0.4259033-0.1716919,0.5307007,0.2312622-0.1948242
				c0.3843384-0.6919556,0.934021-1.2497559,1.4680786-1.8254395c1.2752686-1.3748169,2.7424316-2.6224976,4.2247925-3.767334
				c2.8604126-2.2091675,5.9136353-4.1913452,9.0311279-6.0164185c5.0041504-2.9296875,0.4769287-10.7098389-4.5424805-7.7712402
				c-4.2211914,2.4712524-8.2369995,5.270874-12.0192871,8.3724976c-3.5316162,2.8959961-6.963623,6.4620361-7.3934937,11.2027588
				C258.8729858,151.614502,267.8775635,151.5638428,268.3972168,145.8327026z"/>
			<path d="M278.2425537,186.8947754c-2.864624-5.0453491-10.6409912-0.5118408-7.7712402,4.5424805
				c30.4785767,53.680603,56.6942749,123.8822021,25.4019165,182.9862061
				c-2.713562,5.1252441,5.0548096,9.6730957,7.7712402,4.5424194
				C336.5800171,316.7583008,310.456543,243.631958,278.2425537,186.8947754z"/>
			<path d="M289.1055298,386.2138062c-3.4054565,3.3656006-9.2966309,6.1707764-13.9721069,3.7791138
				c-1.3327637-0.6817627-2.6236572-0.6647949-3.7185669-0.2244873c-0.3401489-0.1455078-0.6986084-0.2522583-1.0740356-0.3047485
				c1.2965698-13.1668091,0.9093628-26.6444092,0.5992432-39.8252563
				c-0.3589478-15.2544556-0.6511841-31.1969604-4.1982422-46.1131592
				c-1.3423462-5.6450806-10.0203857-3.2504883-8.6784668,2.3925171c3.461853,14.5582275,3.5570679,30.1349487,3.9072266,45.0180664
				c0.3170166,13.4741211,0.6845093,27.2803955-0.8380127,40.701355c-0.05896,0.5197754-0.0161743,0.9752808,0.0688477,1.4003906
				c-4.383728,1.835083-8.9345703,3.1751709-13.7416382,3.6433716c-6.4951782,0.6326294-12.9307251-2.5230713-19.425354-2.8196411
				c-0.1945801-0.0089111-0.3656006,0.0180054-0.5470581,0.0292358c-0.807251-0.3203735-1.7824097-0.331543-2.890625,0.1315308
				c-7.062561,2.9510498-14.3032837,1.7880859-21.515564-0.000061c-5.6341553-1.3968506-8.0236206,7.2824707-2.3925171,8.6785278
				c8.6140137,2.1356201,17.8562622,3.5269165,26.2972412,0.0012817c0.3261108,0.0855713,0.6740723,0.142395,1.0485229,0.1594849
				c7.6807251,0.350708,14.4852295,3.5782471,22.3297119,2.4925537c7.4782715-1.0349731,14.3995361-3.7443848,21.0532837-7.2160645
				c8.2306519,3.7016602,17.7980957,0.6207275,24.052124-5.5599976
				C299.6020508,388.4936523,293.2357178,382.132019,289.1055298,386.2138062z"/>
		</g>
	</g>
</g>
</svg>
