<?xml version="1.0" encoding="utf-8"?>
<!-- Generator: Adobe Illustrator 18.0.0, SVG Export Plug-In . SVG Version: 6.00 Build 0)  -->
<!DOCTYPE svg PUBLIC "-//W3C//DTD SVG 1.1//EN" "http://www.w3.org/Graphics/SVG/1.1/DTD/svg11.dtd">
<svg version="1.1" id="Layer_1" xmlns="http://www.w3.org/2000/svg" xmlns:xlink="http://www.w3.org/1999/xlink" x="0px" y="0px"
	 viewBox="0 0 500 500" enable-background="new 0 0 500 500" xml:space="preserve">
<path id="path4200" inkscape:connector-curvature="0" d="M230.6955719,13.6597033
	c-18.7673645,0.5665426-37.4408264,12.3700037-52.8710327,29.6083069
	c-16.4588776,18.3875237-29.4021912,43.3106499-34.329422,69.636795c-0.5595703,2.79245,1.2505646,5.5098038,4.0430145,6.0693665
	c2.79245,0.5595551,5.5097961-1.2505569,6.0693665-4.0430145c0.0086517-0.0431824,0.0167389-0.0864716,0.024292-0.1298523
	c4.5388794-24.2511597,16.7301941-47.7330017,31.8773956-64.6551514
	c15.0279694-16.7889404,32.7911377-26.7606163,48.0483704-26.1524715
	c29.0972595,5.8105927,43.4673157,17.7105846,49.8423767,33.1129913
	c6.4035645,15.4712906,4.5811768,35.6337509-2.1110535,57.5164719
	c-13.3844604,43.7654343-45.5354919,92.914238-59.8334503,123.8660202l0.1609039-0.3199158
	c-2.5292969,4.6060638-3.8862,8.1416931-4.3370361,11.3473663c-0.4508362,3.205658,0.2633209,6.4865875,2.2298279,8.6146698
	c3.9329987,4.2561646,8.9336395,2.7144775,8.9336395,2.7144775l0.9712372-0.1791077l0.8361816-0.5267944
	c27.0764771-17.0316772,50.2111511-21.3202515,69.0889282-17.6192017
	c18.8777466,3.7010345,33.9236145,15.4468994,44.6270142,32.1063232
	c21.4068298,33.3187866,24.2137756,86.1349487,1.6541443,126.2672729
	c-20.2514954,36.0263977-53.4472961,64.3951111-91.86026,72.6884155
	c-38.4129791,8.2932739-82.4271698-2.900238-126.1322327-47.8117676c-1.960968-2.0653076-5.2249222-2.1499023-7.2902222-0.1889038
	c-2.0653076,1.960968-2.1498947,5.2249146-0.1889114,7.2902222c0.0291367,0.0306702,0.0586624,0.0610352,0.0885468,0.0910034
	c45.5506363,46.8080139,93.7657089,59.7529297,135.6990051,50.699585
	c41.9333191-9.0533142,77.2011719-39.5172729,98.6732788-77.7150574
	c24.5970154-43.7568359,21.846283-99.8294678-1.9673767-136.8943787
	c-11.9067993-18.5324554-29.3868713-32.3522339-51.3193359-36.6521454
	c-21.1264038-4.1418915-46.0167847,0.7233429-73.4403229,17.1958466c0.3949585-1.444046,1.1118164-3.4393768,2.7729034-6.4643707
	l0.0862122-0.1570892l0.0756683-0.1618652c13.5429382-29.3173065,46.2410126-79.0939789,60.3334198-125.174408
	c7.0462341-23.0402145,9.6193542-45.530304,1.7777405-64.4760361
	c-7.8416443-18.9457321-26.2816162-33.1792679-57.7453918-39.3752556l-0.3639832-0.0718374l-0.3697205-0.018199
	C233.1982117,13.6341791,231.9467316,13.621933,230.6955719,13.6597033z"/>
</svg>
