<?xml version="1.0" encoding="utf-8"?>
<!-- Generator: Adobe Illustrator 18.0.0, SVG Export Plug-In . SVG Version: 6.00 Build 0)  -->
<!DOCTYPE svg PUBLIC "-//W3C//DTD SVG 1.1//EN" "http://www.w3.org/Graphics/SVG/1.1/DTD/svg11.dtd">
<svg version="1.1" id="Layer_1" xmlns="http://www.w3.org/2000/svg" xmlns:xlink="http://www.w3.org/1999/xlink" x="0px" y="0px"
	 width="500px" height="500px" viewBox="0 0 500 500" enable-background="new 0 0 500 500" xml:space="preserve">
<g>
	<g>
		<g>
			<path d="M92.523,62.059c15.644,2.963,28.733,13.838,40.905,23.449c0-2.121,0-4.243,0-6.364
				c-3.918,3.081-5.562,7.084-5.854,11.975c-0.114,1.922,0.171,3.9,0.331,5.812c0.114,1.362-0.537,2.123,0.576,0.711
				c-0.444,0.563-1.52,0.981-2.109,1.318c-3.695,2.109-7.27,3.76-10.141,6.983c-1.406,1.579-2.351,3.113-3.023,5.115
				c-0.49,1.46,0.626,1.279-1.107,1.045c-1.112-0.15-2.232-0.18-3.336,0.123c-8.742,2.405-10.052,9.881-11.124,17.718
				c-0.491,3.59-6.11-2.371-7.28-3.469c-3.047-2.859-5.771-6.015-9.108-8.55c-2.657-2.018-7.036,0.695-6.771,3.886
				c0.16,1.929-0.823,3.323-2.076,4.728c-0.816,0.914-1.837,1.611-2.989,2.024c0.358-0.128,0.284,2.307,0.21-0.488
				c-0.101-3.847,1.422-7.748,0.577-11.582c-2.129-9.656-7.848-18.16-14.183-25.525c0.235,1.818,0.469,3.635,0.704,5.453
				c3.928-6.632,9.802-10.19,16.184-14.133c6.822-4.214,12.284-9.501,15.876-16.74c2.57-5.181-5.192-9.742-7.771-4.542
				c-3.578,7.211-8.963,11.285-15.678,15.365c-6.677,4.058-12.354,8.706-16.382,15.508c-1.089,1.838-0.622,3.911,0.704,5.453
				c4.679,5.44,8.269,11.096,10.712,17.861c2.027,5.612-0.592,11.116,0.745,16.867c1.332,5.725,8.312,6.632,12.83,4.349
				c5.215-2.636,10.047-8.447,9.537-14.597c-2.257,1.295-4.514,2.59-6.771,3.886c5.789,4.398,11.613,14.883,19.966,14.564
				c4.66-0.178,7.936-2.597,9.438-6.967c1.011-2.94-0.126-9.389,2.84-11.298c3.564-2.294,8.555,0.784,11.335-4.302
				c1.168-2.136,1.422-4.392,3.068-6.24c1.668-1.873,4.164-2.859,6.325-4.038c3.439-1.876,6.86-3.834,7.235-8.122
				c0.463-5.292-2.018-9.937,2.875-13.784c1.777-1.397,1.771-4.965,0-6.364c-13.366-10.554-27.678-22.506-44.876-25.764
				C89.245,52.307,86.825,60.98,92.523,62.059L92.523,62.059z"/>
		</g>
	</g>
	<g>
		<g>
			<path d="M81.465,71.589c5.611,3.484,11.345,6.738,17.133,9.914c1.95,1.07,3.898,2.141,5.818,3.264
				c0.702,0.411,1.386,0.85,2.064,1.299c1.877,1.241-0.558,0.952,0.207-2.214c-1.362,5.64,7.317,8.033,8.679,2.393
				c1.103-4.569-3.038-7.216-6.407-9.249c-7.555-4.559-15.446-8.518-22.951-13.178C81.062,60.747,76.547,68.535,81.465,71.589
				L81.465,71.589z"/>
		</g>
	</g>
	<g>
		<g>
			<path d="M68.584,79.713c4.978,12.687,18.014,19.505,26.037,29.925c3.488,4.529,11.313,0.057,7.771-4.542
				c-3.661-4.754-8.087-8.773-12.417-12.904c-4.417-4.213-10.419-9.024-12.713-14.871C75.168,71.981,66.462,74.303,68.584,79.713
				L68.584,79.713z"/>
		</g>
	</g>
	<g>
		<g>
			<path d="M82.697,110.566c-0.65-3.887-4.751-8.272-6.813-11.45c-3.69-5.688-7.451-11.348-10.825-17.232
				c-2.886-5.032-10.663-0.501-7.771,4.542c3.17,5.527,6.686,10.854,10.153,16.197c1.592,2.453,3.186,4.905,4.751,7.376
				c0.528,0.834,1.044,1.676,1.547,2.526c0.527,0.89,0.343,0.817,0.279,0.434C74.974,118.673,83.646,116.241,82.697,110.566
				L82.697,110.566z"/>
		</g>
	</g>
	<g>
		<g>
			<path d="M130.515,92.653c24.035,9.037,42.687,28.363,59.472,47.081c17.884,19.945,34.842,40.133,55.15,57.752
				c21.351,18.524,44.495,34.865,67.379,51.407c23.408,16.921,46,34.602,67.797,53.561c21.605,18.793,43.087,39.526,56.384,65.254
				c6.578,12.728,7.143,25.377,2.771,38.846c-3.342,10.297-9.631,23.303-19.632,28.605c-8.973,4.756-21.967,2.671-31.511,1.278
				c-10.759-1.571-22.195-3.246-32.437-6.938c-13.083-4.716-24.291-14.054-34.136-23.609
				c-11.525-11.186-22.527-22.915-33.435-34.698c-19.097-20.627-37.899-41.522-57.227-61.936
				c-19.269-20.353-39.3-39.804-59.678-59.033c-19.856-18.736-38.296-38.941-55.905-59.787
				c-8.267-9.787-16.545-19.587-24.722-29.448c-3.984-4.804-7.547-9.909-10.324-15.507c-1.151-2.32-0.983-4.69-1.176-7.175
				c-0.21-2.711-1.187-5.09-2.323-7.525c-2.453-5.256-10.21-0.682-7.771,4.542c1.129,2.419,1.133,4.497,1.302,7.079
				c0.179,2.733,1.129,5.136,2.197,7.621c2.731,6.358,7.4,12.007,11.731,17.329c9.251,11.366,18.827,22.541,28.329,33.701
				c20.233,23.762,41.996,45.749,64.709,67.117c46.637,43.876,87.339,93.351,132.466,138.672
				c9.801,9.843,20.027,19.178,32.166,26.077c10.485,5.959,21.774,8.196,33.457,10.413c10.855,2.06,21.963,3.876,33.045,3.333
				c10.643-0.522,18.969-4.277,25.899-12.402c7.734-9.068,12.786-20.629,15.598-32.13c3.188-13.037,0.714-25.485-4.882-37.468
				c-11.926-25.54-33.838-46.685-54.59-65.115c-21.327-18.941-43.589-36.619-66.637-53.41c-23.146-16.862-46.661-33.249-68.592-51.7
				c-20.7-17.415-38.15-37.367-55.958-57.604c-16.583-18.844-34.64-37.751-57.438-49.006c-2.948-1.455-6.007-2.701-9.083-3.858
				C127.464,81.928,125.135,90.631,130.515,92.653L130.515,92.653z"/>
		</g>
	</g>
	<g>
		<g>
			<path d="M131.754,106.3c12.404,2.881,21.297,11.972,29.931,20.767c8.586,8.746,16.782,17.877,25.047,26.924
				c15.868,17.371,31.661,35.739,50.636,49.835c4.665,3.466,9.145-4.352,4.542-7.771c-19.452-14.45-35.523-33.873-51.779-51.672
				c-8.064-8.83-16.105-17.696-24.546-26.17c-9.013-9.048-18.682-17.627-31.44-20.591C128.499,96.31,126.101,104.987,131.754,106.3
				L131.754,106.3z"/>
		</g>
	</g>
	<g>
		<g>
			<path d="M115.44,128.548c20.216,20.343,39.833,41.279,60.466,61.207c20.809,20.098,43.459,37.625,66.174,55.468
				c22.184,17.426,43.026,36.55,64.32,55.042c21.894,19.012,43.656,38.193,64.332,58.536c4.139,4.072,10.506-2.289,6.364-6.364
				c-20.225-19.9-41.495-38.682-62.901-57.293c-21.76-18.919-43.101-38.43-65.751-56.285
				c-22.184-17.488-44.351-34.584-64.794-54.141c-21.187-20.269-41.183-41.74-61.846-62.534
				C117.709,118.064,111.346,124.429,115.44,128.548L115.44,128.548z"/>
		</g>
	</g>
	<g>
		<g>
			<path d="M102.788,159.147c3.729,1.835,5.633,9.818,7.19,13.379c2.957,6.767,7.928,12.591,12.571,18.264
				c11.556,14.117,24.359,27.416,37.037,40.521c25.908,26.781,53.564,51.806,81.64,76.279c4.354,3.795,10.747-2.544,6.364-6.364
				c-28.085-24.48-55.67-49.546-81.64-76.279c-12.721-13.094-25.348-26.491-37.037-40.521c-4.854-5.826-9.146-11.734-12.143-18.701
				c-2.098-4.877-4.295-11.818-9.439-14.35C102.143,148.823,97.58,156.584,102.788,159.147L102.788,159.147z"/>
		</g>
	</g>
</g>
</svg>
