<?xml version="1.0" encoding="utf-8"?>
<!-- Generator: Adobe Illustrator 18.0.0, SVG Export Plug-In . SVG Version: 6.00 Build 0)  -->
<!DOCTYPE svg PUBLIC "-//W3C//DTD SVG 1.1//EN" "http://www.w3.org/Graphics/SVG/1.1/DTD/svg11.dtd">
<svg version="1.1" id="Layer_1" xmlns="http://www.w3.org/2000/svg" xmlns:xlink="http://www.w3.org/1999/xlink" x="0px" y="0px"
	 width="500px" height="500px" viewBox="0 0 500 500" enable-background="new 0 0 500 500" xml:space="preserve">
<g>
	<g>
		<g>
			<path d="M37.609314,330.486084c-0.2774048-6.010437,5.1678467-10.3985596,8.4811401-14.892395
				c3.6860352-4.9993896,5.6720581-10.7225952,6.0023804-16.8984985c0.3416748-6.3879395-2.2268677-12.5131226-4.880188-18.1628418
				c-3.3828735-7.203125-6.4786987-14.3390503-9.1674805-21.8416748
				c-8.3936768-23.4210205-14.3753662-52.5784912-1.7554932-75.6369629
				c2.9012451-5.3010864,6.875061-9.8247681,11.2907715-13.9078979c5.2764282-4.8789673,11.7387695-8.1598511,16.8831787-13.2240601
				c4.9646606-4.8872681,9.3251343-9.8261719,15.4558105-13.3262939c6.5241699-3.7247925,14.2769165-5.2372437,21.6573486-6.0701294
				c14.9924927-1.6918335,30.0291138-1.4301758,44.9772339-3.8696289
				c7.4625244-1.2178345,14.7213135-3.3580933,22.1906738-4.5476685c8.0211792-1.2774658,16.2406616-1.3796997,24.3397217-1.1136475
				c35.9960938,1.1824951,70.9008789,11.4950562,105.701355,19.7675781
				c13.9710693,3.321106,27.4514771,8.362854,40.3766479,14.6105957
				c12.5252075,6.0543823,21.4301758,17.3840332,33.8948975,23.3440552
				c-1.8951416,4.4071655,5.1672363,8.0860596,8.2661133,3.6633301c3.1821899-4.541687,7.8480225-6.3347778,12.8927002-6.93927
				c0.8165283-0.0509033,1.6286011-0.1185303,2.4333496-0.2127686c3.6560669-0.1854858,7.4165649,0.1098022,10.8881226,0.3393555
				c1.4743652,0.0975342,2.9462891,0.1734619,4.4158936,0.2282104c-2.6595459,1.6796265-5.1459351,3.7351074-7.3717041,6.3898315
				c-2.3498535,2.8026123-4.3508301,5.8807983-6.6135254,8.7511597c-2.9558105,3.7496948-6.6696777,6.5910034-10.52771,9.3481445
				c-7.1488037,5.1088257-14.9732056,9.1708984-23.2304688,12.1520996
				c-5.4152832,1.9551392-3.0797119,10.6542358,2.3925781,8.6785278
				c15.260376-5.5096436,30.4398804-14.0778198,40.3369141-27.1935425
				c4.9962769-6.6210938,9.1196899-11.331543,17.0302734-14.3282471c6.980835-2.6444702,14.2672119-4.2582397,20.992981-7.5828247
				c4.6520386-2.2994995,1.3614502-9.5709229-3.4675293-8.2248535c-1.4628296,0.4077759-2.9198608,0.75354-4.3740234,1.0608521
				c1.8555298-1.2045898,3.7012329-2.4242554,5.506958-3.7052002c4.3533325-3.0881348,1.5521851-8.9080811-3.4675293-8.2249146
				c-14.9554443,2.0354614-28.0796509,11.6798706-43.0310669,13.3574219
				c-0.680481,0.0422974-1.3555908,0.0999756-2.0253296,0.1730347c-0.2363892,0.0145264-0.4716187,0.0340576-0.7089844,0.0443115
				c-0.4346924,0.0187988-0.8258057,0.100647-1.1953735,0.2106934c-4.6356201,0.7345581-8.9489746,2.3009033-12.680542,5.0241089
				c-10.9202881-3.9381714-19.366394-12.9642334-28.6062622-19.6746826
				c-9.9118652-7.1984863-22.5205688-11.5698853-34.0430298-15.5133057
				c-8.4882202-2.9049683-17.2424927-4.802124-25.9649048-6.8405151
				c-13.392334-3.1295776-26.6294556-6.8234863-40.0858154-9.7009888
				c-29.7940063-6.3710327-61.5304565-11.5354614-91.7442017-5.2287598
				c-7.7012329,1.6075439-15.2208862,3.4273682-23.0545044,4.3632202
				c-8.0909424,0.9665527-16.2423096,1.3256226-24.3778687,1.6790161
				c-13.6394653,0.5925293-27.3768311,2.3970337-39.175293,9.7507935
				c-8.0640869,5.0261841-13.4118652,13.1861572-21.1842651,18.5817261
				c-3.2285156,2.2412109-6.2614136,4.5689697-9.1154785,7.0675659c-0.0073242-0.050293-0.0159912-0.098999-0.0216675-0.151001
				c-0.1797485-1.6425171-0.3683472-3.2744751-0.6307983-4.906311c-0.4672852-2.9047241-2.2318726-5.3253174-4.1229248-7.475647
				c-2.0911255-2.3776855-5.0530396-4.71521-5.0039062-7.5214233c1.0956421-2.8539429,3.3399658-4.355835,5.8635254-6.5872192
				c0.3987427-0.3526001,0.7055664-0.7263184,0.934082-1.1109009c4.1620483-2.53302,9.0422363-4.182251,13.4227295-6.3598022
				c0.0040894,1.5473633,0.8726196,3.0922852,2.2133179,4.0953369c1.3334961,0.9976807,2.5830688,2.0693359,4.0892944,2.8002319
				c4.8969116,2.3760986,9.229187-4.3723755,5.3490601-7.2801514c0.5023804-0.5175171,0.9908447-1.0501099,1.4459839-1.619751
				c2.489624-3.1160889,0.9470215-7.362793-3.1820068-7.6820068c-0.0137939-0.0010376-0.0274048-0.0003662-0.0411987-0.0014038
				c0.0540771-0.0542603,0.1085815-0.1079102,0.1625977-0.1622314c4.0944824-4.1188965-2.2683105-10.4840088-6.3639526-6.3640137
				c-1.8859253,1.8971558-3.8169556,3.734436-5.5460205,5.7793579c-0.444397,0.5256348-0.8170776,1.1621704-1.0579224,1.840332
				c-8.7012329,4.9677124-19.8480835,7.3634033-24.8990479,16.7808228c-0.7938232,1.4801025-1.241272,3.0023804-1.3991699,4.5249023
				c-0.0117798,0.0464478-0.0258789,0.0893555-0.0374146,0.1361694c-1.1569824,4.7098389-0.8670654,9.7828369-0.2295532,14.5377197
				c0.8391113,6.2584839,2.6192017,14.760498,7.4471436,19.6978149
				c-9.0811768,13.4606323-11.1775513,30.3044434-10.019165,46.1851196
				c1.4797974,20.2869263,7.7387085,40.8508911,16.6282959,59.0963135
				c4.6012573,9.4437866,8.5136108,18.2129517,2.7999268,28.0981445
				c-4.3163452,7.4675293-11.7977295,12.43396-11.3596802,21.9255371
				C28.8759766,336.2646484,37.8771973,336.2905273,37.609314,330.486084z M32.5939941,158.4450073
				c0.2533569,0.7177734,0.3857422,1.5005493,0.4682617,2.2888794
				C32.8834839,159.9503174,32.7283325,159.1820068,32.5939941,158.4450073z"/>
			<path d="M479.1744995,226.7360229c-0.4993286-1.8882446-1.8161621-2.8671265-3.2853394-3.1246338
				c-0.7997437-0.3134155-1.7507935-0.3637085-2.8231201-0.0183105c-9.6018066,3.0924683-18.8091431,5.4069214-27.9537354-0.2079468
				c-7.1567993-4.3943481-11.3549805-13.3635254-16.3667603-19.8330688
				c-3.5505371-4.583252-9.8712158,1.8365479-6.3639526,6.3639526c6.5639038,8.4731445,11.4420776,17.8087158,21.2770386,23.0046997
				c8.6184082,4.5532227,18.1943359,3.2679443,27.1843872,0.7456055c-0.2026367,3.0019531-1.0703125,6.0953369-1.7193604,8.798584
				c-0.6831055,2.8446655-1.5146484,5.6671143-2.4611816,8.4467773c-7.8358765-2.7510986-15.9517212-1.8059692-24.3950195-0.7503052
				c-11.7888794,1.473938-23.7756348-0.1240234-35.6104126,0.1984863c-5.7918701,0.1578369-5.8071899,9.1582642,0,9
				c10.6190796-0.2894287,21.2260132,0.7267456,31.8408203,0.1347046c2.630188-0.1467285,5.2611694-0.4935913,7.8803101-0.8187256
				c-1.4036865,1.1710205-2.8262329,2.321167-4.3384399,3.3654175c-5.7400513,3.9639893-13.2919922,6.0727539-19.6174316,9.0245361
				c-6.2589722,2.9206543-12.4215698,6.038147-18.6605835,8.9910278c-9.5602417,4.5248413-23.5812378,6.6195068-33.105896,1.1080322
				c-6.9415283-4.0167847-9.1008301-14.3409424-8.1975098-21.7216187c0.7040405-5.7520752-8.3042603-5.6842041-9,0
				c-0.5578613,4.5580444-0.0559692,9.3359375,1.3549805,13.8203735c-0.2512207,0.0865479-0.5042114,0.1904297-0.7593384,0.3273926
				c-4.0306396,2.1637573-7.9849854,4.4655762-12.3328857,5.9475708c-4.0583496,1.3833008-8.031311,1.0778809-11.9244995,0.0557251
				c1.6688232-1.2664185,3.3602905-2.4360962,4.9081421-3.5283813c8.1987915-5.7855835,16.6357422-11.6888428,15.722168-22.9248657
				c-0.46698-5.7429199-9.4706421-5.7884521-9,0c0.4682617,5.7590332-2.6989136,9.0460205-7.1106567,12.2661133
				c-4.4626465,3.2572632-9.0095215,6.3065796-13.2143555,9.9110718c-0.6873169,0.5891724-1.3446045,1.2047729-1.984436,1.8344727
				c-0.5234985,0.3155518-0.9539795,0.7740479-1.2828979,1.3165894c-3.1077881,3.3904419-5.4724121,7.333313-6.5886841,11.8981934
				c-1.5238647,6.2315063-1.0170288,11.9071655-4.7680664,17.4708252
				c-5.7949219,8.5953369-16.3591919,12.5979614-21.6726074,21.8048096
				c-5.8569946,10.1486816,1.5105591,24.0891724,6.5754395,33.0490723c0.1157227,0.2493286,0.2615356,0.4950562,0.4370728,0.7363281
				c0.2858887,0.4328003,0.6107788,0.7843018,0.9637451,1.0611572c4.2127075,4.2301025,8.420105,8.4922485,12.1416016,13.1603394
				c-0.0988159,0.0192261-0.1963501,0.0345459-0.2972412,0.0601807c-3.6258545,0.9202271-7.2150269,2.1967163-10.9435425,2.6468506
				c-2.3986816,0.2896118-2.1032104,0.0947876-2.5995483-2.1524048c-0.5007324-2.2669067-0.9817505-4.4106445-2.4202271-6.2874146
				c-1.1509399-1.5015869-2.576416-2.2073975-4.0696411-2.1248779c0.0257568-1.1079712,0.034668-2.2146606-0.088623-3.305542
				c-0.3544922-3.1364746-1.8052368-5.6199341-3.7773438-8.0100098c-1.8109131-2.1947021-4.737915-3.6274414-7.0756226-5.1650391
				c-1.1481934-0.755188-2.1179199-1.7547607-3.0778198-2.729187c0.2756348-0.5734253,0.5522461-1.1463623,0.8328857-1.7173462
				c7.2368164-14.8305664,0.4263306-30.6167603-2.1795044-45.8005371
				c-1.1334839-6.6044922-2.5683594-13.5171509-6.3269043-19.1781616c-1.6122437-2.4284058-4.5751953-4.7671509-2.9890137-7.8192749
				c1.3733521-2.6426392,4.4859619-4.5473022,6.7919922-6.2786255c5.3626099-4.026001,9.0256348-8.3044434,11.0592651-14.7892456
				c2.2028809-7.0246582,1.135498-14.9013062-0.2576294-21.9611816c-1.1230469-5.6911621-9.796936-3.2754517-8.6784668,2.3925781
				c1.4313354,7.2536011,2.1403809,15.1615601-1.7566528,21.7950439c-3.036438,5.1685181-9.7503052,7.6516113-13.5084839,12.3267822
				c-3.9823608,4.9540405-4.0976562,10.4519653-0.7061157,15.7116699c1.9028931,2.9510498,3.8186035,5.3588867,5.0045166,8.7345581
				c0.359375,1.0230103,0.6657715,2.0646362,0.9458008,3.1147461c-11.8627319,3.3842163-22.7853394,9.4849243-34.8691406,12.2166748
				c-9.2822266,2.0983276-19.5540161,1.6636963-29.0031738,1.6228027
				c-4.6173096-0.0199585-9.2436523-0.1692505-13.8379517-0.6470337
				c-5.4901733-0.5709229-10.9328003-2.8681641-16.1055908-4.6603394
				c-14.9462891-5.1782837-29.3649292-11.7625732-44.171875-17.3119507
				c-5.4455566-2.0409546-7.7751465,6.6611938-2.3925171,8.6784668c14.8112183,5.5510864,29.2599487,12.024292,44.171875,17.3120117
				c10.97229,3.8907471,20.7550049,5.5198364,32.3360596,5.6288452c9.2573242,0.0871582,18.9046631,0.1513062,28.0715332-1.3475342
				c7.7359619-1.2648926,14.9525146-4.1105347,22.1611328-7.0002441c3.083374,5.3572388,6.1120605,12.6224976,0.2087402,16.7435913
				c-1.8126221,1.2653809-3.1899414,4.0960083-1.6143799,6.1568604c4.2181396,5.5174561,7.7576904,11.4958496,11.7695923,17.1582031
				c1.5940552,2.2497559,4.2161865,2.3867188,6.1463013,1.3999023c1.1611328,3.3724365,4.8011475,6.1207275,7.4330444,8.019165
				c2.6659546,1.9229736,6.1387329,3.1327515,6.5613403,6.87146c0.3809814,3.3704834-0.2611694,6.5803833,0.5498657,9.9484863
				c0.6486816,2.6939087,3.9003906,4.048584,6.3112793,2.8455811c0.239563,1.0844727,0.472168,2.175415,0.901123,3.1793213
				c1.1482544,2.6873779,3.1573486,4.4726562,5.9839478,5.2211914c5.6035156,1.4839478,12.2360229-1.3984985,17.6019897-2.7603149
				c2.0552979-0.5216064,3.036499-2.0130615,3.1842651-3.625c3.5151367,0.7200928,7.5459595-2.7745972,4.947876-6.4230347
				c-4.7181396-6.6257935-10.2903442-12.4638062-16.0094604-18.2174072
				c-3.0483398-5.418457-5.7325439-10.9469604-7.0178833-17.0714722c-1.1633911-5.5431519,1.5352173-9.0977173,5.3179932-12.7965088
				c7.0936279-6.9360352,16.0927124-11.8106079,19.8399658-21.5517578
				c2.1723022-5.6469116,1.2876587-12.0646973,3.8074341-17.5314331c0.4014893-0.8710938,0.9018555-1.7038574,1.4645386-2.5084229
				c6.2196045,2.2883301,12.3486938,3.482666,19.0800781,2.2175293c6.0668335-1.1402588,11.5913696-4.6350098,16.9609375-7.5177002
				c0.9324951,1.446106,1.9755249,2.8079224,3.125061,4.0565796c8.9193726,9.6882935,25.9119873,8.9519043,37.5236206,5.8403931
				c7.5992432-2.0363159,14.8046265-6.2136841,21.8674927-9.6314087c7.0938721-3.4328003,14.3495483-6.4471436,21.5180054-9.7062988
				c6.7335205-3.0614014,11.3178101-8.9767456,17.6903076-12.5617676c0.368927-0.2075806,0.6810303-0.4438477,0.951355-0.6978149
				c1.9102783,0.4490967,3.7996826,1.144165,5.65979,2.2119751c2.7454224,1.5760498,5.5296631-0.0255127,6.6104736-2.6893311
				C477.2106934,249.1392212,481.7713623,236.5563354,479.1744995,226.7360229z M265.0827026,340.5919189
				c-0.5063477,2.00354-1.4968262,3.8189697-2.3720093,5.6804199c-3.0975342-4.4434204-5.9515991-9.0494385-9.0906372-13.4613037
				c5.9981689-6.9819946,4.2166138-16.2583618-0.0459595-24.494873c2.3303223-0.8623657,4.6827393-1.6607666,7.0687866-2.3598633
				c1.3122559,7.2267456,2.8826904,14.2801514,4.512146,21.4407959
				C266.1618652,331.8217773,266.1933594,336.1971436,265.0827026,340.5919189z"/>
			<path d="M143.633606,255.1885986c5.425293,2.0877686,7.7505493-6.6166382,2.3925171-8.6784668
				c-13.1525269-5.0612793-27.7676392,4.3769531-36.7134399,13.3456421
				c-4.7506104,4.7626953-8.7001953,10.6224976-10.598999,17.1109619
				c-0.9702148,3.3153687-0.8772583,6.8544922-0.3606567,10.2312622c0.8400269,5.4906006,0.465332,7.380188-3.7371216,11.4233398
				c-2.8255005,2.7183228-5.8203735,5.3161011-8.8485107,7.8964233c-0.4559326,0.2453003-0.8682251,0.5841064-1.2081909,1.0280762
				c-11.2474365,9.5523071-22.7130737,19.0465088-27.5253296,33.6921997
				c-2.6906128,8.1885986,1.3537598,16.8613281,4.65625,24.2294312c1.6542358,3.6907959,3.7543335,6.7415161,6.9628906,9.2336426
				c1.7259521,1.3405151,3.5286865,2.5338135,5.138855,4.0119629c-2.5734253,0.4227295-5.1494751,0.8145752-7.7618408,0.901123
				c-4.4247437,0.1465454-7.6608276-5.6664429-11.3087158-7.793396c-1.6332397-0.9522705-3.5202637-1.2071533-5.3640137-1.3599243
				c-2.2486572-0.1863403-1.477478-4.2860107-1.6433716-6.0658569c-0.5540771-5.9439087-5.1466675-10.368042-8.4273071-14.9818726
				c-3.3326416-4.6870117-11.1426392-0.1989746-7.7712402,4.5424805c1.7766724,2.4986572,3.7553711,4.8423462,5.4919434,7.3693848
				c2.2323608,3.2485352,1.4098511,6.2171021,2.2177734,9.7962646c1.1843872,5.2469482,4.8692627,8.1698608,10.1322021,8.3395996
				c2.3484497,0.0757446,4.3799438,3.0203857,5.864563,4.5595093c1.9764404,2.0488892,4.2557983,3.5050659,7.0061646,4.2401733
				c6.3427734,1.6953125,13.5596924-1.2526245,19.9022827-1.6834717c3.9320679-0.2671509,5.9342651-4.6887817,3.1820068-7.6820068
				c-2.4735107-2.6900635-4.0924683-5.7923584-6.9646606-8.140564c-2.9162598-2.3840942-5.7962036-3.975708-7.6741943-7.3662109
				c-3.8226318-6.9013672-7.2903442-15.3345337-3.7279663-22.8999634
				c3.3494263-7.1132202,8.3048706-12.8381348,13.8451538-18.0452271c-1.6715088,8.9064331-2.3070679,17.7955322,0.1156616,27
				c1.4761353,5.6080933,10.1574707,3.2263794,8.6785278-2.3925781
				c-3.0994263-11.7754517-0.1975708-22.9960938,2.6310425-34.4725952c3.4048462-2.8358765,6.7836914-5.6875,9.9389648-8.7231445
				c5.5522461-5.3416748,6.3188477-10.5292358,5.0654907-17.8154297c-1.0469971-6.0864868,1.5616455-11.4530029,5.2290649-16.170105
				C118.9927979,261.4529419,132.2528076,250.8092041,143.633606,255.1885986z"/>
			<path d="M102.4128418,356.9655762c-1.9678345-1.4744873-5.0233154-0.3206177-6.1567993,1.6143799
				c-1.3465576,2.2987061-0.3444824,4.6891479,1.6143799,6.1568604c0.9551392,0.7156982,1.7223511,1.6071167,2.3469238,2.5930176
				c-3.2112427,0.2537231-6.8341064-0.7192993-9.8154297-0.6659546c-5.796936,0.1037598-5.8070068,9.1039429,0,9
				c6.2336426-0.1115723,12.4130249,1.8890991,18.1043091-1.6937866c1.7294922-1.0888062,2.5946655-3.0774536,2.0679932-5.0819092
				C109.276123,363.947876,106.472229,360.0071411,102.4128418,356.9655762z"/>
			<path d="M396.9377441,216.0257568c-2.0410156,1.3513184-2.9063721,3.9512329-1.6143799,6.1568604
				c1.1871338,2.0265503,4.1090698,2.9701538,6.1568604,1.6143799c0.2768555-0.1833496,0.5562134-0.3533325,0.8455811-0.5161133
				c0.12677-0.0684204,0.2572632-0.1293945,0.3867188-0.1923218c0.0394287-0.0146484,0.0614624-0.0223389,0.1130371-0.041748
				c0.1889038-0.0681763,0.3847046-0.1135864,0.5784912-0.1658325c0.0923462,1.9331665,1.1103516,3.6587524,3.2025757,4.2342529
				c2.1675415,0.5962524,5.1449585-0.7179565,5.5355225-3.1429443c0.7095337-4.4058838-0.6242676-8.4553223-5.192749-9.9312744
				C403.7192993,212.9974365,399.6599121,214.2233887,396.9377441,216.0257568z M403.4591675,221.600708
				c0.0001221-0.0004883,0.0001221-0.0007935,0.0002441-0.0012817c0.0007935,0.0025635,0.0010986,0.00354,0.0018921,0.0061646
				l-0.0001221,0.0014648C403.4604492,221.6047363,403.4598389,221.6029663,403.4591675,221.600708z"/>
		</g>
	</g>
</g>
</svg>
