<?xml version="1.0" encoding="utf-8"?>
<!-- Generator: Adobe Illustrator 18.0.0, SVG Export Plug-In . SVG Version: 6.00 Build 0)  -->
<!DOCTYPE svg PUBLIC "-//W3C//DTD SVG 1.1//EN" "http://www.w3.org/Graphics/SVG/1.1/DTD/svg11.dtd">
<svg version="1.1" id="Layer_1" xmlns="http://www.w3.org/2000/svg" xmlns:xlink="http://www.w3.org/1999/xlink" x="0px" y="0px"
	 width="500px" height="500px" viewBox="0 0 500 500" enable-background="new 0 0 500 500" xml:space="preserve">
<g>
	<g>
		<g>
			<path d="M113.05896,93.9296875c0.1173096,0.5827637,0.3738403,0.8510132,0.5716553,0.9121704
				c-0.1373291-0.2383423-0.2510986-0.4927979-0.3400269-0.7615356
				C113.2145996,94.0281982,113.1352539,93.9813843,113.05896,93.9296875z"/>
			<path d="M82.1204834,119.6233521c0.0115356,0.0369263,0.0210571,0.0634766,0.0279541,0.0783691
				c-0.0030518-0.0134888-0.0078125-0.0250854-0.0107422-0.0386353
				C82.1327515,119.651062,82.1279297,119.6398926,82.1204834,119.6233521z"/>
			<path d="M440.7469482,371.0934448c-3.3067017-13.4651489-12.0105591-25.520874-20.3046875-36.348877
				c-17.6976318-23.104126-40.6020508-42.0725098-62.977417-60.4620972
				c-38.6008911-31.7249146-81.8876343-57.4590454-118.3598022-91.8099365
				c-31.0144653-29.2106323-54.7420044-70.4318848-94.7246704-88.4360962
				c0.2241211-0.2203979,0.4664307-0.4386597,0.7367554-0.6539917c1.7670898-1.4076538,1.7796021-4.9588623,0-6.3639526
				c-12.777832-10.0886841-26.4304199-21.4727783-42.8622437-24.6080933
				c-5.6704712-1.0819702-8.0896606,7.5914917-2.3925781,8.6785278
				C113.317749,73.656311,124.769165,82.3339844,135.40448,90.7348633c-0.2579956,0.4158325-0.4959106,0.8408813-0.706543,1.2796631
				c-1.4298096,1.1374512-2.0368652,3.3571777-1.4562988,5.2632446c-0.0406494,0.3219604-0.0888672,0.6379395-0.1174316,0.9697266
				c-0.1663208,1.932373,0.1433105,3.947937,0.3037109,5.8721313c0.038208,0.4580688,0.0004272,0.8087769-0.0350952,1.0505371
				c-0.4508667,0.2748413-0.9865723,0.5093994-1.3215332,0.7005615c-3.159729,1.8037109-6.4000244,3.244812-8.9815063,5.8730469
				c-1.3465576,1.3709717-2.8590698,3.0958862-3.4074097,4.9785156c-0.4539185,1.5587769,0.5808716,1.8727417-1.0488892,1.6522827
				c-1.1004028-0.1488647-2.1986694-0.1832275-3.2919922,0.1175537c-7.949585,2.1866455-10.0485229,9.194519-10.7107544,16.5971069
				c-0.354126,3.9589233-5.7321167-2.1160889-7.0864258-3.4075928c-2.7427979-2.6154175-5.2369385-5.4337158-8.2600708-7.7373657
				c-2.6552734-2.0233154-7.0354004,0.6986084-6.7712402,3.8856201c0.1478271,1.7832642-0.7560425,3.0551758-1.9163208,4.3561401
				c-0.5269165,0.5910645-1.1361084,1.0792847-1.8276978,1.4645386c-0.2288818,0.1485596-0.3674927,0.3009644-0.4713745,0.449707
				c-0.1859741-3.3959961,0.9944458-6.7904663,0.713623-10.1994019c-0.6680908-8.1107178-6.0498047-16.2270508-11.2993164-22.703125
				c0.4916382-0.6400757,1.003418-1.2501831,1.5370483-1.8295288c2.0322266,3.2799072,4.1390991,6.5149536,6.2373047,9.7504883
				c1.5878296,2.4483643,3.180542,4.8935547,4.7442017,7.3574829c0.5316772,0.8378296,1.0515137,1.6828003,1.559082,2.5354614
				c0.187439,0.3148804,0.2841797,0.5074463,0.3309326,0.6116943c-0.0142212-0.0454102-0.0293579-0.100647-0.0419312-0.1730347
				c0.0134888,0.0777588,0.0428467,0.1380005,0.0591431,0.2127686c0.0219727,0.0535889,0.022644,0.064209,0.0107422,0.0386353
				c1.2126465,5.3623657,9.576355,2.9395142,8.6086426-2.6439209c-0.6182861-3.5673828-4.28479-7.5246582-6.1799316-10.447937
				c-2.8037109-4.3248291-5.6502075-8.6320801-8.333252-13.0360107c0.8687134-0.5834961,1.7571411-1.15448,2.6619873-1.7225952
				c5.6460571,9.6193237,16.0664062,15.7111206,22.829895,24.4840698c3.4900513,4.5269165,11.3151245,0.0542603,7.7712402-4.5424805
				c-3.6245117-4.701355-8.0183105-8.6630249-12.2982788-12.7536621
				c-3.6661377-3.5040283-8.4865112-7.4717407-10.9348755-12.1685791c1.9851685-1.5894165,3.7992554-3.3291016,5.4287109-5.2454834
				c4.7164307,2.8536987,9.5106812,5.5648804,14.3456421,8.2177124c1.8641357,1.0228271,3.7250977,2.0500488,5.552124,3.1381836
				c0.4991455,0.2972412,0.9783325,0.6234741,1.4586182,0.9486694c-0.102478-0.5092773-0.0988159-1.2553711,0.1547852-2.331543
				c-0.2172241,0.9216919-0.1640625,1.7546387,0.0768433,2.4821777c0.0692139,0.0474243,0.1419067,0.0894775,0.2109375,0.137207
				c0.56604,0.3914185,0.4106445,0.7113037,0.1290894,0.6243286c1.7681885,3.0685425,7.2282104,3.5339966,8.2616577-0.8511963
				c1.0863037-4.6091919-3.1178589-7.213562-6.5186768-9.2389526c-6.1781006-3.6794434-12.5526123-6.9936523-18.7363892-10.6640015
				c2.2439575-5.0823975-5.3220825-9.4352417-7.8707886-4.3153076C85.34375,76.6481323,80.2186279,80.5,73.8125,84.3938599
				c-1.739563,1.057373-3.3978271,2.1655884-4.9794922,3.3395386c-1.1404419,0.3827515-2.1598511,1.1769409-2.757019,2.2138672
				c-3.0370483,2.6187744-5.7010498,5.6069946-7.864502,9.2485352c-1.0913086,1.8369141-0.6205444,3.9124756,0.7036133,5.4532471
				c4.7747192,5.555481,8.2210693,11.31073,10.6067505,18.2459106c1.6123657,4.6872559-0.8846436,9.8424072,0.2587891,14.7579346
				c0.9384766,4.0343628,4.7396851,5.6228027,8.4459839,5.3638306c0.3739624,1.6891479,0.3723145,3.3488159,0.5803223,5.2111206
				c0.3223877,2.8859253,1.449646,5.4396973,2.7312622,8.0186768c3.0999146,6.2382202,7.6814575,11.7681885,12.1265869,17.0811768
				c9.4986572,11.3532104,18.9730835,22.7507324,28.6343384,33.9671631
				c20.5084839,23.8098145,42.9664307,45.2440796,65.5725708,66.9983521
				c22.8341675,21.9736938,44.4628906,45.1647949,65.8952637,68.4944458
				c20.9714355,22.8278809,41.2736816,46.9154053,64.4163208,67.6056519
				c10.0614624,8.9953003,21.4968872,16.4546509,34.4382935,20.5129395
				c10.2449951,3.2127686,21.6802979,4.6331177,32.302063,5.9920654c10.3798218,1.3280029,21.4208984,1.6662598,31.140625-2.7310791
				c9.9039307-4.4806519,16.536499-16.7628784,20.5351562-26.2440186
				C441.6190186,396.0213623,443.8703003,383.8119507,440.7469482,371.0934448z M419.9419556,418.9939575
				c-7.3095703,9.2788086-16.9304199,10.2161255-28.1085815,9.5673218
				c-10.7730103-0.6253052-21.4391479-3.0515747-32.0076294-5.109436
				c-13.954895-2.7173462-26.1088867-11.2245483-36.5114746-20.5247803
				c-23.1810303-20.7246094-43.4636841-45.0380859-64.4695435-67.9033813
				c-15.43573-16.8021851-31.0109863-33.4785156-47.0374146-49.72052
				c-16.3565063-16.5765381-33.7723999-32.0376587-50.1691284-48.5637207
				c-16.2523193-16.3806152-31.5180054-33.7233887-46.2133179-51.505188
				c-6.6008301-7.9873047-13.6710815-15.6762695-19.9492798-23.9177246
				c-2.9838257-3.9169312-6.0691528-8.2932129-7.5675049-13.0244141c-0.543335-1.7155762-0.2759399-3.7227783-0.505188-5.5004272
				c-0.1721191-1.3341064-0.5253906-2.5546875-0.9696045-3.7531738c1.0111084-0.932373,1.9299316-1.9810181,2.7020264-3.1190186
				c4.2208252,4.5291138,8.7853394,9.9035645,14.7088013,9.7025757c4.6816406-0.1588745,8.0900269-2.7442627,9.338501-7.2404785
				c0.7210083-2.5966797-0.0672607-8.539856,2.5020752-10.1936646c2.0513916-1.3204346,2.505127-0.6574097,5.1019897-0.6209717
				c2.1984253,0.0308838,4.9974365-1.7555542,5.9109497-3.7503052c1.0698853-2.3359375,1.5612793-4.4924316,3.4066772-6.3712769
				c1.3773193-1.4022217,3.6387939-2.2277222,5.3348389-3.1530151c0.6185913-0.3374634,1.234314-0.6781616,1.829895-1.0350952
				c11.9916382,2.8084106,20.5576172,11.7003174,28.8887329,20.2184448
				c8.036377,8.2168579,15.7236938,16.7755737,23.4742432,25.2598877
				c15.1125488,16.543335,30.1560669,34.0117188,48.2224731,47.4415283c4.6640625,3.467041,9.1435547-4.3510132,4.5424805-7.7712402
				c-18.5549316-13.7929077-33.8842163-32.3278809-49.3933716-49.3105469
				c-7.553833-8.2714844-15.0894165-16.5704956-22.9825439-24.5219116
				c-8.0219116-8.0811157-16.578125-15.7913208-27.5305176-19.2104492c0.017334-0.8260498-0.0247803-1.6340332-0.0811768-2.4245605
				c21.1194458,9.9666748,37.8049927,28.0410767,53.0333252,45.2628174
				c8.4174194,9.5192871,16.5202637,19.3203125,25.2282104,28.5797119
				c9.7220459,10.3375854,20.2850342,19.861145,31.1807861,28.9395142
				c21.675293,18.0598755,44.9394531,34.0975342,67.6993408,50.7317505
				c23.4604492,17.1462402,46.0998535,35.4802246,67.3822021,55.2818604
				c10.9085083,10.1495972,21.1508789,21.0400391,29.8847656,33.1325073
				c8.3143921,11.5115356,16.439209,24.296814,16.5822754,38.9535522
				C433.5187378,395.9575806,427.3224487,409.6251221,419.9419556,418.9939575z"/>
			<path d="M310.7064209,292.3327637c-20.8403931-18.1135864-41.2800293-36.7734375-62.9901123-53.8468628
				c-21.0246582-16.5344238-41.9491577-32.7867432-61.2880859-51.319458
				c-20.0130615-19.1787109-38.9203491-39.4711914-58.4544067-59.1291504
				c-4.0949097-4.1208496-10.4576416,2.2443848-6.3639526,6.3639526
				c19.0916748,19.2127686,37.6246338,38.9783936,57.0917969,57.8168945
				c19.7024536,19.0661011,41.104126,35.7437744,62.6506958,52.6317139
				c21.237854,16.6459351,41.1784058,34.9103394,61.5484009,52.5946045
				c21.1015625,18.3193359,42.0853271,36.7927856,62.012207,56.3961792
				c4.1390381,4.0717773,10.5062256-2.2889404,6.3639526-6.3639526
				C351.8035278,328.319458,331.317688,310.2471924,310.7064209,292.3327637z"/>
			<path d="M247.8526611,298.6715088c-26.9516602-23.4933472-53.420105-47.5532837-78.3215332-73.2286377
				c-12.1953735-12.5744019-24.3466187-25.4251709-35.4902344-38.947998
				c-4.4630127-5.4158936-8.2376709-10.8721313-10.9990234-17.3074341
				c-1.9760132-4.6050415-4.0817261-10.9581909-8.9050903-13.3624268c-5.1772461-2.5806274-9.7373657,5.1818237-4.5424805,7.7712402
				c3.6832886,1.8359985,5.560791,9.9486084,7.1394653,13.4864502c2.8201904,6.3200684,7.7111206,11.8540649,12.0778809,17.1530762
				c11.1531372,13.5343628,23.4403687,26.3165894,35.644104,38.8996582
				c24.4655762,25.2259521,50.5544434,48.8190918,77.032959,71.9000244
				C245.8426514,308.8306885,252.2354736,302.4919434,247.8526611,298.6715088z"/>
		</g>
	</g>
</g>
</svg>
