<?xml version="1.0" encoding="utf-8"?>
<!-- Generator: Adobe Illustrator 18.0.0, SVG Export Plug-In . SVG Version: 6.00 Build 0)  -->
<!DOCTYPE svg PUBLIC "-//W3C//DTD SVG 1.1//EN" "http://www.w3.org/Graphics/SVG/1.1/DTD/svg11.dtd">
<svg version="1.1" id="Layer_1" xmlns="http://www.w3.org/2000/svg" xmlns:xlink="http://www.w3.org/1999/xlink" x="0px" y="0px"
	 width="500px" height="500px" viewBox="0 0 500 500" enable-background="new 0 0 500 500" xml:space="preserve">
<g>
	<g>
		<g>
			<path d="M37.609,330.486c-0.277-6.01,5.168-10.399,8.481-14.892c3.686-4.999,5.672-10.723,6.002-16.898
				c0.342-6.388-2.227-12.513-4.88-18.163c-3.383-7.203-6.479-14.339-9.167-21.842c-8.394-23.421-14.375-52.578-1.755-75.637
				c2.901-5.301,6.875-9.825,11.291-13.908c5.276-4.879,11.739-8.16,16.883-13.224c4.965-4.887,9.325-9.826,15.456-13.326
				c6.524-3.725,14.277-5.237,21.657-6.07c14.992-1.692,30.029-1.43,44.977-3.87c7.463-1.218,14.721-3.358,22.191-4.548
				c8.021-1.277,16.241-1.38,24.34-1.114c35.996,1.182,70.901,11.495,105.701,19.768c13.971,3.321,27.451,8.363,40.377,14.611
				c12.525,6.054,21.43,17.384,33.895,23.344c-1.895,4.407,5.167,8.086,8.266,3.663c3.182-4.542,7.848-6.335,12.893-6.939
				c0.817-0.051,1.629-0.119,2.433-0.213c3.656-0.185,7.417,0.11,10.888,0.339c1.474,0.098,2.946,0.173,4.416,0.228
				c-2.66,1.68-5.146,3.735-7.372,6.39c-2.35,2.803-4.351,5.881-6.614,8.751c-2.956,3.75-6.67,6.591-10.528,9.348
				c-7.149,5.109-14.973,9.171-23.23,12.152c-5.415,1.955-3.08,10.654,2.393,8.679c15.26-5.51,30.44-14.078,40.337-27.194
				c4.996-6.621,9.12-11.332,17.03-14.328c6.981-2.644,14.267-4.258,20.993-7.583c4.652-2.299,1.361-9.571-3.468-8.225
				c-1.463,0.408-2.92,0.754-4.374,1.061c1.856-1.205,3.701-2.424,5.507-3.705c4.353-3.088,1.552-8.908-3.468-8.225
				c-14.955,2.035-28.08,11.68-43.031,13.357c-0.68,0.042-1.356,0.1-2.025,0.173c-0.236,0.015-0.472,0.034-0.709,0.044
				c-0.435,0.019-0.826,0.101-1.195,0.211c-4.636,0.735-8.949,2.301-12.681,5.024c-10.92-3.938-19.366-12.964-28.606-19.675
				c-9.912-7.198-22.521-11.57-34.043-15.513c-8.488-2.905-17.242-4.802-25.965-6.841c-13.392-3.13-26.629-6.823-40.086-9.701
				c-29.794-6.371-61.53-11.535-91.744-5.229c-7.701,1.608-15.221,3.427-23.055,4.363c-8.091,0.967-16.242,1.326-24.378,1.679
				c-13.639,0.593-27.377,2.397-39.175,9.751c-8.064,5.026-13.412,13.186-21.184,18.582c-3.229,2.241-6.261,4.569-9.115,7.068
				c-0.007-0.05-0.016-0.099-0.022-0.151c-0.18-1.643-0.368-3.274-0.631-4.906c-0.467-2.905-2.232-5.325-4.123-7.476
				c-2.091-2.378-5.053-4.715-5.004-7.521c1.096-2.854,3.34-4.356,5.864-6.587c0.399-0.353,0.706-0.726,0.934-1.111
				c4.162-2.533,9.042-4.182,13.423-6.36c0.004,1.547,0.873,3.092,2.213,4.095c1.333,0.998,2.583,2.069,4.089,2.8
				c4.897,2.376,9.229-4.372,5.349-7.28c0.502-0.518,0.991-1.05,1.446-1.62c2.49-3.116,0.947-7.363-3.182-7.682
				c-0.014-0.001-0.027,0-0.041-0.001c0.054-0.054,0.109-0.108,0.163-0.162c4.094-4.119-2.268-10.484-6.364-6.364
				c-1.886,1.897-3.817,3.734-5.546,5.779c-0.444,0.526-0.817,1.162-1.058,1.84c-8.701,4.968-19.848,7.363-24.899,16.781
				c-0.794,1.48-1.241,3.002-1.399,4.525c-0.012,0.046-0.026,0.089-0.037,0.136c-1.157,4.71-0.867,9.783-0.23,14.538
				c0.839,6.258,2.619,14.76,7.447,19.698c-9.081,13.461-11.178,30.304-10.019,46.185c1.48,20.287,7.739,40.851,16.628,59.096
				c4.601,9.444,8.514,18.213,2.8,28.098c-4.316,7.468-11.798,12.434-11.36,21.926C28.876,336.265,37.877,336.291,37.609,330.486z
				 M32.594,158.445c0.253,0.718,0.386,1.501,0.468,2.289C32.883,159.95,32.728,159.182,32.594,158.445z"/>
			<path d="M479.174,226.736c-0.499-1.888-1.816-2.867-3.285-3.125c-0.8-0.313-1.751-0.364-2.823-0.018
				c-9.602,3.092-18.809,5.407-27.954-0.208c-7.157-4.394-11.355-13.364-16.367-19.833c-3.551-4.583-9.871,1.837-6.364,6.364
				c6.564,8.473,11.442,17.809,21.277,23.005c8.618,4.553,18.194,3.268,27.184,0.746c-0.203,3.002-1.07,6.095-1.719,8.799
				c-0.683,2.845-1.515,5.667-2.461,8.447c-7.836-2.751-15.952-1.806-24.395-0.75c-11.789,1.474-23.776-0.124-35.61,0.198
				c-5.792,0.158-5.807,9.158,0,9c10.619-0.289,21.226,0.727,31.841,0.135c2.63-0.147,5.261-0.494,7.88-0.819
				c-1.404,1.171-2.826,2.321-4.338,3.365c-5.74,3.964-13.292,6.073-19.617,9.025c-6.259,2.921-12.422,6.038-18.661,8.991
				c-9.56,4.525-23.581,6.62-33.106,1.108c-6.942-4.017-9.101-14.341-8.198-21.722c0.704-5.752-8.304-5.684-9,0
				c-0.558,4.558-0.056,9.336,1.355,13.82c-0.251,0.087-0.504,0.19-0.759,0.327c-4.031,2.164-7.985,4.466-12.333,5.948
				c-4.058,1.383-8.031,1.078-11.924,0.056c1.669-1.266,3.36-2.436,4.908-3.528c8.199-5.786,16.636-11.689,15.722-22.925
				c-0.467-5.743-9.471-5.788-9,0c0.468,5.759-2.699,9.046-7.111,12.266c-4.463,3.257-9.01,6.307-13.214,9.911
				c-0.687,0.589-1.345,1.205-1.984,1.834c-0.523,0.316-0.954,0.774-1.283,1.317c-3.108,3.39-5.472,7.333-6.589,11.898
				c-1.524,6.232-1.017,11.907-4.768,17.471c-5.795,8.595-16.359,12.598-21.673,21.805c-5.857,10.149,1.511,24.089,6.575,33.049
				c0.116,0.249,0.262,0.495,0.437,0.736c0.286,0.433,0.611,0.784,0.964,1.061c4.213,4.23,8.42,8.492,12.142,13.16
				c-0.099,0.019-0.196,0.035-0.297,0.06c-3.626,0.92-7.215,2.197-10.944,2.647c-2.399,0.29-2.103,0.095-2.6-2.152
				c-0.501-2.267-0.982-4.411-2.42-6.287c-1.151-1.502-2.576-2.207-4.07-2.125c0.026-1.108,0.035-2.215-0.089-3.306
				c-0.354-3.136-1.805-5.62-3.777-8.01c-1.811-2.195-4.738-3.627-7.076-5.165c-1.148-0.755-2.118-1.755-3.078-2.729
				c0.276-0.573,0.552-1.146,0.833-1.717c7.237-14.831,0.426-30.617-2.18-45.801c-1.133-6.604-2.568-13.517-6.327-19.178
				c-1.612-2.428-4.575-4.767-2.989-7.819c1.373-2.643,4.486-4.547,6.792-6.279c5.363-4.026,9.026-8.304,11.059-14.789
				c2.203-7.025,1.135-14.901-0.258-21.961c-1.123-5.691-9.797-3.275-8.678,2.393c1.431,7.254,2.14,15.162-1.757,21.795
				c-3.036,5.169-9.75,7.652-13.508,12.327c-3.982,4.954-4.098,10.452-0.706,15.712c1.903,2.951,3.819,5.359,5.005,8.735
				c0.359,1.023,0.666,2.065,0.946,3.115c-11.863,3.384-22.785,9.485-34.869,12.217c-9.282,2.098-19.554,1.664-29.003,1.623
				c-4.617-0.02-9.244-0.169-13.838-0.647c-5.49-0.571-10.933-2.868-16.106-4.66c-14.946-5.178-29.365-11.763-44.172-17.312
				c-5.446-2.041-7.775,6.661-2.393,8.678c14.811,5.551,29.26,12.024,44.172,17.312c10.972,3.891,20.755,5.52,32.336,5.629
				c9.257,0.087,18.905,0.151,28.072-1.348c7.736-1.265,14.953-4.111,22.161-7c3.083,5.357,6.112,12.622,0.209,16.744
				c-1.813,1.265-3.19,4.096-1.614,6.157c4.218,5.517,7.758,11.496,11.77,17.158c1.594,2.25,4.216,2.387,6.146,1.4
				c1.161,3.372,4.801,6.121,7.433,8.019c2.666,1.923,6.139,3.133,6.561,6.871c0.381,3.37-0.261,6.58,0.55,9.948
				c0.649,2.694,3.9,4.049,6.311,2.846c0.24,1.084,0.472,2.175,0.901,3.179c1.148,2.687,3.157,4.473,5.984,5.221
				c5.604,1.484,12.236-1.398,17.602-2.76c2.055-0.522,3.036-2.013,3.184-3.625c3.515,0.72,7.546-2.775,4.948-6.423
				c-4.718-6.626-10.29-12.464-16.009-18.217c-3.048-5.418-5.733-10.947-7.018-17.071c-1.163-5.543,1.535-9.098,5.318-12.797
				c7.094-6.936,16.093-11.811,19.84-21.552c2.172-5.647,1.288-12.065,3.807-17.531c0.401-0.871,0.902-1.704,1.465-2.508
				c6.22,2.288,12.349,3.483,19.08,2.218c6.067-1.14,11.591-4.635,16.961-7.518c0.932,1.446,1.976,2.808,3.125,4.057
				c8.919,9.688,25.912,8.952,37.524,5.84c7.599-2.036,14.805-6.214,21.867-9.631c7.094-3.433,14.35-6.447,21.518-9.706
				c6.734-3.061,11.318-8.977,17.69-12.562c0.369-0.208,0.681-0.444,0.951-0.698c1.91,0.449,3.8,1.144,5.66,2.212
				c2.745,1.576,5.53-0.026,6.61-2.689C477.211,249.139,481.771,236.556,479.174,226.736z M265.083,340.592
				c-0.506,2.004-1.497,3.819-2.372,5.68c-3.098-4.443-5.952-9.049-9.091-13.461c5.998-6.982,4.217-16.258-0.046-24.495
				c2.33-0.862,4.683-1.661,7.069-2.36c1.312,7.227,2.883,14.28,4.512,21.441C266.162,331.822,266.193,336.197,265.083,340.592z"/>
			<path d="M143.634,255.189c5.425,2.088,7.751-6.617,2.393-8.678c-13.153-5.061-27.768,4.377-36.713,13.346
				c-4.751,4.763-8.7,10.622-10.599,17.111c-0.97,3.315-0.877,6.854-0.361,10.231c0.84,5.491,0.465,7.38-3.737,11.423
				c-2.826,2.718-5.82,5.316-8.849,7.896c-0.456,0.245-0.868,0.584-1.208,1.028c-11.247,9.552-22.713,19.047-27.525,33.692
				c-2.691,8.189,1.354,16.861,4.656,24.229c1.654,3.691,3.754,6.742,6.963,9.234c1.726,1.341,3.529,2.534,5.139,4.012
				c-2.573,0.423-5.149,0.815-7.762,0.901c-4.425,0.147-7.661-5.666-11.309-7.793c-1.633-0.952-3.52-1.207-5.364-1.36
				c-2.249-0.186-1.477-4.286-1.643-6.066c-0.554-5.944-5.147-10.368-8.427-14.982c-3.333-4.687-11.143-0.199-7.771,4.542
				c1.777,2.499,3.755,4.842,5.492,7.369c2.232,3.249,1.41,6.217,2.218,9.796c1.184,5.247,4.869,8.17,10.132,8.34
				c2.348,0.076,4.38,3.02,5.865,4.56c1.976,2.049,4.256,3.505,7.006,4.24c6.343,1.695,13.56-1.253,19.902-1.683
				c3.932-0.267,5.934-4.689,3.182-7.682c-2.474-2.69-4.092-5.792-6.965-8.141c-2.916-2.384-5.796-3.976-7.674-7.366
				c-3.823-6.901-7.29-15.335-3.728-22.9c3.349-7.113,8.305-12.838,13.845-18.045c-1.672,8.906-2.307,17.796,0.116,27
				c1.476,5.608,10.157,3.226,8.679-2.393c-3.099-11.775-0.198-22.996,2.631-34.473c3.405-2.836,6.784-5.688,9.939-8.723
				c5.552-5.342,6.319-10.529,5.065-17.815c-1.047-6.086,1.562-11.453,5.229-16.17C118.993,261.453,132.253,250.809,143.634,255.189
				z"/>
			<path d="M102.413,356.966c-1.968-1.474-5.023-0.321-6.157,1.614c-1.347,2.299-0.344,4.689,1.614,6.157
				c0.955,0.716,1.722,1.607,2.347,2.593c-3.211,0.254-6.834-0.719-9.815-0.666c-5.797,0.104-5.807,9.104,0,9
				c6.234-0.112,12.413,1.889,18.104-1.694c1.729-1.089,2.595-3.077,2.068-5.082C109.276,363.948,106.472,360.007,102.413,356.966z"
				/>
			<path d="M396.938,216.026c-2.041,1.351-2.906,3.951-1.614,6.157c1.187,2.027,4.109,2.97,6.157,1.614
				c0.277-0.183,0.556-0.353,0.846-0.516c0.127-0.068,0.257-0.129,0.387-0.192c0.039-0.015,0.061-0.022,0.113-0.042
				c0.189-0.068,0.385-0.114,0.578-0.166c0.092,1.933,1.11,3.659,3.203,4.234c2.168,0.596,5.145-0.718,5.536-3.143
				c0.71-4.406-0.624-8.455-5.193-9.931C403.719,212.997,399.66,214.223,396.938,216.026z M403.459,221.601c0,0,0-0.001,0-0.001
				c0.001,0.003,0.001,0.004,0.002,0.006c0,0,0,0.001,0,0.001C403.46,221.605,403.46,221.603,403.459,221.601z"/>
		</g>
	</g>
</g>
</svg>
