<?xml version="1.0" encoding="utf-8"?>
<!-- Generator: Adobe Illustrator 18.0.0, SVG Export Plug-In . SVG Version: 6.00 Build 0)  -->
<!DOCTYPE svg PUBLIC "-//W3C//DTD SVG 1.1//EN" "http://www.w3.org/Graphics/SVG/1.1/DTD/svg11.dtd">
<svg version="1.1" id="Layer_1" xmlns="http://www.w3.org/2000/svg" xmlns:xlink="http://www.w3.org/1999/xlink" x="0px" y="0px"
	 width="500px" height="500px" viewBox="0 0 500 500" enable-background="new 0 0 500 500" xml:space="preserve">
<g>
	<g>
		<g>
			<path d="M113.897,415.468c15.162-25.941,8.919-54.673,7.327-82.972c-1.479-26.297,3.785-52.677,14.832-76.552
				c23.033-49.778,69.803-84.221,116.245-110.639c27.605-15.703,56.614-28.86,85.986-40.875
				c33.742-13.803,66.925-29.291,101.181-41.782c-1.845-1.845-3.69-3.69-5.536-5.536c-9.05,30.182-12.907,61.43-17.184,92.551
				c-3.697,26.9-9.072,53.288-18.12,78.942c-8.854,25.105-21.239,49.006-37.287,70.273c-16.585,21.979-38.247,40.007-60.805,55.563
				c-18.79,12.957-39.047,23.93-60.401,32.022c-21.021,7.965-42.714,11.772-64.939,14.436
				c-41.061,4.921-84.203,9.191-116.648,37.609c-4.374,3.831,2.018,10.171,6.364,6.364c40.557-35.524,97.651-29.872,147.044-40.6
				c27.372-5.945,53.439-17.57,77.386-31.924c23.447-14.054,45.961-31.245,64.786-51.115
				c30.123-31.795,49.321-72.678,60.774-114.582c13.202-48.305,13.29-99.063,27.708-147.147c0.932-3.108-2.285-6.721-5.536-5.536
				c-30.179,11.004-59.191,24.865-88.969,36.865c-25.431,10.248-50.65,20.933-75.16,33.251
				c-47.96,24.103-96.308,54.993-128.14,99.152c-18.087,25.092-29.144,54.654-32.116,85.411c-1.609,16.658,0.362,33.05,1.755,49.635
				c1.53,18.213,1.144,36.45-8.32,52.641C103.19,415.947,110.97,420.475,113.897,415.468L113.897,415.468z"/>
		</g>
	</g>
	<g>
		<g>
			<path d="M114.512,415.587c18.094-21.733,40.682-38.934,61.213-58.205c21.982-20.632,40.392-44.88,58.946-68.54
				c18.67-23.809,37.633-46.906,59.419-67.966c21.735-21.011,44.946-40.424,67.371-60.681c4.315-3.898-2.07-10.243-6.364-6.364
				c-21.981,19.855-44.65,38.951-66.066,59.427c-21.881,20.92-40.905,43.955-59.559,67.735
				c-18.605,23.717-37.022,47.953-58.857,68.838c-20.779,19.875-43.985,37.194-62.466,59.392
				C104.463,413.649,110.795,420.052,114.512,415.587L114.512,415.587z"/>
		</g>
	</g>
</g>
</svg>
