<?xml version="1.0" encoding="utf-8"?>
<!-- Generator: Adobe Illustrator 18.0.0, SVG Export Plug-In . SVG Version: 6.00 Build 0)  -->
<!DOCTYPE svg PUBLIC "-//W3C//DTD SVG 1.1//EN" "http://www.w3.org/Graphics/SVG/1.1/DTD/svg11.dtd">
<svg version="1.1" id="Layer_1" xmlns="http://www.w3.org/2000/svg" xmlns:xlink="http://www.w3.org/1999/xlink" x="0px" y="0px"
	 width="500px" height="500px" viewBox="0 0 500 500" enable-background="new 0 0 500 500" xml:space="preserve">
<g>
	<g>
		<g>
			<path d="M348.056,255.66c-4.529,4.683-15.28-1.17-20.521-2.35c-4.396-0.99-6.264,5.758-1.861,6.75
				c8.441,1.901,19.975,8.157,27.332,0.55C356.144,257.366,351.199,252.411,348.056,255.66L348.056,255.66z"/>
		</g>
	</g>
	<g>
		<g>
			<g>
				<path d="M209.872,189.13c17.145,0.007,31.754,11.525,48.635,13.49c18.973,2.208,38.153-2.628,57.016,0.886
					c4.411,0.822,6.295-5.924,1.861-6.75c-18.935-3.528-37.984,0.831-57.013-0.919c-17.653-1.624-32.511-13.7-50.5-13.707
					C205.358,182.129,205.358,189.129,209.872,189.13L209.872,189.13z"/>
			</g>
		</g>
		<g>
			<g>
				<path d="M275.851,200.731c4.121,0.462,8.16,1.419,12.326,1.45c4.515,0.033,4.512-6.967,0-7c-4.155-0.031-8.21-0.988-12.326-1.45
					c-1.9-0.213-3.5,1.753-3.5,3.5C272.351,199.3,273.956,200.519,275.851,200.731L275.851,200.731z"/>
			</g>
		</g>
		<g>
			<g>
				<path d="M291.077,198.556c4.514,0,4.514-7,0-7C286.563,191.556,286.563,198.556,291.077,198.556L291.077,198.556z"/>
			</g>
		</g>
		<g>
			<g>
				<path d="M291.077,198.556c3.657,0.196,7.248,0.987,10.876,1.45c1.897,0.242,3.5-1.775,3.5-3.5c0-2.091-1.608-3.259-3.5-3.5
					c-3.634-0.464-7.208-1.254-10.876-1.45C286.564,191.315,286.588,198.316,291.077,198.556L291.077,198.556z"/>
			</g>
		</g>
		<g>
			<g>
				<path d="M330.749,200.606c23.35,6.903,47.703-4.261,71.055,2.175c4.359,1.202,6.207-5.552,1.861-6.75
					c-23.433-6.459-47.843,4.687-71.055-2.175C328.271,192.573,326.431,199.329,330.749,200.606L330.749,200.606z"/>
			</g>
		</g>
		<g>
			<g>
				<path d="M399.834,201.456c18.307,0.33,38.05-3.93,55.643,2.754c13.931,5.293,20.12,19.848,24.256,33.018
					c2.627,8.367,4.635,16.815,4.83,25.617c0.2,9.016-2.177,17.732-5.449,26.054c-3.369,8.567-7.74,16.285-14.369,22.725
					c-5.996,5.826-12.904,10.595-18.807,16.54c-3.183,3.205,1.766,8.156,4.95,4.95c6.232-6.277,13.486-11.37,19.822-17.526
					c7.147-6.944,11.412-15.728,15.155-24.828c7.595-18.469,6.367-36.622,0.619-55.393c-4.397-14.359-11.028-28.439-24.749-35.921
					c-18.484-10.079-41.911-4.631-61.899-4.991C395.317,194.375,395.325,201.375,399.834,201.456L399.834,201.456z"/>
			</g>
		</g>
		<g>
			<g>
				<path d="M449.657,328.715c-26.771,4.015-53.222,13.001-80.069,4.35c-4.309-1.388-6.139,5.371-1.861,6.75
					c28.124,9.062,55.745-0.144,83.791-4.35C455.969,334.797,454.071,328.053,449.657,328.715L449.657,328.715z"/>
			</g>
		</g>
		<g>
			<g>
				<path d="M377.479,333.856c1.549-2.991,5.376-4.611,8.234-6.059c3.856-1.954,7.945-3.459,12.037-4.836
					c11.876-3.994,24.493-4.042,36.885-4.048c4.514-0.002,4.514-7.002,0-7c-13.739,0.007-27.436,0.378-40.544,4.911
					c-7.37,2.548-18.79,6.031-22.657,13.498C369.363,334.325,375.403,337.866,377.479,333.856L377.479,333.856z"/>
			</g>
		</g>
		<g>
			<g>
				<path d="M443.086,311.269c2.377-6.814,5.678-13.216,7.25-20.301c0.976-4.398-5.772-6.267-6.75-1.861
					c-1.572,7.085-4.873,13.487-7.25,20.301C434.846,313.682,441.609,315.502,443.086,311.269L443.086,311.269z"/>
			</g>
		</g>
		<g>
			<g>
				<path d="M450.337,284.031c-10.38-26.449-37.107-38.608-64.279-38.822c-4.516-0.036-4.512,6.964,0,7
					c23.725,0.187,48.344,10.278,57.529,33.683C445.217,290.045,451.988,288.239,450.337,284.031L450.337,284.031z"/>
			</g>
		</g>
		<g>
			<g>
				<path d="M386.661,240.418c-4.639,9.03-13.635,12.939-23.48,12.901c-11.129-0.042-18.077-6.858-27.17-12.032
					c-5.802-3.301-11.208-7.4-17.607-9.48c-10.218-3.322-21.907-2.526-32.245-0.249c-4.408,0.971-2.538,7.719,1.861,6.75
					c11.345-2.5,24.667-2.931,34.995,3.137c2.443,1.435,4.332,3.335,6.911,4.57c4.54,2.173,8.558,5.16,12.647,8.063
					c15.647,11.109,41.057,7.538,50.133-10.127C394.764,239.943,388.725,236.401,386.661,240.418L386.661,240.418z"/>
			</g>
		</g>
		<g>
			<g>
				<path d="M288.697,233.734c-10.899,2.449-21.15,8.517-29.821,15.401c-3.535,2.806,1.454,7.725,4.95,4.95
					c7.725-6.133,17.058-11.427,26.732-13.601C294.961,239.494,293.093,232.746,288.697,233.734L288.697,233.734z"/>
			</g>
		</g>
		<g>
			<g>
				<path d="M292.952,244.059c-7.128,6.662-12.514,15.453-16.43,24.317c-3.787,8.572-6.602,18.906-2.244,27.777
					c1.991,4.051,8.027,0.502,6.044-3.533c-3.504-7.13,0.27-16.512,3.334-23.119c3.467-7.477,8.199-14.841,14.245-20.492
					C301.206,245.921,296.246,240.981,292.952,244.059L292.952,244.059z"/>
			</g>
		</g>
		<g>
			<g>
				<path d="M379.655,283.103c3.165-5.142,3.652-11.549,8.153-15.968c3.225-3.166-1.727-8.113-4.95-4.95
					c-2.633,2.585-4.37,5.819-5.844,9.164c-1.172,2.658-1.878,5.743-3.404,8.221C371.237,283.425,377.293,286.938,379.655,283.103
					L379.655,283.103z"/>
			</g>
		</g>
		<g>
			<g>
				<path d="M393.183,276.986c0.356-5.003,7.555-7.947,11.411-9.67c4.716-2.108,9.931-3.515,15.021-4.356
					c4.446-0.735,2.553-7.48-1.861-6.75c-10.926,1.806-30.61,7.265-31.571,20.776C385.862,281.493,392.865,281.462,393.183,276.986
					L393.183,276.986z"/>
			</g>
		</g>
		<g>
			<g>
				<path d="M404.059,284.237c1.397-10.486,18.903-15.677,27.677-15.351c4.516,0.168,4.5-6.833,0-7
					c-13.34-0.496-32.709,7.575-34.677,22.351C396.464,288.701,403.472,288.643,404.059,284.237L404.059,284.237z"/>
			</g>
		</g>
		<g>
			<g>
				<path d="M306.508,204.007c-3.194-0.724-6.939-0.71-9.347,1.866c-1.919,2.053-2.366,5.121-1.469,7.74
					c0.945,2.757,3.004,4.923,5.803,5.81c3.47,1.099,6.979-0.718,9.458-3.04c1.392-1.304,1.315-3.634,0-4.95
					c-1.381-1.381-3.558-1.303-4.95,0c-0.208,0.195-0.42,0.384-0.637,0.57c0.647-0.552,0.015-0.019-0.124,0.076
					c-0.196,0.135-0.403,0.253-0.61,0.371c-0.859,0.488,0.379-0.105-0.15,0.093c-0.186,0.07-0.379,0.12-0.571,0.17
					c-0.926,0.241,0.604-0.032,0.018,0.01c-0.174,0.012-0.348,0.005-0.522-0.002c-0.613-0.026,0.983,0.203,0.106-0.005
					c-0.158-0.037-0.312-0.092-0.464-0.147c1.024,0.366,0.514,0.221,0.255,0.084c-0.141-0.074-0.274-0.163-0.406-0.251
					c-0.482-0.32,0.729,0.634,0.093,0.047c-0.117-0.108-0.224-0.226-0.331-0.343c-0.391-0.43,0.553,0.795,0.065,0.078
					c-0.199-0.293-0.711-1.486-0.227-0.286c-0.117-0.289-0.198-0.591-0.266-0.894c-0.063-0.279-0.097-0.882,0.033,0.327
					c-0.021-0.199-0.022-0.399-0.019-0.599c0.004-0.285,0.112-0.878-0.069,0.346c0.028-0.191,0.079-0.377,0.135-0.561
					c0.173-0.578-0.398,0.85-0.136,0.308c0.128-0.266,0.589-0.847-0.157,0.108c0.09-0.116,0.196-0.219,0.3-0.321
					c0.393-0.384-0.822,0.539-0.094,0.09c0.225-0.138,0.796-0.349-0.238,0.068c0.225-0.091,0.461-0.149,0.696-0.203
					c0.709-0.165-0.897,0.082-0.133,0.013c0.3-0.027,0.601-0.021,0.902-0.012c0.25,0.007,0.498,0.035,0.746,0.062
					c-0.995-0.109,0.261,0.084,0.451,0.127c1.859,0.422,3.783-0.544,4.305-2.445C309.441,206.538,308.369,204.429,306.508,204.007
					L306.508,204.007z"/>
			</g>
		</g>
		<g>
			<g>
				<path d="M441.412,197.026c-2.286,8.745-4.166,17.588-7.25,26.102c-1.541,4.254,5.225,6.071,6.75,1.861
					c3.084-8.513,4.964-17.357,7.25-26.102C449.305,194.515,442.553,192.662,441.412,197.026L441.412,197.026z"/>
			</g>
		</g>
		<g>
			<g>
				<path d="M475.964,223.458c-7.577,0.626-13.191,5.373-17.701,11.176c-2.734,3.518,2.182,8.511,4.95,4.95
					c3.189-4.103,7.223-8.669,12.751-9.126C480.429,230.089,480.465,223.086,475.964,223.458L475.964,223.458z"/>
			</g>
		</g>
		<g>
			<g>
				<path d="M483.939,263.336c-5.303-0.593-10.618-0.728-15.951-0.725c-4.514,0.002-4.514,7.002,0,7
					c5.333-0.003,10.648,0.132,15.951,0.725C488.422,270.837,488.373,263.831,483.939,263.336L483.939,263.336z"/>
			</g>
		</g>
		<g>
			<g>
				<path d="M480.519,289.562c-3.594-0.679-7.425-0.952-10.765-2.547c-4.052-1.935-7.605,4.1-3.533,6.044
					c3.985,1.903,8.147,2.443,12.437,3.253C483.069,297.145,484.952,290.399,480.519,289.562L480.519,289.562z"/>
			</g>
		</g>
		<g>
			<g>
				<path d="M452.337,325.99c-1.407-1.729-2.857-3.421-4.35-5.075c-1.279-1.417-3.653-1.297-4.95,0c-1.4,1.4-1.277,3.535,0,4.95
					c1.493,1.655,2.943,3.346,4.35,5.075c1.206,1.482,3.705,1.245,4.95,0C453.788,329.488,453.54,327.468,452.337,325.99
					L452.337,325.99z"/>
			</g>
		</g>
		<g>
			<g>
				<path d="M227.793,199.156c3.496,0.657,6.878,1.621,10.04,3.272c3.996,2.087,7.535-3.954,3.533-6.044
					c-3.698-1.932-7.618-3.209-11.712-3.978C225.242,191.577,223.36,198.323,227.793,199.156L227.793,199.156z"/>
			</g>
		</g>
		<g>
			<g>
				<path d="M243.019,207.132c2.856,0.751,5.807,0.902,8.701,1.45c1.873,0.355,3.769-0.495,4.305-2.445
					c0.474-1.724-0.569-3.95-2.445-4.305c-2.894-0.548-5.845-0.7-8.701-1.45C240.509,199.233,238.656,205.985,243.019,207.132
					L243.019,207.132z"/>
			</g>
		</g>
		<g>
			<g>
				<path d="M255.344,212.207c2.197,0.386,4.371,0.871,6.525,1.45c4.365,1.174,6.216-5.579,1.861-6.75
					c-2.154-0.579-4.328-1.064-6.525-1.45c-1.877-0.33-3.764,0.476-4.305,2.445C252.431,209.607,253.463,211.876,255.344,212.207
					L255.344,212.207z"/>
			</g>
		</g>
		<g>
			<g>
				<path d="M257.205,209.082c-6.251-0.963-12.651-0.227-18.851-1.45c-4.408-0.87-6.287,5.877-1.861,6.75
					c6.25,1.233,12.592,0.486,18.851,1.45C259.759,216.512,261.656,209.768,257.205,209.082L257.205,209.082z"/>
			</g>
		</g>
		<g>
			<g>
				<path d="M11.004,162.904c4.339,1.379,8.782,1.621,13.293,1.985c5.27,0.425,10.474,2.034,15.495,3.604
					c10.306,3.222,20.319,7.427,30.5,11.019c20.356,7.181,40.94,13.729,61.414,20.565c19.348,6.46,38.43,13.113,56.987,21.627
					c17.373,7.971,37.313,7.283,55.98,7.304c4.514,0.005,4.514-6.995,0-7c-19.94-0.022-38.963-0.107-57.39-8.646
					c-17.925-8.307-36.768-14.376-55.476-20.622c-19.889-6.641-39.865-13.046-59.655-19.978
					c-9.598-3.362-19.043-7.153-28.672-10.421c-4.808-1.632-9.704-2.94-14.694-3.878c-5.317-1-10.718-0.654-15.923-2.308
					C8.551,154.783,6.719,161.542,11.004,162.904L11.004,162.904z"/>
			</g>
		</g>
		<g>
			<g>
				<path d="M260.831,218.508c-17.778-4.875-36.335-3.99-54.46-1.859c-19.524,2.296-38.877,5.692-58.447,7.682
					c-41.553,4.226-83.378,4.915-125.114,4.927c-4.514,0.001-4.514,7.001,0,7c41.101-0.012,82.229-0.779,123.165-4.734
					c19.062-1.842,37.915-4.944,56.89-7.438c18.562-2.44,37.842-3.837,56.104,1.171C263.33,226.454,265.179,219.7,260.831,218.508
					L260.831,218.508z"/>
			</g>
		</g>
		<g>
			<g>
				<path d="M38.761,247.134c16.363,0.625,31.867-9.777,45.586-17.402c17.055-9.479,35.578-17.758,54.357-23.095
					c9.835-2.795,20.094-4.499,30.333-3.979c10.831,0.55,21.493,3.775,31.866,6.71c18.971,5.369,37.461,15.931,57.547,16.014
					c4.515,0.019,4.513-6.981,0-7c-10.253-0.042-19.891-3.263-29.403-6.8c-9.823-3.653-19.539-7.069-29.634-9.909
					c-9.415-2.649-18.892-4.945-28.646-5.886c-10.196-0.984-20.629,0.799-30.514,3.2c-18.874,4.585-37.468,13.143-54.641,22.096
					c-14.282,7.446-29.977,19.695-46.851,19.05C34.245,239.962,34.262,246.962,38.761,247.134L38.761,247.134z"/>
			</g>
		</g>
		<g>
			<g>
				<path d="M302.956,246.526c8.407,1.319,16.099,5.906,19.66,13.859c1.842,4.114,7.872,0.55,6.044-3.533
					c-4.204-9.391-13.876-15.512-23.843-17.076C300.402,239.083,298.507,245.828,302.956,246.526L302.956,246.526z"/>
			</g>
		</g>
		<g>
			<g>
				<path d="M241.849,251.007c15.227-10.587,32.757-15.49,50.4-20.432c4.34-1.216,2.494-7.97-1.861-6.75
					c-18.191,5.095-36.376,10.223-52.073,21.137C234.638,247.519,238.132,253.591,241.849,251.007L241.849,251.007z"/>
			</g>
		</g>
		<g>
			<g>
				<path d="M215.467,193.356c0.932,0.363,1.871,0.49,2.864,0.608c0.867,0.103,1.885-0.435,2.475-1.025
					c0.653-0.653,1.025-1.55,1.025-2.475c0-0.925-0.372-1.821-1.025-2.475c-0.716-0.716-1.508-0.91-2.475-1.025
					c-0.061-0.007-0.122-0.015-0.183-0.022c0.31,0.042,0.62,0.083,0.93,0.125c-0.604-0.087-1.181-0.24-1.75-0.462
					c-0.832-0.324-1.956-0.081-2.697,0.353c-0.782,0.458-1.368,1.217-1.608,2.092c-0.248,0.903-0.121,1.889,0.353,2.697
					C213.872,192.595,214.581,193.011,215.467,193.356L215.467,193.356z"/>
			</g>
		</g>
		<g>
			<g>
				<path d="M384.969,198.998c5.444,10.827,4.389,22.848,2.906,34.486c-0.57,4.469,6.437,4.414,7,0
					c1.664-13.052,2.202-25.959-3.861-38.019C388.986,191.431,382.948,194.976,384.969,198.998L384.969,198.998z"/>
			</g>
		</g>
		<g>
			<g>
				<path d="M373.007,337.523c4.514,0,4.514-7,0-7S368.493,337.523,373.007,337.523L373.007,337.523z"/>
			</g>
		</g>
		<g>
			<g>
				<path d="M373.938,337.398c5.362-1.636,10.626-3.566,15.951-5.317c4.268-1.403,2.44-8.164-1.861-6.75
					c-5.325,1.751-10.589,3.681-15.951,5.317C367.772,331.961,369.609,338.719,373.938,337.398L373.938,337.398z"/>
			</g>
		</g>
		<g>
			<g>
				<path d="M372.524,339.94c16.303-0.546,32.37-2.98,48.3-6.409c4.412-0.95,2.541-7.697-1.861-6.75
					c-15.331,3.299-30.749,5.633-46.439,6.159C368.022,333.091,368.008,340.091,372.524,339.94L372.524,339.94z"/>
			</g>
		</g>
		<g>
			<g>
				<path d="M427.664,276.494c2.899,0.641,8.355,1.607,9.64,4.806c0.71,1.769,2.308,2.994,4.305,2.445
					c1.683-0.463,3.156-2.532,2.445-4.305c-2.427-6.046-8.577-8.38-14.529-9.695C425.126,268.772,423.257,275.52,427.664,276.494
					L427.664,276.494z"/>
			</g>
		</g>
		<g>
			<g>
				<path d="M378.324,286.287c4.514,0,4.514-7,0-7C373.81,279.287,373.81,286.287,378.324,286.287L378.324,286.287z"/>
			</g>
		</g>
		<g>
			<g>
				<path d="M375.849,285.261c0.322,0.322,0.644,0.644,0.967,0.967c1.348,1.348,3.601,1.348,4.95,0c1.348-1.348,1.348-3.601,0-4.95
					c-0.322-0.322-0.645-0.644-0.967-0.967c-1.348-1.348-3.601-1.348-4.95,0C374.501,281.66,374.501,283.913,375.849,285.261
					L375.849,285.261z"/>
			</g>
		</g>
		<g>
			<g>
				<path d="M397.053,286.487c0.873,1.695,2.073,3.257,3.447,4.575c1.376,1.319,3.58,1.37,4.95,0c1.327-1.327,1.377-3.63,0-4.95
					c-0.261-0.25-0.512-0.506-0.758-0.771c-0.113-0.122-0.863-1.049-0.32-0.34c-0.49-0.64-0.906-1.333-1.275-2.048
					c-0.873-1.695-3.21-2.181-4.789-1.256C396.599,282.699,396.18,284.79,397.053,286.487L397.053,286.487z"/>
			</g>
		</g>
		<g>
			<g>
				<path d="M386.55,276.539c-0.18,0.98-0.208,1.611,0.005,2.589c0.179,0.82,0.775,1.707,1.378,2.266
					c1.398,1.295,3.563,1.387,4.95,0c1.31-1.31,1.4-3.653,0-4.95c-0.079-0.066-0.15-0.139-0.216-0.219
					c0.182,0.236,0.365,0.472,0.547,0.708c-0.088-0.12-0.156-0.234-0.218-0.37c0.118,0.279,0.235,0.557,0.353,0.836
					c-0.034-0.088-0.059-0.178-0.074-0.271c0.042,0.31,0.083,0.62,0.125,0.93c-0.017-0.151-0.017-0.286-0.003-0.438
					c-0.042,0.31-0.083,0.62-0.125,0.93c0.009-0.051,0.019-0.102,0.028-0.153c0.176-0.957,0.154-1.832-0.353-2.697
					c-0.458-0.782-1.217-1.368-2.092-1.608C389.138,273.622,386.896,274.661,386.55,276.539L386.55,276.539z"/>
			</g>
		</g>
		<g>
			<g>
				<path d="M269.048,225.758c-8.84-1.235-17.417-3.31-26.403-2.928c-9.611,0.408-19.132,2.184-28.684,3.225
					c-19.304,2.104-36.38-3.634-54.153-10.447c-4.222-1.618-6.031,5.151-1.861,6.75c16.261,6.233,32.582,12.098,50.269,11.19
					c9.603-0.493,19.114-2.325,28.674-3.288c10.469-1.055,19.995,0.81,30.297,2.249C271.6,233.124,273.503,226.38,269.048,225.758
					L269.048,225.758z"/>
			</g>
		</g>
		<g>
			<g>
				<path d="M408.785,205.895c0.307,1.339,0.988,2.446,1.867,3.478c1.238,1.454,3.682,1.268,4.95,0
					c0.653-0.653,1.025-1.55,1.025-2.475c0-0.987-0.404-1.745-1.025-2.475c-0.069-0.079-0.136-0.16-0.199-0.243
					c0.182,0.236,0.365,0.472,0.547,0.708c-0.216-0.295-0.392-0.602-0.537-0.938c0.118,0.279,0.235,0.557,0.353,0.836
					c-0.096-0.247-0.171-0.495-0.23-0.753c-0.427-1.859-2.527-2.934-4.305-2.445C409.332,202.112,408.358,204.038,408.785,205.895
					L408.785,205.895z"/>
			</g>
		</g>
		<g>
			<g>
				<path d="M461.016,203.04c-6.529,2.178-10.062,8.289-13.692,13.693c-2.525,3.759,3.542,7.258,6.044,3.533
					c2.443-3.636,5.063-8.993,9.509-10.476C467.137,208.369,465.31,201.608,461.016,203.04L461.016,203.04z"/>
			</g>
		</g>
		<g>
			<g>
				<path d="M470.163,212.099c-2.73,0.084-5.272,0.943-7.567,2.411c-1.604,1.026-2.249,3.093-1.256,4.789
					c0.935,1.595,3.18,2.285,4.789,1.256c0.334-0.214,0.67-0.416,1.016-0.611c0.228-0.124,0.46-0.242,0.695-0.352
					c-0.246,0.096-0.167,0.068,0.234-0.083c0.984-0.361,1.3-0.386,2.089-0.41c1.906-0.059,3.5-1.548,3.5-3.5
					C473.663,213.735,472.071,212.04,470.163,212.099L470.163,212.099z"/>
			</g>
		</g>
		<g>
			<g>
				<path d="M483.698,252.218c-2.739,0-5.478,0-8.217,0c-4.514,0-4.514,7,0,7c2.739,0,5.478,0,8.217,0
					C488.212,259.218,488.212,252.218,483.698,252.218L483.698,252.218z"/>
			</g>
		</g>
		<g>
			<g>
				<path d="M437.295,269.852c4.514,0,4.514-7,0-7C432.781,262.852,432.781,269.852,437.295,269.852L437.295,269.852z"/>
			</g>
		</g>
		<g>
			<g>
				<path d="M445.087,264.477c0.322-0.322,0.644-0.645,0.967-0.967c1.348-1.348,1.348-3.601,0-4.95c-1.348-1.348-3.601-1.348-4.95,0
					c-0.322,0.322-0.644,0.644-0.967,0.967c-1.348,1.348-1.348,3.601,0,4.95C441.485,265.825,443.738,265.825,445.087,264.477
					L445.087,264.477z"/>
			</g>
		</g>
		<g>
			<g>
				<path d="M431.486,259.549c2.714-8.726,10.264-14.878,13.051-23.685c1.366-4.316-5.393-6.148-6.75-1.861
					c-2.766,8.74-10.309,14.866-13.051,23.685C423.392,262.01,430.15,263.845,431.486,259.549L431.486,259.549z"/>
			</g>
		</g>
		<g>
			<g>
				<path d="M444.545,280.003c0.161,0,0.322,0,0.483,0c1.908,0,3.5-1.592,3.5-3.5s-1.592-3.5-3.5-3.5c-0.161,0-0.322,0-0.483,0
					c-1.908,0-3.5,1.592-3.5,3.5S442.637,280.003,444.545,280.003L444.545,280.003z"/>
			</g>
		</g>
		<g>
			<g>
				<path d="M446.442,279.394c1.811-0.534,3.572-1.307,5.186-2.286c1.628-0.987,2.231-3.123,1.256-4.789
					c-0.952-1.625-3.156-2.245-4.789-1.256c-0.641,0.389-1.298,0.739-1.977,1.056c-0.952,0.444,0.63-0.237-0.345,0.135
					c-0.391,0.149-0.791,0.272-1.193,0.39c-1.829,0.539-2.957,2.441-2.445,4.305C442.636,278.763,444.613,279.934,446.442,279.394
					L446.442,279.394z"/>
			</g>
		</g>
		<g>
			<g>
				<path d="M448.376,290.028c0.302-0.115,0.6-0.21,0.913-0.291c0.969-0.249-0.653,0.014,0.357-0.03
					c0.086-0.004,1.141,0.085,0.392-0.025c0.448,0.066,0.882,0.202,1.31,0.345c1.809,0.608,3.821-0.682,4.305-2.445
					c0.527-1.916-0.638-3.699-2.445-4.305c-2.124-0.713-4.582-0.807-6.695,0c-1.781,0.68-2.987,2.332-2.445,4.305
					C444.54,289.29,446.591,290.71,448.376,290.028L448.376,290.028z"/>
			</g>
		</g>
		<g>
			<g>
				<path d="M413.601,249.471c-0.287-2.11,0.08-4.29,0.483-6.356c0.365-1.871-0.502-3.771-2.445-4.305
					c-1.732-0.477-3.94,0.571-4.305,2.445c-0.666,3.412-0.954,6.626-0.483,10.078c0.258,1.894,2.654,2.899,4.305,2.445
					C413.177,253.22,413.859,251.36,413.601,249.471L413.601,249.471z"/>
			</g>
		</g>
		<g>
			<g>
				<path d="M439.192,271.436c-9.568-3.032-19.355,3.496-26.623,9.053c-3.534,2.702-0.054,8.787,3.533,6.044
					c5.596-4.279,13.752-10.717,21.23-8.348C441.646,279.554,443.479,272.795,439.192,271.436L439.192,271.436z"/>
			</g>
		</g>
		<g>
			<g>
				<path d="M439.711,277.836c-4.378,0.303-8.205,2.131-11.175,5.375c-3.041,3.322,1.896,8.286,4.95,4.95
					c1.682-1.837,3.684-3.149,6.226-3.325c1.903-0.132,3.5-1.492,3.5-3.5C443.211,279.528,441.617,277.704,439.711,277.836
					L439.711,277.836z"/>
			</g>
		</g>
	</g>
</g>
</svg>
