<?xml version="1.0" encoding="utf-8"?>
<!-- Generator: Adobe Illustrator 18.0.0, SVG Export Plug-In . SVG Version: 6.00 Build 0)  -->
<!DOCTYPE svg PUBLIC "-//W3C//DTD SVG 1.1//EN" "http://www.w3.org/Graphics/SVG/1.1/DTD/svg11.dtd">
<svg version="1.1" id="Layer_1" xmlns="http://www.w3.org/2000/svg" xmlns:xlink="http://www.w3.org/1999/xlink" x="0px" y="0px"
	 width="500px" height="500px" viewBox="0 0 500 500" enable-background="new 0 0 500 500" xml:space="preserve">
<g>
	<g>
		<g>
			<path d="M101.095,289.549c17.45-25.01,45.286-42.13,71.48-56.676c30.829-17.12,62.755-32.18,92.427-51.341
				c4.856-3.136,0.349-10.93-4.542-7.771c-30.507,19.7-63.392,35.091-95.033,52.793c-26.748,14.964-54.304,32.942-72.104,58.453
				C89.993,289.78,97.8,294.271,101.095,289.549L101.095,289.549z"/>
		</g>
	</g>
	<g>
		<g>
			<path d="M86.26,291.577c-0.429,6.552,0.897,12.963,2.413,19.305c1.799,7.524,3.116,14.957,4.203,22.618
				c1.718,12.103,4.919,23.819,6.906,35.839c2.332,14.106,6.882,37.196,26.568,30.836c5.499-1.777,3.146-10.468-2.393-8.679
				c-13.744,4.441-14.553-19.359-16.081-27.979c-2.036-11.488-4.945-22.707-6.591-34.304c-0.915-6.444-1.972-12.732-3.526-19.056
				c-1.511-6.145-2.916-12.209-2.499-18.578C95.639,285.78,86.637,285.817,86.26,291.577L86.26,291.577z"/>
		</g>
	</g>
	<g>
		<g>
			<path d="M143.384,393.643c16.075-17.525,33.899-32.59,53.643-45.838c11.733-7.872,23.668-15.467,35.481-23.22
				c10.324-6.776,20.816-13.312,31.97-18.647c5.234-2.503,0.666-10.262-4.542-7.771c-11.158,5.336-21.63,11.887-31.97,18.647
				c-12.325,8.057-24.737,16.011-36.964,24.215c-19.841,13.313-37.832,28.644-53.982,46.25
				C133.105,391.546,139.453,397.928,143.384,393.643L143.384,393.643z"/>
		</g>
	</g>
	<g>
		<g>
			<path d="M256.242,178.843c1.575,4.65,0.844,10.244,1.171,15.166c0.281,4.234,0.504,8.472,0.721,12.709
				c0.575,11.217,1.049,22.438,1.558,33.658c0.93,20.528,1.396,41.264,3.913,61.676c0.701,5.683,9.709,5.751,9,0
				c-2.518-20.413-2.98-41.148-3.913-61.676c-0.51-11.22-0.991-22.441-1.558-33.658c-0.228-4.516-0.477-9.032-0.777-13.544
				c-0.367-5.526,0.355-11.433-1.437-16.724C263.07,170.984,254.375,173.33,256.242,178.843L256.242,178.843z"/>
		</g>
	</g>
	<g>
		<g>
			<path d="M259.549,180.829c13.915,11.927,30.849,19.695,46.116,29.658c10.282,6.71,19.26,15.469,28.323,23.687
				c11.682,10.593,23.255,21.308,35.155,31.659c9.027,7.852,18.339,16.327,28.894,22.106c5.093,2.788,9.634-4.984,4.542-7.771
				c-10.27-5.623-19.224-13.873-28.004-21.51c-11.893-10.344-23.446-21.075-35.121-31.662c-8.708-7.896-17.385-16.053-27.042-22.796
				c-15.053-10.511-32.492-17.73-46.498-29.735C261.532,170.71,255.135,177.046,259.549,180.829L259.549,180.829z"/>
		</g>
	</g>
	<g>
		<g>
			<path d="M395.808,284.054c-0.438,8.485,1.389,17.107,2.969,25.397c2.047,10.743,4.417,21.443,5.738,32.309
				c1.192,9.807,1.758,20.146-1.237,29.69c-2.851,9.085-10.181,13.969-19.213,15.747c-5.692,1.12-3.276,9.794,2.393,8.678
				c10.152-1.998,18.833-7.605,23.482-17.022c4.654-9.427,4.904-20.523,4.188-30.798c-0.821-11.777-3.213-23.418-5.496-34.978
				c-1.869-9.465-4.325-19.304-3.823-29.023C405.107,278.251,396.106,278.28,395.808,284.054L395.808,284.054z"/>
		</g>
	</g>
	<g>
		<g>
			<path d="M378.933,385.5c-38.861-24.948-75.087-53.83-107.646-86.63c-4.093-4.123-10.455,2.242-6.364,6.364
				c33.086,33.33,69.98,62.687,109.467,88.037C379.29,396.417,383.799,388.624,378.933,385.5L378.933,385.5z"/>
		</g>
	</g>
	<g>
		<g>
			<path d="M90.961,289.428c-0.636-8.347-12.569-11.483-18.951-14.029c-10.716-4.275-20.048-10.863-27.125-20.066
				c-8.644-11.241-14.29-24.005-10.354-38.124c3.124-11.205,9.341-22.438,16.796-31.346c3.697-4.418-2.635-10.82-6.364-6.364
				c-7.735,9.244-13.621,19.973-17.788,31.26c-5.06,13.707-3.34,26.435,3.522,39.214c6.296,11.725,15.528,21.486,26.847,28.432
				c4.157,2.551,8.628,4.299,13.141,6.099c2.523,1.007,5.014,2.066,7.449,3.273c0.912,0.452,1.787,0.967,2.656,1.495
				c1.412,0.858,1.314,2.029,1.171,0.157C82.399,295.177,91.402,295.219,90.961,289.428L90.961,289.428z"/>
		</g>
	</g>
	<g>
		<g>
			<path d="M60.603,174.898c32.401-39.702,83.452-58.741,133.078-64.54c29.997-3.506,60.421-3.215,90.522-1.385
				c28.959,1.761,56.807,5.404,84.011,15.957c17.85,6.924,34.719,16.326,50.691,26.827c15.732,10.343,30.991,21.011,38.418,38.993
				c6.155,14.903,7.185,30.897-0.368,45.423c-8.133,15.643-23.171,27.187-37.36,37.008c-4.737,3.279-0.243,11.084,4.542,7.771
				c19.197-13.288,39.412-29.686,45.716-53.233c6.027-22.513-4.35-48.629-20.478-64.44c-9.536-9.348-21.74-16.764-32.995-23.837
				c-11.819-7.427-24.185-13.971-36.978-19.555c-26.029-11.36-52.786-16.565-80.955-18.892
				c-83.583-6.906-186.463-3.22-244.21,67.538C50.603,172.989,56.931,179.397,60.603,174.898L60.603,174.898z"/>
		</g>
	</g>
	<g>
		<g>
			<path d="M456.28,188.37c42.014,62.442,9.292,148.583-46.925,190.681c-4.586,3.434-0.108,11.254,4.542,7.771
				c59.917-44.868,95.11-136.179,50.154-202.994C460.83,179.041,453.029,183.54,456.28,188.37L456.28,188.37z"/>
		</g>
	</g>
	<g>
		<g>
			<path d="M104.733,391.335c-12.157-0.865-23.773-9.165-33.462-15.897c-8.801-6.115-15.944-12.798-22.094-21.625
				c-13.805-19.815-24.622-45.329-24.855-69.76c-0.055-5.801-9.055-5.806-9,0c0.257,26.916,12.161,54.807,27.606,76.461
				c6.921,9.704,15.249,16.753,24.975,23.51c10.823,7.52,23.358,15.351,36.83,16.31
				C110.527,400.747,110.487,391.744,104.733,391.335L104.733,391.335z"/>
		</g>
	</g>
</g>
</svg>
