<?xml version="1.0" encoding="utf-8"?>
<!-- Generator: Adobe Illustrator 18.0.0, SVG Export Plug-In . SVG Version: 6.00 Build 0)  -->
<!DOCTYPE svg PUBLIC "-//W3C//DTD SVG 1.1//EN" "http://www.w3.org/Graphics/SVG/1.1/DTD/svg11.dtd">
<svg version="1.1" id="Layer_1" xmlns="http://www.w3.org/2000/svg" xmlns:xlink="http://www.w3.org/1999/xlink" x="0px" y="0px"
	 width="500px" height="500px" viewBox="0 0 500 500" enable-background="new 0 0 500 500" xml:space="preserve">
<g>
	<g>
		<g>
			<path d="M95.3097534,432.4814453c-10.5358276-2.4111328-16.282959-13.4553223-14.1261597-23.7400513
				c1.1567383-5.5157471,5.5248413-9.5521851,8.1912842-14.3295898c3.421875-6.1308594,1.0916748-11.9477539,2.3737793-18.3311157
				c1.0117188-5.0369263-6.6987305-7.1825562-7.7142334-2.126709c-0.7607422,3.7874146-0.3024902,7.359436-0.2109985,11.1834106
				c0.0998535,4.1743774-2.7990723,7.7340698-5.1165771,10.9111938c-2.0440674,2.8022461-3.5847778,5.7202148-4.5987549,8.8148193
				c0.0507202-0.5379639-0.0354614-1.1342773-0.3083496-1.7830811c-3.503479-8.3293457-3.3847046-21.5724487,5.8427124-26.1376343
				c1.4429321-0.7138672,2.0402832-1.87677,2.0400391-3.0697021c0.4442749-0.147522,0.8884888-0.2954712,1.3302002-0.4553833
				c4.8116455-1.7418213,2.7359619-9.4744873-2.126709-7.7142334c-8.5740967,3.1037598-17.5274658,3.6608276-26.5516357,4.215332
				c-5.1242065,0.3148804-5.1548462,8.3167725,0,8c4.5722046-0.2809448,9.1621094-0.5603027,13.703064-1.1229858
				c-5.3341064,8.0348511-5.5499268,19.8572998-1.9519043,28.4113159c1.5043945,3.5765381,6.3772583,3.2182007,7.7020264,0.7304077
				c-0.7088623,2.5004272-1.0912476,5.1140137-1.0795898,7.8907471
				c0.0510864,12.1477661,8.5704346,23.6431274,20.4750977,26.3674927
				C98.2052612,441.3450317,100.3379517,433.6321411,95.3097534,432.4814453z"/>
			<path d="M97.8719482,401.1592407c0.482605-5.137146-7.5217896-5.0905151-8,0
				c-0.569458,6.0611572,0.0032349,12.1019897,0.6782837,18.1303711c0.5674438,5.0673828,8.5736084,5.1227417,8,0
				C97.8751831,413.2612305,97.3024902,407.2203979,97.8719482,401.1592407z"/>
			<path d="M100.1186523,376.3860474c-5.404541,2.4910278-8.0067749,8.397644-6.953125,14.095459
				c0.3968506,2.145752,2.956604,3.3339233,4.9204712,2.7937012c2.2352295-0.6148071,3.1898804-2.7784424,2.7937622-4.9204712
				c-0.4290771-2.3203125,1.319519-4.1588745,3.2766724-5.0609741c1.9802856-0.9127197,2.4555664-3.7304688,1.4349976-5.4727173
				C104.4110718,375.8060303,102.098877,375.4733276,100.1186523,376.3860474z"/>
			<path d="M448.4940796,115.3636475c-6.1234131-6.9783325-11.2825317-14.6459351-15.8215942-22.7337646
				c-0.552002-0.9836426-1.3178101-1.5395508-2.1447754-1.791626c-1.3100586-0.6713257-2.899231-0.5610352-4.1375732,0.9820557
				c-3.9127808,4.8756714-11.5471802,5.1282959-17.4796753,7.3666992c-2.562439-4.2247314-4.7747192-8.670166-6.9425659-13.2062988
				c-1.9337769-4.0463867-7.3947144-1.5014038-7.3326416,2.2753906c-3.4464722,1.2237549-7.0006714,2.0766602-10.4315796,3.4082642
				c-3.2729492,1.2702026-6.4726562,2.7644043-9.6173706,4.3595581c3.5592651-5.3522949,7.2080078-10.6298828,11.7268066-15.2269287
				c1.6587524-1.6875,1.3579102-3.7825928,0.2080688-5.2109375c-0.2588501-0.3885498-0.5918579-0.7520142-1.0176392-1.0714111
				c-5.8807373-4.4110107-12.3322754-7.979187-17.116394-13.6816406c-1.5370483-1.8320923-3.560791-1.5839844-4.9732666-0.4128418
				c-0.9609985-0.059082-1.9561157,0.3197632-2.796814,1.3452148
				c-16.5778809,20.2208252-31.8015747,41.9718628-49.5280151,61.3100586
				c0.8078003-1.7248535,1.6417847-3.4382324,2.5377197-5.1245117c1.4115601-2.6566162-0.3549194-5.1254883-2.5496216-5.8273315
				c-0.2473145-0.281311-0.5421143-0.5441284-0.899231-0.7765503c-3.3181152-2.159668-6.9258423-4.355835-8.9762573-7.8566284
				c-0.118103-0.2015991-0.2539062-0.3666992-0.3884277-0.5342407c-0.0158081-4.6739502-7.5307007-4.4946289-7.9978638,0.4399414
				c-0.9902344,10.4594727-5.1196289,21.0238647-8.6065674,30.8456421
				c-3.038269,8.5580444-6.1859131,17.6166382-10.6639404,25.6859131c-0.3047485-0.2670898-0.6102295-0.5341187-0.9248657-0.798584
				c-1.0272217-0.8635254-2.5177002-1.5657349-3.8917847-1.0286865c-0.0415649,0.0162354-0.0831909,0.0325317-0.1247559,0.0487671
				c-1.1254883,0.4398804-2.0439453,1.2213745-2.5420532,2.2114258c-0.8439331,0.4313965-1.5064087,1.2468872-1.7450562,2.5154419
				c-2.5831909,13.7294922-10.2637939,25.6018677-16.6387939,37.8082275
				c-6.78302,12.987793-13.7419434,25.9881592-22.7605591,37.5931396
				c-21.4182129,19.5807495-39.5072632,42.4569702-60.3341064,62.6329956
				c-11.946106,11.5728149-23.6477051,23.8317261-37.0722656,33.7209473
				c-12.7051392,9.359314-27.5935669,15.2769165-40.9921265,23.519165
				c-4.3844604,2.6971436-0.3693237,9.6188354,4.0377197,6.9077759c13.4318848-8.2626953,28.0936279-14.375,40.9921875-23.519165
				c13.7801514-9.7692261,25.4896851-22.3616333,37.6590576-33.9832764
				c20.9939575-20.0490723,39.0426025-42.9976196,60.3792114-62.7008667
				c0.3453979-0.2216797,0.6782227-0.5231934,0.9871826-0.9207764c0.4208984-0.3847656,0.7086792-0.7979736,0.9138794-1.2200317
				c8.659729-11.3747559,15.6199341-23.7394409,22.2573853-36.3862915
				c6.3475952-12.0944824,13.9753418-24.0880127,17.4019165-37.4286499
				c0.4483643,0.4778442,1.0164795,0.8604736,1.6439819,1.1080933c1.1362915,0.9944458,2.3169556,1.9639282,3.6154785,2.880188
				c3.6070557,2.545105,7.3280029,4.8795776,11.2188721,6.9220581c-1.118103,1.6723022-2.0803223,3.4608154-3.0195312,5.2394409
				c-2.5761108,4.8787231-5.4143066,9.6149292-8.0308228,14.4736328
				c-4.7453003,8.8117065-10.2841797,17.6925049-13.9824219,27.0346069
				c-3.7698364,1.8498535-7.5229492,3.725769-11.2648926,5.6052856c-4.6108398,2.315979-0.5587769,9.2165527,4.0377197,6.9077759
				c19.2390137-9.6634521,38.6343994-18.9918823,59.2763062-25.2947998
				c8.2280273-2.5123901,16.4151001-5.1004028,24.6211548-7.6883545c7.4481201-2.348938,15.65271-4.8348389,23.6172485-4.4121704
				c0.4125366,0.182373,0.8629761,0.3203735,1.3792725,0.3641968c1.3796387,0.1171265,2.9957886,7.7850342,3.3310547,9.2201538
				c0.817627,3.5003052,1.3476562,7.0667114,1.8574829,10.6270142c-0.4295044-0.1298828-0.9043579-0.2016602-1.4502563-0.1624756
				c-10.286499,0.7380981-20.5932617,1.3435059-30.8114624,2.7938843
				c-11.1278687,1.5794678-21.0213623,5.1504517-31.5415649,8.9702759
				c-22.9887085,8.3471069-45.5517578,16.9518433-65.4628906,31.4893799
				c-0.5883789,0.4296265-1.0065308,0.940918-1.2875366,1.4904785c-0.4847412,0.1725464-0.9630737,0.4450073-1.4145508,0.8536377
				c-20.1269531,18.2186279-41.1409912,35.3424072-60.357666,54.5579834
				c-18.4230347,18.4219971-36.7446289,38.4172363-60.7377319,49.6018066
				c-4.6725464,2.1781006-0.6071167,9.072998,4.0377197,6.9077759
				c23.5723877-10.9884644,42.0048218-30.394165,60.0762329-48.5643311
				c19.9336548-20.0426025,41.7047119-37.897583,62.6383057-56.8463745c0.298584-0.2702637,0.520874-0.5562744,0.7094116-0.8475342
				c0.1242065-0.0736084,0.2487793-0.154541,0.3735352-0.2456665
				c18.9017334-13.8005371,40.1251221-22.1938477,61.9694824-30.1092529
				c10.0248413-3.6325073,19.6083984-7.4105225,30.1787109-9.1124878
				c10.4517822-1.6829834,21.0830688-2.1827393,31.6300049-2.9395752c1.9910278-0.1428833,3.2017822-1.4454346,3.6472168-2.9581299
				c2.4681396,1.036377,6.3684082-1.0944214,5.8405151-4.7519531c-0.8765869-6.0740967-1.4943848-17.7150879-6.196167-23.904541
				c0.1906738-1.7116089-0.6430054-3.404541-2.8712158-3.7781372c-0.5964355-0.0999756-1.1931763-0.1854858-1.789978-0.2598267
				c23.6486816-13.7426147,46.8552246-30.8519897,73.7441406-36.6497192
				c2.8129883-0.6065063,3.3870239-3.2735596,2.4747925-5.3260498c0.0043335-0.0362549,0.0169067-0.0667725,0.0205078-0.1035767
				c0.5004883-5.1460571,0.7324829-10.2941284,1.7388916-15.3548584c1.4380493-1.1450195,1.4699707-3.2678833,0.5181274-4.8908081
				c-0.9078979-2.612915-4.6707764-3.579834-6.6312256-1.6325684c-10.1449585,2.2855835-19.7029419,8.2075195-28.9295044,12.7001343
				c-2.6596069,1.2949829-5.3078003,2.6130371-7.9470825,3.9486694c7.1321411-4.2108154,14.4194946-8.1586304,21.7912598-11.9307861
				c8.1983643-4.1951294,16.8208008-7.6904297,24.2766113-13.18573c0.7744751-0.5708008,1.2603149-1.2813721,1.512085-2.0378418
				C449.746582,118.2959595,449.6845093,116.7202759,448.4940796,115.3636475z M365.0274048,68.960083
				c3.7454834,3.704834,8.1506958,6.6226196,12.484436,9.6333008c-7.0378418,8.302002-12.0668945,18.081604-18.9812012,26.5061035
				c-0.0386963,0.0471802-0.0606079,0.097229-0.0968018,0.1448975c-7.1442261,4.5987549-13.9642944,9.7070923-20.5084229,15.1142578
				c-16.1777344,13.3669434-30.2838745,29.1903076-42.5859375,46.1929932
				c2.9599609-8.0709839,5.4915161-16.3287964,8.2756958-24.475708
				C326.8253174,120.2896729,345.0025635,93.5736694,365.0274048,68.960083z M279.6800537,165.3442993
				c5.0349121-8.6189575,8.4378662-18.5015869,11.8052979-27.7581177c2.8557739-7.8499756,5.8442993-16.0390625,7.715332-24.3502197
				c1.7850952,1.545105,3.7407837,2.9125977,5.7194824,4.2177734
				c-8.0894775,16.6343384-12.1456299,34.9456177-19.1869507,52.0182495
				c-1.3151855-0.8204346-2.6196289-1.6630859-3.9112549-2.5377808
				C281.0686646,166.4240723,280.3634644,165.8900757,279.6800537,165.3442993z M283.4827881,203.5604248
				c2.1831055-4.1090698,4.5350342-8.1194458,6.8139648-12.1745605c1.8458252-3.2845459,3.2958374-6.8699951,5.986084-9.5474854
				c1.8228149-1.1347656,2.7736206-3.5276489,1.7357178-5.2515869c12.9443359-18.7544556,28.0872192-35.90271,45.5636597-50.5712891
				c8.9689331-7.5278931,18.6886597-14.1376343,28.9094238-19.8416138
				c5.3139038-2.9655762,10.8551025-5.7965698,16.6008911-7.8209839c2.9141846-1.0267944,5.8147583-1.8353271,8.6837769-2.8428345
				c2.6123657,5.1080322,5.4544067,10.0116577,8.8950195,14.5789185
				c-26.4857788,7.0594482-50.0681152,25.7669678-70.2677002,43.2854614
				c-22.9338379,19.8898926-44.1356812,42.4147339-62.0848389,66.9210205
				c-0.2167358,0.2958984-0.3779297,0.5904541-0.4989014,0.8816528c-0.0266724,0.0123901-0.0531616,0.0250244-0.0797729,0.0374756
				C276.8094482,215.2200317,280.3961182,209.3703003,283.4827881,203.5604248z M410.4130859,151.289917
				c8.1580811-4.0541382,16.7832642-9.295166,25.7050781-12.2091064c-0.5072021,3.7745972-0.770874,7.583374-1.1117554,11.3861084
				c-29.2121582,7.3102417-54.2570801,27.1119385-80.3799438,41.1663818
				c-1.237854,0.6660156-1.8217163,1.6647339-1.9489746,2.7137451c-7.3251953,1.0582275-14.6136475,3.3289795-21.7720947,5.7445068
				c15.8372803-12.1915894,32.5725098-23.1430054,49.9190674-33.0900879
				C390.5136108,161.4453735,400.4122314,156.2597656,410.4130859,151.289917z M419.3701782,127.9240112
				c-9.394165,4.729187-18.5782471,9.8901978-27.5447998,15.3845825
				c-17.4161377,10.671936-33.8123779,23.1413574-48.2001343,37.6639404
				c-8.8562622,6.1365967-17.4975586,12.5842896-25.8761597,19.3741455
				c-1.6380615,1.3274536-1.6551514,3.0508423-0.8327637,4.406311c-0.8803101,0.2706299-1.7583618,0.5346069-2.6323242,0.7848511
				c-8.7451782,2.5039673-17.2825317,5.6228027-25.6784668,9.1073608
				c15.6262207-19.8004761,33.4841309-38.0317993,52.3494873-54.647644
				c20.6501465-18.1878662,45.3417358-37.7185669,72.9794922-43.4041138c0.300293-0.0198975,0.5926514-0.090332,0.8791504-0.1842041
				c0.0432739-0.0084229,0.0861206-0.0187378,0.1293945-0.0270996c2.2420044-0.4325562,3.0646362-2.1854248,2.8530273-3.920166
				c0.0246582-0.930603-0.2808838-1.8974609-1.0879517-2.7653809c-1.1553345-1.2424927-2.2160645-2.5371094-3.237854-3.8537598
				c4.8479004-1.835083,10.3231201-2.4042358,14.7079468-5.0384521c3.4769897,5.7831421,7.3191528,11.3226929,11.5789185,16.5551758
				C433.28302,121.4334106,426.1923218,124.489624,419.3701782,127.9240112z"/>
		</g>
	</g>
</g>
</svg>
