<?xml version="1.0" encoding="utf-8"?>
<!-- Generator: Adobe Illustrator 18.0.0, SVG Export Plug-In . SVG Version: 6.00 Build 0)  -->
<!DOCTYPE svg PUBLIC "-//W3C//DTD SVG 1.1//EN" "http://www.w3.org/Graphics/SVG/1.1/DTD/svg11.dtd">
<svg version="1.1" id="Layer_1" xmlns="http://www.w3.org/2000/svg" xmlns:xlink="http://www.w3.org/1999/xlink" x="0px" y="0px"
	 width="500px" height="500px" viewBox="0 0 500 500" enable-background="new 0 0 500 500" xml:space="preserve">
<g>
	<g>
		<g>
			<path d="M437.0744629,53.9697266c-30.1787109,11.0040283-59.1915283,24.8652344-88.9685059,36.8646851
				c-25.4307861,10.2479858-50.6503906,20.9331055-75.1604004,33.2509766
				c-47.9604492,24.1029053-96.3083496,54.9933472-128.1398926,99.1524048
				c-18.0871582,25.092041-29.144165,54.6538086-32.1156006,85.4111328
				c-1.6092529,16.6575928,0.3618164,33.0500488,1.7550049,49.635376
				c1.5297852,18.2127075,1.144043,36.4498901-8.3198242,52.6413574c-0.4631348,0.7926025-0.6583252,1.5726318-0.6489258,2.3050537
				c-16.9487305,5.2624512-32.9350586,13.0210571-46.9289551,25.2783203
				c-4.3739014,3.8310547,2.0178223,10.1705933,6.3638916,6.3639526
				c40.557251-35.5240479,97.6507568-29.8719482,147.0443115-40.5997314
				c27.3718262-5.9448853,53.4385986-17.5699463,77.3864746-31.9238892
				c23.4467773-14.0537109,45.9606934-31.2452393,64.7861328-51.1152954
				c30.1229248-31.7947388,49.3214111-72.6781616,60.7741699-114.5820923
				c13.2021484-48.3053589,13.2897949-99.0632324,27.7076416-147.1466675
				C443.5419922,56.3972168,440.3254395,52.7843628,437.0744629,53.9697266z M398.6274414,228.6065063
				c-8.854248,25.1046753-21.2390137,49.0059204-37.2866211,70.2728271
				c-16.5848389,21.9788208-38.2471924,40.0065308-60.8052979,55.5626221
				c-18.7896729,12.9573975-39.0465088,23.9298706-60.401001,32.0217285
				c-21.0205078,7.965332-42.7142334,11.7724609-64.9394531,14.4359131
				c-18.3796387,2.2025757-37.1738281,4.2816162-55.2414551,8.4476929
				c17.0610352-18.8654175,37.2478027-34.5783081,55.7713623-51.9649658
				c21.9815674-20.6323242,40.3924561-44.880188,58.9456787-68.5395508
				c18.670166-23.8085327,37.6334229-46.9063721,59.4194336-67.9663696
				c21.7353516-21.0109253,44.9458008-40.4243164,67.3708496-60.680542
				c4.3154297-3.8980713-2.0697021-10.242981-6.3640137-6.3639526
				c-21.9812012,19.8554077-44.6499023,38.9506836-66.0664062,59.4265747
				c-21.8807373,20.9199219-40.9049072,43.9547729-59.559082,67.7350464
				c-18.6047363,23.7172852-37.0214844,47.9528809-58.8569336,68.8375244
				c-15.8763428,15.1850586-33.1625977,28.8848877-48.682251,44.4023438
				c4.1234131-19.9627686,0.4593506-40.9657593-0.7088623-61.7371216
				c-1.479248-26.2965698,3.7850342-52.6766968,14.8322754-76.552002
				c23.0327148-49.7785034,69.8032227-84.2214966,116.2449951-110.638855
				c27.6053467-15.7026367,56.6138916-28.8598022,85.9857178-40.8752441
				c31.1323242-12.7356567,61.7910156-26.9003296,93.2531738-38.8267822
				c-7.3688965,27.532959-10.9145508,55.8477783-14.791748,84.0606689
				C413.0510254,176.5638428,407.675415,202.9520874,398.6274414,228.6065063z"/>
		</g>
	</g>
</g>
</svg>
