<?xml version="1.0" encoding="utf-8"?>
<!-- Generator: Adobe Illustrator 18.0.0, SVG Export Plug-In . SVG Version: 6.00 Build 0)  -->
<!DOCTYPE svg PUBLIC "-//W3C//DTD SVG 1.1//EN" "http://www.w3.org/Graphics/SVG/1.1/DTD/svg11.dtd">
<svg version="1.1" id="Layer_1" xmlns="http://www.w3.org/2000/svg" xmlns:xlink="http://www.w3.org/1999/xlink" x="0px" y="0px"
	 width="500px" height="500px" viewBox="0 0 500 500" enable-background="new 0 0 500 500" xml:space="preserve">
<g>
	<g>
		<g>
			<path d="M410.635,146.311c-7.01-18.083-21.881-29.957-40.933-33.255c-6.297-1.09-12.558-1.207-18.754-0.608
				c-0.278-0.409-0.631-0.791-1.072-1.132c-11.613-8.971-24.697-14.263-38.851-8.244c-1.947,0.828-3.798,1.838-5.587,2.961
				c-10.919-9.454-24.745-16.346-38.638-10.391c1.286-7.661,3.899-15.663,11.392-17.879c4.221-1.248,8.971-0.728,13.276-0.309
				c5.765,0.561,14.029,0.359,18.063,5.111c4.214,4.965,7.53,16.292,15.968,11.984c6.551-3.345,11.941-10.855,16.551-16.347
				c4.512-5.375,10.546-11.69,11.3-19.024c0.401-3.896-1.513-6.722-4.623-8.849c-4.478-3.063-10.047-5.049-14.779-7.773
				c-11.715-6.745-24.197-5.618-37.044-3.158c-15.725,3.011-32.703,8.884-45.113,19.272c-10.258,8.586-15.937,21.404-19.437,34.013
				c-0.145,0.521-0.279,1.046-0.42,1.569c-12.975-0.995-26.005-0.528-38.495,3.471c-9.398,3.009-18.048,7.918-26.612,12.81
				c-5.747-4.104-12.181-6.671-19.886-6.689c-5.804-0.013-5.803,8.987,0,9c2.861,0.006,5.449,0.483,7.843,1.326
				c-2.577-0.169-5.176-0.194-7.786-0.068c-20.497,0.989-35.942,13.033-46.748,28.912c1.292-7.907,9.379-14.971,14.758-20.099
				c4.207-4.012-2.166-10.367-6.364-6.364c-9.3,8.868-21.905,21.614-16.342,35.697c0.325,0.822,0.807,1.461,1.382,1.936
				c-1,1.97-1.945,3.967-2.827,5.985c-2.3,5.263,5.452,9.85,7.771,4.542c8.61-19.703,22.11-37.539,44.506-41.236
				c10.11-1.669,20.777,0.063,29.848,4.702c6.887,3.522,16.814,10.385,17.232,19.062c-0.481,0.051-0.962,0.104-1.442,0.168
				c-8.408,1.117-16.518,4.048-24.19,7.577c-15.274,7.026-28.641,18.859-36.713,33.656c-2.78,5.096,4.992,9.638,7.771,4.542
				c6.99-12.813,17.908-22.342,30.737-29.076c6.408-3.363,13.313-5.653,20.357-7.247c8.588-1.943,17.505-0.827,26.089-3.009
				c8.301-2.11,15.979-3.612,24.609-1.99c9.518,1.789,15.829,7.322,15.072,17.451c-0.433,5.793,8.57,5.751,9,0
				c0.156-2.095,0.079-4.036-0.17-5.859c8.299-5.135,14.874-12.443,23.101-17.668c6.538-4.152,13.437-3.939,20.789-3.051
				c7.12,0.859,16.188,3.025,23.324,6.993c30.245,16.816,33.132,60.333,33.22,90.647c0.017,5.803,9.017,5.805,9,0
				c-0.097-33.593-4.205-77.114-35.512-97.126c-7.387-4.722-15.879-7.335-24.48-8.739c22.86-10.829,49.691-20.135,73.025-7.281
				c21.308,11.738,24.023,39.023,23.525,60.716c-0.733,31.916-9.488,62.957-12.42,94.655c-1.499,16.207-2.076,32.487-2.827,48.741
				c-0.597,12.931-1.003,25.955-4.252,38.551c-3.594,13.93-11.982,24.354-21.249,34.998c-9.147,10.505-18.318,20.871-26.616,32.068
				c-3.168,4.275-6.667,8.431-11.239,11.242c-5.747,3.533-13.029,2.288-19.039,0.204c-11.978-4.154-19.831-16.844-32.243-19.463
				c-10.079-2.126-16.626,7.099-22.732,13.405c-8.593,8.873-19.822,12.064-31.938,11.076c-11.489-0.937-22.845-6.491-31.103-14.407
				c-11.586-11.106-22.742-22.705-33.895-34.242c-6.674-6.904-13.904-13.607-19.454-21.477c-5.185-7.352-8.894-15.677-12.062-24.057
				c-6.516-17.236-12.115-35.213-16.854-53.01c-5.323-19.992-7.508-40.241-10.28-60.676c-2.934-21.626-6.431-43.201-6.524-65.081
				c-0.025-5.802-9.025-5.805-9,0c0.067,15.685,1.859,31.231,3.964,46.754c2.127,15.685,3.937,31.422,6.157,47.09
				c4.087,28.85,13.079,56.938,22.772,84.341c4.235,11.974,9.496,23.871,17.512,33.829c9.68,12.026,21.342,22.793,32.172,33.779
				c9.591,9.73,18.865,20.827,30.708,27.887c9.783,5.831,21.425,8.772,32.783,8.459c11.554-0.319,22.15-5.01,30.451-12.948
				c3.449-3.299,6.296-7.388,10.107-10.294c4.98-3.797,10.115,0.08,14.254,3.375c9.971,7.939,20.063,15.183,33.089,16.541
				c11.931,1.244,20.895-5.91,27.851-14.751c8.542-10.857,17.161-21.455,26.279-31.856c9.103-10.383,17.585-20.438,22.602-33.461
				c4.426-11.487,5.478-24.106,6.203-36.287c0.926-15.566,1.359-31.156,2.356-46.718c1.769-27.612,7.619-54.415,11.248-81.776
				C417.056,192.198,418.921,167.686,410.635,146.311z M202.903,146.416c-1.294,0.11-2.589,0.186-3.883,0.254
				c-0.726-9.785-7.978-17.446-16.15-23.082c-2.215-1.528-4.518-2.846-6.886-3.989c-0.169-0.72-0.546-1.436-1.187-2.097
				c-0.241-0.248-0.486-0.487-0.728-0.731c6.674-3.783,13.433-7.433,20.665-9.998c11.275-3.999,23.191-4.456,35.007-3.678
				c-1.596,7.058-2.847,14.2-3.686,21.375c-0.548,4.684-1.401,11.95,0.089,17.768c-4.203,0.169-8.307,0.781-12.005,1.767
				C210.35,145.015,206.858,146.08,202.903,146.416z M264.202,150.489c-1.901,1.57-3.9,2.993-5.971,4.311
				c-4.327-6.792-12.347-10.525-21.138-11.937c-0.177-0.118-0.363-0.231-0.57-0.333c-3.86-1.903-1.876-14.271-1.468-18.06
				c0.936-8.699,2.881-17.337,5.029-25.808c2.324-9.167,5.436-18.004,10.862-25.835c7.171-10.349,18.882-15.644,30.352-19.765
				c12.165-4.371,28.338-9.262,41.247-5.878c5.709,1.496,10.714,5.606,15.984,8.156c4.456,2.156,7.16,1.597,4.632,6.515
				c-3.279,6.377-9.093,12.096-13.907,17.303c-2.135,2.309-4.359,4.751-6.882,6.668c-1.187-1.538-2.126-3.417-3.137-4.987
				c-2.496-3.873-5.032-7.204-9.399-8.993c-6.148-2.519-13.071-2.876-19.628-3.514c-8.769-0.853-18.121,0.006-24.432,6.814
				c-7.408,7.99-8.299,21.553-9.412,31.82c-1.354,12.5-0.899,25.931,3.92,37.691c2.169,5.294,10.88,2.979,8.679-2.393
				c-4.816-11.753-4.794-24.656-3.39-37.105c0.298,0.057,0.611,0.094,0.949,0.094c0.129,0,0.239-0.027,0.362-0.036
				c0.042-0.003,0.085-0.008,0.128-0.013c0.734-0.07,1.365-0.286,1.889-0.62c10.255-5.512,20.764-0.151,29.194,6.918
				c-3.295,2.804-6.441,5.854-9.604,8.815c-0.939,0.383-1.622,1.067-2.049,1.895c-2.001,1.826-4.024,3.587-6.114,5.186
				c-4.543,3.476-0.069,11.299,4.542,7.771c6.964-5.328,13.106-11.827,19.95-17.338c0.417,0.433,0.829,0.863,1.226,1.288
				c3.976,4.243,10.328-2.135,6.364-6.364c-0.058-0.062-0.118-0.123-0.176-0.185c9.2-5.438,18.243-3.047,26.508,1.947
				c-15.084,3.594-29.633,10.638-43.173,17.465c-0.7,0.353-1.217,0.802-1.584,1.304c-1.357,0.104-2.718,0.268-4.087,0.541
				C279.66,135.864,271.915,144.12,264.202,150.489z"/>
			<path d="M245.484,304.732c1.198,14.201,2.614,28.408,5.658,42.347c3.038,13.908,7.258,27.523,10.089,41.482
				c1.153,5.686,9.828,3.273,8.679-2.393c-2.708-13.35-6.593-26.413-9.68-39.674c-3.197-13.731-4.518-27.742-5.745-41.762
				c-1.226-14.015-1.735-27.986-1.366-42.051c0.388-14.753,1.305-29.484,0.818-44.247c-0.191-5.788-9.192-5.807-9,0
				c0.466,14.114-0.309,28.212-0.761,42.315C243.703,275.466,244.246,290.065,245.484,304.732z"/>
			<path d="M117.405,271.578c0.266,21.559,3.34,43.054,9.061,63.836c1.539,5.588,10.222,3.213,8.678-2.393
				c-5.2-18.885-8.019-38.142-8.656-57.713c-0.303-9.3,0.343-18.562,0.292-27.854c-0.041-7.43-1.063-16.028,2.217-22.953
				c2.47-5.215-5.288-9.785-7.771-4.542c-3.442,7.268-3.573,15.267-3.5,23.17C117.813,252.618,117.288,262.088,117.405,271.578z"/>
		</g>
	</g>
</g>
</svg>
