<?xml version="1.0" encoding="utf-8"?>
<!-- Generator: Adobe Illustrator 18.0.0, SVG Export Plug-In . SVG Version: 6.00 Build 0)  -->
<!DOCTYPE svg PUBLIC "-//W3C//DTD SVG 1.1//EN" "http://www.w3.org/Graphics/SVG/1.1/DTD/svg11.dtd">
<svg version="1.1" id="Layer_1" xmlns="http://www.w3.org/2000/svg" xmlns:xlink="http://www.w3.org/1999/xlink" x="0px" y="0px"
	 viewBox="0 0 500 500" enable-background="new 0 0 500 500" xml:space="preserve">
<path id="path4182" inkscape:connector-curvature="0" d="M208.6469116,16.7430706
	c-3.6358948,0.0532837-7.3614044,0.3597889-11.1317902,0.9002476c-15.0815582,2.161829-30.972702,8.1744576-44.7423096,17.809742
	c-27.5392151,19.2705688-46.2714539,54.1247368-29.8446274,99.043335c0.8898163,2.5475769,3.6763611,3.891449,6.2239304,3.0016327
	c2.5475769-0.8898163,3.891449-3.6763611,3.0016327-6.223938c-0.0155945-0.044632-0.0318451-0.0890656-0.0487213-0.1332397
	c-15.0848312-41.24897,1.4142609-70.289299,26.2701721-87.6822205c12.427948-8.6964645,27.0261993-14.2077217,40.5263062-16.1428623
	c13.1872406-1.8902931,25.1967926-0.2436066,33.0836182,4.3268757
	c33.3797455,38.0403938,32.4506989,114.6285553,13.0772858,193.9787292
	c-18.1135712,74.1900635-51.7917938,150.4391785-84.493454,199.0769653
	c-1.6335449-0.7354736-2.9781342-1.3371582-4.6339111-2.0809937l-0.4842377-0.2170105l-0.5183411-0.1089783
	c-43.9619293-9.1883545-65.6348495-1.3814697-75.72789,10.5177307c-9.8538666,11.617218-7.5425873,25.546936-7.4265671,26.2104797
	c0.5245667,4.7080078,2.9913864,9.5949707,7.2607346,13.8524475c4.3089523,4.296936,10.6277008,7.7720032,18.5631027,8.4121094
	c15.8708038,1.2801819,36.9505692-8.3456116,63.3262558-40.0686035l0.0957184-0.1156311l0.0890808-0.1212769
	c0.9454498-1.290863,1.8947754-2.6969299,2.8419342-4.0331116c63.0804901,28.5094299,110.7024231,50.7650757,154.4322815,53.1600952
	c46.6011658,2.5523071,88.4919434-18.1184082,138.4182739-75.2313232c1.7968445-2.0132446,1.6214294-5.1019592-0.3918152-6.8988037
	c-2.0132751-1.796875-5.1019592-1.62146-6.8988342,0.3918152c-0.0224915,0.025238-0.0447388,0.0506592-0.0667419,0.0763855
	c-48.9394531,55.9839478-87.0463867,74.2874451-130.5264282,71.9060669
	c-40.4329529-2.214447-87.0608978-23.502594-149.3226624-51.5964966
	c33.3643036-50.0362244,66.7158813-126.1069641,84.9559021-200.8149109
	c19.7880554-81.0484924,22.42099-160.7663879-15.7950897-203.4142761l-0.4766541-0.53162l-0.6093292-0.3733673
	C229.6485443,18.7025948,219.5546265,16.5832176,208.6469116,16.7430706z M120.2378616,427.9629211
	c8.6281509-0.0004883,19.22509,1.1139832,32.2061234,3.7990417c0.8674774,0.3898621,1.5767212,0.7105103,2.4382477,1.0982971
	c-0.5171204,0.7204285-1.0380249,1.5015564-1.5541077,2.2070313
	c-25.3081665,30.4027405-43.8117523,37.3747864-54.9406967,36.4770813
	c-5.5710831-0.4493713-9.6098099-2.7597351-12.4489975-5.5910034c-2.8392029-2.8312988-4.2913742-6.3629456-4.4690247-8.0747375
	l-0.0189667-0.1829224l-0.0331879-0.1819153c0,0-1.76828-10.1231995,5.2394409-18.3849792
	c4.8178177-5.6799622,14.3528976-11.1643066,33.581131-11.1658936H120.2378616z"/>
</svg>
