<?xml version="1.0" encoding="utf-8"?>
<!-- Generator: Adobe Illustrator 18.0.0, SVG Export Plug-In . SVG Version: 6.00 Build 0)  -->
<!DOCTYPE svg PUBLIC "-//W3C//DTD SVG 1.1//EN" "http://www.w3.org/Graphics/SVG/1.1/DTD/svg11.dtd">
<svg version="1.1" id="Layer_1" xmlns="http://www.w3.org/2000/svg" xmlns:xlink="http://www.w3.org/1999/xlink" x="0px" y="0px"
	 width="500px" height="500px" viewBox="0 0 500 500" enable-background="new 0 0 500 500" xml:space="preserve">
<g>
	<g>
		<path d="M237.141,204.598c-11.952-35.336-35.822-68.155-63.828-92.526c-22.12-19.249-57.048-39.548-85.079-19.694
			c-15.422,10.923-23.488,29.996-28.21,47.657c-4.443,16.616-5.029,34.12-3.04,51.14c4.533,38.797,21.765,75.337,42.408,108.045
			c23.185,36.736,52.024,69.967,83.529,99.78c29.023,27.464,60.963,52.557,95.798,72.253c13.411,7.583,27.42,14.288,42.015,19.268
			c1.762,0.601,4.28-0.338,5.082-2.068c7.295-15.733,13.299-32.124,19.377-48.352c10.224-27.301,19.87-54.819,29.139-82.458
			c22.114-65.935,42.569-132.783,57.146-200.831c5.946-27.756,11.106-56.018,12.418-84.425c0.763-16.525,1.363-38.024-8.975-52.105
			C422.282,3.07,397.098,9.24,381.277,17.971c-28.079,15.497-49.943,42.568-69.342,67.43
			c-22.698,29.091-43.096,59.887-63.393,90.673c-8.553,12.973-17.062,25.98-25.909,38.756c-6.046,8.731-12.171,17.602-19.47,25.352
			c-3.975,4.221,2.378,10.597,6.364,6.364c7.63-8.102,14.062-17.381,20.406-26.495c9.034-12.98,17.677-26.232,26.38-39.435
			c20.692-31.387,41.456-62.841,64.754-92.38c18.999-24.087,40.699-50.694,68.745-64.586c9.248-4.581,19.797-6.966,29.873-3.887
			c2.578,0.788,4.367,1.806,6.357,3.834c1.678,1.711,3.132,4.097,4.509,7.214c2.759,6.246,3.946,15.621,4.362,23.32
			c0.621,11.489-0.092,23.044-1.21,34.48c-2.937,30.034-9.23,59.759-16.156,89.092c-15.95,67.553-36.807,134.003-59.39,199.603
			c-7.802,22.665-15.88,45.238-24.376,67.653c-5.08,13.404-10.084,26.758-15.738,38.953c1.694-0.689,3.388-1.379,5.082-2.068
			c-33.311-11.366-63.656-31.547-91.384-52.838c-34.197-26.258-65.355-56.82-92.64-90.18
			c-26.192-32.024-49.388-67.838-63.24-107.019c-12.145-34.352-16.05-72.303-1.311-106.519c6.313-14.656,16.64-28.353,33.087-31.548
			c14.634-2.843,29.881,4.235,41.961,11.753c16.014,9.966,29.699,23.607,41.748,38.001c12.318,14.716,22.904,31.076,31.074,48.447
			c2.304,4.898,4.307,9.925,6.041,15.051C230.311,212.457,239.006,210.112,237.141,204.598L237.141,204.598z"/>
	</g>
</g>
</svg>
