<?xml version="1.0" encoding="utf-8"?>
<!-- Generator: Adobe Illustrator 18.0.0, SVG Export Plug-In . SVG Version: 6.00 Build 0)  -->
<!DOCTYPE svg PUBLIC "-//W3C//DTD SVG 1.1//EN" "http://www.w3.org/Graphics/SVG/1.1/DTD/svg11.dtd">
<svg version="1.1" id="Layer_1" xmlns="http://www.w3.org/2000/svg" xmlns:xlink="http://www.w3.org/1999/xlink" x="0px" y="0px"
	 width="500px" height="500px" viewBox="0 0 500 500" enable-background="new 0 0 500 500" xml:space="preserve">
<g>
	<g>
		<g>
			<path d="M208.6112061,186.6080933c1.3585815-0.0006104,2.6997681,0.0762939,4.0291748,0.2061768
				c-0.0783081,0.1571655-0.1461792,0.3181763-0.1915894,0.4832764c-0.2129517,0.774292-0.1034546,1.6188354,0.3024292,2.3116455
				c0.4260254,0.7272949,1.0338745,1.0824585,1.7929077,1.3787231c0.9083252,0.3544922,1.8243408,0.4916992,2.791687,0.6057129
				c0.7438965,0.0876465,1.6151733-0.3724976,2.1213379-0.8787231c0.5600586-0.5600586,0.8786621-1.3287964,0.8786621-2.1212769
				c0-0.1365356-0.0218506-0.2703247-0.0403442-0.404541c3.4545898,0.8811035,6.8450317,2.0552368,10.2141113,3.3379517
				c-0.5494385-0.1228027-1.1015625-0.237793-1.6574097-0.3422241c-3.7809448-0.7104492-5.3947144,5.0717163-1.5950317,5.7857056
				c3.6584473,0.6873779,7.1917725,1.7080688,10.5007324,3.4366455c3.0648804,1.6010742,5.8015137-2.3707275,3.8883057-4.5090942
				c5.4976807,2.0866089,11.0698853,3.8939819,16.9084473,4.5947266
				c19.6950073,2.3638306,39.6029663-2.7015381,59.1893921,0.9646606c3.7811279,0.7077026,5.3951416-5.0744019,1.5950317-5.7857056
				c-4.2624512-0.7978516-8.531189-1.19104-12.8043213-1.3583374c-0.239502-1.4678955-1.4914551-2.3019409-2.949707-2.487915
				c-3.7479248-0.4780884-7.4350586-1.293335-11.2173462-1.4956665c-1.9454346-0.1040649-2.9054565,1.3621216-2.8915405,2.871582
				c-0.0111084,0.2991943,0.0189209,0.5965576,0.0849609,0.8872681c-0.0634766-0.0038452-0.1190796-0.0192261-0.1847534-0.0197144
				c-4.2860718-0.0317993-8.4675293-1.0194702-12.7130127-1.4956665c-1.8848877-0.2114258-2.8292847,1.1271973-2.859436,2.5951538
				c-3.8734131,0.0612793-7.7473145,0.0084229-11.6208496-0.2824707c-18.7699585-1.40979-34.579834-14.286499-53.5718384-14.2778931
				C204.7420654,180.6098633,204.7419434,186.6098633,208.6112061,186.6080933z"/>
			<path d="M492.9962158,234.0240479c-4.5181885-14.4579468-11.4226074-28.5071411-25.3496094-35.8608398
				c-18.9406128-10.0010376-42.7185669-4.4696655-63.1051636-4.8421021
				c-0.6369019-0.0116577-1.1582642,0.1524048-1.5853271,0.4159546c-3.0612793-0.5275269-6.1358643-0.8120117-9.2197266-0.9214478
				c-0.703064-0.3649902-1.5177612-0.3473511-2.2546387-0.0513306c-18.8578491-0.1828003-38.0122681,5.3797607-56.4383545-0.0838013
				c-3.71875-1.1026611-5.2957153,4.6883545-1.5950317,5.7856445c18.6785278,5.5384521,37.9973145-0.1756592,56.9729004,0.0990601
				c4.8782349,10.8851318,3.8746948,22.7977905,2.3955688,34.399353c-0.4884033,3.8308716,5.5175781,3.7838135,6,0
				c1.4790649-11.6016235,2.1205444-23.1160889-1.8118896-34.0313721c3.258606,0.3272095,6.5040283,0.8845215,9.7302856,1.7764282
				c1.5506592,0.4286499,2.7211914-0.3234253,3.3045654-1.4170532c12.1257324-0.3062134,25.0001221-1.9870605,37.1792603-0.6682739
				c-2.022644,8.0025024-3.8666992,16.0452271-6.6835327,23.8210449c-1.3209839,3.6466675,4.4785767,5.2033691,5.7857056,1.5950317
				c2.8963623-7.9955444,4.7661133-16.2728882,6.8572388-24.4989014c3.5241089,0.7183228,6.9672241,1.7593994,10.2902832,3.2433472
				c0.4920654,0.2197266,0.9526978,0.4725952,1.425415,0.7127686c-4.7736206,2.8190918-7.7824097,7.9398193-10.8446045,12.4978027
				c-2.1645508,3.2218628,3.0356445,6.2213135,5.1807861,3.0283203c2.6275635-3.9110107,5.395813-9.4920654,10.1723633-11.085083
				c0.5050049-0.168457,0.9008789-0.4299927,1.2145386-0.7428589c1.6759033,1.362793,3.189209,2.8837891,4.5827026,4.5124512
				c-1.99823,0.3369751-3.8763428,1.1008301-5.6162109,2.2138062c-3.2476807,2.0775757-0.2415771,7.272644,3.0283203,5.1807861
				c1.3944702-0.8920288,2.8233032-1.5340576,4.4684448-1.5845947c0.7886353-0.024231,1.4077148-0.3015747,1.8747559-0.7145386
				c1.309082,2.0706177,2.4712524,4.2533569,3.5253296,6.4996338c-7.3469238,0.8268433-12.8186035,5.5864258-17.243103,11.2790527
				c-2.343689,3.0154419,1.8704224,7.2947388,4.2426147,4.2426758c3.4099731-4.3873291,7.6912231-9.1038208,13.5830078-9.5908813
				c0.6789551-0.0561523,1.2323608-0.2971191,1.671875-0.644043c1.0639038,2.7478027,2.008667,5.5349121,2.8696899,8.2902222
				c1.6575317,5.3040161,3.0531616,10.640686,3.9370728,16.0671997c-0.1619873-0.024292-0.3234253-0.0496826-0.5018311-0.0496826
				c-2.8251343,0-5.6502075,0-8.4753418,0c-3.8692017,0-3.8692017,6,0,6c2.8251343,0,5.6502075,0,8.4753418,0
				c0.4616699,0,0.864502-0.0899658,1.2160034-0.2404785c0.1630859,1.8485107,0.276001,3.7062988,0.288269,5.5828857
				c0.0011597,0.1743164-0.0048218,0.3479004-0.0055542,0.5222168c-0.3574829-0.2043457-0.7740479-0.3447266-1.2494507-0.3979492
				c-5.4699707-0.6115723-10.9519653-0.7504883-16.4521484-0.7478027c-3.8691406,0.0018311-3.8693237,6.0018311,0,6
				c5.5001831-0.0026855,10.9821777,0.1362305,16.4521484,0.7478027c0.3427124,0.0383301,0.6434937,0.0101318,0.9244995-0.0454102
				c-0.7716675,6.9508057-2.8364868,13.7089844-5.4162598,20.2175293c-0.0887451,0.223877-0.1812744,0.4443359-0.2713623,0.6669922
				c-3.4429932-0.5892334-7.0028687-0.9842529-10.1748657-2.4991455c-3.4727173-1.6585693-6.5185547,3.513916-3.0283203,5.1807861
				c3.4418945,1.6437988,7.0350952,2.2763672,10.7120972,2.9343262
				c-3.2145996,6.5946045-7.2474365,12.5512695-12.7127075,17.7370605
				c-4.6416626,4.4042969-9.743103,8.2600098-14.5282593,12.4931641c-0.9886475-1.1737061-1.9897461-2.3366699-3.0182495-3.4763184
				c-1.0958862-1.2143555-3.1311646-1.1114502-4.2426147,0c-1.2001343,1.2001953-1.0946045,3.0297852,0,4.2426758
				c0.9891357,1.0960693,1.953064,2.213623,2.9053955,3.3411865c-0.3828735,0.4172363-0.6083984,0.8636475-0.7116089,1.3148193
				c-16.9022827,2.8266602-33.6951294,7.1040039-50.5476074,7.5229492
				c8.3272705-1.1390381,16.6060181-2.652832,24.8494873-4.4277344c3.7817993-0.814209,2.1776733-6.5979004-1.5950317-5.7856445
				c-11.1295166,2.3961182-22.3093262,4.2832031-33.5958252,5.3936768c1.0933228-0.371582,2.1866455-0.743042,3.2836304-1.1036377
				c3.541626-1.1645508,2.1791382-6.6140137-1.2561646-5.861084c3.0559692-1.3442383,6.2092285-2.4838867,9.3656616-3.5454102
				c12.2980957-4.1359863,25.3731079-4.190918,38.2059937-4.1965332c3.8691406-0.001709,3.8692627-6.001709,0-6
				c-13.7405396,0.0059814-27.5460205,0.2893066-40.6955566,4.7116699
				c-7.6975098,2.5888672-19.9326172,6.1879883-23.9643555,13.9741211c-0.1461792,0.2824707-0.2300415,0.5595703-0.2877808,0.833252
				c-0.3777466,0.1943359-0.6818237,0.4669189-0.9179688,0.7900391c-0.0314941,0.0408936-0.0588379,0.0834961-0.0877075,0.1256104
				c-0.0567017,0.0871582-0.1106567,0.1746826-0.1577148,0.2675781c-0.0564575,0.1068115-0.1046143,0.2158203-0.1467896,0.3282471
				c-0.0158081,0.0429688-0.0307007,0.0855713-0.0446777,0.1292725c-0.0429077,0.1331787-0.0773926,0.2670898-0.1016235,0.4049072
				c-0.0107422,0.0581055-0.0182495,0.1158447-0.026062,0.1745605c-0.0117798,0.098877-0.0223999,0.1967773-0.0251465,0.2963867
				c-0.2664795-0.0825195-0.5326538-0.1556396-0.7991943-0.2415771c-3.6930542-1.19104-5.2617798,4.6031494-1.5950317,5.7857666
				c28.8912354,9.317627,57.2868042-0.1687012,86.0993042-4.4870605c2.4821167-0.3719482,2.6517334-2.9412842,1.432312-4.5405273
				c5.986084-5.5928955,12.637207-10.4205322,18.4719238-16.1831055
				c7.0310059-6.9440918,11.2595825-15.6850586,14.9920654-24.7062988
				C500.6246338,272.6958008,499.1566772,253.7370605,492.9962158,234.0240479z"/>
			<path d="M390.3062744,251.6660156c0.0093384,0.0002441,0.0170898,0.0028076,0.0264893,0.0029297
				c10.2602539,0.0778809,20.6610718,1.9494629,30.0087891,5.8435059
				c-11.2387085,2.2290039-28.402771,7.8564453-29.2696533,20.3215332c-0.0411987,0.5925293,0.0778198,1.0821533,0.288208,1.4919434
				c0.1245728,0.9804688,0.541626,1.8911133,1.3383179,2.6236572c1.2028198,1.105835,3.0505371,1.1920166,4.2426147,0
				c1.007019-1.006958,1.1672363-2.7337646,0.3148193-3.8775635c-0.0215454-0.2233887-0.05896-0.4423828-0.1219482-0.6522217
				c0.6974487-5.022583,7.4190063-7.9838867,11.4173584-9.8253174c5.0824585-2.3408203,10.71698-3.9056396,16.2311401-4.8154297
				c1.3422241-0.2214355,1.9987183-1.0852051,2.1359253-2.0800781c1.4104004,0.7866211,2.7854614,1.6271973,4.1210938,2.5229492
				c-12.0292358,1.6655273-25.9475098,8.8635254-28.491333,20.6169434c-0.8234863,0.9450684-0.9481812,2.3204346-0.3477783,3.486084
				c0.8778076,1.7043457,2.0777588,3.2700195,3.4603882,4.5955811c1.1796265,1.1309814,3.0686646,1.1739502,4.2426758,0
				c1.1375732-1.1375732,1.1801758-3.111084,0-4.2425537c-0.2687988-0.2578125-0.5284424-0.5219727-0.7817383-0.7949219
				c-0.0519409-0.0559082-0.4351807-0.5185547-0.5061035-0.5915527c-0.145813-0.1955566-0.2797852-0.3990479-0.4135132-0.6029053
				c0.0307007-0.1243896,0.0698242-0.2425537,0.0872803-0.3763428
				c1.4624634-11.1940918,19.7196045-16.8065186,29.1564941-16.4433594
				c0.2252197,0.0085449,0.4343262-0.0078125,0.6332397-0.0383301c1.0582886,1.0002441,2.0752563,2.0476074,3.0491333,3.1418457
				c-0.7683716-0.0533447-1.5358887-0.0546875-2.3012695-0.0087891c-1.2640991-0.3990479-2.5519409-0.7296143-3.8242188-1.0107422
				c-2.1325073-0.4714355-3.5692139,1.1743164-3.7333984,2.8439941c-4.8673096,1.9838867-9.432251,5.2312012-13.2854614,8.1772461
				c-3.0294189,2.3161621-0.0466309,7.5317383,3.0283203,5.1806641c4.6921387-3.5874023,11.015686-8.4802246,17.3687134-9.1296387
				c1.3771362,0.4746094,2.7009277,1.0935059,3.7315063,1.9348145c-2.8731079,0.8323975-5.421875,2.4174805-7.5357666,4.7266846
				c-2.6066284,2.8474121,1.6248779,7.1021729,4.2426758,4.2425537c1.8475342-2.0180664,4.0693359-3.4154053,6.8526001-3.6081543
				c1.135498-0.0787354,1.9285278-0.6647949,2.3945923-1.4367676c0.2594604-0.098877,0.5037231-0.222168,0.7206421-0.3791504
				c0.520874,1.090332,1.0189209,2.2009277,1.4701538,3.3525391c0.1085815,0.2769775,0.2510986,0.5125732,0.4075928,0.729248
				c-0.0245972,0.3244629-0.0063477,0.6619873,0.0909424,1.015625c0.0501099,0.1821289,0.12146,0.3604736,0.2105713,0.5319824
				c-0.322937,0.338623-0.5796509,0.7792969-0.7091064,1.362793c-1.621582,7.3076172-5.0261841,13.9106445-7.4782715,20.939209
				c-1.2779541,3.6630859,4.5197144,5.2237549,5.7857056,1.5949707c2.4520264-7.0285645,5.8566284-13.6315918,7.4782715-20.9390869
				c0.1464844-0.6600342,0.0811768-1.2486572-0.1162109-1.7584229c0.5658569-0.0302734,1.1090698,0.0949707,1.9099121,0.3638916
				c1.5506592,0.520752,3.2749023-0.5849609,3.6903076-2.0953369c0.4518433-1.6425781-0.5465698-3.1702881-2.0952759-3.6904297
				c-1.196106-0.4016113-2.487793-0.595459-3.7644653-0.5479736c-0.7005005-1.7050781-1.468811-3.3500977-2.3009033-4.9364014
				c1.4938354-0.5124512,2.9414673-1.1774902,4.2892456-1.9946289c1.395813-0.8461914,1.9126587-2.6767578,1.0762329-4.1044922
				c-0.815918-1.3928223-2.7053223-1.9245605-4.1045532-1.0762939c-0.6612549,0.4008789-1.3383789,0.762085-2.0390625,1.0889893
				c-0.0840454,0.0393066-0.1300049,0.0615234-0.1801147,0.0855713c-0.0386963,0.0106201-0.121521,0.0386963-0.321167,0.1147461
				c-0.4033813,0.1536865-0.8162231,0.2805176-1.2299805,0.4024658c-0.2116699,0.0623779-0.40979,0.1494141-0.5975952,0.2514648
				c-1.390625-2.0759277-2.9015503-4.03125-4.5195312-5.8706055c0.8753662-1.777832,0.0280762-4.4589844-2.56073-4.4589844
				c-0.557312,0-1.0247803,0.1348877-1.4215088,0.3479004c-1.6625366-1.5490723-3.4154663-2.9898682-5.2380981-4.3381348
				c0.0247192-0.0654297,0.0585327-0.119873,0.0800171-0.1890869c2.8019409-9.0107422,10.5875244-15.3499756,13.4608765-24.4289551
				c1.1707764-3.6992798-4.6226807-5.2698975-5.7857056-1.5950317c-2.6806641,8.4702148-9.6983643,14.5553589-12.8866577,22.788269
				c-4.1374512-2.4799805-8.5667725-4.5223389-13.1964111-6.1323242c0.0031128-0.2318115-0.0062866-0.4660645-0.0384521-0.7023926
				c-0.312439-2.2937012,0.0596924-4.6325684,0.4985352-6.880249c0.737915-3.7792358-5.0446167-5.3904419-5.7856445-1.5950317
				c-0.4866333,2.4924927-0.7762451,4.8942261-0.7131348,7.3549194c-5.4742432-1.4284668-11.1484985-2.310791-16.8812866-2.6566162
				c0.4934692-0.7681885,0.9653931-1.5567627,1.390686-2.3866577c1.7608643-3.4362793-3.4158325-6.4726562-5.1807861-3.0282593
				c-4.8241577,9.4145508-14.2384033,13.5944824-24.5088501,13.612793
				c-11.5979614,0.020752-18.8319092-6.8803711-28.2744141-12.3327026
				c-5.8657227-3.3870239-11.4863892-7.5969849-17.9274902-9.7625732
				c-10.520752-3.5372314-22.6422729-2.729248-33.3136597-0.3744507c-1.8881226,0.416626-2.4321289,2.0698242-2.0333862,3.515625
				c-9.3989258,2.993103-18.2215576,8.4089355-25.8381958,14.4558105c-3.0297241,2.4052734,1.2463379,6.62146,4.2426147,4.2426758
				c8.0509644-6.3917236,17.756897-11.9191284,27.8413696-14.1849976c1.7211304-0.3867188,2.3150635-1.7987061,2.1049805-3.1414185
				c10.7435303-1.7207031,22.553833-1.3269653,31.9485474,4.2614136c2.5869751,1.5388794,4.5910034,3.4750366,7.3255615,4.7937622
				c4.5535889,2.1958008,8.5960693,5.2229004,12.6990356,8.1411133c1.6751709,1.1914062,3.4663086,2.2077637,5.3322754,3.0699463
				c-5.1538696,4.2780762-15.742981-1.4742432-21.2713013-2.7191162c-0.3778076-0.0852051-0.7268677-0.0881348-1.0578613-0.0515137
				c-4.8823853-7.6101074-13.496582-12.5151978-22.3739624-13.907959c-3.7838135-0.5936279-5.4087524,5.1872559-1.5950317,5.7856445
				c8.8079834,1.3818359,16.9129639,6.2456055,20.6418457,14.5749512c1.0822754,2.4174805,3.8510742,1.7409668,4.980957-0.0506592
				c8.1936646,2.3184814,18.6565552,7.1380615,25.4061279,0.1593018c0.5333252-0.5515137,0.7855835-1.1599121,0.8401489-1.760498
				C368.2468872,261.9346924,381.5197754,259.5488281,390.3062744,251.6660156z M397.2633667,278.7053223
				c-0.0056152,0.0421143-0.0112915,0.0841064-0.0169678,0.1262207c0.0050659-0.0466309,0.0117798-0.0931396,0.0151367-0.1396484
				C397.262146,278.6965332,397.2627563,278.7009277,397.2633667,278.7053223z"/>
			<path d="M294.7332764,244.3040771c-7.4660034,6.9735107-13.0831909,16.2259521-17.0991821,25.5419922
				c-3.6572876,8.4840088-6.3672485,18.7125244-2.0655518,27.4499512c1.7091064,3.4713135,6.8833008,0.4295654,5.1808472-3.0283203
				c-3.8212891-7.7615967,0.322876-17.8814697,3.715332-25.0388184c3.5748901-7.5423584,8.3865967-14.9616699,14.5112305-20.682251
				C301.8088989,245.9006348,297.5569458,241.666687,294.7332764,244.3040771z"/>
			<path d="M391.7062988,267.2423096c2.7644043-2.7139893-1.4807129-6.9542236-4.2426758-4.2425537
				c-2.6782227,2.6292725-4.4326172,5.9256592-5.9324951,9.328125c-1.2098389,2.7443848-1.9356689,5.9211426-3.510498,8.4790039
				c-1.1534424,1.8735352,0.0166626,3.6499023,1.6144409,4.2403564c0.1223145,0.2763672,0.2902222,0.5338135,0.4991455,0.7672119
				c0.0255737,0.0314941,0.0494995,0.0635986,0.0765381,0.0939941c0.0089722,0.0092773,0.0148315,0.0205078,0.0239258,0.029541
				c0.3323364,0.3322754,0.6647339,0.6647949,0.9970703,0.9970703c1.1558228,1.1557617,3.086853,1.1557617,4.2426147,0
				c1.1558228-1.1557617,1.1558228-3.0869141,0-4.2426758c-0.3323364-0.3322754-0.6647339-0.6646729-0.9970703-0.9970703
				c-0.0169678-0.0169678-0.0374756-0.0280762-0.0547485-0.0444336c-0.0099487-0.010498-0.0214844-0.0195312-0.0316772-0.0297852
				C386.7086792,276.7390137,387.644165,271.2302246,391.7062988,267.2423096z"/>
			<path d="M306.5266724,208.9356689c3.7676392,0.8543091,5.3678589-4.9301758,1.5950317-5.7856445
				c-3.0819702-0.6987915-6.718811-0.7234497-9.0473022,1.7675781c-1.8344116,1.9624023-2.211853,4.8982544-1.3583374,7.3892212
				c0.9026489,2.6342163,2.8852539,4.7196655,5.55896,5.5666504c3.3669434,1.0665894,6.7612305-0.7305298,9.1617432-2.9788818
				c2.8292847-2.6499023-1.4222412-6.8841553-4.2426147-4.2426147c-0.1642456,0.1538086-0.3328247,0.3014526-0.5020142,0.4489746
				c-0.0286255,0.0149536-0.3648682,0.2841797-0.406311,0.3126831c-0.2024536,0.1392822-0.4158325,0.2614746-0.6292725,0.3827515
				c-0.1107178,0.0629272-0.1768188,0.102356-0.2249146,0.1320801c-0.0198364,0.0061035-0.0372314,0.0111694-0.0753784,0.0254517
				c-0.1920776,0.0719604-0.390625,0.1242065-0.5888062,0.1757812c-0.0522461,0.0136108-0.0753784,0.020813-0.1127319,0.031189
				c-0.0131836,0.0006714-0.0142822-0.0004883-0.031189,0.0007324c-0.1624146,0.0115356-0.3253784,0.0046387-0.487854-0.0020752
				c-0.0345459-0.0089722-0.0540771-0.0151978-0.1032715-0.0268555c-0.0991211-0.0234375-0.194519-0.0594482-0.2909546-0.0921021
				c-0.0253296-0.0115356-0.0504761-0.0231323-0.071167-0.0340576c-0.1248169-0.0657959-0.2422485-0.1442871-0.3598633-0.2221069
				c-0.0270386-0.026123-0.045105-0.0446167-0.0870361-0.0831909c-0.1204834-0.1109009-0.230835-0.2324829-0.3408813-0.3535156
				c-0.0116577-0.017395-0.0148926-0.0231934-0.0288086-0.0436401c-0.0897827-0.131897-0.2807007-0.5275269-0.3760376-0.7111816
				c-0.0685425-0.2067871-0.1382446-0.4133301-0.1865234-0.6256104c-0.0097046-0.1560669-0.017334-0.3123779-0.0151367-0.468689
				c0.000061-0.0039673,0.0005493-0.0094604,0.0006714-0.0136108c0.0238647-0.105896,0.0453491-0.2122803,0.0759888-0.3164062
				c0.022583-0.0372314,0.0457764-0.0740967,0.069519-0.1108398c0.0273438-0.0275879,0.0517578-0.0578613,0.0794678-0.085022
				c0.020813-0.0124512,0.0290527-0.0161743,0.0544434-0.0317993c0.0216675-0.0133667,0.0491333-0.0283203,0.0787354-0.0436401
				c0.1780396-0.059082,0.3573608-0.1152344,0.5397339-0.1576538c0.017334-0.0040283,0.019165-0.005249,0.0339355-0.0087891
				c0.3060913-0.0272217,0.6141968-0.0212402,0.9207153-0.012207c0.1980591,0.0057983,0.3951416,0.0286255,0.5921021,0.0495605
				C305.5610962,208.7659302,306.4250488,208.9126587,306.5266724,208.9356689z M303.2381592,209.614502
				c-0.0007324,0.0050049-0.0012207,0.0084839-0.0019531,0.0136108
				C303.2297974,209.5681763,303.2296143,209.552002,303.2381592,209.614502z M304.8718872,212.0963745
				C305.0871582,212.1757202,305.0062866,212.1503906,304.8718872,212.0963745L304.8718872,212.0963745z M303.2669067,209.8537598
				c-0.0119019-0.0714111-0.0223389-0.1503906-0.0288696-0.2080078c0.0006714-0.0039673,0.0021973-0.0077515,0.0028687-0.0117188
				C303.246582,209.6781616,303.2550659,209.7493896,303.2669067,209.8537598z"/>
			<path d="M236.2310791,212.6748047c6.4424438,1.2711182,12.9876709,0.5009766,19.4434204,1.4956665
				c2.118042,0.326355,3.5579834-1.3414307,3.7479248-2.9761353c0.9979248,0.2270508,1.993042,0.4665527,2.9825439,0.732666
				c3.7416992,1.0064087,5.3276367-4.7817383,1.5950317-5.7857056c-2.2218628-0.5975952-4.4642944-1.0975342-6.7304688-1.4956055
				c-0.6436768-0.1130981-1.2849731-0.0629272-1.8569336,0.1370239c0.6575317-1.5384521,0.2163696-3.4788208-1.8821411-3.8761597
				c-2.9844971-0.5651245-6.0289917-0.7216187-8.973938-1.4956665c-3.7462158-0.9846191-5.3341675,4.8029175-1.5950317,5.7857056
				c2.9456177,0.7741699,5.989563,0.930542,8.973877,1.4956055c0.6444092,0.1220093,1.2195435,0.0444946,1.7219238-0.1538086
				c-0.024292,0.0692139-0.0579834,0.1296387-0.078064,0.2025757c-0.1088867,0.395874-0.1161499,0.8261108-0.0474243,1.2502441
				c-5.242981-0.3701172-10.5372925-0.0823364-15.7056885-1.1020508
				C234.0473633,206.1436157,232.4368896,211.9262695,236.2310791,212.6748047z"/>
			<path d="M291.819397,223.5905762c-6.9297485,1.940918-13.8573608,3.8869019-20.6549072,6.1362915
				c0.9328003-1.6035767,0.6190796-3.8225708-1.680481-4.1420898c-3.449585-0.4793701-6.8601074-1.0864868-10.2696533-1.6330566
				c0.0928955-0.0135498,0.1860962-0.0258179,0.2736206-0.046814c3.682251,0.9260864,5.2216797-4.7825928,1.5206909-5.7984009
				c-7.246582-1.9888916-14.6210327-3.0341797-22.043396-3.446167c-3.8505859-1.1679688-7.6535645-2.5430908-11.4352417-3.9584351
				c-9.8908081-3.7016602-19.6977539-7.097168-29.8681641-9.9584351
				c-10.2262573-2.8769531-20.5464478-5.3919678-31.1681519-6.1818848
				c-7.7804565-0.5786133-15.7251587,0.4171143-23.4320679,2.024231
				c-5.0875854-1.7180176-10.1843872-3.4059448-15.2719727-5.1049194
				c-20.5933838-6.8771362-41.2791748-13.5040894-61.7670288-20.6917114
				c-10.0634766-3.5305176-19.9614868-7.5346069-30.0787354-10.9078369
				c-5.1887817-1.7300415-10.5009155-3.1437988-15.9135742-3.9533081c-4.977478-0.7443848-9.9346313-0.5714111-14.7778931-2.1344604
				c-3.6928101-1.1917725-5.2614746,4.602417-1.5950928,5.7856445c3.9989624,1.2905884,8.0831299,1.6082764,12.2530518,1.918335
				c5.7015381,0.4240112,11.2163696,1.9293213,16.6618042,3.5994263
				c10.1682739,3.1185303,20.0293579,7.2749023,30.0465698,10.8389282
				c21.0571899,7.4918823,42.3828735,14.236084,63.5758667,21.3306274c1.9718018,0.6600952,3.9391479,1.322998,5.90625,1.9864502
				c-18.0385132,5.013855-35.8381958,13.2371826-52.2680664,21.9384155
				c-4.2528687,2.2523193-8.6433105,4.8989258-13.1567993,7.4975586
				c-17.0001831,0.4042358-34.0087891,0.5231323-51.0037231,0.527771c-3.8692017,0.0010376-3.8692627,6.0010376,0,6
				c13.0964966-0.0036011,26.1956787-0.0819092,39.2908936-0.3081055
				c-7.3527222,3.430542-14.9807129,5.8348389-22.8387451,5.5254517c-3.8706055-0.1524048-3.855835,5.8481445,0,6
				c12.6394653,0.4976807,24.8106079-5.5109863,36.0290527-11.8106079
				c24.6541138-0.6292725,49.2862549-1.868103,73.8516235-4.2209473c9.9257202-0.9506836,19.7967529-2.2290649,29.6561279-3.5957642
				c11.982605,3.8482056,24.1728516,6.411377,37.1199341,5.4788818c10.0320435-0.7225342,19.9491577-2.5876465,29.9693604-3.4561157
				c9.6468506-0.8361206,18.626709,1.0281372,28.0738525,2.3884277
				c-10.013855,3.5585938-19.6796265,7.9289551-28.5679321,14.1126099c-3.1516113,2.192627-0.1567383,7.3967285,3.0283203,5.1809082
				c15.7420044-10.9519043,33.8875122-16.0258789,52.1296387-21.1352539
				C297.1347046,228.3342285,295.5524292,222.5449829,291.819397,223.5905762z M237.1903076,220.5339966
				c1.4816284,0.4293213,2.9675293,0.8334351,4.4598389,1.1990356c-8.1067505-0.019104-16.0731201-0.1130981-23.9133911-0.8119507
				C224.2180786,220.4316406,230.7236328,220.2334595,237.1903076,220.5339966z M166.4937134,200.5615845
				c11.2276611,0.5700684,22.2765503,3.8997803,33.0292969,6.942749c7.0119629,1.984375,13.9650879,4.6644897,20.9547119,7.2872925
				c-5.3787842,0.3270264-10.7492676,0.8560181-16.0814209,1.4925537c-2.4564819,0.2932739-4.9102783,0.6033936-7.3623657,0.9237671
				c-4.0072632-1.157959-7.9862061-2.5968628-11.9358521-4.4285889
				c-9.7335205-4.5140991-19.7340698-8.3778076-29.8362427-11.9719238
				C158.9963379,200.4745483,162.7470703,200.3713379,166.4937134,200.5615845z M143.9418945,224.2123413
				c-21.5056763,2.164978-43.0807495,3.4146729-64.6786499,4.1247559
				c17.2109375-9.5028076,35.7647095-17.8030396,54.6159058-23.3209839c2.8408813-0.831543,5.7189331-1.5749512,8.6218872-2.2120972
				c14.074707,4.8754272,27.9867554,10.0625,41.628479,16.1735229c-3.9508667,0.5587158-7.901123,1.1206055-11.8519897,1.6778564
				c-5.1472168-1.6581421-10.2809448-3.5527954-15.4658203-5.5401611c-3.6189575-1.387207-5.1695557,4.4155273-1.5950317,5.7856445
				c1.3447876,0.5155029,2.6891479,1.0249634,4.0336304,1.5303345
				C154.1576538,223.0897217,149.0571289,223.6973877,143.9418945,224.2123413z M187.2017822,224.6148071
				c2.7750854-0.392334,5.5516968-0.7788086,8.3295288-1.1600342c4.1790771,1.2710571,8.4572144,2.1828003,12.7983398,2.8121338
				C201.0577393,226.644104,194.0629272,225.9760742,187.2017822,224.6148071z"/>
			<path d="M420.3673096,203.3820801c-0.0278931-0.0447388-0.0453491-0.0949097-0.0705566-0.1411133
				c-0.0526123-0.161438-0.1109619-0.3209839-0.1494141-0.4884033c-0.3659058-1.59375-2.1659546-2.5146484-3.6903687-2.0952759
				c-1.6260986,0.4472656-2.4609375,2.0979004-2.0953369,3.6903076c0.2921143,1.2722778,0.9321289,2.3353882,1.7686157,3.3180542
				c1.0609741,1.2462158,3.15625,1.0864258,4.2426758,0c1.1716919-1.1716919,1.0609741-2.8401489,0.1234741-4.0721436
				c0.0169678,0.0212402,0.026123,0.0328369,0.0449829,0.0563354
				C420.4799805,203.5627441,420.4219971,203.4735107,420.3673096,203.3820801z"/>
			<path d="M447.5389404,259.260498c-0.3323975,0.3325195-0.6647339,0.6647949-0.9971313,0.9971924
				c-1.1557617,1.1557617-1.1557617,3.086792,0,4.2425537c1.1558228,1.1558838,3.086853,1.1558838,4.2426758,0
				c0.3323364-0.3322754,0.6647339-0.6646729,0.9970703-0.9970703c1.1558228-1.1557617,1.1558228-3.086792,0-4.2426758
				C450.6257935,258.1047363,448.6947632,258.1047363,447.5389404,259.260498z"/>
		</g>
	</g>
</g>
</svg>
