<?xml version="1.0" encoding="utf-8"?>
<!-- Generator: Adobe Illustrator 18.0.0, SVG Export Plug-In . SVG Version: 6.00 Build 0)  -->
<!DOCTYPE svg PUBLIC "-//W3C//DTD SVG 1.1//EN" "http://www.w3.org/Graphics/SVG/1.1/DTD/svg11.dtd">
<svg version="1.1" id="Layer_1" xmlns="http://www.w3.org/2000/svg" xmlns:xlink="http://www.w3.org/1999/xlink" x="0px" y="0px"
	 width="500px" height="500px" viewBox="0 0 500 500" enable-background="new 0 0 500 500" xml:space="preserve">
<g>
	<g>
		<g>
			<path d="M310.969,217.604c9.286-15.681-16.292-27.153-28.743-25.121c-23.725,3.873-43.576,19.193-60.307,35.609
				c-18.004,17.665-33.622,37.913-49.551,57.419c-19.769,24.207-38.954,48.904-57.165,74.307
				c-13.726,19.147-26.07,39.111-39.159,58.672c-12.035,17.985-25.95,34.757-34.225,54.962c-1.497,3.656,3.124,5.752,5.876,4.517
				c53.276-23.902,95.391-67.237,140.747-102.877c23.874-18.76,48.009-37.229,70.404-57.768c15.513-14.227,31.69-28.7,45.017-45.031
				c8.085-9.908,15.3-21.168,17.861-33.87c2.707-13.423-1.72-25.972-10.382-36.248c-3.329-3.95-8.959,1.739-5.657,5.657
				c6.839,8.114,10.167,17.899,8.325,28.465c-1.748,10.024-7.32,19.035-13.271,27.092c-12.27,16.61-28.614,30.431-43.56,44.566
				c-22.065,20.867-46.204,39.404-70.088,58.106c-23.252,18.207-45.591,37.454-68.487,56.091
				c-23.158,18.851-47.587,36.637-74.946,48.911c1.959,1.506,3.917,3.011,5.876,4.517c5.537-13.518,14.076-25.59,22.481-37.441
				c8.56-12.071,16.494-24.444,24.534-36.861c17.308-26.732,36.093-52.501,55.61-77.656c17.341-22.352,35.287-44.264,53.528-65.887
				c15.811-18.742,33.005-37.466,54.772-49.33c8.156-4.446,19.272-9.606,28.774-7.648c4.918,1.014,19.102,5.597,14.83,12.81
				C301.426,218.016,308.343,222.038,310.969,217.604L310.969,217.604z"/>
		</g>
	</g>
	<g>
		<g>
			<path d="M316.495,212.262c9.686-11.114,21.329-20.137,33.151-28.847c12.346-9.096,24.439-18.255,36.068-28.262
				c12.666-10.899,25.234-21.912,37.724-33.012c10.806-9.604,20.466-21.625,32.904-29.148c4.407-2.665,0.389-9.585-4.038-6.908
				c-12.067,7.298-21.21,18.527-31.643,27.835c-12.949,11.552-26.004,22.983-39.143,34.318
				c-12.021,10.37-24.501,19.864-37.276,29.276c-11.902,8.769-23.654,17.905-33.404,29.092
				C307.465,210.476,313.1,216.158,316.495,212.262L316.495,212.262z"/>
		</g>
	</g>
	<g>
		<g>
			<path d="M307.411,203.902c5.209-5.421,9.263-11.723,13.197-18.096c4.336-7.023,8.963-13.797,13.769-20.507
				c10.773-15.04,22.157-29.632,33.407-44.314c3.139-4.096-3.816-8.073-6.908-4.038c-10.476,13.671-21.028,27.283-31.165,41.209
				c-4.948,6.798-9.84,13.646-14.275,20.792c-4.173,6.724-8.168,13.557-13.682,19.296
				C298.181,201.963,303.831,207.627,307.411,203.902L307.411,203.902z"/>
		</g>
	</g>
	<g>
		<g>
			<path d="M290.742,198.089c10.254-9.423,17.289-21.688,23.887-33.797c7.726-14.181,15.506-28.32,22.618-42.823
				c15.022-30.635,27.546-62.475,38.061-94.922c1.595-4.922-6.131-7.013-7.714-2.127c-10.123,31.235-22.158,61.795-36.452,91.361
				c-6.85,14.168-14.483,27.895-21.944,41.742c-6.706,12.446-13.584,25.234-24.112,34.909
				C281.279,195.93,286.952,201.572,290.742,198.089L290.742,198.089z"/>
		</g>
	</g>
	<g>
		<g>
			<path d="M327.985,213.668c26.574-25.19,59.814-41.509,89.398-62.672c4.156-2.973,0.168-9.916-4.038-6.908
				c-30.15,21.567-63.93,38.246-91.017,63.922C318.577,211.566,324.244,217.214,327.985,213.668L327.985,213.668z"/>
		</g>
	</g>
	<g>
		<g>
			<path d="M189.698,269.527c11.841,9.659,22.21,20.909,33.426,31.255c3.785,3.491,9.456-2.152,5.657-5.657
				c-11.216-10.346-21.585-21.596-33.426-31.255C191.394,260.639,185.698,266.264,189.698,269.527L189.698,269.527z"/>
		</g>
	</g>
	<g>
		<g>
			<path d="M210.004,353.428c-4.974-5.02-9.459-10.493-14.429-15.515c-3.633-3.671-9.288,1.988-5.657,5.657
				c4.971,5.022,9.456,10.495,14.429,15.515C207.982,362.754,213.638,357.095,210.004,353.428L210.004,353.428z"/>
		</g>
	</g>
	<g>
		<g>
			<path d="M124.264,359.154c5.838,3.509,10.628,8.334,15.791,12.718c3.907,3.318,9.595-2.312,5.657-5.657
				c-5.679-4.823-10.988-10.109-17.41-13.969C123.868,349.582,119.849,356.501,124.264,359.154L124.264,359.154z"/>
		</g>
	</g>
</g>
</svg>
