<?xml version="1.0" encoding="utf-8"?>
<!-- Generator: Adobe Illustrator 18.0.0, SVG Export Plug-In . SVG Version: 6.00 Build 0)  -->
<!DOCTYPE svg PUBLIC "-//W3C//DTD SVG 1.1//EN" "http://www.w3.org/Graphics/SVG/1.1/DTD/svg11.dtd">
<svg version="1.1" id="Layer_1" xmlns="http://www.w3.org/2000/svg" xmlns:xlink="http://www.w3.org/1999/xlink" x="0px" y="0px"
	 width="500px" height="500px" viewBox="0 0 500 500" enable-background="new 0 0 500 500" xml:space="preserve">
<g>
	<g>
		<g>
			<path d="M493.8102417,278.7764282c-1.6179199-12.6972656-7.4883423-23.1965332-15.2373657-33.1928711
				c-8.5646973-11.048645-17.5639038-21.8319702-27.8789673-31.2994995
				c-20.2164307-18.5552979-46.8834839-29.9407349-73.7727661-34.3538818
				c-8.2641602-1.3563232-16.5507812-2.3656006-24.8345337-2.9614258c-0.3737183-0.7645264-1.0812378-1.3826294-2.1826172-1.6412354
				c-12.7258301-2.9881592-25.8649902-3.0936279-38.649353-5.7141113
				c-12.394043-2.5404053-24.4350586-6.4464722-37.1452637-7.1763916c-2.9998779-0.1723022-4.7053223,3.9760132-2.4748535,5.9748535
				c3.331604,2.9856567,6.9910889,5.4711304,10.7359619,7.8394775c-1.958313-0.2718506-3.8878174-0.5856323-5.6837158-0.6936035
				c-7.1981201-0.4327393-14.4300537-1.6696167-21.6303101-0.703125c-2.8346558,0.3805542-4.878418,3.6067505-2.4748535,5.9749146
				c0.4960327,0.4887085,0.9186401,0.9188232,1.300354,1.4717407c-1.0531616,0.8613892-3.0588379,1.0908203-4.2662354,1.3557129
				c-3.9976807,0.8770142-8.1935425,0.9744873-12.2706909,1.0541382
				c-13.8979492,0.2713013-27.4762573,0.2032471-41.0985718,3.5182495c-2.9251709,0.711853-3.4619141,4.9533081-0.8361206,6.3971558
				c3.1472778,1.7305298,6.4696655,2.9557495,9.8682861,3.9619141c-4.7503052,0.7250366-9.508728,1.4087524-14.2235107,2.3504028
				c-4.4247437,0.883728-2.546814,7.630249,1.8608398,6.749939c9.7854614-1.9543457,19.7598267-2.7953491,29.4562378-5.2078247
				c3.4083252-0.8479614,3.281189-5.8347168,0-6.749939c-3.795166-1.0585938-7.7252197-1.8422241-11.588501-2.8184204
				c11.552063-1.1175537,23.0982666-0.5390625,34.7732544-1.6468506c4.6727905-0.4433594,9.7385864-1.1122437,13.4767456-4.1790161
				c1.9320068-1.585083,2.3027344-3.6098022,1.8492432-5.5982056c5.5939331-0.0144653,11.2137451,0.7932739,16.7814331,1.1279297
				c2.5512695,0.1533813,5.2270508,0.6201172,7.8945923,0.8620605
				c-27.6715088,8.2507935-53.4083252,22.0097656-79.0327148,35.0524902
				c-10.3684692,5.2774658-20.6772461,11.1707153-31.3776245,15.8780518
				c0.1307983-1.1647339-0.3430786-2.3486328-1.7504272-3.0446777c-1.9049072-0.9421387-3.8331299-1.8618774-5.6601562-2.9361572
				c8.7677612-3.8030396,17.9451904-6.6431274,26.3737183-11.2242432c3.2442627-1.7633667,1.5247803-6.3005981-1.7664795-6.5221558
				c-3.8428345-0.258667-7.6577759-0.2503052-11.505188-0.1063843c-3.5952148,0.1345215-4.2868042,4.0089722-2.196106,6.0368042
				c-6.5252686,2.6122437-13.1710205,4.9545898-19.4703369,8.1010132c-2.0038452,1.0009155-2.2706909,4.0117188-0.708374,5.4970093
				c3.0910034,2.9387207,6.7463989,4.8817749,10.5223389,6.7616577c-0.0258789,0.0099487-0.0512695,0.0214844-0.0772095,0.0314331
				c-11.0925293,4.2601318-26.7166748,6.0045776-37.7039185,0.3616943c-0.2728882-0.170105-0.5765381-0.3067017-0.9216919-0.3910522
				c-10.2147217-3.8840332-19.2744751-9.5869751-28.8711548-14.7601929
				c-10.0563354-5.4209595-20.3216553-10.4491577-30.6373901-15.3543091
				c-19.9743042-9.4978027-39.5662842-19.810791-60.1560059-27.9545288
				c-3.300293-1.3054199-5.8952637,3.5891724-3.4052734,5.8497925c8.9028931,8.0829468,18.4846802,15.2716675,28.2824097,22.1760254
				c-0.8652344-0.3012695-1.7301025-0.6033325-2.5960083-0.9030151c-3.5371094-1.2240601-5.5663452,3.4141846-3.4053345,5.8498535
				c9.3608398,10.5504761,21.9263306,17.3475952,32.4711914,26.5311279
				c-2.1716309-0.4423828-4.3475342-1.1555786-6.1117554-1.4695435c-3.4107056-0.6070557-5.8795166,3.1399536-3.4053345,5.8498535
				c6.3458862,6.9504395,17.9603271,7.6272583,24.4567261,13.9830322c-3.4803467,1.0767212-7.9950562,0.7354126-11.2116089,1.406311
				c-4.4177856,0.9214478-2.5435181,7.6686401,1.8609009,6.749939c5.9699707-1.2452393,12.1427612-0.5480957,17.1220703-4.6436157
				c1.1785889-0.9693604,1.3120728-3.0038452,0.5472412-4.241394c-3.7519531-6.0709229-9.975708-8.3643799-16.0478516-10.9168091
				c0.8577881-0.2087402,1.7103882-0.4950562,2.5546875-0.9002075c2.1063843-1.0107422,2.1486206-3.963562,0.708313-5.4970093
				c-7.2599487-7.7293701-16.2091675-13.4675293-24.609436-19.8377075
				c4.9411011,1.9598389,9.8088379,4.0974121,14.5375977,6.5837402c4.0432739,2.1259155,7.1959839-3.4765015,3.53302-6.0442505
				c-11.354248-7.9595337-22.9888306-15.5480347-34.145813-23.7661743
				c13.0651855,6.1079712,25.9313354,12.6698608,38.9325562,18.8809204
				c10.3047485,4.9229736,20.50354,10.0645142,30.5354614,15.5230103
				c8.807373,4.7922363,17.0991211,9.7033081,26.4329224,13.3462524c0.1586914,0.0903931,0.3284912,0.1663818,0.5100098,0.2301636
				c9.8544922,4.8563843,22.4347534,4.8389282,33.012085,2.9090576
				c13.4779663-2.4591675,25.6592407-10.3103027,37.7243652-16.3623657
				c26.9723511-13.5298462,53.5509033-28.2558594,82.2209473-37.96521
				c14.6843262-4.9730225,29.767395-8.3158569,45.2839355-8.9251099c15.6081543-0.612793,31.5098267,0.9108276,46.9508057,3.1174927
				c28.2858887,4.0422974,55.4501343,16.4494019,76.0977173,36.3031006
				c8.0918579,7.7806396,15.2197266,16.5211182,22.1984863,25.2911377
				c6.1035156,7.6699829,11.6149902,15.9238281,14.0936279,25.380127
				c-7.6721802,1.6311035-14.8630371,4.4943237-21.867981,8.0521851c-4.0256348,2.0446777-0.4818115,8.0834961,3.53302,6.0443115
				c6.0614014-3.0786133,12.2370605-5.5136719,18.8031006-7.0491333c-0.2583008,0.1600342-0.512207,0.3491821-0.7531128,0.6035156
				c-4.7321167,4.9963379-9.4718018,10.0386963-14.9413452,14.2462769
				c-6.2491455,4.807373-13.5635376,7.4523315-20.8084717,10.3449707
				c-14.6627808,5.8543091-29.4118042,10.9399414-44.7001343,14.9299927
				c-15.5222778,4.0512085-31.2354126,7.5414429-47.2147827,9.1647339
				c-16.2202148,1.6477661-32.5477905,0.6647949-48.6397705-1.7313232
				c-15.0180664-2.2362061-29.8650513-5.4141235-44.170105-10.5501709
				c-13.6378174-4.8964844-26.6330566-11.4390869-39.5158081-18.0223999
				c-24.6573486-12.6004028-50.7254028-28.7425537-79.4060059-27.5018311
				c-7.2495117,0.3135986-19.8399048-1.4561768-24.4524536,5.5595703c-2.487915,3.7842407,3.5762329,7.2869873,6.0443115,3.53302
				c1.6633301-2.5299683,9.6234131-1.777771,12.222229-1.829834c6.2033691-0.1242065,12.2752075-0.5356445,18.4750366,0.144165
				c14.8759155,1.6312256,28.9196167,8.7437134,42.1616821,15.2492676
				c25.3657837,12.461731,49.939209,26.7824097,77.3851929,34.3049927
				c29.8022461,8.168457,61.4837036,10.8015747,92.0571289,6.3214722
				c31.052063-4.550293,60.9130249-14.3307495,89.8825684-26.1079102
				c12.4110718-5.0454712,21.4827271-13.5100098,30.5704956-23.1052246c1.1755981-1.2412109,1.192627-2.7227173,0.5948486-3.9072266
				C492.6478882,281.9819946,494.079895,280.8928223,493.8102417,278.7764282z M315.2410278,177.4713135
				c-6.1876221,0.6775513-12.3499146,1.7023926-18.4798584,3.0755615c0.6936035-1.4611206,0.3748169-3.2588501-1.3452759-4.3810425
				c-2.5876465-1.6881714-5.2489014-3.2680664-7.8806152-4.8886108c7.9278564,1.5926514,15.7484741,3.8337402,23.6655273,5.456543
				C312.5435181,177.0089722,313.8909912,177.2496338,315.2410278,177.4713135z"/>
			<path d="M445.4332275,242.2565308c0-0.3161621,0-0.6323242,0-0.9485474c0-1.9078979-1.592041-3.5-3.5-3.5
				c-0.3596802,0-0.7015991,0.0724487-1.0302734,0.177063c-0.387146-0.6296997-0.9807129-1.1625366-1.8335571-1.4749146
				c-2.2980957-0.8417358-5.2165527-0.3152466-6.2810669,2.1437988c-1.2078857,2.789978-0.1668091,5.6842651,1.1645508,8.2346802
				c3.0234985,5.7921143,10.1766968,8.6332397,16.210144,5.7209473c5.0721436-2.4483643,6.4442139-8.2744141,5.2081909-13.3867798
				c-1.4456177-5.979187-6.6422119-9.6749878-12.4893799-10.4262085c-4.4685059-0.5740356-4.413147,6.4330444,0,7
				c3.9938354,0.5131226,7.4580078,5.4816284,5.4868774,9.3190918c-1.0232544,1.9921875-3.7605591,1.765625-5.5722656,1.2694702
				c-0.3838501-0.1051025-0.7377319-0.3470459-1.065918-0.6495361c0.0683594,0.0041504,0.1334839,0.0209351,0.2026978,0.0209351
				C443.8411865,245.7565308,445.4332275,244.1644897,445.4332275,242.2565308z"/>
			<path d="M407.9612427,229.7945557c1.8349609-4.0814819-4.1959229-7.6442871-6.0443115-3.53302
				c-3.4207153,7.6085815-4.1315308,15.8273315-4.7731934,24.0535889
				c-0.6381226,8.1799316-0.8085938,15.9851685,0.8684082,24.0665283
				c3.3357544,16.0748291,13.9848022,29.2259521,26.977478,38.7196655c3.6513672,2.6680298,7.1379395-3.4102173,3.53302-6.0442505
				c-11.3659668-8.3051147-19.8776855-19.4481201-23.4418945-33.1712646
				c-1.7601929-6.7772217-1.769104-13.7509766-1.1661987-20.6773682
				C404.5959473,245.3798218,404.6829224,237.0863037,407.9612427,229.7945557z"/>
			<path d="M369.5036011,263.9378052c-2.3994141-2.1138916-5.1768799-2.6716309-8.1550293-3.6810303
				c-4.720459-1.5999756-9.53302-2.9282227-14.3411865-4.2340088c-10.1148071-2.7470703-20.2295532-5.4536743-30.3086548-8.3321533
				c-19.90448-5.6843872-40.0629883-11.0636597-60.8191528-12.2481689
				c-3.4541016-0.1971436-3.6142578,4.5708618-0.7642822,5.6472778c13.5690308,5.124939,27.4729004,9.2276001,41.3864136,13.2958984
				c9.0861206,2.6567383,19.6289062,3.7470703,28.3551636,7.8916016c0.036377,1.4077759,0.9568481,2.7836304,2.7739258,2.774292
				c0.9737549-0.0050659,1.9475708-0.0100708,2.9213257-0.0150757c2.9663086-0.0152588,3.7835083-3.8134766,1.4511108-5.3574829
				c-2.4519653-1.6231079-5.0881348-2.8682251-7.8257446-3.8919067c4.6743164,1.321106,9.3535767,2.6242065,14.0528564,3.8605347
				c4.8331299,1.2715454,9.6625366,2.5510254,14.4641724,3.9376831c3.635437,1.0498657,9.8369141,1.8579102,12.7431641,4.418457
				c0.4833374,0.4257812,1.0065918,0.644043,1.5263062,0.7176514c-7.5441895,6.6479492-5.8982544,21.9209595,2.8498535,27.2403564
				c3.1771851,1.9318848,6.0645752-3.0419922,2.9021606-4.9649658c-6.3052368-3.8339844-7.1154175-17.5124512,1.1438599-19.477417
				c3.1403198-0.7470703,2.4892578-5.8137207-0.7642822-5.6472778c-0.4520874,0.0231323-0.9042358,0.0462646-1.3563843,0.069397
				c-0.5371704,0.0274658-0.9869995,0.1828003-1.3683472,0.4106445
				C370.5476074,265.5484619,370.3374634,264.6724854,369.5036011,263.9378052z M301.6516724,249.9008789
				c-3.9155273-1.1080933-7.8303833-2.2324829-11.7381592-3.3847046c7.2786255,1.7144775,14.5043945,3.6834106,21.6939087,5.7075195
				c0.4438477,0.124939,0.887085,0.251709,1.3308105,0.3770752
				C309.1291504,251.7295532,305.3094482,250.9360962,301.6516724,249.9008789z"/>
			<path d="M310.5565796,257.8786621c-7.9195557-0.5059204-15.8137817-1.3339233-23.7510376-1.5278931
				c-2.8286743-0.0691528-3.9696045,4.0018311-1.4510498,5.3574829c11.458252,6.1674194,24.0164795,9.5740356,36.2948608,13.6748047
				c3.5271606,1.1779785,5.0270996-4.3761597,1.5285645-5.5446167c-6.8289795-2.2807617-13.7560425-4.3237305-20.5162354-6.786377
				c2.6305542,0.2043457,5.2612915,0.4083862,7.8948975,0.5765991
				C314.2609253,263.8652954,314.2380371,258.1138306,310.5565796,257.8786621z"/>
			<path d="M90.814209,270.3847656c-10.552002-0.4151001-22.4278564,2.1101074-31.6815186,7.232666
				c-1.9529419,1.0810547-2.3127441,3.9554443-0.708374,5.4970093c1.8526611,1.7800903,3.9917603,2.6203613,6.2598267,3.0998535
				c-3.6757812,2.3879395-7.4789429,4.6032104-10.7694092,7.5529175c-1.2006836,1.076355-1.2521973,2.8991699-0.5473022,4.241394
				c-0.6550903-1.2474365-0.0120239-1.0583496-1.0004272,0.3580322c-0.9437866,1.3525391-2.3456421,2.5016479-3.5535889,3.6065674
				c-3.539978,3.2381592-7.4567871,6.0665894-11.3341064,8.880249c-6.2157593,4.5106201-13.7268677,8.5640869-18.9929199,14.2268066
				c-1.8812866,2.0229492-0.9505005,4.9541016,1.5444336,5.8498535c4.7166138,1.6934814,9.5891724-0.2994385,13.8897095-2.2686157
				c5.9485474-2.723877,11.7161865-6.3181152,17.2723389-9.7394409c13.8703003-8.5410156,26.56604-18.8661499,39.4907227-28.7352295
				c3.536377-2.7003174,0.0562134-8.7849731-3.5330811-6.0442505
				c-11.5079956,8.7872925-22.8519287,17.7970581-34.9244995,25.8104248
				c-3.7918091,2.5169067-7.7064209,4.7982178-11.6460571,7.0493774c1.9454956-1.2972412,3.8504639-2.6029053,5.644165-3.9604492
				c3.9179077-2.96521,13.5786133-9.0830688,13.8969727-15.3692627c5.0603638-4.1290283,11.0806274-6.9084473,15.9768677-11.2999878
				c1.8361816-1.6469116,1.0383301-5.4310303-1.5444336-5.8498535c-1.1262207-0.1826172-2.4781494-0.2315674-3.8717651-0.3102417
				c6.5015259-2.1334839,13.6329956-3.0834961,20.1324463-2.8278198
				C95.329895,277.5623779,95.3126831,270.5617065,90.814209,270.3847656z"/>
		</g>
	</g>
</g>
</svg>
