<?xml version="1.0" encoding="utf-8"?>
<!-- Generator: Adobe Illustrator 18.0.0, SVG Export Plug-In . SVG Version: 6.00 Build 0)  -->
<!DOCTYPE svg PUBLIC "-//W3C//DTD SVG 1.1//EN" "http://www.w3.org/Graphics/SVG/1.1/DTD/svg11.dtd">
<svg version="1.1" id="Layer_1" xmlns="http://www.w3.org/2000/svg" xmlns:xlink="http://www.w3.org/1999/xlink" x="0px" y="0px"
	 width="500px" height="500px" viewBox="0 0 500 500" enable-background="new 0 0 500 500" xml:space="preserve">
<g>
	<g>
		<g>
			<path d="M389.9102173,162.0528564c-12.6541138-14.0612183-31.0968628-22.2451782-48.5255127-28.5783691
				c-9.4128418-3.4204102-18.6060791-6.2385254-28.6394043-6.8226318
				c-7.6430054-0.4450073-15.5756836,0.0876465-23.1702881-1.1924438
				c8.3814087-11.5084839,16.5317993-23.3723145,20.1356812-37.3353271
				c1.4516602-5.6242676-7.2290039-8.0085449-8.6784668-2.3925171c-0.3280029,1.270874-0.7094727,2.5162964-1.1140137,3.7506104
				c-0.8287354,0.4990234-1.5233765,1.2875366-1.9233398,2.4162598
				c-4.8695068,13.7426758-19.8220825,21.5797729-31.3088989,30.3011475
				c-19.7154541-5.868103-42.9763794-3.7106934-61.2893066,5.4780884c-0.815918,0.4094238-1.3900146,0.9466553-1.7593384,1.5509033
				c-2.9572754-6.1410522-5.7022705-12.3928833-8.4483032-18.5545044
				c-5.236084-11.7489014-11.1988525-24.0733643-13.9088135-36.7251587
				c-0.5595093-2.6619873-2.7633057-3.5465088-4.8240967-3.1518555c-2.3422241,0.4403687-4.4998779,2.5310059-3.8544312,5.5444336
				c4.1654663,19.8169556,7.1337891,39.8141479,9.5114136,59.8921509
				c-12.6732178,2.9540405-24.1795044,10.7069702-34.3095093,18.5132446
				c-10.892334,8.3936768-21.1203613,17.9179688-29.8342285,28.576416c-0.7600098,0.9296265-1.0808716,1.9439697-1.086731,2.927002
				c-11.6998291,3.4418335-22.2171021,9.5180054-30.2984619,20.0297852
				c-0.1123657,0.1221924-0.2092896,0.2543945-0.305603,0.3886108c-0.1358643,0.1799316-0.2800903,0.3446655-0.4145508,0.5271606
				c-0.5376587,0.7299194-0.8010254,1.454895-0.8502808,2.1413574c-3.7150879,2.8563232-1.3592529,9.9838867,3.5756226,8.0039062
				c2.793396-1.1207886,5.604187-2.111145,8.4283447-3.0059814c-2.9963379,6.6075439-6.6522827,12.9470215-8.1949463,20.0628662
				c-2.883667,13.3010254-2.0328979,28.0723877-0.7279053,41.5170898
				c2.6816406,27.6278076,12.1763916,54.2926025,27.0797729,77.6761475
				c25.1628418,39.4805908,67.3739014,64.1522827,112.869873,72.4638062
				c21.7893677,3.9806519,44.0187378,4.180542,65.9400024,1.2341919
				c25.0453491-3.366272,46.038147-18.3999023,63.4217529-35.9680176
				c16.6884155-16.8656616,31.6582642-36.8967896,43.0439453-57.7340698
				c10.0198364-18.3376465,14.2914429-38.4306641,15.8637695-59.1224365
				C419.2443237,235.9004517,417.0769653,192.2404175,389.9102173,162.0528564z M279.2749023,124.5327148
				c-0.447937,0.3970337-0.8105469,0.8956299-1.0704956,1.4560547
				c-9.9453735,13.5291748-19.446106,27.2113037-20.9286499,44.5956421
				c-0.0943604,1.1066284,0.1625366,1.9959717,0.6370239,2.6768188c-5.4128418-0.7442017-7.6121216,7.5915527-2.0463257,8.7319946
				c15.6868896,3.2144165,31.564209,0.0321655,47.3864136,0.9356689c9.1164551,0.5206299,18.0568848,2.3421631,27.0180054,4.06073
				c-12.9793701,1.6107788-26.1803589,1.6766968-39.3051758,1.8356934
				c-16.7294922,0.2026367-35.6946411-0.0349121-50.5470581,8.8234863
				c-0.0255127-0.3693848-0.0943604-0.7553101-0.2253418-1.1606445
				c-3.8122559-11.7963257-8.4733887-23.2667847-13.2189941-34.7059326c1.2298584,1.565979,3.3279419,2.3328247,5.5010986,0.9052124
				c13.5758057-8.9187012,25.1509399-21.02948,37.399231-31.6177979c3.3702393-2.9135132,7.0158081-5.5981445,10.6792603-8.2719727
				C280.1275635,123.3761597,279.7011108,123.9544067,279.2749023,124.5327148z M209.9391479,135.4489136
				c14.3415527-7.196106,32.2886353-9.2736206,48.2850952-6.0796509c-9.782959,8.8294678-19.328125,18.3446045-30.2913208,25.546936
				c-1.6567383,1.0883789-2.2141724,2.7214355-2.0355225,4.2679443c-1.5241089-3.6660156-3.0512695-7.3310547-4.5562744-11.0046997
				c-1.5427856-3.7658081-6.3917236-3.6796875-8.2730103-1.3842773c-0.1082764-0.2869873-0.2480469-0.5770874-0.4284668-0.8689575
				c-2.0158691-3.2606812-3.8834839-6.6269531-5.666748-10.0465698
				C207.8881836,136.0683594,208.9003906,135.9700928,209.9391479,135.4489136z M152.1085205,162.7148438
				c9.09021-7.2484131,19.5962524-14.388855,31.0352173-17.4520874c1.2733765,11.5668945,2.3835449,23.1553955,3.4363403,34.7477417
				c0.1085205,1.1946411,0.5977173,2.1275635,1.2803345,2.8271484c-0.4500122-0.1509399-0.9365234-0.2562256-1.4933472-0.2575684
				c-17.6425781-0.0425415-37.9797363-1.8170166-56.6621704,0.9144287
				C136.5704956,175.9602051,144.1566162,169.055542,152.1085205,162.7148438z M406.3171387,284.8534546
				c-2.3495483,19.9770508-9.2747803,38.0428467-20.0195923,54.9536133
				c-13.8242798,21.7574463-30.2459717,42.6779175-50.411499,58.9009399
				c-9.8352661,7.9123535-21.093689,14.2424927-33.2510986,17.7228394
				c-10.6873169,3.0595703-22.3286133,3.6072998-33.3863525,3.8775024
				c-45.4863281,1.1115112-91.894043-13.5835571-125.0800171-45.4113159
				c-22.3520508-21.4373169-37.1787109-50.2331543-44.0240479-80.2631836
				c-3.7171021-16.3066406-4.5562134-33.119751-3.5993042-49.7799072
				c0.3573608-6.2206421,1.5164795-12.0071411,4.3582764-17.5601196c2.6608276-5.1993408,5.0817871-10.3613281,6.9802246-15.8683472
				c13.15802-2.9025269,26.625-3.7445068,40.3686523-3.3223877c20.1460571,0.6188354,40.1624146,3.2069702,60.3258667,3.4789429
				c7.6881104,12.8882446,11.8638306,27.6643066,21.7098999,39.2390747
				c9.5042725,11.1727905,23.6286621,17.0944214,36.2859497,23.8012085c5.1245117,2.715332,9.6722412-5.0531006,4.5424805-7.7712402
				c-0.6644897-0.3520508-1.331665-0.7007446-1.9998169-1.0481567c-0.3595581-0.4991455-0.8615723-0.947998-1.5349731-1.3083496
				c-18.7129517-10.0141602-15.4995728-39.4417725-9.7145996-56.1877441
				c1.9003296-5.5008545-6.7954712-7.8433838-8.6784668-2.3925781c-4.7368164,13.7116699-7.0091553,32.9907837-1.5072632,47.9805908
				c-3.571228-2.4215698-6.9493408-5.1220703-9.9959106-8.2952881
				c-10.7819824-11.2301025-14.3909302-27.8302612-22.6893921-40.7602539
				c-0.1671143-0.2603149-0.3499146-0.4884644-0.5413208-0.6965332c-0.7242432-0.9057617-1.8327026-1.5269775-3.3442993-1.5322266
				c-36.956665-0.1282959-73.9772949-7.8890991-109.8828735,1.1816406
				c22.1098022-18.0206299,58.9321899-12.2752686,85.1394043-12.2120972
				c4.3657227,0.0105591,5.4448242-5.0762939,3.2434692-7.6055908c2.7477417,1.0339355,6.3054199-0.2661743,5.9695435-3.9639893
				c-1.8637085-20.5206909-3.8966064-41.0404053-6.6921387-61.449646c4.348938,9.8574219,8.862915,19.8126221,14.3098145,29.0947266
				c-1.4570312,0.7816162-2.4785156,2.4830322-2.4785156,4.0766602c0,1.9819946,1.1589966,3.3807983,2.7672729,4.0623779
				c6.8713989,12.9069214,9.2960205,27.6585693,9.0282593,42.1915894c-0.1070557,5.8070068,8.8931885,5.7966309,9,0
				c0.2640991-14.3331909-2.0097656-28.9091797-7.9203491-42.0018921c0.4048462-0.0654907,0.8085327-0.1389771,1.2110596-0.2199707
				c5.9046021,14.2449341,11.9627075,28.4290161,16.7092896,43.116394c0.8572998,2.65271,3.3226929,3.4741211,5.4452515,2.9960938
				c-0.2459106,3.263916,3.0820923,6.6900024,6.6108398,4.406311c14.5133667-9.3927002,33.9664917-8.3066406,50.5377808-8.4946899
				c21.138855-0.2399292,42.5881958-0.6340332,62.821228-7.4505615c2.8305054-0.4317017,3.9084473-3.2984009,3.2580566-5.677002
				c-0.0166016-0.0690918-0.0322876-0.1383667-0.0516357-0.206604c-0.0151978-0.0475464-0.0283203-0.0950928-0.0449829-0.1421509
				c-0.5932617-1.8892822-2.2384644-3.3601685-4.5405884-2.9309692c-16.4888306-0.5326538-32.489563-5.0601807-48.803894-7.1265869
				c-14.1742554-1.7953491-28.5545044,1.3756104-42.7091064-0.0708618c1.182373-0.6953125,2.0921631-1.8884277,2.2380371-3.5993042
				c1.1907959-13.9625854,9.3583374-26.0178833,17.4714355-37.1537476
				c10.7797241,2.8504639,22.4384155,1.5577393,33.4394531,2.5474243
				c6.3673096,0.5728149,12.5560913,2.9946289,18.5650635,5.0366211c6.9577026,2.3643188,13.7771606,5.0971069,20.4083252,8.2637329
				c11.1642456,5.3314209,21.4026489,12.1704102,29.5298462,21.5680542
				c8.7165527,10.0790405,14.1437378,22.6121216,17.5682983,35.3674927
				C409.9863892,231.2740479,409.3251953,259.2775879,406.3171387,284.8534546z"/>
		</g>
	</g>
</g>
</svg>
