<?xml version="1.0" encoding="utf-8"?>
<!-- Generator: Adobe Illustrator 18.0.0, SVG Export Plug-In . SVG Version: 6.00 Build 0)  -->
<!DOCTYPE svg PUBLIC "-//W3C//DTD SVG 1.1//EN" "http://www.w3.org/Graphics/SVG/1.1/DTD/svg11.dtd">
<svg version="1.1" id="Layer_1" xmlns="http://www.w3.org/2000/svg" xmlns:xlink="http://www.w3.org/1999/xlink" x="0px" y="0px"
	 width="500px" height="500px" viewBox="0 0 500 500" enable-background="new 0 0 500 500" xml:space="preserve">
<g>
	<g>
		<g>
			<path d="M165.812,226.892c-0.145,0.041-0.291,0.081-0.436,0.122c1.845,1.048,3.69,2.095,5.536,3.143
				c-0.015-0.039-0.031-0.079-0.046-0.118c-0.386,1.459-0.772,2.919-1.157,4.378c2.62-3.117,5.395-5.7,7.792-9.097
				c3.37-4.775,6.36-9.756,8.732-15.102c2.332-5.255-5.421-9.838-7.771-4.542c-2.162,4.87-4.843,9.389-7.827,13.795
				c-2.204,3.255-4.819,5.643-7.289,8.581c-0.971,1.156-1.761,2.832-1.157,4.378c0.015,0.039,0.031,0.079,0.046,0.118
				c0.889,2.274,2.988,3.856,5.536,3.143c0.145-0.041,0.291-0.081,0.436-0.122C173.785,234.008,171.411,225.324,165.812,226.892
				L165.812,226.892z"/>
		</g>
	</g>
	<g>
		<g>
			<path d="M167.208,237.109c12.981,2.454,24.194,9.707,35.738,15.736c12.236,6.391,24.502,12.943,35.438,21.437
				c4.524,3.514,10.943-2.807,6.364-6.364c-11.115-8.633-23.243-15.488-35.677-22.016c-12.665-6.65-25.217-14.778-39.472-17.472
				C163.93,227.358,161.51,236.032,167.208,237.109L167.208,237.109z"/>
		</g>
	</g>
	<g>
		<g>
			<path d="M238.385,274.282c18.551,20.284,40.208,37.429,59.329,57.147c10.977,11.321,22.621,22.421,31.985,35.158
				c8.837,12.022,14.439,26.098,22.23,38.769c3.033,4.933,10.82,0.416,7.771-4.542c-7.811-12.703-13.602-26.559-22.23-38.769
				c-8.948-12.664-20.436-23.483-31.138-34.623c-19.782-20.593-42.302-38.423-61.583-59.504
				C240.825,263.627,234.477,270.009,238.385,274.282L238.385,274.282z"/>
		</g>
	</g>
	<g>
		<g>
			<path d="M265.922,262.371c17.425,19.253,33.816,39.334,52.207,57.705c17.285,17.266,35.941,34.476,46.437,56.964
				c2.453,5.256,10.21,0.682,7.771-4.542c-10.564-22.633-29.256-40.287-46.7-57.644c-18.814-18.72-35.562-39.19-53.352-58.846
				C268.384,251.695,262.039,258.08,265.922,262.371L265.922,262.371z"/>
		</g>
	</g>
	<g>
		<g>
			<path d="M359.018,410.527c2.913,8.08,3.449,16.485,3.971,24.986c0.354,5.765,9.356,5.799,9,0
				c-0.569-9.254-1.122-18.584-4.293-27.378C365.744,402.718,357.045,405.054,359.018,410.527L359.018,410.527z"/>
		</g>
	</g>
	<g>
		<g>
			<path d="M363.196,415.704c5.94,11.917,22.869,14.07,34.146,9.35c5.271-2.206,2.96-10.918-2.393-8.678
				c-7.629,3.193-19.762,3.252-23.982-5.214C368.378,405.966,360.615,410.527,363.196,415.704L363.196,415.704z"/>
		</g>
	</g>
	<g>
		<g>
			<path d="M367.334,408.037c3.662,0.736,7.095,0.314,10.791,0.225c3.39-0.081,6.333,2.115,8.94,3.99
				c5.458,3.925,10.801,6.385,17.618,6.558c12.043,0.306,23.612-8.196,26.326-19.942c1.305-5.648-7.372-8.046-8.679-2.393
				c-2.321,10.048-12.987,15.132-22.631,12.636c-4.684-1.212-8.284-5.121-12.424-7.432c-2.256-1.259-4.946-2.115-7.523-2.301
				c-3.325-0.239-6.746,0.638-10.026-0.021C364.06,398.22,361.647,406.894,367.334,408.037L367.334,408.037z"/>
		</g>
	</g>
	<g>
		<g>
			<path d="M410.506,392.884c-5.716,0.64-11.443,1.183-17.19,0.643c-5.779-0.543-5.727,8.462,0,9
				c5.747,0.54,11.474-0.003,17.19-0.643C416.207,401.246,416.269,392.239,410.506,392.884L410.506,392.884z"/>
		</g>
	</g>
	<g>
		<g>
			<path d="M380.988,390.701c0.683-0.126-1.421-0.094-0.66,0.03c-0.768-0.125-0.813-0.168-1.285-0.409
				c-1.152-0.589-1.453-1.097-2.055-2.402c-1.027-2.228-4.197-2.763-6.157-1.614c-2.267,1.328-2.641,3.929-1.614,6.157
				c2.501,5.426,8.469,7.971,14.163,6.918c2.414-0.446,3.751-3.326,3.143-5.536C385.832,391.329,383.398,390.255,380.988,390.701
				L380.988,390.701z"/>
		</g>
	</g>
	<g>
		<g>
			<path d="M240.248,244.556c-9.093-18.104-17.867-36.347-23.829-55.76c-2.484-8.088-5.036-16.145-7.559-24.221
				c-2.424-7.758-5.012-16.448-3.644-24.644c0.947-5.675-7.725-8.107-8.679-2.393c-2.871,17.207,5.685,33.913,10.168,50.107
				c5.942,21.461,15.814,41.628,25.771,61.453C235.082,254.286,242.846,249.727,240.248,244.556L240.248,244.556z"/>
		</g>
	</g>
	<g>
		<g>
			<path d="M205.235,141.669c-0.085,1.001,1.287-0.304,2.032-0.668c1.891-0.923,4.156-1.333,6.19-1.808
				c4.019-0.939,8.132-1.479,12.213-2.068c5.726-0.826,3.282-9.497-2.393-8.679c-8.353,1.205-26.086,1.951-27.043,13.222
				C195.744,147.455,204.748,147.408,205.235,141.669L205.235,141.669z"/>
		</g>
	</g>
	<g>
		<g>
			<path d="M222.483,138.125c0.712,9.925,1.384,19.833,2.716,29.699c1.432,10.604,5.008,20.085,8.638,30.088
				c7.872,21.692,16.043,42.968,29.752,61.754c3.384,4.637,11.199,0.154,7.771-4.542c-12.931-17.719-20.86-37.57-28.281-58.047
				c-3.45-9.52-7.108-18.659-8.762-28.691c-1.647-9.992-2.111-20.172-2.834-30.261C231.071,132.371,222.068,132.331,222.483,138.125
				L222.483,138.125z"/>
		</g>
	</g>
	<g>
		<g>
			<path d="M137.854,72.933c6.295,1.634,12.78,1.873,19.223,2.499c5.777,0.562,5.722-8.443,0-9
				c-5.654-0.55-11.307-0.744-16.83-2.178C134.624,62.795,132.241,71.475,137.854,72.933L137.854,72.933z"/>
		</g>
	</g>
	<g>
		<g>
			<path d="M154.229,71.71c6.287,29.086,25.971,53.714,39.822,79.449c2.751,5.112,10.521,0.567,7.771-4.542
				c-13.476-25.038-32.801-49.015-38.915-77.299C161.681,63.646,153.006,66.051,154.229,71.71L154.229,71.71z"/>
		</g>
	</g>
	<g>
		<g>
			<path d="M135.224,69.324c1.811,10.643,8.096,20.636,12.779,30.237c4.946,10.139,10.211,20.12,15.772,29.935
				c11.306,19.954,24.211,38.951,38.647,56.771c3.655,4.511,9.982-1.898,6.364-6.364c-13.588-16.772-25.586-34.718-36.361-53.411
				c-5.332-9.25-10.302-18.705-15.065-28.258c-4.902-9.831-11.6-20.385-13.458-31.302C142.93,61.219,134.258,63.649,135.224,69.324
				L135.224,69.324z"/>
		</g>
	</g>
	<g>
		<g>
			<path d="M98.676,113.077c8.744-4.179,17.016-8.626,24.164-15.272c4.258-3.96-2.12-10.31-6.364-6.364
				c-6.562,6.102-14.324,10.033-22.342,13.865C88.899,107.808,93.468,115.567,98.676,113.077L98.676,113.077z"/>
		</g>
	</g>
	<g>
		<g>
			<path d="M115.319,95.82c5.293,27.371,24.295,51.597,42.063,72.178c19.016,22.026,40.611,42.35,64.098,59.557
				c4.69,3.436,9.172-4.379,4.542-7.771c-22.099-16.19-42.216-35.447-60.344-55.939c-17.58-19.872-36.513-43.698-41.68-70.417
				C122.896,87.732,114.222,90.15,115.319,95.82L115.319,95.82z"/>
		</g>
	</g>
	<g>
		<g>
			<path d="M94.853,110.261c1.67,3.658,2.475,7.521,3.805,11.296c1.918,5.445,4.68,10.676,7.41,15.747
				c5.641,10.481,12.608,20.205,20.15,29.391c14.856,18.093,32.961,33.464,52.319,46.535c4.825,3.258,9.323-4.543,4.542-7.771
				c-18.802-12.696-35.943-27.695-50.497-45.127c-7.135-8.545-13.37-17.826-18.743-27.569c-2.623-4.755-5.129-9.699-6.936-14.826
				c-1.452-4.121-2.449-8.208-4.28-12.218C100.216,100.445,92.461,105.023,94.853,110.261L94.853,110.261z"/>
		</g>
	</g>
	<g>
		<g>
			<path d="M115.278,208.615c4.588-2.687,7.585-7.124,10.424-11.485c3.176-4.88-4.619-9.386-7.771-4.542
				c-1.98,3.042-3.989,6.379-7.195,8.257C105.732,203.775,110.259,211.555,115.278,208.615L115.278,208.615z"/>
		</g>
	</g>
	<g>
		<g>
			<path d="M120.617,196.835c17.627,9.356,37.539,13.186,55.728,21.192c5.259,2.315,9.844-5.437,4.542-7.771
				c-18.169-7.998-38.15-11.862-55.728-21.192C120.037,186.344,115.489,194.113,120.617,196.835L120.617,196.835z"/>
		</g>
	</g>
	<g>
		<g>
			<path d="M111.003,210.114c10.042,0.957,20.212,4.977,29.635,8.342c9.425,3.366,19.491,6.855,27.901,12.404
				c4.86,3.207,9.363-4.591,4.542-7.771c-9.037-5.963-19.939-9.654-30.051-13.312c-10.26-3.711-21.093-7.621-32.027-8.663
				C105.225,200.563,105.278,209.568,111.003,210.114L111.003,210.114z"/>
		</g>
	</g>
	<g>
		<g>
			<path d="M71.032,145.623c23.786,19.498,49.801,37.02,70.915,59.548c3.976,4.242,10.328-2.135,6.364-6.364
				c-21.115-22.528-47.129-40.05-70.915-59.548C72.947,135.612,66.54,141.941,71.032,145.623L71.032,145.623z"/>
		</g>
	</g>
	<g>
		<g>
			<path d="M76.512,143.619c5.931-4.976,9.68-11.79,14.268-17.907c3.486-4.648-4.334-9.126-7.771-4.542
				c-4.148,5.53-7.499,11.586-12.861,16.085C65.696,140.99,72.098,147.323,76.512,143.619L76.512,143.619z"/>
		</g>
	</g>
	<g>
		<g>
			<path d="M83.713,126.623c8.484,8.327,19.273,13.491,28.405,20.978c4.449,3.647,10.855-2.682,6.364-6.364
				c-9.114-7.472-19.964-12.693-28.405-20.978C85.933,116.192,79.566,122.553,83.713,126.623L83.713,126.623z"/>
		</g>
	</g>
	<g>
		<g>
			<path d="M104.981,83.966c8.281-4.648,16.091-10.03,23.233-16.297c4.37-3.835-2.021-10.175-6.364-6.364
				c-6.571,5.766-13.795,10.616-21.411,14.89C95.378,79.035,99.914,86.81,104.981,83.966L104.981,83.966z"/>
		</g>
	</g>
	<g>
		<g>
			<path d="M99.527,83.262c5.3,4.253,4.751,13.449,8.137,19.125c2.969,4.978,10.752,0.454,7.771-4.542
				c-3.973-6.66-3.009-15.702-9.544-20.946C101.412,73.304,95,79.629,99.527,83.262L99.527,83.262z"/>
		</g>
	</g>
	<g>
		<g>
			<path d="M121.145,66.758c5.195,7.063,8.582,15.225,12.502,23.017c4.487,8.918,9.389,17.633,14.604,26.144
				c10.149,16.565,22.02,32.159,35.831,45.843c4.125,4.087,10.491-2.275,6.364-6.364c-13.738-13.611-25.252-29.051-35.34-45.516
				c-4.911-8.016-9.406-16.283-13.688-24.649c-3.979-7.775-7.297-15.941-12.502-23.017
				C125.517,57.593,117.701,62.075,121.145,66.758L121.145,66.758z"/>
		</g>
	</g>
	<g>
		<g>
			<path d="M178.908,211.363c2.422,2.752,5.607,4.552,8.809,6.257c4.501,2.396,8.89,4.992,13.374,7.423
				c9.099,4.933,18.316,10.702,28.026,14.312c5.452,2.027,7.782-6.675,2.393-8.679c-8.387-3.118-16.292-8.347-24.209-12.514
				c-4.264-2.244-8.416-4.68-12.619-7.034c-3.289-1.843-6.871-3.243-9.41-6.129C181.431,200.633,175.09,207.024,178.908,211.363
				L178.908,211.363z"/>
		</g>
	</g>
</g>
</svg>
