<?xml version="1.0" encoding="UTF-8" standalone="no"?>
<svg
   xmlns:dc="http://purl.org/dc/elements/1.1/"
   xmlns:cc="http://creativecommons.org/ns#"
   xmlns:rdf="http://www.w3.org/1999/02/22-rdf-syntax-ns#"
   xmlns:svg="http://www.w3.org/2000/svg"
   xmlns="http://www.w3.org/2000/svg"
   version="1.1"
   id="svg2"
   viewBox="0 0 1035.5399 1052.4815">
  <defs
     id="defs4" />
  <g
     id="layer1"
    >
    <path
       id="path4286"
       d="M 566.95898 352.29883 C 564.87458 352.34566 563.82734 352.80547 562.83008 353.80273 C 558.42881 358.204 561.49499 361.95794 579.08789 373.69922 C 583.55286 376.67909 586.76258 379.37598 586.2207 379.69141 C 585.6788 380.00682 582.29344 379.82509 578.69727 379.28711 C 569.27008 377.87685 530.93292 376.49209 527.20508 377.42773 C 523.07276 378.46487 521.92895 382.84751 524.68945 387.06055 C 526.56048 389.9161 526.58072 390.39192 524.90625 392.06641 C 521.80931 395.16336 514.12444 396.01333 478.83594 397.16602 C 460.20123 397.77471 440.94294 398.82555 436.03906 399.50195 C 411.93574 402.82661 406.31836 404.63049 406.31836 409.04102 C 406.31836 412.26084 411.32705 415.42229 422.84961 419.47656 C 428.3452 421.41021 432.29598 423.32991 431.62891 423.74219 C 430.96185 424.15445 423.60264 425.58404 415.27539 426.91992 C 406.94814 428.25582 399.11861 429.89212 397.87695 430.55664 C 394.96518 432.11498 394.99376 435.50236 397.94141 438.16992 C 400.16945 440.18627 401.45837 440.06995 429.74219 435.29102 C 445.95546 432.55159 460.55873 429.67743 462.19336 428.9043 C 465.6076 427.28947 466.64441 423.22449 464.25195 420.83203 C 463.35276 419.93284 456.37002 417.67285 448.73438 415.81055 C 441.09872 413.94825 434.85156 411.99508 434.85156 411.46875 C 434.85156 410.41621 448.2735 409.52388 480.02539 408.4668 C 520.63464 407.11481 535.5747 402.69674 537.83984 391.37109 L 538.57422 387.69531 L 547.11914 387.69531 C 554.68424 387.69531 592.97502 390.82099 595.85742 391.67383 C 596.46884 391.85475 587.12412 395.36124 575.08984 399.4668 C 540.29684 411.33662 512.7615 423.7686 437.25391 461.69727 C 367.30573 496.83339 366.5337 497.18507 365.57422 494.30664 C 364.94952 492.43256 362.08313 490.05335 357.52344 487.62305 C 353.62967 485.54769 350.44531 483.46397 350.44531 482.99219 C 350.44531 482.52038 360.20787 478.247 372.14062 473.49609 C 384.07338 468.74519 396.51201 463.40911 399.78125 461.63867 C 405.16684 458.72215 405.72461 458.02933 405.72461 454.26367 L 405.72461 450.10742 L 397.1543 449.25391 C 392.44053 448.78372 385.4855 448.78372 381.69922 449.25391 C 375.27888 450.05123 374.78893 450.33317 374.43164 453.44922 C 374.22093 455.28685 374.68096 457.55202 375.45312 458.48242 C 376.58345 459.84437 376.3103 460.38482 374.05273 461.25781 C 360.30648 466.57345 350.80462 470.51764 342.95508 474.16602 C 334.09805 478.2827 333.69855 478.64015 334.03906 482.125 C 334.34032 485.20854 335.79324 486.693 343.41992 491.7168 C 348.38298 494.98606 353.45272 498.24571 354.68555 498.96094 C 356.84993 500.21659 356.8401 500.30724 354.41797 501.60352 C 353.03833 502.34189 346.63057 504.35917 340.17969 506.08594 C 326.17142 509.83568 304.30037 510.67245 293.38672 507.875 C 277.43266 503.78561 241.85426 487.04922 197.875 462.94727 C 160.08734 442.23849 58.62695 393.46711 38.625 386.39648 C 35.33611 385.23388 33.564378 385.14711 32.085938 386.07812 C 28.545807 388.30743 29.055224 391.33457 33.808594 396.30273 C 39.627554 402.38462 63.593717 421.64795 79.228516 432.81055 C 91.278897 441.41401 95.02691 444.80921 90.585938 443.09766 C 85.066156 440.97034 78.414329 439.66917 76.605469 440.36328 C 75.395623 440.82754 74.638672 442.45657 74.638672 444.59766 C 74.638672 449.33171 87.396559 461.23511 114.83203 482.09766 C 142.46058 503.10701 143.62755 504.10185 140.68945 504.15625 C 139.4211 504.17977 135.31641 503.56559 131.56641 502.79102 C 123.64508 501.15491 121.00195 502.38416 121.00195 507.70898 C 121.00195 512.0513 128.02919 516.99758 145.81641 525.17773 C 160.10435 531.74859 170.93359 538.08352 170.93359 539.86914 C 170.93359 541.30369 168.24115 541.97018 156.80469 543.37109 C 145.99633 544.69506 143.28239 546.04855 143.83008 549.83594 C 144.42046 553.91842 148.4101 554.99776 158.68945 553.85742 C 176.32472 551.90105 185.19922 547.87342 185.19922 541.82617 C 185.19922 536.70419 173.41304 527.0019 159.56445 520.72266 C 151.92766 517.25997 149.78874 514.89844 154.28906 514.89844 C 155.59677 514.89844 157.74567 513.81877 159.06445 512.5 C 161.26248 510.30198 161.31888 509.82347 159.72852 506.74805 C 157.12202 501.70764 146.08776 491.9982 125.36523 476.50781 C 115.11993 468.8493 106.73633 462.0701 106.73633 461.44336 C 106.73633 460.29624 118.5324 464.99782 135.5332 472.92188 C 143.1367 476.46589 145.02575 476.94313 146.5293 475.69531 C 149.30811 473.38908 148.69896 469.30646 145.07617 465.96289 C 143.27809 464.30338 131.37507 455.81342 118.625 447.09766 C 100.20815 434.50819 75.424691 416.92614 72.361328 414.27734 C 72.088913 414.04178 72.164244 413.55059 72.529297 413.18555 C 73.634674 412.08016 173.84078 461.4481 204.58789 478.24609 C 251.8109 504.04532 280.59863 516.91745 297.0332 519.58398 C 319.09167 523.163 344.50707 518.45288 374.68359 505.19141 C 380.64081 502.57343 407.18121 489.31033 433.66211 475.71875 C 525.77945 428.43858 566.55936 411.014 611.71875 399.64062 C 654.72832 388.80872 685.0679 387.7418 747.68164 394.85938 C 788.97556 399.55343 820.39544 408.33057 853.9082 424.5293 C 888.13591 441.07363 918.7984 466.25621 951.34375 504.55664 C 968.11828 524.29748 977.17245 537.30248 984.61719 552.3457 C 991.88583 567.03298 994.25667 574.23976 992.03125 574.87891 C 968.495 581.6386 947.86474 590.32589 946.42188 594.08594 C 945.39667 596.75763 947.4924 599.81298 950.67383 600.28516 C 952.10682 600.49785 959.06795 598.22837 966.14258 595.24219 C 979.30774 589.68524 994.13396 585.18082 995.32812 586.375 C 995.69548 586.74234 990.24035 592.67823 983.20508 599.56445 C 957.87738 624.3556 954.51869 626.45012 915.00586 642.12305 C 865.5696 661.73218 809.47743 677.33629 765.93555 683.59375 C 694.79444 693.81752 614.67635 687.02958 551.94141 665.46094 C 529.04107 657.58767 514.42636 650.90876 451.72852 619.66797 C 420.44579 604.08052 389.0057 589.04096 381.86133 586.24609 C 353.95125 575.32765 329.34718 571.28728 296.67578 572.25586 C 276.57525 572.85178 271.74567 573.82819 265.30078 578.60742 C 260.83303 581.92051 259.75981 585.22221 262.07617 588.5293 C 264.33452 591.75355 266.71418 591.62708 270.95508 588.05859 C 272.86679 586.45 276.2877 584.7854 278.55859 584.35938 C 286.66558 582.8385 340.98466 584.64237 349.25586 586.70703 C 372.60277 592.53492 386.96758 598.72021 446.14453 628.43555 C 507.27836 659.13353 525.17294 667.33331 548.91992 675.52734 C 584.06749 687.6552 632.61973 697.23635 668.45312 699.11523 C 677.60702 699.59521 687.23616 700.0625 689.85156 700.1543 C 699.54269 700.49461 740.23504 697.97872 753.79297 696.20117 C 804.72967 689.52296 862.40277 674.12632 917.55078 652.48242 C 948.93594 640.1647 960.35595 633.76908 978.73438 618.2207 C 993.84573 605.4363 1000.9359 597.71008 1001.1426 593.79883 C 1001.2417 591.92297 1002.3764 589.51126 1003.666 588.43945 C 1010.068 583.11864 1001.2173 556.24277 984.73242 530.94727 C 976.59193 518.45599 960.77449 498.60397 945.36523 481.53711 C 891.57255 421.95791 831.88042 393.1522 742.16016 383.47656 C 731.05229 382.27865 722.38852 380.77779 721.33594 379.87109 C 718.62488 377.53574 711.3862 376.21052 676.52148 371.66211 C 659.00735 369.37725 636.38468 365.5966 626.25 363.26172 C 602.84737 357.87007 581.33441 353.6534 572.04297 352.63477 C 569.83423 352.39262 568.20963 352.27073 566.95898 352.29883 z M 590.64258 366.58594 C 591.65463 366.38134 603.95986 368.88795 617.98633 372.1543 C 632.01283 375.42064 645.79566 378.45409 648.61523 378.89648 C 651.43478 379.33888 653.30648 380.11028 652.77539 380.60938 C 652.24431 381.10846 645.92476 382.41612 638.73242 383.51758 C 631.54007 384.61904 622.44655 386.27042 618.52344 387.18555 C 614.60036 388.10067 611.04442 388.85719 610.62109 388.86719 C 610.19788 388.87685 609.92889 387.14454 610.02539 385.01953 C 610.189 381.41309 609.48902 380.68502 599.50195 374.05859 C 593.3614 369.98434 589.58653 366.79941 590.64258 366.58594 z M 828.71289 477.19727 C 826.36028 477.31085 824.71913 479.85809 822.34375 486.17773 C 813.21395 510.46758 811.38571 552.56078 818.27539 579.82422 C 824.21227 603.31723 839.38169 626.28766 860.64648 643.98633 C 871.37382 652.91469 874.42907 654.22513 877.07812 651.0332 C 879.70678 647.86587 877.3335 644.02329 867.71094 635.86914 C 849.35369 620.31318 834.21958 597.02031 828.12109 574.93359 C 825.81899 566.59615 825.4876 562.41739 825.4375 541.05273 C 825.37757 515.45081 826.49581 506.85285 831.86719 491.57031 C 835.09906 482.37505 834.9927 479.50207 831.35742 477.8457 C 830.36162 477.39199 829.49709 477.15941 828.71289 477.19727 z M 906.07617 485.60156 C 902.87366 485.62854 900.86719 487.27225 900.86719 490.52734 C 900.86719 493.55632 902.48547 495.17868 906.81055 496.48242 C 915.53288 499.11161 921.64274 509.13122 918.50977 515.66797 C 916.11053 520.67381 911.70613 522.4125 906.12891 520.55469 C 900.88745 518.80877 899.28733 516.08789 903.50195 516.08789 C 907.23273 516.08789 909.18945 513.98421 909.18945 509.97266 C 909.18945 506.51618 905.27763 502.76086 902.70508 503.74805 C 901.90411 504.05542 900.56133 503.48124 899.72266 502.4707 C 897.74388 500.08627 890.86504 500.10565 888.46875 502.50195 C 885.89456 505.07613 886.11025 512.8437 888.9082 518.32812 C 891.73619 523.87145 898.59683 530.07183 902.96875 531.03516 C 904.75483 531.42875 906.75241 531.92789 907.40625 532.14453 C 909.63375 532.88254 916.90682 531.27955 920.47852 529.26367 C 926.70824 525.74763 929.40111 520.35803 929.37891 511.45312 C 929.35441 501.61287 926.2407 495.60008 918.46484 490.37891 C 913.67714 487.16413 909.27868 485.57459 906.07617 485.60156 z M 525.79492 498.84961 L 525.42773 502.64648 C 525.12309 505.79339 525.6324 506.73343 528.40039 508.14258 C 536.69483 512.36514 609.58237 535.08978 628.41406 539.32422 C 633.20055 540.40051 636.87487 541.52356 636.57812 541.82031 C 636.28138 542.11709 625.8561 541.69543 613.41211 540.88281 C 594.80248 539.66746 590.45193 539.68269 588.90234 540.96875 C 586.04975 543.33618 586.5844 547.84512 589.98047 550.07031 C 599.70191 556.44005 657.33687 577.07643 663.69727 576.46484 C 666.91536 576.15542 667.26367 575.71537 667.26367 571.96094 L 667.26367 567.80078 L 646.46094 560.66797 L 625.65625 553.53516 L 634.45703 552.94141 C 641.87789 552.44027 643.39516 551.97332 644.11719 549.96875 C 644.58821 548.66106 644.48534 546.65401 643.89062 545.50977 C 642.39622 542.63446 644.32598 542.7954 656.12109 546.52148 C 663.01273 548.69854 666.79837 550.62966 668.92969 553.05859 C 671.33957 555.80492 672.94197 556.50781 676.80273 556.50781 C 682.21365 556.50781 684.50195 554.90026 684.50195 551.10352 C 684.50195 548.20851 682.12619 545.8095 676.36719 542.89062 C 674.18141 541.78278 672.63346 540.63605 672.92773 540.3418 C 673.222 540.04754 681.69708 541.8916 691.76172 544.43945 C 701.82632 546.98729 715.80196 550.4325 722.81641 552.0957 C 735.1596 555.02239 745.58665 559.06017 750.4668 562.80273 C 752.74127 564.54698 752.74862 564.70222 750.69922 566.9668 C 747.09307 570.95152 743.94336 581.0262 743.94336 588.57422 C 743.94336 598.11427 747.69377 607.72435 753.97266 614.27734 C 759.0222 619.54733 762.46534 620.72608 765.10352 618.08789 C 767.59101 615.60039 766.66534 612.30609 761.98438 606.98828 C 751.13678 594.66476 752.48298 576.4793 764.68164 570.55273 C 769.10651 568.40297 770.09766 567.34001 770.09766 564.73828 C 770.09766 560.69208 767.59887 558.60668 763.33398 559.0957 C 760.76209 559.39062 759.52355 558.73636 757.95508 556.25195 C 754.68633 551.07426 745.71738 547.44853 718.73828 540.39844 C 704.81228 536.75936 677.10258 529.21471 657.16016 523.63281 C 596.1312 506.55078 561.31166 499.34357 538.27734 499.02344 L 525.79492 498.84961 z M 623.77344 525.74414 C 624.18643 525.76113 624.54271 525.87084 624.74023 526.06836 C 625.13526 526.4634 624.43289 526.74486 623.17969 526.69336 C 621.79477 526.63633 621.5126 526.35409 622.46094 525.97461 C 622.89003 525.80282 623.36045 525.72715 623.77344 525.74414 z M 196.875 569.59766 C 194.75248 569.54399 191.55077 569.67714 186.55859 569.9082 C 170.32701 570.65945 153.60077 574.59649 141.52539 580.50781 C 134.2514 584.06869 133.44879 584.81924 133.10742 588.37305 C 132.74553 592.1404 133.02607 592.43299 139.94336 595.49023 C 143.91051 597.24361 147.14905 598.95308 147.14062 599.28906 C 147.13219 599.62506 143.25542 602.4243 138.52344 605.51172 C 126.09442 613.62114 123.38086 616.44934 123.38086 621.28906 C 123.38086 624.86288 122.35758 626.20488 114.76172 632.60352 C 110.0213 636.59676 96.246607 646.78455 84.150391 655.24219 C 58.053149 673.48931 52.050781 678.66353 52.050781 682.91992 C 52.050781 684.59758 52.988573 686.54913 54.132812 687.25781 C 55.332332 688.00081 60.048633 688.3648 65.271484 688.11719 C 76.295499 687.59455 83.254658 684.4994 110.30273 668.08594 C 131.01717 655.51589 144.90155 645.8828 169.15625 627.25 C 193.54552 608.51381 198.27539 604.28715 198.27539 601.23438 C 198.27539 598.32959 196.24057 595.73828 193.95898 595.73828 C 193.15415 595.73828 179.48695 605.53322 163.58594 617.50391 C 126.45136 645.45981 105.61934 659.20406 79.548828 672.95117 C 73.37694 676.20564 78.812571 671.47671 89.289062 664.47852 C 116.38571 646.37823 129.03811 635.33987 132.85352 626.4707 C 134.9652 621.56199 136.83399 619.71067 145.69922 613.74219 C 171.91417 596.09309 174.75837 590.8402 159.10547 588.98633 C 155.73149 588.58676 153.42114 587.80935 153.9707 587.25977 C 155.61615 585.61435 172.12346 581.77816 181.03906 580.96875 C 201.0827 579.14905 201.70449 579.02389 202.44727 576.68359 C 202.84074 575.44385 202.54084 573.2689 201.78125 571.84961 C 200.95113 570.2985 200.41253 569.6871 196.875 569.59766 z "
       style="fill:#000000" />
  </g>
</svg>
