<?xml version="1.0" encoding="UTF-8" standalone="no"?>
<svg
   xmlns:dc="http://purl.org/dc/elements/1.1/"
   xmlns:cc="http://creativecommons.org/ns#"
   xmlns:rdf="http://www.w3.org/1999/02/22-rdf-syntax-ns#"
   xmlns:svg="http://www.w3.org/2000/svg"
   xmlns="http://www.w3.org/2000/svg"
   version="1.1"
   id="svg2"
   viewBox="0 0 1035.5399 1052.4815">
  <defs
     id="defs4" />
  <g
     id="layer1"
     >
    <path
       id="path4399"
       d="M 844.94922 28.373047 C 832.16233 28.236767 818.04369 31.262786 802.5293 37.445312 C 766.31307 51.877761 720.35653 87.453642 677.19336 134.4707 C 635.69092 179.67883 614.20272 209.58476 542.35547 322.13086 C 502.86666 383.98842 491.90777 400.72438 490.85156 400.77148 C 490.44512 400.78964 485.16297 391.41386 479.11328 379.9375 C 459.72434 343.15567 442.02453 316.61168 417.20117 287.08789 C 364.23812 224.09613 291.27089 181.39927 237.01367 181.65039 C 209.2293 181.77898 190.95709 189.84234 169.51758 211.43555 C 143.19146 237.95038 127.56227 273.38222 118.67383 326.70508 C 114.87963 349.52906 114.87352 412.7807 118.67383 433.08594 C 136.49448 528.30237 185.91447 623.12484 270.86523 725.10352 C 392.81454 871.4968 528.93874 977.08892 652.26953 1020.9551 L 652.25977 1020.9551 C 663.88914 1025.0913 663.16908 1025.0718 670.66406 1021.4434 C 676.17084 1018.7777 677.4643 1017.0362 683.46484 1004.2031 C 693.71542 982.28089 713.52942 933.46449 730.35352 888.68359 C 763.88898 799.42166 847.35906 536.99557 874.33203 436.01953 C 905.06275 320.97578 919.61749 229.20256 919.71289 149.89453 C 919.77744 96.183561 912.80474 70.231716 892.67578 49.269531 C 879.48172 35.529275 863.63774 28.572225 844.94922 28.373047 z M 837.88477 65.611328 C 849.85308 65.559748 851.83556 65.964768 859.04688 69.941406 C 876.90714 79.79022 883.95 98.821775 884.05273 137.51562 C 884.16766 180.58207 872.30879 270.93427 856.9043 344.36133 C 840.50621 422.52605 817.02418 504.75898 761.38477 678.85938 C 717.10521 817.41336 690.9504 891.19637 660.0918 964.61523 C 655.40008 975.77774 652.75117 980.37158 651.03125 980.33008 C 645.16276 980.18458 588.86759 953.01285 559.93945 936.36328 C 432.82815 863.20546 306.33005 734.77702 225.37109 596.68945 C 208.59688 568.07872 182.86329 515.40107 174.11914 491.77734 C 158.60143 449.85424 151.55539 411.58183 151.42578 368.52344 C 151.31133 330.22146 156.21139 304.78377 168.9043 277.76953 C 181.10762 251.79784 194.86771 236.47088 214.94141 226.49414 L 225.875 221.06055 L 245.75586 221.08984 C 269.20631 221.12439 280.91267 223.87281 301.26172 234.12305 C 321.4484 244.29158 338.8036 257.54632 361.00977 279.75391 C 388.52611 307.27209 410.26191 335.71986 433.44922 374.56445 C 441.60694 388.23096 464.45508 434.60615 464.45508 437.49805 C 464.45508 439.53137 451.02786 456.9912 430.33594 481.86523 C 422.45138 491.34327 414.6897 501.24778 413.08789 503.875 C 405.59119 516.17062 414.43298 531.39453 429.07031 531.39453 C 435.56997 531.39453 436.24669 530.96719 445.93164 520.75586 C 458.30932 507.70533 484.6781 475.05709 501.92773 451.42578 C 513.68473 435.319 551.63982 378.59002 607.46094 293.69141 C 649.26003 230.11894 678.58213 191.01745 713.04102 152.89648 C 751.50248 110.34762 785.6501 82.626401 815.67383 69.580078 C 823.17225 66.321777 826.88783 65.658728 837.88477 65.611328 z "
       style="fill:#000000" />
  </g>
</svg>
