<?xml version="1.0" encoding="UTF-8" standalone="no"?>
<svg
   xmlns:dc="http://purl.org/dc/elements/1.1/"
   xmlns:cc="http://creativecommons.org/ns#"
   xmlns:rdf="http://www.w3.org/1999/02/22-rdf-syntax-ns#"
   xmlns:svg="http://www.w3.org/2000/svg"
   xmlns="http://www.w3.org/2000/svg"
   version="1.1"
   id="svg2"
   viewBox="0 0 1035.5399 1052.4815"
   >
  <defs
     id="defs4" />
  <g
     id="layer1"
     >
    <path
       id="path3977"
       transform="translate(-149.93942,4.2260905)"
       d="M 987.58008 35.0625 C 978.03634 35.0625 885.5793 72.314535 740.22656 134.7207 C 636.29783 179.3417 620.21381 186.58355 575.81641 208.75977 C 369.80334 311.66196 242.20794 434.12825 193.79492 575.42773 C 183.26183 606.17022 177.34112 632.54298 174.4082 661.77734 C 172.23676 683.42151 172.6026 748.47656 175.06836 779.08008 C 176.22863 793.48042 177.19646 817.09336 177.2207 831.55273 C 177.2801 869.47076 173.36459 889.70346 160.4375 918.27734 L 154.71484 930.92383 L 140.16992 936.26562 C 93.831138 953.28539 34.712891 990.56597 34.712891 1002.7676 C 34.712891 1007.4381 42.284433 1016.513 46.783203 1017.2344 C 52.250479 1018.1111 57.595461 1015.9191 66.314453 1009.2266 C 111.89418 974.24081 164.21311 953.44718 239.08008 940.56055 C 251.08036 938.49497 289.04449 933.21992 323.44531 928.83984 C 416.34397 917.01147 440.95395 912.23477 484.52734 897.56836 C 568.65149 869.25277 659.01811 814.79423 741.64453 742.62109 C 818.9695 675.07859 879.34288 579.73155 918.41992 463.4375 C 936.45622 409.76078 946.79269 362.84866 959.76172 275.79688 C 963.81418 248.59624 969.14015 212.92187 971.59766 196.52148 C 977.7452 155.49671 984.83679 118.34778 993.25977 83.064453 C 997.17477 66.664069 1000.5429 51.935975 1000.7441 50.335938 C 1001.6639 43.023718 994.80231 35.0625 987.58008 35.0625 z M 964.51758 72.888672 L 963.82227 76.886719 C 963.43996 79.085001 960.43971 93.773536 957.1543 109.5293 C 949.73546 145.11057 946.19617 165.96079 935.10742 239.45508 C 917.41852 356.69245 909.28666 396.41173 891.92383 450.3457 C 876.5848 497.99363 850.15346 555.70008 826.30078 593.62109 C 728.00466 749.89334 561.21222 859.99501 373.62891 892.43555 C 362.02864 894.44171 336.50085 898.09131 316.90039 900.54492 C 278.56518 905.34377 240.21328 910.9272 221.82812 914.38672 C 207.96616 916.99539 207.40971 917.0093 208.16992 914.72852 C 209.01891 912.18167 249.96483 873.69828 292.90039 835.0957 C 368.83308 766.82581 389.80646 744.07184 463.85352 649.62305 C 513.32499 586.52092 534.56052 561.49392 578.01367 515.07422 C 620.45175 469.73917 680.80969 411.42013 752.54883 346.43555 C 766.14915 334.11574 783.00375 318.43318 790.00391 311.58398 C 804.89784 297.01125 805.84062 293.88754 797.78516 285.83203 C 792.08927 280.13616 785.52696 279.29027 779.2793 283.44336 C 775.15751 286.18335 713.26537 342.28663 675.48242 377.5332 C 570.67803 475.30175 531.29986 518.0211 436.05859 637.25977 C 366.0361 724.92522 338.12315 755.20604 274.71875 812.29688 C 255.11829 829.94557 231.6968 851.21609 222.66992 859.56445 C 213.6428 867.91282 205.89656 874.38471 205.45703 873.94531 C 205.01775 873.50591 205.36817 866.10439 206.23438 857.49805 C 208.38667 836.11329 208.18683 804.6356 205.63477 763.08008 C 202.913 718.77863 202.87258 671.78888 205.53906 651.76172 C 210.70306 612.97824 221.89604 576.84867 240.44727 539.07617 C 270.25282 478.38905 313.60302 424.76331 376.95117 370.2207 C 464.60002 294.75539 580.21546 231.87148 807.82031 135.87109 C 849.70687 118.20394 928.59176 86.352808 954.53516 76.630859 L 964.51758 72.888672 z "
       style="fill:#000000" />
  </g>
</svg>
