<?xml version="1.0" encoding="UTF-8" standalone="no"?>
<svg
   xmlns:dc="http://purl.org/dc/elements/1.1/"
   xmlns:cc="http://creativecommons.org/ns#"
   xmlns:rdf="http://www.w3.org/1999/02/22-rdf-syntax-ns#"
   xmlns:svg="http://www.w3.org/2000/svg"
   xmlns="http://www.w3.org/2000/svg"
   version="1.1"
   id="svg2"
   viewBox="0 0 1035.5399 1052.4815"
   >
  <defs
     id="defs4" />
  <g
     id="layer1"
     >
    <path
       id="path4209"
       d="M 544.19727 32.474609 C 540.77487 32.586174 539.33203 35.31062 539.33203 41.121094 C 539.33203 45.283501 537.18357 51.595904 532.21875 62.015625 C 528.30624 70.226838 524.827 77.221835 524.48828 77.560547 C 524.14957 77.899282 516.26276 76.214772 506.96094 73.816406 C 497.65912 71.418015 489.83653 69.455078 489.57812 69.455078 C 487.84936 69.455078 487.85759 74.082201 489.58984 75.814453 C 491.44276 77.667358 491.06992 79.308168 486.54688 89.210938 C 483.7119 95.417828 479.13032 107.94555 476.36523 117.04883 C 473.60012 126.15209 471.08664 133.85088 470.7793 134.1582 C 469.55018 135.38733 461.66067 101.66189 460.45898 90.041016 C 459.94649 85.084792 458.7985 80.424111 457.90625 79.683594 C 456.87783 78.8301 450.47567 79.605145 440.41797 81.800781 C 431.69169 83.705755 421.30244 85.290316 417.33203 85.322266 C 413.36163 85.354272 409.25204 85.928216 408.19922 86.595703 C 404.44246 88.977455 404.88291 99.183471 410.01172 128.65039 C 423.71658 207.39048 429.66147 248.91018 429.55078 265.08789 C 429.50292 272.07816 429.43692 272.19242 427.43555 268.69727 C 426.29879 266.71207 423.33151 260.21538 420.8418 254.25977 C 418.35207 248.30416 415.78484 242.86741 415.13672 242.17773 C 414.475 241.4736 409.08569 242.00821 402.8457 243.39648 C 396.37906 244.83517 387.7864 245.66 382.29102 245.37109 C 376.44557 245.06381 372.64492 245.46361 372.31641 246.41992 C 372.0245 247.26962 375.11637 252.36433 379.1875 257.74219 C 388.84542 270.50002 396.70103 283.89719 413.12695 315.62109 C 425.17496 338.88981 433.93555 358.6581 433.93555 362.57617 C 433.93555 363.35211 432.68923 363.98828 431.16602 363.98828 C 421.77728 363.98828 421.51499 370.06579 430.28906 384.29688 C 438.33166 397.3416 442.79484 408.01478 457.72461 449.89258 C 479.63688 511.35612 483.8231 528.33561 485.12891 561.06445 C 485.63584 573.76976 487.95818 606.07484 490.29102 632.85352 C 496.2739 701.53123 497.88442 737.80887 497.06055 785.35156 C 496.26262 831.39854 496.53892 829.49012 482.8418 883.66016 C 478.6355 900.29551 475.72233 914.65652 476.26562 916.07227 C 476.80215 917.47041 478.33882 918.40314 479.68164 918.14453 C 481.58972 917.77707 484.10384 909.78916 491.19141 881.58203 C 503.92662 830.89843 504.68067 824.75596 504.67969 771.67188 C 504.67873 720.67805 503.23524 690.18025 498.1582 633.97461 C 496.18566 612.13737 493.89889 581.60178 493.07617 566.11719 C 490.84778 524.176 487.34762 509.64195 463.52344 443.39648 C 449.13733 403.39452 444.99077 393.5761 437.60938 382.03711 C 432.03212 373.31851 432.0558 371.20703 437.73047 371.20703 C 442.21735 371.20703 468.79763 364.54202 475.53125 361.72852 C 481.80676 359.10643 481.57894 359.06138 481.58594 362.9043 C 481.58945 364.69098 484.11005 373.30026 487.18555 382.03516 C 490.26108 390.77005 496.52612 408.63594 501.10742 421.73828 C 505.68874 434.84063 511.48004 450.43307 513.97852 456.38867 L 518.52148 467.21875 L 515.25391 478.76758 C 511.15553 493.25607 511.03031 496.81641 514.61328 496.81641 C 517.91639 496.81641 518.37072 495.6776 527.74805 463.94531 C 540.6145 420.40612 547.81353 401.38293 571.04297 349.54883 C 592.36842 301.96325 603.72527 282.6915 613.53516 277.44141 C 618.83592 274.60451 625.06827 276.8463 642.73047 287.94141 C 660.19472 298.91218 661.89906 299.65727 662.99219 296.80859 C 664.2173 293.61604 661.27303 290.76936 647.12305 281.46094 C 636.48706 274.46416 619.80813 267.25391 614.25977 267.25391 C 613.55159 267.25391 610.37198 269.60292 607.19336 272.47461 C 600.38484 278.62571 600.31313 278.31373 604.25 259.71484 C 605.80952 252.34726 609.68837 232.98375 612.86914 216.68555 C 622.66344 166.49953 629.50533 143.35848 642.83398 115.34766 L 649.50781 101.32422 L 639.80664 91.041016 C 634.4714 85.385346 627.81317 77.564225 625.00977 73.662109 C 622.2064 69.760016 619.01261 66.568359 617.91211 66.568359 C 613.70531 66.568359 606.89689 84.424368 594.05664 129.13281 C 586.41307 155.747 575.6643 197.88044 571.34375 218.16602 L 569.96094 224.66211 L 569.80664 218.59961 C 569.59297 210.22171 573.27818 182.2911 577.67383 158.9707 C 580.99674 141.3415 587.99006 112.9472 599.90234 68.734375 C 604.80166 50.550437 605.47999 41.340362 602.01758 40.011719 C 600.76153 39.529735 595.72622 39.131753 590.82812 39.126953 C 580.84435 39.117424 555.55951 35.60371 548.29883 33.216797 C 546.69846 32.690682 545.33806 32.437421 544.19727 32.474609 z M 550.01367 41.466797 C 550.13399 41.45824 550.25699 41.459021 550.38281 41.466797 C 551.8485 41.557371 560.37912 42.693118 569.33984 43.992188 C 578.30055 45.291232 587.84566 46.355469 590.55078 46.355469 C 593.2559 46.355469 595.78361 46.864418 596.16797 47.486328 C 597.20935 49.171346 594.68316 60.151393 586.90039 87.763672 C 568.3613 153.53821 561.55204 197.43047 560.28711 259.3125 C 559.94626 275.98822 558.66409 298.96085 557.43945 310.36133 C 556.21481 321.76179 555.21289 335.61163 555.21289 341.14062 C 555.21289 350.73895 555.36092 351.17296 558.46289 350.73242 C 561.33227 350.32488 561.75057 349.34413 562.04883 342.33008 C 563.04759 318.84399 569.74887 267.21838 576.29297 232.60352 C 580.56797 209.99104 595.49099 149.7369 605.05273 116.47852 C 611.89092 92.693365 616.79005 79.5625 618.82617 79.5625 C 620.0274 79.5625 637.31479 98.342965 639.17773 101.67188 C 639.74731 102.6896 637.44477 109.62007 634.03125 117.16406 C 626.54552 133.70779 620.29658 152.44722 614.55273 175.57422 C 607.14156 205.41455 592.51117 280.53927 593.41211 284.12891 C 594.02524 286.57184 592.63611 290.33767 588.56641 297.25586 C 576.79331 317.26922 536.33957 407.81124 532.78711 422.09961 C 532.24418 424.28334 531.33838 426.07031 530.77344 426.07031 C 530.20848 426.07031 528.32167 416.81176 526.58203 405.49609 C 513.12829 317.98468 513.36354 209.74738 527.13281 151.75195 C 532.2648 130.13639 535.72187 120.11682 544.70117 100.82617 C 549.0522 91.478661 552.2435 82.871327 551.79297 81.697266 C 551.19544 80.140097 548.61793 79.5625 542.26562 79.5625 C 531.82596 79.5625 531.63035 78.934246 538.125 66.166016 C 540.63795 61.22565 543.82559 53.609636 545.20703 49.242188 C 546.98596 43.618059 548.20883 41.595157 550.01367 41.466797 z M 500.39844 80.289062 C 502.85381 80.296965 507.95108 81.017618 513.53125 82.203125 C 520.97149 83.783784 530.47169 85.521568 534.64062 86.064453 C 538.80956 86.607337 542.21875 87.233721 542.21875 87.457031 C 542.21875 87.680411 540.02773 92.672037 537.34961 98.548828 C 522.38625 131.38375 515.31326 163.40641 511.80078 214.2168 C 509.49641 247.55141 510.79658 340.85278 513.92773 366.875 C 516.57499 388.87578 523.0556 431.78177 524.72266 438.3418 C 525.32804 440.72404 525.21019 445.11009 524.46094 448.08789 C 522.84516 454.50975 521.07463 454.97046 518.91602 449.53125 C 513.97162 437.07254 488.79883 359.91092 488.79883 357.21289 C 488.79883 355.44226 487.53136 352.81209 485.98047 351.36719 C 480.97658 346.70539 473.03861 300.52631 469.9082 257.86914 C 466.62499 213.12984 471.28153 158.96141 481.08008 127.92773 C 484.77406 116.22829 497.70912 81.831711 498.9043 80.529297 C 499.05557 80.364447 499.57998 80.286428 500.39844 80.289062 z M 451.4375 86.994141 C 451.64884 86.984794 451.76849 86.996688 451.78711 87.029297 C 451.93618 87.290153 453.86361 96.274041 456.07031 106.99414 C 458.27701 117.71424 461.61116 133.10853 463.48047 141.20508 C 466.8206 155.67203 466.83993 156.18297 464.58789 170.80273 C 462.89827 181.77124 462.28697 196.67819 462.25977 227.54883 C 462.21922 273.45531 463.44586 286.63401 471.71094 329.01953 C 474.52813 343.46669 475.77823 353.04208 474.95508 353.86523 C 474.13193 354.68835 471.26323 350.63727 467.50977 343.35352 C 464.15103 336.83567 456.20083 322.08059 449.84375 310.56641 C 438.52139 290.05891 438.28545 289.42555 438.24805 279.52539 C 438.16184 256.70408 432.74887 215.21902 421.00977 147.41992 C 417.09125 124.7886 413.44971 103.18594 412.91797 99.414062 L 411.95117 92.556641 L 417.25195 92.556641 C 420.16722 92.556641 429.0682 91.205208 437.0332 89.554688 C 444.00258 88.110491 449.95809 87.059568 451.4375 86.994141 z M 409.65234 250.02539 C 409.8466 250.03805 409.96803 250.06438 410.00586 250.10547 C 410.28184 250.40514 415.17115 259.98475 420.87109 271.39258 C 426.57103 282.8004 436.11243 300.93673 442.07422 311.69531 C 457.12804 338.86127 465.84847 356.50687 464.59375 357.26562 C 464.01006 357.61858 460.00445 358.95184 455.69141 360.22656 C 445.24304 363.31457 442.76338 363.1538 441.26562 359.29492 C 435.83446 345.30176 432.80474 338.58893 423.8125 320.63867 C 410.78713 294.63758 400.69635 276.38798 392.45898 263.92773 C 388.88716 258.52482 386.2414 253.8289 386.57812 253.49219 C 387.39444 252.67586 406.73857 249.83548 409.65234 250.02539 z M 656.61523 303.38086 C 655.02425 303.51001 651.72212 308.09041 637.33984 326.61328 C 610.48272 361.20246 602.49352 375.75556 581.51562 428.29883 C 560.16411 481.77791 549.02131 521.28566 546.57227 552.18164 C 544.05339 583.95808 543.39544 677.74408 545.37109 723.49023 C 547.72275 777.94334 547.71035 828.32433 545.33984 845.49023 C 544.35292 852.63697 541.9449 865.20231 539.99023 873.41406 C 538.03557 881.62578 536.80202 888.93454 537.24805 889.65625 C 537.69408 890.37792 539.23328 890.96875 540.66992 890.96875 C 542.61903 890.96875 543.87073 888.86257 545.59766 882.66797 C 554.09482 852.18822 555.94415 829.66358 554.34375 776.1875 C 553.63082 752.36505 553.07246 691.29389 553.10156 640.47266 L 553.1543 548.07031 L 557.14258 529.30078 C 564.33666 495.45931 573.12395 468.70573 593.45508 418.73828 C 608.49781 381.76798 617.92223 364.80865 638.65234 337.4082 C 648.74353 324.06996 657.91644 311.8882 659.03516 310.33789 C 660.8119 307.87566 660.75765 307.20934 658.60547 305.07227 C 657.70964 304.18274 657.33841 303.32215 656.61523 303.38086 z M 525.53125 915.49219 C 524.5839 915.58623 523.51203 916.32982 522.40625 917.80469 C 519.34557 921.887 520.88087 931.81148 525.51172 937.88281 C 528.0732 941.24112 530.56253 942.94531 532.9082 942.94531 C 537.63447 942.94531 537.52511 939.17796 532.65039 934.08984 C 529.61433 930.92088 528.8834 928.80035 528.99023 923.47852 C 529.09561 918.22824 527.61541 915.28529 525.53125 915.49219 z M 498.375 931.39453 C 493.3252 931.39453 494.92578 934.9566 504.39453 944.79102 C 515.84326 956.68191 517.87682 960.15613 521.91016 974.71094 C 523.50438 980.46389 526.23936 988.12733 527.98828 991.74023 C 533.96626 1004.0891 548.3199 1015.243 562.98633 1018.9395 C 578.02107 1022.7287 602.85938 1015.8418 602.85938 1007.8828 C 602.85938 1004.1674 601.35776 1004.2742 590.02344 1008.8086 C 573.79769 1015.2999 556.77769 1011.8505 543.17773 999.31445 C 535.60132 992.33079 532.04106 985.29322 528.54102 970.37695 C 527.14355 964.42133 524.51315 956.94977 522.69727 953.77344 C 518.97924 947.26994 501.7256 931.39453 498.375 931.39453 z M 483.80664 932.875 C 481.76331 932.92889 478.75505 934.8756 477.24219 937.89258 C 472.62557 947.09907 466.3027 957.03882 457.52734 968.88281 C 448.04429 981.68199 446.35775 986.25781 451.12305 986.25781 C 452.93695 986.25781 457.7241 981.07223 465.19922 971.01172 L 476.52734 955.76562 L 478.16602 963.02148 C 481.37011 977.2103 493.62603 992.14526 509.01172 1000.6074 C 517.88178 1005.4861 519.91551 1005.9079 520.99609 1003.0918 C 522.06039 1000.3184 520.73922 998.91094 512.71289 994.27148 C 502.39327 988.30638 493.41373 979.49457 489.1582 971.15625 C 486.17976 965.32022 485.47598 961.95831 485.60352 954.17383 C 485.69099 948.83532 485.14588 944.08589 484.39062 943.61914 C 483.52994 943.08716 483.55734 941.76008 484.46484 940.06445 C 485.26106 938.57668 485.91211 936.29662 485.91211 934.99805 C 485.91211 933.49079 485.03264 932.84266 483.80664 932.875 z M 545.26953 957.5625 C 544.27648 957.62726 543.62708 958.28096 543.17578 959.45703 C 542.01905 962.47138 546.5883 967.60449 559.91797 978.26953 C 566.4021 983.45749 572.83015 987.70312 574.20312 987.70312 C 579.03415 987.70312 578.81038 984.38494 573.67578 979.89062 C 570.87325 977.43751 563.99545 971.36926 558.39258 966.40625 C 551.30544 960.12845 547.45425 957.42003 545.26953 957.5625 z "
       style="fill:#000000" />
  </g>
</svg>
