<?xml version="1.0" encoding="UTF-8" standalone="no"?>
<svg
   xmlns:dc="http://purl.org/dc/elements/1.1/"
   xmlns:cc="http://creativecommons.org/ns#"
   xmlns:rdf="http://www.w3.org/1999/02/22-rdf-syntax-ns#"
   xmlns:svg="http://www.w3.org/2000/svg"
   xmlns="http://www.w3.org/2000/svg"
   version="1.1"
   id="svg2"
   viewBox="0 0 1035.5399 1052.4815"
   >
  <defs
     id="defs4" />
  <g
     id="layer1"
     >
    <path
       id="path4132"
       d="M 439.32812 37.732422 C 413.25987 37.700615 396.2814 40.691511 369.11133 50.105469 C 317.85052 67.866465 273.47264 104.17492 236.47656 158.62109 C 222.95488 178.52057 219.54953 185.46553 210.40039 211.80078 C 206.22142 223.82967 200.02467 241.5975 196.62891 251.28516 C 189.694 271.06964 188.19228 287.11415 192.8418 291.76367 C 195.78305 294.70499 194.86823 294.70895 213.04297 291.71484 C 229.35319 289.02787 268.81296 289.38781 316.79492 292.66211 C 391.21531 297.74059 451.3542 277.07497 493.88477 231.80859 C 512.20119 212.31398 516.70588 204.10279 524.37305 176.23438 C 530.19203 155.08366 536.55878 141.06025 542.68164 135.9082 L 547.20117 132.10547 L 556.82812 135.10938 C 562.12261 136.76199 570.8574 138.52829 576.23828 139.03516 L 586.02148 139.95703 L 585.14062 153.88477 C 584.29664 167.24428 580.43432 182.26039 575.25391 192.31641 C 573.95198 194.84363 565.63058 208.97275 556.76367 223.71484 C 547.89677 238.45694 537.91447 256.37862 534.58008 263.53906 C 531.24568 270.69951 528.43254 276.67888 528.32812 276.82617 C 528.22364 276.97351 524.23946 276.18772 519.47461 275.08008 C 485.7156 267.23257 457.68092 274.31144 433.97461 296.67188 C 414.22845 315.29695 402.59922 335.70377 380.97461 389.67773 C 357.85544 447.3822 346.91239 466.39305 313.83789 506.30469 C 264.04552 566.39008 250.26868 585.2885 235.03125 614.4043 C 223.39538 636.63829 217.32532 652.05132 212.19336 672.39648 C 208.5135 686.98483 208.11139 691.34991 208.08203 716.90625 C 208.04627 748.11931 209.36997 756.81279 219.04492 788.89258 C 232.89716 834.82321 255.4684 881.51226 285.41211 926.17578 C 300.24054 948.29365 313.70789 965.47069 324.2832 975.75391 C 345.40483 996.29217 378.4494 1010.1771 415.19727 1013.9551 C 431.46386 1015.6275 457.71378 1014.5795 475.25391 1011.5566 C 482.37788 1010.3288 501.67724 1005.9329 518.14062 1001.7871 C 567.1355 989.4494 580.34104 988.75093 621.3125 996.33984 C 632.95166 998.49564 645.84062 1000.2598 649.95508 1000.2598 C 667.94723 1000.2598 685.4124 993.44631 704.71094 978.89648 C 719.53485 967.72026 763.33571 923.20745 779.60547 902.78516 C 812.3208 861.71991 833.6376 819.44316 842.4375 778.17188 C 846.6676 758.33279 846.25791 712.50342 841.66016 691.25195 C 832.23737 647.69834 817.31432 617.38132 778.51562 562.97461 C 751.48715 525.07308 740.93436 504.14099 711.72852 430.48828 C 684.71077 362.35348 664.72584 325.04748 642.7832 301.78711 C 626.85137 284.89854 610.20004 275.95581 593.98633 275.58203 C 588.55637 275.45685 585.59961 274.73621 585.59961 273.53711 C 585.59961 272.51856 590.10098 261.44808 595.60352 248.93555 C 619.19601 195.28739 636.09529 150.82325 641.66992 127.72266 C 645.93673 110.04149 647.21557 84.618126 644.03125 80.78125 C 641.22326 77.397817 619.68082 72.082031 608.77734 72.082031 C 589.54083 72.082031 585.59961 77.709214 585.59961 105.17383 L 585.59961 123.04688 L 575.70312 122.25195 C 563.35521 121.2608 554.04064 116.75033 554.57812 112.02148 C 555.12756 107.18742 550.53452 99.081901 538.19922 83.121094 C 524.9296 65.951416 515.58261 58.292469 497.5293 49.791016 C 476.50929 39.892547 466.24275 37.765352 439.32812 37.732422 z M 439.44531 53.597656 C 448.71634 53.623983 457.62869 54.420508 465.8125 56.042969 C 483.35021 59.519857 503.92965 70.116818 515.78906 81.777344 C 524.40666 90.250411 535.00322 105.57339 535.04102 109.61523 C 535.04942 110.5141 529.00356 111.29613 520.49414 111.49805 C 487.35713 112.28404 470.61289 120.07913 416.46289 159.92969 C 385.90142 182.42077 366.87517 192.74756 305.88086 219.94922 C 262.66612 239.22172 237.71831 251.73607 221.83398 262.10547 C 215.46412 266.26376 209.92834 269.66602 209.5332 269.66602 C 207.55406 269.66602 209.49746 263.12012 216.28906 246.91211 C 220.39977 237.10202 226.3449 221.83939 229.50195 212.99414 C 240.74794 181.48605 252.81231 161.43929 276.58203 134.76172 C 297.99044 110.73435 329.52026 86.162841 356.29492 72.640625 C 380.59041 60.370492 411.63224 53.518676 439.44531 53.597656 z M 608.13281 87.783203 C 611.15952 87.715436 616.07802 88.645257 622.95508 90.580078 L 628.91406 92.255859 L 627.98438 103.25195 C 627.47313 109.29996 625.3087 120.96469 623.17578 129.17383 C 618.15867 148.4836 597.08966 202.62093 576.84375 248.22266 C 568.05465 268.01914 560.50802 285.99894 560.07227 288.17773 C 559.5774 290.65203 560.19548 293.05485 561.71875 294.57812 C 563.06007 295.91943 564.15625 297.75368 564.15625 298.65625 C 564.15625 302.02368 546.43695 300.28535 541.5 296.43359 C 540.61511 295.7432 547.83194 276.36485 552.30273 267.42578 C 554.81489 262.40295 562.91524 248.23164 570.30273 235.93555 C 599.93947 186.60684 600.96294 183.25959 602.41992 130.88281 C 603.03176 108.8882 604.06486 90.032148 604.71484 88.980469 C 605.18344 88.222266 606.31679 87.823864 608.13281 87.783203 z M 519.13477 127.22266 C 526.70943 127.22266 527.08469 128.0099 522.92578 135.17578 C 521.3089 137.96177 516.73853 148.85665 512.76953 159.38672 C 499.40193 194.8521 488.69048 212.03182 467.58008 231.86133 C 443.92074 254.08516 417.49357 266.7478 382.01367 272.86328 C 361.4201 276.41289 317.39656 277.82583 289.99219 275.81641 C 280.30452 275.10603 265.17609 274.22474 256.37305 273.85742 C 247.56999 273.49011 240.13618 272.49446 239.85352 271.64648 C 239.12269 269.45401 275.78156 250.99891 315.26367 233.68359 C 378.56138 205.92365 394.42264 197.07127 443.92188 161.87891 C 474.22981 140.33094 502.68073 127.22266 519.13477 127.22266 z M 491.86133 288.19531 C 498.39186 288.12746 505.18185 288.87722 512.16211 290.46484 L 522.80273 292.88477 L 522.80273 298.65234 C 522.80273 302.24392 523.83475 305.35216 525.53906 306.89453 C 531.0004 311.83699 543.44717 316.10901 554.46484 316.82227 C 563.65574 317.41729 566.60967 316.97288 572.54102 314.10156 C 581.55854 309.73626 584.73268 305.08425 583.42969 298.13867 C 582.51785 293.27812 582.7712 292.83189 586.95898 291.91211 C 604.32629 288.09759 629.28028 305.5825 649.20312 335.52539 C 669.22177 365.61231 684.67177 399.20344 711.19531 470.31055 C 733.20262 529.31013 736.75418 536.12977 769.41406 582.10742 C 798.05733 622.43064 808.64574 641.38182 817.64258 668.42773 C 826.38907 694.72097 828.3227 706.95068 828.3457 736.05078 C 828.36704 764.44927 826.89556 774.85016 819.57031 798.08398 C 802.96451 850.75324 762.22092 906.07325 704.30273 954.58789 C 668.49637 984.58079 657.13335 987.2601 608.79492 977.11133 C 575.06506 970.02969 553.86541 971.65602 506.7207 984.93945 C 492.39981 988.97447 475.7574 993.37535 469.73828 994.71875 C 445.84973 1000.0505 417.10858 998.98065 392.07617 991.83008 C 346.56358 978.82921 323.07712 957.67044 289.1875 899.13672 C 261.61322 851.51079 233.4729 782.66404 226.45117 745.64844 C 221.5886 720.01508 224.29149 686.94276 233.49219 659.48047 C 245.85709 622.57369 264.21099 593.33853 311.38477 535.40625 C 362.81243 472.24996 377.00219 450.06825 394.18359 405.98242 C 416.43149 348.89633 428.13393 325.42523 441.84375 310.39258 C 455.00053 295.96634 472.26973 288.39886 491.86133 288.19531 z "
       style="fill:#000000" />
  </g>
</svg>
