<?xml version="1.0" encoding="UTF-8" standalone="no"?>
<svg
   xmlns:dc="http://purl.org/dc/elements/1.1/"
   xmlns:cc="http://creativecommons.org/ns#"
   xmlns:rdf="http://www.w3.org/1999/02/22-rdf-syntax-ns#"
   xmlns:svg="http://www.w3.org/2000/svg"
   xmlns="http://www.w3.org/2000/svg"
   viewBox="0 0 1035.5399 1052.4815"
   id="svg2"
   version="1.1">
  <metadata
     id="metadata4178">
    <rdf:RDF>
      <cc:Work
         rdf:about="">
        <dc:format>image/svg+xml</dc:format>
        <dc:type
           rdf:resource="http://purl.org/dc/dcmitype/StillImage" />
        <dc:title></dc:title>
      </cc:Work>
    </rdf:RDF>
  </metadata>
  <defs
     id="defs4" />
  <g
     transform="matrix(1.839858,0,0,1.839858,-434.85409,-441.96838)"
     id="layer1">
    <g
       id="g4297">
      <path
         style="fill:#000000"
         d="m 108.7832,232.08203 c -2.06847,0 -16.900388,14.24027 -16.900388,16.22656 10e-7,0.7097 -8.714069,5.47898 -19.365234,10.59961 -16.368207,7.86919 -20.439775,10.38509 -26.304687,16.25 -5.21284,5.21282 -7.394152,8.47206 -8.769532,13.10352 -6.59524,22.20833 -0.452678,59.5173 12.013672,72.96875 l 3.175781,3.42578 -2.638671,4.24219 C 44.67285,377.45079 37.94454,392.62305 35.0625,402.56836 21.5119,449.3292 33.305318,519.8552 67.140625,594.39453 c 9.297787,20.4831 10.732727,25.98465 10.056641,38.54102 -0.707908,13.14571 -2.742907,17.96193 -13.9375,33.0039 -4.94932,6.65024 -10.320616,14.64138 -11.9375,17.75782 -3.518117,6.78098 -4.823336,15.77556 -2.666016,18.375 3.219391,3.87906 8.412109,1.27478 8.412109,-4.21875 0,-6.34083 3.875632,-14.18356 12.773438,-25.84961 13.272689,-17.40225 16.448406,-24.70517 17.039062,-39.18555 0.571248,-14.00031 -1.25057,-20.97205 -11.894531,-45.5332 C 40.988939,508.83443 31.40967,451.919 44.5625,406.53125 c 7.832966,-27.02993 21.623905,-46.58134 47.197266,-66.91211 7.661286,-6.09079 19.330764,-16.10703 25.933594,-22.25781 37.31219,-34.75756 47.22879,-38.26957 120.54102,-42.6836 35.07282,-2.1117 45.605,-3.44356 79.4375,-10.05273 38.01549,-7.42634 41.58183,-7.82347 70.13867,-7.79688 48.71649,0.0454 100.69093,8.81648 202.88672,34.23829 64.17831,15.96473 81.18787,21.48273 108.5664,35.21484 18.1928,9.12492 26.25764,14.22526 46.20899,29.21875 19.10519,14.35759 31.51866,22.65489 38.72656,25.88672 4.57715,2.05223 4.89487,2.47845 3.73437,5.02539 -3.31282,7.27093 3.54709,8.84129 9.91602,2.26953 9.92986,-10.24602 22.18626,-14.93945 39.01367,-14.93945 18.61559,0 46.06797,1.57678 45.42969,2.60937 -0.35276,0.57079 -3.4395,2.44455 -6.85938,4.16406 -10.10672,5.0819 -16.5848,10.44179 -25.43359,21.04493 -16.64272,19.94252 -22.74402,26.36384 -31.09961,32.73437 -12.1348,9.25189 -25.54094,16.93875 -42.12305,24.15039 -12.70484,5.52541 -14.45156,6.63631 -14.78711,9.40821 -0.81154,6.70299 5.6132,5.50047 28.25391,-5.28711 28.2575,-13.46376 43.99953,-25.55009 61.2207,-47.00391 12.51917,-15.59637 21.88039,-24.02467 32.4043,-29.17773 3.65036,-1.78731 15.24149,-6.17271 25.75781,-9.74415 24.63315,-8.36568 26.46984,-9.31854 25.99024,-13.47265 -0.32914,-2.85169 -0.86763,-3.21673 -4.57422,-3.10742 -2.31099,0.0681 -9.73876,1.10275 -16.50586,2.30078 -6.76731,1.19844 -12.70927,1.7441 -13.20508,1.21289 -0.49601,-0.53121 -0.36146,-1.17277 0.29883,-1.42578 0.66028,-0.25299 7.4126,-4.63631 15.00586,-9.74024 14.01961,-9.42359 16.5594,-12.53929 12.58789,-15.44336 -3.69818,-2.70411 -19.21252,1.37912 -48.60352,12.79297 -26.57379,10.31982 -34.64187,12.69032 -51.02148,14.98828 -10.63357,1.4918 -15.11141,2.78249 -22.99219,6.625 -5.3827,2.62456 -10.3969,4.77149 -11.14062,4.77149 -2.22075,0 -15.77348,-7.12656 -23.49219,-12.35352 -3.9617,-2.68277 -13.41652,-9.85005 -21.00977,-15.92773 -17.71359,-14.17813 -26.08215,-19.55203 -43.81836,-28.13672 -30.33959,-14.68493 -53.13541,-21.85522 -124.0332,-39.00977 -75.28987,-18.21723 -100.82513,-23.5087 -137.67773,-28.52929 -16.21034,-2.20843 -25.01812,-2.62235 -56.42578,-2.65625 -39.80547,-0.0429 -49.97828,0.90003 -77.43165,7.17968 -17.7338,4.0564 -36.67669,6.26995 -72.03124,8.41993 -71.1477,4.32663 -90.49478,10.63218 -120.99805,39.43164 -6.41234,6.05415 -18.41247,16.33565 -26.666018,22.84765 -8.25353,6.51203 -16.749537,13.48239 -18.880859,15.49024 l -3.875,3.65039 -1.691406,-4.11133 c -0.930195,-2.26135 -2.331951,-7.96357 -3.113281,-12.67188 -1.464239,-8.82198 -2.244332,-10.2624 -12.355469,-22.79101 -6.697477,-8.29882 -7.040507,-11.13103 -2.248047,-18.53516 7.012399,-10.83416 13.927547,-16.00205 32.9375,-24.61718 13.058801,-5.9182 18.13792,-7.70379 19.11914,-6.72266 0.98102,0.98113 0.80009,1.92757 -0.67773,3.56055 -1.106884,1.22309 -2.011722,3.08713 -2.011722,4.14257 0,2.30411 7.905872,9.0982 11.720702,10.07227 5.42893,1.38622 8.72859,-5.38721 3.88672,-7.97852 -3.2676,-1.74877 -2.97503,-3.57245 1.23437,-7.70312 3.88167,-3.80913 4.68406,-8.41883 1.66797,-9.57617 -1.04445,-0.40078 -4.28588,-0.72852 -7.20312,-0.72852 -2.91725,0 -5.30469,-0.34069 -5.30469,-0.75586 0,-0.41518 1.89214,-2.84629 4.20313,-5.40429 2.31098,-2.55797 4.20117,-5.35252 4.20117,-6.20899 0,-2.10853 -2.47142,-4.4375 -4.70899,-4.4375 z m -63.999997,84.02344 c 1.24852,-0.27905 4.988097,4.1443 7.802735,9.3418 1.690528,3.12184 3.647162,8.80662 4.347656,12.63281 0.700507,3.82619 2.16143,8.82753 3.246094,11.11328 1.584877,3.33983 1.680082,4.50834 0.484374,5.94922 -0.818546,0.98611 -1.923645,1.79297 -2.455078,1.79297 -1.816572,0 -5.842931,-6.19697 -8.308593,-12.78711 -2.38402,-6.37196 -6.308052,-26.92344 -5.332032,-27.92383 0.06008,-0.0616 0.131609,-0.10054 0.214844,-0.11914 z m 848.332027,38.87305 c 0.22294,-0.0103 0.37109,0.0156 0.43555,0.0801 0.35334,0.35331 -0.75836,1.74476 -2.4707,3.0918 -1.71253,1.34704 -3.45147,3.51502 -3.86524,4.81836 -0.64508,2.03276 -1.84088,2.36914 -8.40429,2.36914 -4.2084,0 -7.94383,-0.47312 -8.30078,-1.05078 -0.67098,-1.08563 19.26149,-9.15416 22.60546,-9.30859 z m 2.02149,74.13867 c -2.08141,-0.009 -4.23429,1.51684 -4.66992,3.72656 -0.53623,2.71941 20.39933,30.23177 30.84961,40.54102 19.45173,19.18942 36.0078,22.05294 72.6289,12.55859 l 3.47852,-0.90234 -0.62305,10.67968 c -0.74852,12.81619 -8.63044,38.41633 -11.73437,38.11328 -0.99041,-0.0967 -5.02156,-1.0408 -8.95703,-2.0996 -8.46183,-2.27666 -27.41621,-2.51222 -39.66407,-0.49219 -5.01535,0.82717 -23.89308,1.42236 -46.82031,1.47656 l -38.41602,0.0918 0,4.20117 0,4.20117 40.2168,0 c 22.11948,0 44.94518,-0.46768 50.72266,-1.04101 5.94055,-0.58949 10.46993,-0.58949 10.42383,0 -0.12346,1.59405 -14.84089,13.40947 -22.28907,17.89453 -3.64116,2.19258 -12.65754,6.50738 -20.03711,9.58789 -7.37955,3.08048 -25.57332,11.46567 -40.42968,18.63476 -34.24768,16.52653 -40.92978,18.49989 -62.42579,18.42969 -17.7078,-0.0579 -25.75185,-1.9994 -35.08984,-8.4707 -10.12254,-7.01492 -16.45869,-21.44529 -17.57617,-40.02735 -0.7207,-11.98734 -0.89387,-12.62498 -3.52539,-12.99804 -1.52206,-0.21575 -3.54794,0.25506 -4.50195,1.04687 -3.2636,2.70845 -1.69632,25.23498 2.43945,35.06055 0.68149,1.61922 0.30023,2.10156 -1.66602,2.10156 -1.40319,0 -7.81735,2.64107 -14.2539,5.87109 -14.00161,7.02626 -22.57995,9.73438 -30.83789,9.73438 -5.5794,0 -18.52297,-2.64341 -21.27735,-4.3457 -1.80238,-1.1139 2.05258,-4.55434 15.53516,-13.86524 23.08409,-15.94131 29.75454,-24.12497 31.49609,-38.64453 0.98742,-8.2312 0.68232,-9.86392 -2.03906,-10.9082 -3.9927,-1.53216 -5.99318,0.42328 -6.7207,6.5664 -1.65251,13.95323 -8.45868,22.59557 -30.09375,38.21485 -7.84616,5.66456 -16.88688,12.65349 -20.08985,15.5332 -7.74571,6.96397 -13.58998,19.03995 -16.09765,33.25977 -4.53154,25.69794 -8.29776,31.90427 -31.29102,51.55468 -23.27518,19.89135 -28.03007,27.13588 -28.07617,42.76954 -0.0332,11.43175 2.06585,18.65718 10.3418,35.61328 5.78988,11.86216 8.05724,15.04852 18.82226,26.43945 6.73188,7.12326 14.90261,16.34051 18.15821,20.48437 4.86568,6.1933 6.46735,7.47036 8.99804,7.17579 4.92491,-0.5733 4.625,-4.88899 -0.84375,-12.13086 -2.58911,-3.42878 -10.72097,-12.85619 -18.07031,-20.94922 -10.56953,-11.63908 -14.34576,-16.78178 -18.06836,-24.60938 -9.65873,-20.30962 -11.79442,-32.9062 -7.27148,-42.87695 3.81904,-8.41963 7.38203,-12.3573 24.13281,-26.66992 24.28922,-20.75362 27.65079,-26.17503 32.18555,-51.89649 2.31758,-13.14481 5.14222,-21.74285 8.60351,-26.19531 1.52704,-1.96421 2.15518,-1.91259 10.96875,0.90039 11.30645,3.60865 27.86873,4.08037 38.15234,1.08594 7.23891,-2.10783 28.5966,-12.95656 30.63086,-15.55859 1.04586,-1.33761 2.02608,-0.63402 5.00196,3.58789 2.03567,2.88806 6.48621,7.45114 9.88867,10.14062 11.65179,9.21037 21.76262,12.13281 41.98828,12.13281 23.46646,0 32.73894,-2.73696 70.61719,-20.83984 13.01797,-6.22162 27.72171,-13.06229 32.67383,-15.20117 17.90787,-7.73466 25.54899,-12.25801 42.58789,-25.20508 l 17.33593,-13.17188 8.50977,3.07032 c 12.125,4.37374 13.09914,4.01293 17.06445,-6.32617 7.66009,-19.9726 9.67049,-28.95689 9.81059,-43.82813 0.1814,-19.34927 0.2335,-19.30348 -16.95902,-15.02148 -17.29442,4.30733 -24.86367,5.0374 -34.62305,3.33789 -17.82084,-3.10337 -29.3043,-12.07302 -45.31055,-35.39063 -5.40213,-7.86991 -10.76638,-14.88922 -11.92187,-15.59961 -0.61147,-0.37591 -1.29839,-0.54973 -1.99219,-0.55273 z m -45.76172,24.375 c -3.00896,-0.0434 -6.3083,0.88389 -10.41406,2.84179 -4.50573,2.14864 -5.63244,4.31901 -3.91211,7.53321 1.50724,2.81653 2.64028,2.86162 9.17187,0.36719 6.36174,-2.42955 8.78907,-1.59801 8.78907,3.00976 0,1.94656 0.67464,3.82078 1.5,4.16602 4.196,1.75524 6.29995,0.21579 6.66992,-4.88282 0.4706,-6.4868 -1.314,-9.71557 -6.58985,-11.91992 -1.70788,-0.7136 -3.40946,-1.08921 -5.21484,-1.11523 z m -281.3125,34.51953 c -0.9733,0.0181 -1.97921,0.4675 -2.91211,1.40039 -1.6505,1.65051 -1.69321,3.44646 -0.37305,15.42969 2.92185,26.5234 -2.10294,39.84228 -20.13086,53.36132 -10.91428,8.18461 -15.15529,12.50304 -18.26562,18.59961 -3.94589,7.73484 -3.11946,11.98201 6.03906,31.03907 11.71683,24.37968 11.65854,22.89657 1.01758,26.29882 -4.82306,1.54211 -18.26528,6.49738 -29.87305,11.00977 -39.89791,15.50977 -48.93939,17.23319 -89.94336,17.15039 -45.65857,-0.0922 -68.24816,-5.06963 -119.74023,-26.38086 -40.44493,-16.73916 -54.71923,-22.19077 -57.17969,-21.83984 -3.78742,0.54025 -4.00077,5.1584 -0.34961,7.55078 4.38748,2.87481 78.12233,32.35491 96.62305,38.63086 26.77467,9.08263 33.78218,10.19573 68.52148,10.8789 47.64802,0.93704 66.60819,-1.55221 94.83789,-12.44531 7.52582,-2.90398 13.80687,-5.1347 13.96094,-4.95703 0.15306,0.17757 1.69806,3.15007 3.4336,6.60547 8.23373,16.39216 8.00693,27.97529 -0.7168,36.44141 -3.60715,3.50066 -4.55224,5.19852 -3.95117,7.09179 0.88837,2.79936 18.22414,29.39966 23.67187,36.32227 3.71361,4.71906 6.87867,5.67039 9.27149,2.78711 1.82838,-2.203 0.25826,-5.28376 -12.11524,-23.76172 -5.18203,-7.73887 -9.42187,-14.31927 -9.42187,-14.625 0,-0.30572 1.75643,-3.38193 3.90234,-6.83399 3.65977,-5.8872 3.90662,-6.95158 3.88672,-17.18554 -0.0132,-9.71386 -0.45047,-11.89979 -3.98438,-19.91602 -2.18295,-4.95213 -4.22762,-9.59185 -4.54296,-10.3125 -0.78173,-1.78586 23.11776,-9.85332 24.50976,-8.27344 0.57085,0.64806 3.42555,12.52468 6.3418,26.39063 4.61337,21.93433 5.29781,27.08328 5.25781,39.61719 -0.0424,13.58416 -0.26558,14.89592 -3.90234,23.00976 -6.80992,15.1941 -4.95992,19.73598 13.23047,32.48242 5.14842,3.60751 9.95396,7.66744 10.67968,9.02344 0.72571,1.35605 1.75904,7.92319 2.29688,14.59375 1.22831,15.23336 1.76613,16.7135 5.82226,16.01172 1.72174,-0.29789 4.02452,-0.92637 5.11719,-1.39648 1.55106,-0.6672 2.17521,0.0192 2.8457,3.13086 1.00103,4.64659 3.68362,10.30381 6.30274,13.29101 3.35903,3.83103 23.43561,2.39755 39.58594,-2.82617 3.23638,-1.0468 3.90234,-1.86705 3.90234,-4.80859 0,-2.057 -0.7616,-3.83818 -1.81445,-4.24219 -0.99822,-0.38309 -7.70732,0.76626 -14.90821,2.55273 -16.88324,4.1885 -18.03246,3.7417 -24.69531,-9.58398 -4.58437,-9.16883 -4.97832,-9.59682 -8.70312,-9.42774 -2.14591,0.0973 -3.91936,-0.17214 -3.93946,-0.5996 -0.0204,-0.42751 -0.55918,-4.79989 -1.19726,-9.7168 -1.50424,-11.59091 -4.6715,-16.31234 -16.125,-24.04102 -4.93973,-3.33332 -9.58891,-7.19716 -10.33203,-8.58594 -1.69852,-3.17355 -0.96066,-7.66289 3.1289,-19.05859 3.05591,-8.51547 3.19526,-9.85116 2.5918,-24.61133 -0.44859,-10.96673 -1.58726,-19.53296 -3.83203,-28.8125 -1.75715,-7.26312 -4.77901,-21.03918 -6.71485,-30.61328 -4.47611,-22.13715 -5.96878,-26.65195 -13.85156,-41.87109 -3.77822,-7.2946 -6.44922,-14.01174 -6.44922,-16.20703 0.006,-5.16496 3.40093,-10.26178 10.97657,-16.48242 13.85534,-11.37731 22.15274,-20.67268 25.0996,-28.11915 2.52588,-6.38229 2.84272,-9.13929 2.88672,-25.17578 0.0274,-9.90424 -0.37455,-20.00256 -0.89257,-22.4414 -0.75328,-3.54537 -2.74351,-5.58856 -4.88477,-5.54883 z m -290.78125,33.40039 c -32.35366,-0.0297 -76.80434,38.97264 -80.56055,70.6875 -0.37816,3.19308 -0.0387,10.38668 0.75586,15.98437 2.306,16.24495 2.09534,16.54128 -33.60937,47.24024 -30.40523,26.14234 -43.84904,41.42437 -51.55274,58.59961 -8.59148,19.15455 -7.75897,29.7626 4.39063,55.98828 4.84948,10.46816 6.33952,12.42732 18.14258,23.85156 14.85157,14.37494 15.04637,13.60093 -3.94336,15.60938 -13.31692,1.40847 -15.62231,0.59387 -26.22266,-9.26758 -7.14846,-6.65016 -13.160143,-9.7591 -18.916015,-9.7793 -3.926085,-0.0138 -6.361144,-4.66812 -7.236328,-13.83203 -0.96501,-10.10211 -4.111335,-16.85477 -12.994141,-27.88086 -4.503736,-5.59042 -6.247488,-6.91406 -9.103515,-6.91406 -5.293675,0 -4.994543,2.87915 1.195312,11.54492 7.749931,10.84986 11.105857,18.4852 12.080078,27.47266 0.4654,4.29184 1.621003,9.31128 2.566407,11.15625 2.025473,3.9527 8.234498,8.03987 12.224609,8.04687 4.316461,0.007 9.887015,3.08622 17.693363,9.7832 3.90486,3.34998 9.25926,7.10032 11.90039,8.33399 2.64113,1.23364 7.2338,2.23511 10.20508,2.22461 5.77227,-0.0206 33.52559,-4.99124 35.83398,-6.41797 2.82722,-1.74724 1.19783,-6.07739 -5.31836,-14.14258 -3.68498,-4.56069 -10.11713,-10.97859 -14.29492,-14.26172 -8.70673,-6.84242 -13.72019,-14.03243 -18.99805,-27.24609 -3.25701,-8.15422 -3.71758,-10.76067 -3.76758,-21.29688 -0.066,-13.87444 1.88909,-19.29899 12.44922,-34.5371 6.0702,-8.75926 29.48218,-33.11927 30.67969,-31.92188 0.35535,0.35547 -0.49652,7.35036 -1.89453,15.54492 -4.49832,26.36945 -1.98972,56.31641 4.71875,56.31641 4.52034,0 5.32902,-2.70654 3.74414,-12.53125 -2.1275,-13.18873 -0.863,-35.37425 3.04687,-53.49414 1.78096,-8.25273 3.67054,-15.78218 4.20118,-16.73047 0.53061,-0.94829 6.53527,-6.62474 13.34179,-12.61524 8.88461,-7.81961 13.32254,-12.70542 15.73438,-17.32226 3.2454,-6.21105 3.35937,-7.04816 3.35937,-24.47656 l 0,-18.04297 4.1211,-8.53125 c 9.8228,-20.32973 32.494,-39.97827 52.86132,-45.81446 5.71585,-1.63788 9.6518,-1.89112 19.50782,-1.2539 12.29108,0.79468 12.34822,0.78725 12.32812,-1.93945 -0.01,-1.50649 -0.41519,-3.35556 -0.90039,-4.10743 -1.36979,-2.123 -9.74149,-4.01934 -17.76953,-4.02734 z m -81.22266,239 c -1.12946,-0.0888 -2.12568,0.3698 -3.09179,1.33594 -2.34861,2.34856 -1.72531,4.03377 3.96093,10.69531 2.97128,3.48093 5.40235,7.30699 5.40235,8.50195 0,2.39488 0.57059,2.31426 -18.60742,2.59571 l -12.00586,0.17578 0,3.60156 c 0,3.42662 0.29286,3.63723 6.0039,4.31445 13.47758,1.59815 25.04866,1.11007 30.3125,-1.27929 4.4015,-1.9979 5.10157,-2.82659 5.10157,-6.0254 0,-4.9094 -3.84724,-12.23487 -9.8418,-18.73828 -3.09971,-3.36275 -5.35194,-5.02965 -7.23438,-5.17773 z"
         id="path3900" />
    </g>
  </g>
</svg>
