<?xml version="1.0" encoding="UTF-8" standalone="no"?>
<svg
   xmlns:dc="http://purl.org/dc/elements/1.1/"
   xmlns:cc="http://creativecommons.org/ns#"
   xmlns:rdf="http://www.w3.org/1999/02/22-rdf-syntax-ns#"
   xmlns:svg="http://www.w3.org/2000/svg"
   xmlns="http://www.w3.org/2000/svg"
   version="1.1"
   id="svg2"
   viewBox="0 0 1035.5399 1052.4815"
   >
  <defs
     id="defs4" />
  <g
     id="layer1"
     >
    <path
       id="path4477"
       d="M 433.60547 124.8125 C 420.82739 124.8125 417.82591 124.98549 412.74219 126.02148 C 406.11526 127.37197 399.777 127.60318 388.91602 126.89062 L 381.58984 126.41016 L 379.67188 128.02344 C 376.77497 130.46104 376.04102 132.36694 376.04102 137.44922 L 376.04102 141.94727 L 378.5293 144.43164 C 380.75154 146.64907 381.48856 146.99793 385.41016 147.6875 C 392.57984 148.94818 408.91129 148.66489 417.56445 147.13086 C 421.56067 146.4224 425.00867 146.05138 425.22852 146.30664 C 425.44838 146.5619 427.33485 149.40613 429.41992 152.62695 C 431.50498 155.84777 438.07447 164.54529 444.01953 171.95312 C 462.44407 194.91105 476.76119 216.07678 491.05273 241.48828 C 499.59153 256.6707 501.58884 261.34401 513.38477 293.75781 C 517.98979 306.41168 524.09012 319.88684 527.93555 325.89844 C 529.13722 327.77687 530.03339 329.4002 529.92773 329.50586 C 529.82185 329.61185 527.44558 330.36275 524.64648 331.17383 C 517.98285 333.10486 508.68246 334.87865 499.60156 335.95117 C 491.35398 336.92534 469.25237 337.77398 467.69336 337.17578 C 466.8183 336.83993 467.0073 336.42114 469.04102 334.21484 C 474.50666 328.28529 475.81846 322.98319 475.42383 308.39648 C 475.17408 299.16721 474.91656 296.98285 473.35938 290.83008 C 466.52108 263.81114 449.53354 230.81371 421.8457 190.76953 C 410.08998 173.76757 407.06552 169.9655 399.61719 162.81641 C 392.75216 156.22719 390.98712 155.26367 385.78125 155.26367 C 382.30499 155.26367 381.73693 155.44007 379.83789 157.10742 C 376.85042 159.73049 376.04102 161.64533 376.04102 166.0957 C 376.04102 170.90574 376.89524 172.61685 380.94531 175.91602 C 385.17047 179.35782 389.66789 184.46214 396.54102 193.61914 C 402.24432 201.21502 417.61523 224.13779 417.61523 225.04688 C 417.61523 225.31069 415.83614 224.38944 413.66211 222.99805 C 377.3308 199.74507 356.24493 190.98767 334.17969 189.99023 C 320.42229 189.36843 305.90024 192.34658 300.78906 196.83594 C 300.06302 197.4737 298.25331 197.97914 296.0293 198.16797 C 291.70767 198.53496 284.85782 201.60204 277.93945 206.26562 C 272.12191 210.18726 255.42498 223.22496 252.04883 226.48242 C 249.74952 228.70097 249.54883 229.13233 249.54883 231.875 C 249.54883 234.83753 249.5337 234.86157 247.24609 235.54688 C 245.9798 235.92634 243.98098 237.22314 242.80469 238.42773 C 240.96291 240.31391 240.62341 241.09535 240.35742 244.05664 C 239.92134 248.91153 240.88711 251.9184 243.69922 254.45898 C 245.90571 256.45239 246.26503 256.57227 250.05078 256.57227 C 253.23783 256.57227 256.47308 255.85848 265.7832 253.10547 C 280.13225 248.86248 288.97276 246.81028 296.79297 245.90625 C 301.85135 245.32154 303.55859 245.36036 308.08203 246.16211 C 314.53473 247.30589 319.45163 249.5254 324.45508 253.55078 C 328.19646 256.56134 328.22684 256.57227 332.41992 256.57227 C 337.19876 256.57227 339.56555 255.41563 341.91211 251.93359 C 343.00675 250.30919 343.24414 249.16592 343.24414 245.50977 L 343.24414 241.0625 L 338.97266 236.93945 C 334.05235 232.19156 327.79221 228.65328 320.66602 226.58984 C 316.41874 225.36008 314.85514 225.24219 302.68164 225.24219 C 287.50716 225.24219 287.76692 225.4554 297.3125 220.82227 C 300.55393 219.24901 303.69027 217.42666 304.2832 216.77148 C 305.09013 215.87981 306.0888 215.58008 308.25391 215.58008 C 310.06813 215.58008 313.4731 214.77527 317.38672 213.42188 C 327.70107 209.85474 336.16487 210.06568 349.32031 214.21875 C 361.64776 218.11049 374.38783 224.70011 396.13867 238.43359 L 409.09961 246.61719 L 413.74219 246.61719 C 417.76321 246.61719 418.6348 246.42499 420.25977 245.18555 C 422.49985 243.47696 424.05386 240.44129 424.06836 237.74414 C 424.0781 235.94709 424.32723 236.22313 427.05664 241.05273 C 430.66253 247.43334 440.15591 266.31489 442.80859 272.38281 C 448.38757 285.14447 452.68949 298.68809 453.89844 307.29883 C 454.35887 310.5781 454.29902 312.17668 453.62109 314.7793 C 452.14453 320.44819 450.23801 322.30308 445.05469 323.10742 C 443.07831 323.41416 441.87832 324.12421 439.72266 326.26172 L 436.94141 329.01953 L 436.94141 334.33984 C 436.94141 339.05457 437.09468 339.84141 438.29297 341.23438 L 439.64453 342.80664 L 437.39648 348.39453 C 431.09439 364.055 422.08127 394.00819 416.81055 416.81055 C 405.91514 463.94672 399.99329 512.13686 397.71289 572.21094 C 396.95769 592.10259 396.95366 635.28111 397.70508 653.02344 C 400.68642 723.41944 410.58651 792.82882 428.11133 866.20117 C 434.34292 892.29134 434.77243 893.66964 437.47266 896.19336 C 439.77688 898.34662 439.9118 898.39062 444.44336 898.39062 C 448.2714 898.39062 449.3962 898.16378 451 897.07227 C 456.77472 893.14209 456.85718 890.73569 451.89648 870.86719 C 435.22964 804.11318 424.50176 737.07357 420.26758 673.22656 C 416.10452 610.45139 418.11033 543.9337 425.87305 487.29883 C 431.56049 445.80458 441.78299 402.14326 453.63672 368.71484 C 455.46407 363.56152 457.0819 358.94176 457.23242 358.44922 C 457.46751 357.67995 458.30691 357.62375 463.18164 358.05469 C 468.96146 358.56566 494.45492 358.18599 500.03906 357.50586 L 503.11328 357.13281 L 503.11328 371.12109 C 503.11789 398.18105 505.33488 416.61072 516.80664 484.95508 C 523.34079 523.88279 525.94922 545.61303 525.94922 561.11523 C 525.94922 566.62025 526.1048 567.58058 527.26758 569.28906 C 529.73993 572.92172 531.35658 573.67383 536.68164 573.67383 C 540.75536 573.67383 541.75343 573.4713 543.38086 572.31055 C 546.58426 570.02568 547.0293 568.4885 547.0293 559.79492 C 547.02547 547.33392 545.48833 529.35317 542.88672 511.30859 C 542.25975 506.96051 538.72554 485.21959 535.0332 462.99609 C 528.24683 422.15039 526.02388 407.15761 524.69531 393.30859 C 523.85725 384.57106 523.67128 363.55053 524.38086 357.78711 L 524.85938 353.88672 L 529.06445 352.86133 C 531.37697 352.29731 536.1833 350.85959 539.74414 349.66602 C 546.12789 347.52637 546.23743 347.51215 547.56836 348.58984 C 549.29842 349.99079 557.32258 350.14313 559.87305 348.82422 C 561.87422 347.78936 564.59961 344.67103 564.59961 343.41406 C 564.59961 342.86814 565.47568 343.48457 566.79492 344.96094 L 568.99023 347.41992 L 578.94727 349.40234 C 601.18258 353.83101 620.70398 360.4393 639.79883 370.00195 C 649.41364 374.81706 654.57497 377.84478 665.61523 385.14258 C 710.60333 414.88013 741.89165 455.59334 761.99023 510.54883 C 773.70736 542.58688 782.89388 586.14717 786.86328 628.48633 C 788.13475 642.04818 788.60547 670.9056 787.75977 683.47461 C 785.23684 720.97428 777.15678 754.17343 763.73633 782.17969 C 746.55206 818.04045 719.23337 850.14156 677.03516 884.05859 C 664.71252 893.96294 664.60596 894.07774 664.27539 898.06445 C 664.1295 899.82363 664.18084 901.94136 664.38867 902.76953 C 664.93561 904.94863 668.67231 908.84563 670.80859 909.46484 L 670.8125 909.46484 C 673.02172 910.10518 676.82614 910.23328 679.25195 909.74805 C 681.08126 909.38219 693.45147 899.75591 704.41406 890.16797 C 707.71379 887.2821 710.81229 884.92188 711.30078 884.92188 C 711.78916 884.92187 716.73109 883.22827 722.2832 881.1582 C 781.45358 859.09723 835.95143 824.24292 877.60742 781.82227 C 882.92698 776.40504 885.84335 773.95303 889.61133 771.72852 C 902.48832 764.12612 915.61173 754.29066 926.79688 743.85938 C 964.9859 708.24432 989.0469 661.79232 1001.2988 600.02539 L 1002.9258 591.82812 L 1003.1016 525.94727 C 1003.2982 452.53918 1003.5541 458.3002 999.05859 435.47266 C 992.83658 403.87826 983.17388 374.38535 970.46875 348.21875 C 962.0709 330.92287 953.97497 317.34773 944.45312 304.5918 C 939.03433 297.33244 922.48796 280.79289 915.23242 275.38477 C 893.15763 258.93065 866.5642 248.23265 834.9707 243.09766 C 820.12367 240.68443 812.31905 240.10126 790.51953 239.77148 L 769.01758 239.44531 L 770.88672 238.18555 C 774.34055 235.85808 775.41992 233.53505 775.41992 228.42188 C 775.41992 224.32816 775.2611 223.67784 773.83789 221.98633 C 771.91911 219.70596 769.77291 218.75777 765.2832 218.20117 L 761.88281 217.7793 L 763.01367 216.5332 C 765.01922 214.32735 765.46484 212.81786 765.46484 208.2207 L 765.46484 203.71289 L 762.97656 201.23633 C 760.6682 198.93922 760.09482 198.68803 755.08594 197.77344 C 747.28403 196.34865 734.14587 195.226 720.37305 194.80664 C 702.21326 194.25363 687.84778 193.34236 682.30859 192.39258 C 676.05241 191.31983 672.21702 190.07701 659.76367 185.08398 C 643.79714 178.68235 634.67082 176.49785 618.50781 175.21289 C 602.94165 173.97548 564.62565 174.6841 540.59375 176.65234 C 527.84399 177.69653 500.38798 180.71641 492.86719 181.90234 C 487.90765 182.68442 487.46693 182.87297 485.38281 185.09961 L 483.16797 187.4668 L 479.2832 181.4668 C 474.63344 174.28321 470.52993 168.82238 461.70508 158.08594 C 458.06986 153.66322 453.24355 147.48972 450.98047 144.36523 L 446.86523 138.68359 L 448.05273 137.41992 C 449.04404 136.36472 449.24023 135.37154 449.24023 131.41016 C 449.24023 128.8001 449.08026 126.24775 448.88477 125.73828 C 448.57351 124.92715 446.67452 124.8125 433.60547 124.8125 z M 596.57227 195.77344 C 619.23155 195.78188 628.63276 197.64484 650.68164 205.02148 C 659.21685 207.87689 668.44011 210.75564 671.17773 211.41992 C 677.28768 212.90248 685.92647 214.40947 688.38477 214.42188 C 689.38918 214.42683 690.60479 214.6858 691.08789 214.99805 C 691.73183 215.41415 691.30818 215.56302 689.5 215.57422 C 685.43303 215.58894 669.17144 217.81638 659.24023 219.71875 C 627.57243 225.78487 603.19609 235.70822 584.71484 250.05664 C 577.33387 255.78713 567.1373 266.47921 562.90039 272.93164 L 559.32812 278.37109 L 559.32812 283.00781 L 559.32812 287.64258 L 561.9043 290.21875 C 564.72397 293.03842 567.70055 293.91405 572.3457 293.29102 C 575.74018 292.83568 577.25933 291.50359 581.54492 285.22852 C 594.6086 266.10052 618.57379 252.27291 654.48828 243.14062 C 674.47906 238.05745 689.37801 236.10377 711.29297 235.69531 C 728.94887 235.36609 738.04608 235.95774 755.19922 238.54688 L 763.99609 239.875 L 757.55469 240.30078 C 712.43195 243.29129 669.14765 256.44557 626.08789 280.25391 C 609.43336 289.46239 602.42899 291.69583 590.24023 291.70703 L 582.79297 291.70703 L 580.63672 293.60156 C 577.81222 296.08144 576.89648 298.4271 576.89648 303.18555 C 576.89648 306.99692 576.95492 307.14632 579.39062 309.58203 C 581.85094 312.04224 581.95572 312.08081 587.15039 312.51367 C 594.91206 313.16041 604.40861 312.47696 610.99805 310.79883 C 618.68442 308.84115 624.82516 306.13638 646.875 294.99023 C 668.9671 283.82273 676.4266 280.56915 691.38086 275.58398 C 723.33831 264.9306 755.92425 260.1528 791.98633 260.83203 C 819.0111 261.34109 839.9921 264.64936 862.08398 271.88477 C 888.83585 280.64646 909.92365 296.00913 927.57617 319.5957 C 957.61676 359.73441 977.69251 417.93708 984.43359 484.42773 C 990.03942 539.72144 985.43168 588.91727 970.44922 633.69922 C 962.76094 656.67928 954.57356 673.88399 943.07617 691.22461 L 943.07617 691.22852 C 940.35699 695.32966 937.88224 698.84013 937.57617 699.0293 C 937.27022 699.21836 937.71154 697.83956 938.55859 695.96484 C 955.47096 658.53778 961.74414 629.34542 961.74414 588.02539 C 961.74583 563.4434 959.96239 544.62991 955.5 522.16992 C 942.22905 455.37421 916.71751 406.02769 873.73047 364.00977 C 843.34966 334.31381 811.85559 315.80442 777.17188 307.25977 C 760.6538 303.19033 750.54193 302.03906 731.49609 302.03906 C 711.51733 302.04356 701.54191 303.2352 666.49414 309.80273 C 637.03185 315.3237 626.40175 316.75043 610.66406 317.29883 C 601.38005 317.62231 600.01984 317.79952 598.42578 318.88867 C 595.90105 320.61368 594.46484 323.62288 594.46484 327.18359 L 594.46484 330.17188 L 587.58398 328.81836 C 579.69024 327.26488 572.90952 327.03981 570.57227 328.25586 C 568.28156 329.44764 566.4983 331.54691 565.5293 334.19336 C 565.06284 335.46788 564.66313 336.07318 564.64062 335.53906 C 564.61793 335.00505 561.76363 331.71068 558.29688 328.21875 C 545.96694 315.79867 539.5729 303.71602 527.82812 270.63086 C 517.76956 242.29539 513.46155 233.44824 498.69141 210.81055 L 493.85742 203.40234 L 496.28711 203.04883 C 503.04302 202.06646 524.57132 199.662 535.80469 198.63477 C 557.52329 196.64889 565.42606 196.21294 585.97266 195.87305 C 589.82632 195.80929 593.33523 195.77223 596.57227 195.77344 z M 599.66797 206.48633 C 598.30109 206.4617 596.71629 206.93591 594.88281 207.90039 C 590.43323 210.24101 579.75588 217.32982 572.80664 222.55664 C 559.55839 232.52102 553.29219 238.99013 549.98438 246.11719 C 546.91989 252.72024 547.12878 257.55626 550.55664 259.36523 C 553.7814 261.06696 559.12458 258.9839 560.13281 255.63281 C 561.77463 250.17579 562.65733 248.57342 565.98438 245.01562 C 570.28053 240.42173 586.00488 228.50066 594.76758 223.19336 C 605.07961 216.94786 606.61996 215.04899 604.82617 210.80859 C 603.61864 207.95412 601.9461 206.52738 599.66797 206.48633 z M 237.66211 257.57031 C 232.57617 257.54462 227.60894 257.61455 222.79102 257.78516 C 194.70091 258.77979 173.56613 264.14137 149.11523 276.47266 C 126.97851 287.63678 109.70448 300.3666 91.386719 319.01758 C 81.083664 329.50809 74.999409 336.92171 67.78125 347.77539 C 50.876371 373.19453 41.658203 401.8182 41.658203 428.89062 L 41.658203 436.39648 L 43.882812 438.78125 C 45.821662 440.85987 46.526966 441.21288 49.384766 441.53906 L 52.664062 441.91406 L 50.304688 447.76953 C 44.121817 463.11213 38.541385 482.49787 34.484375 502.72852 L 32.587891 512.18555 L 32.421875 582.45898 C 32.237055 661.21664 32.065748 657.23642 36.673828 680.25391 C 42.047718 707.0966 49.727818 725.46987 64.949219 747.89062 C 76.926685 765.53327 83.798867 773.31966 126.80664 817.98438 C 133.86127 825.31082 143.64213 835.92468 148.54297 841.57031 C 162.47855 857.62395 171.12203 865.50271 184.25195 874.12109 C 197.20038 882.62044 207.61419 887.38237 227.15625 893.74219 C 234.15669 896.02031 249.76574 901.13868 261.84375 905.11719 C 290.60737 914.59195 297.59307 916.41694 310.03906 917.70898 C 312.67965 917.98242 316.79788 918.13397 319.18945 918.04297 C 323.42776 917.88179 323.59304 917.81689 325.73047 915.52539 C 328.21627 912.8605 329.0139 909.61745 328.32031 904.99219 C 327.99377 902.81466 327.38661 901.7082 325.47266 899.81055 L 323.03906 897.39844 L 316.30469 896.71484 C 303.77473 895.44371 298.07789 893.93279 270.04297 884.43555 C 260.54161 881.21675 244.99356 876.05522 235.49219 872.9668 C 211.90655 865.30045 203.1438 860.94355 189.53906 850.11719 C 182.08972 844.18921 173.11519 835.23685 158.38672 819.04102 C 151.94296 811.95521 140.23792 799.56853 132.375 791.51562 C 107.33501 765.87033 100.45854 758.3516 91.253906 746.55859 C 72.969329 723.13275 61.545934 696.59055 56.037109 664.73438 C 45.340884 602.88067 46.543544 542.72421 59.515625 490.8125 C 71.651957 442.24526 100.63908 396.93944 139.45312 365.875 C 165.35236 345.14687 185.77733 335.96816 222.31641 328.63867 C 239.66682 325.15831 292.55224 316.94793 312.79102 314.5918 C 324.96118 313.175 343.97956 311.59233 347.82617 311.67773 L 350.5625 311.74023 L 348.2207 312.30859 C 315.37125 320.29023 285.08345 336.08058 254.23047 361.31055 C 246.49176 367.6389 230.56513 383.204 223.62695 391.2207 C 186.49142 434.1294 159.73806 496.78231 150.3418 562.8418 C 144.32401 605.14926 144.84415 654.09784 151.77148 697.5293 C 159.70004 747.23808 176.7576 797.19537 200.05859 838.95117 C 209.17434 855.28671 209.69939 855.80728 216.79883 855.52539 C 220.60574 855.37432 221.54144 855.1145 223.38672 853.70703 C 226.34311 851.45206 227.29297 849.3417 227.29297 845.02734 C 227.29297 841.51529 227.10255 841.04983 222.08789 832.26172 C 201.84807 796.79177 187.01484 758.21599 177.83398 717.18359 C 166.60317 666.98935 164.44728 617.42254 171.4043 569.2832 C 180.27913 507.87347 202.84199 452.84785 236.2207 411.20703 C 266.28195 373.70489 309.9302 344.59291 351.73242 334.16602 C 364.97579 330.86258 378.70779 329.65346 392.72461 330.55469 C 400.14917 331.03205 400.38976 331.0096 402.38867 329.66406 C 405.17534 327.78844 406.48633 324.96084 406.48633 320.82227 C 406.48745 316.59603 405.49577 314.1694 402.80469 311.80664 C 400.11314 309.44343 396.89648 309.04561 380.65625 309.07031 L 368.58594 309.08789 L 369.96875 307.05078 C 371.08684 305.40322 371.35156 304.25007 371.35156 301.02734 L 371.35156 297.04297 L 374.13281 294.41406 L 376.91406 291.78711 L 377.08984 286.91602 C 377.23598 282.85906 377.06828 281.73259 376.0918 280.17383 C 373.91976 276.70652 371.54083 275.83473 351.69727 271.23633 C 314.69815 262.66227 273.26371 257.75014 237.66211 257.57031 z M 238.01758 278.63672 C 263.72404 278.8319 295.39816 282.11374 325.375 287.98633 C 337.30631 290.3238 339.42572 291.07592 334.16602 291.10742 C 329.0296 291.13833 311.92154 292.68737 298.15039 294.36719 C 268.52037 297.98163 222.59497 306.16311 198.23242 312.16797 C 167.83387 319.66055 147.44739 329.92594 125.10547 348.99414 C 111.90612 360.25943 87.469598 386.376 76.449219 400.99609 C 73.747696 404.57996 69.670875 410.51094 67.388672 414.17383 C 63.676271 420.13216 63.27847 420.58593 63.617188 418.49023 C 70.670119 374.85453 95.971414 337.71616 137.98828 309.32617 C 162.39692 292.83384 184.30298 283.68084 207.38281 280.33008 C 215.88117 279.09628 226.33282 278.548 238.01758 278.63672 z M 732.89258 323.4082 C 738.39099 323.38727 742.37048 323.60859 746.92773 324.13867 C 775.88422 327.50673 802.36836 337.52682 828.41211 354.9668 C 882.22798 391.00415 920.93104 455.03132 935.24023 531.69531 C 947.21533 595.85445 938.58877 653.12088 909.30273 703.86914 C 885.38525 745.31461 847.06726 784.57228 799.23242 816.64258 C 784.71866 826.37305 761.80304 839.65729 752.21094 843.90039 C 750.71973 844.56007 749.38497 845.09961 749.24414 845.09961 C 749.1033 845.09961 750.54773 843.19058 752.45312 840.85547 C 769.81342 819.57961 785.64107 791.37639 794.4375 766.04492 C 799.27924 752.10204 803.87892 732.95525 806.11523 717.43945 C 809.98561 690.58619 810.44917 651.66622 807.2832 619.35156 C 798.50734 529.77462 775.65623 466.78764 733.38867 415.66992 C 727.41674 408.44755 711.62423 392.43403 703.67969 385.54492 C 682.57333 367.24227 658.21868 352.39035 632.40625 342.08203 L 622.62305 338.17578 L 630.52734 337.44336 C 641.46869 336.4312 653.3603 334.58608 677.61914 330.13672 C 708.25746 324.51729 713.11518 323.864 726.81055 323.50781 C 729.05829 323.44936 731.05978 323.41518 732.89258 323.4082 z M 381.30664 332.42383 C 372.51783 332.44091 372.07225 332.50218 367.28516 334.32812 C 356.70419 338.36406 346.66336 345.62971 333.55664 358.73633 C 319.55568 372.73721 309.65296 385.6238 304.36133 396.72656 C 297.86829 410.35011 286.93413 438.58808 281.81836 454.94531 C 270.02382 492.6573 263.87605 525.84117 260.03711 572.50391 C 259.04029 584.62018 258.67815 629.31377 259.45117 644.86914 C 261.46135 685.31931 266.7305 726.95438 276.23047 777.46289 C 282.30906 809.78103 286.71629 824.88883 295.23828 842.61914 C 302.88326 858.52475 310.21003 869.04461 321.23438 879.94336 C 333.88857 892.45348 346.01343 899.75153 361.99023 904.47266 C 365.5935 905.53743 368.39124 905.9482 372.17383 905.9707 C 376.88826 905.9988 377.57667 905.85864 379.34766 904.50781 C 382.25411 902.29095 383.0625 900.26564 383.0625 895.19922 C 383.0625 890.94589 382.98449 890.69211 380.95117 888.44141 C 379.54012 886.87961 378.03221 885.9014 376.41211 885.49609 C 353.72659 879.82124 337.42407 868.42744 324.70898 849.36328 C 312.82983 831.5526 305.21494 811.01516 298.7207 779.26172 C 289.64076 734.8653 284.40986 697.24064 281.04883 652.14453 C 279.87446 636.38774 280.06302 587.71965 281.35547 572.79688 C 285.1425 529.0716 292.7389 492.11518 305.97266 453.04102 C 314.62022 427.50812 323.25827 407.99476 331.11719 396.23828 C 344.24055 376.60639 368.18488 355.89213 379.89453 354.04102 C 382.55872 353.61985 385.93674 354.96843 388.03906 357.29297 C 389.96213 359.41935 392.16709 360.22266 396.07422 360.22266 C 400.34434 360.22266 403.16667 358.72212 405.25586 355.3418 C 406.75476 352.91644 406.96903 346.45913 405.63672 343.88281 C 404.25058 341.20219 398.27383 336.15419 394.18945 334.21484 C 390.43795 332.43641 390.25256 332.40693 381.30664 332.42383 z M 576.72852 356.70898 L 573.82422 359.61523 L 570.91797 362.51953 L 571.17969 367.37305 L 571.44141 372.22852 L 577.97656 383.84375 C 606.90179 435.24752 631.74262 490.83759 648.01758 540.58594 C 666.48905 597.04838 675.52878 648.49773 675.48828 696.94336 C 675.44467 749.51576 664.8795 796.18388 642.50977 842.61328 C 637.13256 853.77415 637.07908 853.927 637.31445 857.62305 C 637.58724 861.90662 639.30259 864.74728 642.58984 866.36719 C 643.78297 866.95515 646.0283 867.32864 648.40039 867.33984 C 654.65703 867.36142 655.21538 866.77587 662.16406 852.90234 C 676.93016 823.42005 687.38459 789.72976 692.48047 755.21094 C 695.66319 733.65162 696.04739 727.39336 696.05859 697.23633 C 696.0668 668.52477 695.75291 662.08879 693.39453 642.48242 C 686.07212 581.6085 667.13416 517.9459 635.47266 447.76953 C 621.68759 417.21528 593.73343 363.73267 589.04883 358.95117 L 586.85156 356.70898 L 581.79102 356.70898 L 576.72852 356.70898 z M 550.37109 658.3457 C 546.59818 658.34617 544.35867 659.3327 542.0918 661.8418 C 540.10089 664.04529 540.00977 664.35075 540.00977 668.39648 C 540.01258 670.76047 540.78031 676.42115 541.74414 681.17578 C 547.79598 711.03102 549.8377 741.96384 550.91797 820.21289 C 551.30047 847.91746 550.74565 867.11924 549.06055 884.62891 C 548.59566 889.46009 548.20898 894.78807 548.20898 896.4707 C 548.20269 899.25676 548.049 899.61 546.49023 900.41602 C 543.26098 902.08606 527.4115 907.07062 521.44531 908.29297 C 507.90494 911.06689 503.93458 910.91026 485.85156 906.88477 C 471.9007 903.77916 468.73424 903.28507 459.45703 902.76758 C 453.56289 902.43881 452.02012 902.53497 450.08594 903.35156 C 437.46701 908.67887 422.46011 909.04407 402.39062 904.51367 C 394.32276 902.69246 388.30514 902.59774 385.97656 904.25586 C 382.99286 906.38045 381.89258 908.88945 381.89258 913.56641 C 381.89258 922.10915 382.90277 922.75549 402.97266 927.01758 L 402.97266 927.01953 C 404.43908 927.33088 415.21811 927.52614 427.27539 927.46094 L 448.94336 927.34375 L 453.62891 925.69141 C 457.83394 924.20863 458.8107 924.07698 463.17773 924.39844 C 465.8537 924.59548 471.3888 925.41032 475.47656 926.21094 C 482.72007 927.62958 483.57794 927.66992 509.28516 927.66992 L 535.66211 927.66992 L 540.71875 926.20508 C 547.36283 924.27877 559.85066 919.2364 567.50195 915.39062 L 573.625 912.3125 L 577.16406 913.54102 C 582.65738 915.44732 588.70536 916.14329 596.51367 915.76562 C 607.12929 915.25207 614.38701 913.11611 623.25391 907.89648 C 628.67608 904.70466 636.852 897.86122 638.08008 895.48633 C 639.21733 893.28688 639.24071 887.14357 638.12109 884.97852 C 637.65452 884.07606 636.32874 882.50822 635.17383 881.49414 C 633.17895 879.74265 632.8297 879.65039 628.20703 879.65039 L 623.3418 879.65039 L 620.01953 882.55664 C 615.38146 886.61529 612.04786 888.81814 607.05078 891.12695 C 598.20175 895.21539 591.9199 895.69857 585.07227 892.81641 C 582.16617 891.59327 580.68062 891.36328 575.72266 891.36328 L 569.83008 891.36328 L 570.15625 888.58008 C 572.55003 868.17263 572.65956 814.24633 570.43359 751.99023 C 569.16055 716.3863 565.99194 687.52351 561.15234 667.44336 C 560.25707 663.72899 559.63316 662.42416 557.94727 660.73828 C 556.06289 658.85389 555.47738 658.62033 552.08594 658.4043 C 551.47976 658.3657 550.91008 658.34564 550.37109 658.3457 z "
       style="fill:#000000" />
  </g>
</svg>
