<?xml version="1.0" encoding="UTF-8" standalone="no"?>
<svg
   xmlns:dc="http://purl.org/dc/elements/1.1/"
   xmlns:cc="http://creativecommons.org/ns#"
   xmlns:rdf="http://www.w3.org/1999/02/22-rdf-syntax-ns#"
   xmlns:svg="http://www.w3.org/2000/svg"
   xmlns="http://www.w3.org/2000/svg"
   version="1.1"
   id="svg2"
   viewBox="0 0 1035.5399 1052.4815"
   >
  <defs
     id="defs4" />
  <g
     id="layer1"
     >
    <path
       id="path4054"
       d="M 534.82031 80.443359 C 487.98647 80.479037 441.20049 86.211883 398.19531 97.539062 C 337.57749 113.50521 284.32699 138.20111 233.16992 174.07422 C 171.53955 217.29167 119.14274 276.72111 86.072266 340.91211 C 62.672258 386.33298 49.38177 426.79735 41.8125 475.66992 C 38.8109 495.0508 37.730885 537.59876 39.703125 558.76367 C 47.657535 644.13283 87.33769 724.38116 157.38086 796.75391 C 249.89865 892.34856 374.04253 953.55096 507.70312 969.46289 C 534.22951 972.6209 593.34756 972.9366 620.89844 970.06641 C 687.07346 963.17211 755.11676 939.63233 806.77734 905.76172 C 900.8249 844.10051 966.23278 738.51922 989.47461 610.85156 C 994.95063 580.77193 996.83398 557.20125 996.83398 518.78906 C 996.83398 462.3949 991.30295 424.00415 976.6582 378.77148 C 956.38457 316.15285 922.78814 262.00319 874.12695 213.51172 C 811.98466 151.58625 730.11279 108.20858 642.42969 90.75 C 607.70237 83.835461 571.24663 80.41561 534.82031 80.443359 z M 538.65234 104.31641 C 573.79128 104.39334 609.0917 108.02591 643.87109 115.36914 C 803.61583 149.09724 927.20954 271.75167 962.79492 431.86719 C 974.69757 485.42314 976.19401 546.36076 966.95117 601.23633 C 951.39076 693.62253 908.01993 777.03837 842.94727 839.73828 C 783.03539 897.46526 709.44851 932.99461 625.01367 944.95898 C 603.72504 947.97562 538.63812 948.72175 516.33008 946.20508 C 476.35513 941.69493 438.74956 933.37902 402.17773 920.96289 C 224.23623 860.55165 88.34657 717.78626 65.507812 567.25781 C 62.364632 546.54299 62.375676 506.07927 65.53125 484.29688 C 80.554298 380.59356 139.24983 279.23099 223.26367 211.90234 C 310.8027 141.74849 423.86515 104.06508 538.65234 104.31641 z M 495.1543 159.74023 C 492.44033 159.72987 489.78599 160.34417 488.07422 161.64258 C 482.54244 165.83851 482.57365 176.65411 488.13086 181.02539 C 489.97368 182.47493 493.49601 183.65039 495.99609 183.65039 C 506.1672 183.65039 511.22152 170.50173 504.0332 162.74414 C 502.23007 160.79821 498.64368 159.75356 495.1543 159.74023 z M 500.93164 278.33398 C 496.53297 278.39052 492.56811 280.19274 491.73242 283.70312 C 491.36341 285.25333 490.83918 320.567 490.56641 362.17969 C 490.29364 403.79239 489.39822 463.82303 488.57812 495.58008 C 485.84665 601.35329 483.9981 627.2708 477.13477 655.96484 C 472.72993 674.38066 472.83177 677.65722 477.93945 681.95508 C 486.235 688.93519 495.93869 685.09024 499.0332 673.59766 C 499.84223 670.59356 501.03349 668.13672 501.67969 668.13672 C 503.26035 668.13672 522.61582 652.5128 578.05273 606.48828 C 680.14608 521.72873 719.9832 493.95144 783.85547 462.99219 C 807.66718 451.45043 809.67773 449.76142 809.67773 441.27539 C 809.67773 439.21805 808.38594 435.89398 806.80859 433.88867 C 802.31571 428.17687 796.39446 429.65494 767.78125 443.64062 C 704.74388 474.45231 659.3516 506.49483 549.75977 597.54102 C 527.62872 615.92695 508.92367 630.9707 508.19141 630.9707 C 507.45894 630.9707 507.1705 629.92603 507.55078 628.64844 C 508.88146 624.17869 511.02718 583.45444 512.35742 537.39062 C 513.09543 511.83898 514.35921 470.02822 515.16602 444.47656 C 515.97258 418.92491 516.34927 373.03552 516.00195 342.5 C 515.40154 289.74838 515.2384 286.80307 512.73633 283.43164 C 510.1639 279.96505 505.33031 278.27745 500.93164 278.33398 z M 895.95508 435.84766 C 889.89945 435.84766 884.00977 442.06695 884.00977 448.45898 C 884.00977 452.04966 885.01626 454.31496 887.88867 457.1875 C 890.53675 459.83558 893.09794 461.06836 895.95508 461.06836 C 902.01071 461.06836 907.90039 454.85101 907.90039 448.45898 C 907.90039 442.06695 902.01071 435.84766 895.95508 435.84766 z M 141.55078 514.5 C 136.01509 514.72339 131.72484 518.35931 130.66406 524.01367 C 129.65881 529.37229 132.8539 536.32604 137.10742 538.03906 C 146.21443 541.7066 153.8447 536.51072 153.91992 526.58789 C 153.97545 519.36556 150.78804 515.52374 143.99219 514.61719 C 143.15626 514.50568 142.34159 514.46809 141.55078 514.5 z M 522.43945 857.94922 C 514.04037 857.94922 510.25336 862.85813 510.875 872.94141 C 510.95575 874.25218 512.48737 876.79205 514.2793 878.58398 C 516.64509 880.94974 518.98134 881.8418 522.81055 881.8418 C 529.44623 881.8418 533.58594 877.25124 533.58594 869.89453 C 533.58594 862.36102 529.46937 857.94922 522.43945 857.94922 z "
       style="fill:#000000" />
  </g>
</svg>
